M48
; DRILL file {KiCad (6.0.0)} date Wed Nov  9 00:17:14 2022
; FORMAT={-:-/ absolute / metric / decimal}
; #@! TF.CreationDate,2022-11-09T00:17:14-05:00
; #@! TF.GenerationSoftware,Kicad,Pcbnew,(6.0.0)
; #@! TF.FileFunction,Plated,1,2,PTH
FMAT,2
METRIC
; #@! TA.AperFunction,Plated,PTH,ViaDrill
T1C0.400
; #@! TA.AperFunction,Plated,PTH,ComponentDrill
T2C0.800
; #@! TA.AperFunction,Plated,PTH,ComponentDrill
T3C1.100
; #@! TA.AperFunction,Plated,PTH,ComponentDrill
T4C1.170
; #@! TA.AperFunction,Plated,PTH,ComponentDrill
T5C1.200
; #@! TA.AperFunction,Plated,PTH,ComponentDrill
T6C1.600
; #@! TA.AperFunction,Plated,PTH,ComponentDrill
T7C1.650
; #@! TA.AperFunction,Plated,PTH,ComponentDrill
T8C1.700
; #@! TA.AperFunction,Plated,PTH,ComponentDrill
T9C4.900
%
G90
G05
T1
X154.956Y-108.329
X155.083Y-126.744
X155.083Y-137.031
X327.168Y-104.646
X329.073Y-86.612
X330.47Y-104.519
X331.359Y-86.612
X397.399Y-95.883
T2
X60.296Y-116.285
X60.296Y-120.005
X72.906Y-116.285
X72.906Y-120.005
X77.106Y-120.005
X84.696Y-109.975
X84.696Y-114.475
X92.346Y-120.005
X99.936Y-109.975
X99.936Y-114.475
X105.086Y-107.455
X105.086Y-117.455
X384.136Y-73.125
X384.136Y-85.825
X390.126Y-73.125
X390.126Y-85.825
X390.156Y-93.255
X392.696Y-90.715
X395.236Y-93.255
T3
X57.166Y-76.205
X57.166Y-83.055
X57.266Y-72.015
X58.876Y-87.785
X58.876Y-92.535
X69.866Y-76.205
X69.866Y-83.055
X69.966Y-72.015
X69.966Y-87.785
X69.966Y-92.535
T4
X163.406Y-71.205
X163.406Y-77.555
X163.406Y-90.317
X163.406Y-96.667
X163.406Y-109.43
X163.406Y-115.78
X163.406Y-128.542
X163.406Y-134.892
X163.406Y-147.655
X163.406Y-154.005
X166.586Y-71.205
X166.586Y-77.555
X166.586Y-90.317
X166.586Y-96.667
X166.586Y-109.43
X166.586Y-115.78
X166.586Y-128.542
X166.586Y-134.892
X166.586Y-147.655
X166.586Y-154.005
X169.766Y-71.205
X169.766Y-77.555
X169.766Y-90.317
X169.766Y-96.667
X169.766Y-109.43
X169.766Y-115.78
X169.766Y-128.542
X169.766Y-134.892
X169.766Y-147.655
X169.766Y-154.005
X172.946Y-71.205
X172.946Y-77.555
X172.946Y-90.317
X172.946Y-96.667
X172.946Y-109.43
X172.946Y-115.78
X172.946Y-128.542
X172.946Y-134.892
X172.946Y-147.655
X172.946Y-154.005
X176.126Y-71.205
X176.126Y-77.555
X176.126Y-90.317
X176.126Y-96.667
X176.126Y-109.43
X176.126Y-115.78
X176.126Y-128.542
X176.126Y-134.892
X176.126Y-147.655
X176.126Y-154.005
X179.306Y-71.205
X179.306Y-77.555
X179.306Y-90.317
X179.306Y-96.667
X179.306Y-109.43
X179.306Y-115.78
X179.306Y-128.542
X179.306Y-134.892
X179.306Y-147.655
X179.306Y-154.005
X182.486Y-71.205
X182.486Y-77.555
X182.486Y-90.317
X182.486Y-96.667
X182.486Y-109.43
X182.486Y-115.78
X182.486Y-128.542
X182.486Y-134.892
X182.486Y-147.655
X182.486Y-154.005
X185.666Y-71.205
X185.666Y-77.555
X185.666Y-90.317
X185.666Y-96.667
X185.666Y-109.43
X185.666Y-115.78
X185.666Y-128.542
X185.666Y-134.892
X185.666Y-147.655
X185.666Y-154.005
X188.846Y-71.205
X188.846Y-77.555
X188.846Y-90.317
X188.846Y-96.667
X188.846Y-109.43
X188.846Y-115.78
X188.846Y-128.542
X188.846Y-134.892
X188.846Y-147.655
X188.846Y-154.005
X192.026Y-71.205
X192.026Y-77.555
X192.026Y-90.317
X192.026Y-96.667
X192.026Y-109.43
X192.026Y-115.78
X192.026Y-128.542
X192.026Y-134.892
X192.026Y-147.655
X192.026Y-154.005
X195.206Y-71.205
X195.206Y-77.555
X195.206Y-90.317
X195.206Y-96.667
X195.206Y-109.43
X195.206Y-115.78
X195.206Y-128.542
X195.206Y-134.892
X195.206Y-147.655
X195.206Y-154.005
X198.386Y-71.205
X198.386Y-77.555
X198.386Y-90.317
X198.386Y-96.667
X198.386Y-109.43
X198.386Y-115.78
X198.386Y-128.542
X198.386Y-134.892
X198.386Y-147.655
X198.386Y-154.005
X201.566Y-71.205
X201.566Y-77.555
X201.566Y-90.317
X201.566Y-96.667
X201.566Y-109.43
X201.566Y-115.78
X201.566Y-128.542
X201.566Y-134.892
X201.566Y-147.655
X201.566Y-154.005
X204.746Y-71.205
X204.746Y-77.555
X204.746Y-90.317
X204.746Y-96.667
X204.746Y-109.43
X204.746Y-115.78
X204.746Y-128.542
X204.746Y-134.892
X204.746Y-147.655
X204.746Y-154.005
X207.926Y-71.205
X207.926Y-77.555
X207.926Y-90.317
X207.926Y-96.667
X207.926Y-109.43
X207.926Y-115.78
X207.926Y-128.542
X207.926Y-134.892
X207.926Y-147.655
X207.926Y-154.005
X211.106Y-71.205
X211.106Y-77.555
X211.106Y-90.317
X211.106Y-96.667
X211.106Y-109.43
X211.106Y-115.78
X211.106Y-128.542
X211.106Y-134.892
X211.106Y-147.655
X211.106Y-154.005
X214.286Y-71.205
X214.286Y-77.555
X214.286Y-90.317
X214.286Y-96.667
X214.286Y-109.43
X214.286Y-115.78
X214.286Y-128.542
X214.286Y-134.892
X214.286Y-147.655
X214.286Y-154.005
X217.466Y-71.205
X217.466Y-77.555
X217.466Y-90.317
X217.466Y-96.667
X217.466Y-109.43
X217.466Y-115.78
X217.466Y-128.542
X217.466Y-134.892
X217.466Y-147.655
X217.466Y-154.005
X220.646Y-71.205
X220.646Y-77.555
X220.646Y-90.317
X220.646Y-96.667
X220.646Y-109.43
X220.646Y-115.78
X220.646Y-128.542
X220.646Y-134.892
X220.646Y-147.655
X220.646Y-154.005
X223.826Y-71.205
X223.826Y-77.555
X223.826Y-90.317
X223.826Y-96.667
X223.826Y-109.43
X223.826Y-115.78
X223.826Y-128.542
X223.826Y-134.892
X223.826Y-147.655
X223.826Y-154.005
X227.006Y-71.205
X227.006Y-77.555
X227.006Y-90.317
X227.006Y-96.667
X227.006Y-109.43
X227.006Y-115.78
X227.006Y-128.542
X227.006Y-134.892
X227.006Y-147.655
X227.006Y-154.005
X230.186Y-71.205
X230.186Y-77.555
X230.186Y-90.317
X230.186Y-96.667
X230.186Y-109.43
X230.186Y-115.78
X230.186Y-128.542
X230.186Y-134.892
X230.186Y-147.655
X230.186Y-154.005
X233.366Y-71.205
X233.366Y-77.555
X233.366Y-90.317
X233.366Y-96.667
X233.366Y-109.43
X233.366Y-115.78
X233.366Y-128.542
X233.366Y-134.892
X233.366Y-147.655
X233.366Y-154.005
X236.546Y-71.205
X236.546Y-77.555
X236.546Y-90.317
X236.546Y-96.667
X236.546Y-109.43
X236.546Y-115.78
X236.546Y-128.542
X236.546Y-134.892
X236.546Y-147.655
X236.546Y-154.005
X239.726Y-71.205
X239.726Y-77.555
X239.726Y-90.317
X239.726Y-96.667
X239.726Y-109.43
X239.726Y-115.78
X239.726Y-128.542
X239.726Y-134.892
X239.726Y-147.655
X239.726Y-154.005
X242.906Y-71.205
X242.906Y-77.555
X242.906Y-90.317
X242.906Y-96.667
X242.906Y-109.43
X242.906Y-115.78
X242.906Y-128.542
X242.906Y-134.892
X242.906Y-147.655
X242.906Y-154.005
X246.086Y-71.205
X246.086Y-77.555
X246.086Y-90.317
X246.086Y-96.667
X246.086Y-109.43
X246.086Y-115.78
X246.086Y-128.542
X246.086Y-134.892
X246.086Y-147.655
X246.086Y-154.005
X249.266Y-71.205
X249.266Y-77.555
X249.266Y-90.317
X249.266Y-96.667
X249.266Y-109.43
X249.266Y-115.78
X249.266Y-128.542
X249.266Y-134.892
X249.266Y-147.655
X249.266Y-154.005
X252.446Y-71.205
X252.446Y-77.555
X252.446Y-90.317
X252.446Y-96.667
X252.446Y-109.43
X252.446Y-115.78
X252.446Y-128.542
X252.446Y-134.892
X252.446Y-147.655
X252.446Y-154.005
X255.626Y-71.205
X255.626Y-77.555
X255.626Y-90.317
X255.626Y-96.667
X255.626Y-109.43
X255.626Y-115.78
X255.626Y-128.542
X255.626Y-134.892
X255.626Y-147.655
X255.626Y-154.005
X258.806Y-71.205
X258.806Y-77.555
X258.806Y-90.317
X258.806Y-96.667
X258.806Y-109.43
X258.806Y-115.78
X258.806Y-128.542
X258.806Y-134.892
X258.806Y-147.655
X258.806Y-154.005
X261.986Y-71.205
X261.986Y-77.555
X261.986Y-90.317
X261.986Y-96.667
X261.986Y-109.43
X261.986Y-115.78
X261.986Y-128.542
X261.986Y-134.892
X261.986Y-147.655
X261.986Y-154.005
X265.166Y-71.205
X265.166Y-77.555
X265.166Y-90.317
X265.166Y-96.667
X265.166Y-109.43
X265.166Y-115.78
X265.166Y-128.542
X265.166Y-134.892
X265.166Y-147.655
X265.166Y-154.005
X268.346Y-71.205
X268.346Y-77.555
X268.346Y-90.317
X268.346Y-96.667
X268.346Y-109.43
X268.346Y-115.78
X268.346Y-128.542
X268.346Y-134.892
X268.346Y-147.655
X268.346Y-154.005
X271.526Y-71.205
X271.526Y-77.555
X271.526Y-90.317
X271.526Y-96.667
X271.526Y-109.43
X271.526Y-115.78
X271.526Y-128.542
X271.526Y-134.892
X271.526Y-147.655
X271.526Y-154.005
X274.706Y-71.205
X274.706Y-77.555
X274.706Y-90.317
X274.706Y-96.667
X274.706Y-109.43
X274.706Y-115.78
X274.706Y-128.542
X274.706Y-134.892
X274.706Y-147.655
X274.706Y-154.005
X277.886Y-71.205
X277.886Y-77.555
X277.886Y-90.317
X277.886Y-96.667
X277.886Y-109.43
X277.886Y-115.78
X277.886Y-128.542
X277.886Y-134.892
X277.886Y-147.655
X277.886Y-154.005
X281.066Y-71.205
X281.066Y-77.555
X281.066Y-90.317
X281.066Y-96.667
X281.066Y-109.43
X281.066Y-115.78
X281.066Y-128.542
X281.066Y-134.892
X281.066Y-147.655
X281.066Y-154.005
X284.246Y-71.205
X284.246Y-77.555
X284.246Y-90.317
X284.246Y-96.667
X284.246Y-109.43
X284.246Y-115.78
X284.246Y-128.542
X284.246Y-134.892
X284.246Y-147.655
X284.246Y-154.005
X287.426Y-71.205
X287.426Y-77.555
X287.426Y-90.317
X287.426Y-96.667
X287.426Y-109.43
X287.426Y-115.78
X287.426Y-128.542
X287.426Y-134.892
X287.426Y-147.655
X287.426Y-154.005
X290.606Y-71.205
X290.606Y-77.555
X290.606Y-90.317
X290.606Y-96.667
X290.606Y-109.43
X290.606Y-115.78
X290.606Y-128.542
X290.606Y-134.892
X290.606Y-147.655
X290.606Y-154.005
X293.786Y-71.205
X293.786Y-77.555
X293.786Y-90.317
X293.786Y-96.667
X293.786Y-109.43
X293.786Y-115.78
X293.786Y-128.542
X293.786Y-134.892
X293.786Y-147.655
X293.786Y-154.005
X296.966Y-71.205
X296.966Y-77.555
X296.966Y-90.317
X296.966Y-96.667
X296.966Y-109.43
X296.966Y-115.78
X296.966Y-128.542
X296.966Y-134.892
X296.966Y-147.655
X296.966Y-154.005
X300.146Y-71.205
X300.146Y-77.555
X300.146Y-90.317
X300.146Y-96.667
X300.146Y-109.43
X300.146Y-115.78
X300.146Y-128.542
X300.146Y-134.892
X300.146Y-147.655
X300.146Y-154.005
X303.326Y-71.205
X303.326Y-77.555
X303.326Y-90.317
X303.326Y-96.667
X303.326Y-109.43
X303.326Y-115.78
X303.326Y-128.542
X303.326Y-134.892
X303.326Y-147.655
X303.326Y-154.005
X306.506Y-71.205
X306.506Y-77.555
X306.506Y-90.317
X306.506Y-96.667
X306.506Y-109.43
X306.506Y-115.78
X306.506Y-128.542
X306.506Y-134.892
X306.506Y-147.655
X306.506Y-154.005
X309.686Y-71.205
X309.686Y-77.555
X309.686Y-90.317
X309.686Y-96.667
X309.686Y-109.43
X309.686Y-115.78
X309.686Y-128.542
X309.686Y-134.892
X309.686Y-147.655
X309.686Y-154.005
X312.866Y-71.205
X312.866Y-77.555
X312.866Y-90.317
X312.866Y-96.667
X312.866Y-109.43
X312.866Y-115.78
X312.866Y-128.542
X312.866Y-134.892
X312.866Y-147.655
X312.866Y-154.005
X316.046Y-71.205
X316.046Y-77.555
X316.046Y-90.317
X316.046Y-96.667
X316.046Y-109.43
X316.046Y-115.78
X316.046Y-128.542
X316.046Y-134.892
X316.046Y-147.655
X316.046Y-154.005
X319.226Y-71.205
X319.226Y-77.555
X319.226Y-90.317
X319.226Y-96.667
X319.226Y-109.43
X319.226Y-115.78
X319.226Y-128.542
X319.226Y-134.892
X319.226Y-147.655
X319.226Y-154.005
T5
X42.326Y-132.185
X42.326Y-152.985
X113.856Y-106.645
X113.856Y-121.885
X117.326Y-132.185
X117.326Y-152.985
T6
X51.366Y-76.955
X51.366Y-81.985
X51.366Y-87.015
X51.366Y-92.045
X51.366Y-97.075
X56.996Y-102.785
X56.996Y-109.165
X75.826Y-102.785
X75.826Y-109.165
T7
X40.406Y-105.875
X40.406Y-114.115
X44.086Y-82.035
X44.086Y-87.06
X44.086Y-92.085
X54.531Y-105.355
X54.531Y-113.745
X390.16Y-130.3
X390.16Y-146.175
T8
X397.131Y-73.575
X397.131Y-77.535
X397.131Y-81.495
X397.131Y-85.455
T9
X92.351Y-88.79
X105.131Y-88.79
T0
M30
