G04 #@! TF.GenerationSoftware,KiCad,Pcbnew,(6.0.0)*
G04 #@! TF.CreationDate,2022-11-09T00:17:05-05:00*
G04 #@! TF.ProjectId,poly88 backplane rev 2.1,706f6c79-3838-4206-9261-636b706c616e,rev?*
G04 #@! TF.SameCoordinates,Original*
G04 #@! TF.FileFunction,Soldermask,Bot*
G04 #@! TF.FilePolarity,Negative*
%FSLAX46Y46*%
G04 Gerber Fmt 4.6, Leading zero omitted, Abs format (unit mm)*
G04 Created by KiCad (PCBNEW (6.0.0)) date 2022-11-09 00:17:05*
%MOMM*%
%LPD*%
G01*
G04 APERTURE LIST*
G04 Aperture macros list*
%AMRoundRect*
0 Rectangle with rounded corners*
0 $1 Rounding radius*
0 $2 $3 $4 $5 $6 $7 $8 $9 X,Y pos of 4 corners*
0 Add a 4 corners polygon primitive as box body*
4,1,4,$2,$3,$4,$5,$6,$7,$8,$9,$2,$3,0*
0 Add four circle primitives for the rounded corners*
1,1,$1+$1,$2,$3*
1,1,$1+$1,$4,$5*
1,1,$1+$1,$6,$7*
1,1,$1+$1,$8,$9*
0 Add four rect primitives between the rounded corners*
20,1,$1+$1,$2,$3,$4,$5,0*
20,1,$1+$1,$4,$5,$6,$7,0*
20,1,$1+$1,$6,$7,$8,$9,0*
20,1,$1+$1,$8,$9,$2,$3,0*%
G04 Aperture macros list end*
%ADD10C,3.450000*%
%ADD11R,1.755000X1.755000*%
%ADD12C,1.755000*%
%ADD13R,2.200000X2.200000*%
%ADD14O,2.200000X2.200000*%
%ADD15R,3.200000X3.200000*%
%ADD16O,3.200000X3.200000*%
%ADD17C,1.600000*%
%ADD18O,1.600000X1.600000*%
%ADD19C,3.400000*%
%ADD20C,7.450000*%
%ADD21RoundRect,0.250000X-1.800000X1.330000X-1.800000X-1.330000X1.800000X-1.330000X1.800000X1.330000X0*%
%ADD22O,4.100000X3.160000*%
%ADD23R,1.600000X1.600000*%
%ADD24R,2.400000X2.400000*%
%ADD25C,2.400000*%
%ADD26R,1.500000X1.500000*%
%ADD27C,1.500000*%
%ADD28O,2.400000X2.400000*%
%ADD29R,2.794000X8.382000*%
%ADD30R,1.778000X8.382000*%
G04 APERTURE END LIST*
D10*
X327491000Y-74379750D03*
X154901000Y-74379750D03*
D11*
X163406000Y-77554750D03*
D12*
X166586000Y-77554750D03*
X169766000Y-77554750D03*
X172946000Y-77554750D03*
X176126000Y-77554750D03*
X179306000Y-77554750D03*
X182486000Y-77554750D03*
X185666000Y-77554750D03*
X188846000Y-77554750D03*
X192026000Y-77554750D03*
X195206000Y-77554750D03*
X198386000Y-77554750D03*
X201566000Y-77554750D03*
X204746000Y-77554750D03*
X207926000Y-77554750D03*
X211106000Y-77554750D03*
X214286000Y-77554750D03*
X217466000Y-77554750D03*
X220646000Y-77554750D03*
X223826000Y-77554750D03*
X227006000Y-77554750D03*
X230186000Y-77554750D03*
X233366000Y-77554750D03*
X236546000Y-77554750D03*
X239726000Y-77554750D03*
X242906000Y-77554750D03*
X246086000Y-77554750D03*
X249266000Y-77554750D03*
X252446000Y-77554750D03*
X255626000Y-77554750D03*
X258806000Y-77554750D03*
X261986000Y-77554750D03*
X265166000Y-77554750D03*
X268346000Y-77554750D03*
X271526000Y-77554750D03*
X274706000Y-77554750D03*
X277886000Y-77554750D03*
X281066000Y-77554750D03*
X284246000Y-77554750D03*
X287426000Y-77554750D03*
X290606000Y-77554750D03*
X293786000Y-77554750D03*
X296966000Y-77554750D03*
X300146000Y-77554750D03*
X303326000Y-77554750D03*
X306506000Y-77554750D03*
X309686000Y-77554750D03*
X312866000Y-77554750D03*
X316046000Y-77554750D03*
X319226000Y-77554750D03*
X163406000Y-71204750D03*
X166586000Y-71204750D03*
X169766000Y-71204750D03*
X172946000Y-71204750D03*
X176126000Y-71204750D03*
X179306000Y-71204750D03*
X182486000Y-71204750D03*
X185666000Y-71204750D03*
X188846000Y-71204750D03*
X192026000Y-71204750D03*
X195206000Y-71204750D03*
X198386000Y-71204750D03*
X201566000Y-71204750D03*
X204746000Y-71204750D03*
X207926000Y-71204750D03*
X211106000Y-71204750D03*
X214286000Y-71204750D03*
X217466000Y-71204750D03*
X220646000Y-71204750D03*
X223826000Y-71204750D03*
X227006000Y-71204750D03*
X230186000Y-71204750D03*
X233366000Y-71204750D03*
X236546000Y-71204750D03*
X239726000Y-71204750D03*
X242906000Y-71204750D03*
X246086000Y-71204750D03*
X249266000Y-71204750D03*
X252446000Y-71204750D03*
X255626000Y-71204750D03*
X258806000Y-71204750D03*
X261986000Y-71204750D03*
X265166000Y-71204750D03*
X268346000Y-71204750D03*
X271526000Y-71204750D03*
X274706000Y-71204750D03*
X277886000Y-71204750D03*
X281066000Y-71204750D03*
X284246000Y-71204750D03*
X287426000Y-71204750D03*
X290606000Y-71204750D03*
X293786000Y-71204750D03*
X296966000Y-71204750D03*
X300146000Y-71204750D03*
X303326000Y-71204750D03*
X306506000Y-71204750D03*
X309686000Y-71204750D03*
X312866000Y-71204750D03*
X316046000Y-71204750D03*
X319226000Y-71204750D03*
D13*
X69966000Y-92534750D03*
D14*
X58876000Y-92534750D03*
D15*
X75826000Y-102784750D03*
D16*
X56996000Y-102784750D03*
D17*
X72906000Y-120004750D03*
D18*
X60296000Y-120004750D03*
D17*
X72906000Y-116284750D03*
D18*
X60296000Y-116284750D03*
D19*
X54531000Y-105354750D03*
D20*
X92351000Y-88789750D03*
X105131000Y-88789750D03*
D21*
X397131000Y-73574750D03*
D22*
X397131000Y-77534750D03*
X397131000Y-81494750D03*
X397131000Y-85454750D03*
D23*
X77106000Y-120004750D03*
D18*
X92346000Y-120004750D03*
D13*
X69966000Y-87784750D03*
D14*
X58876000Y-87784750D03*
D17*
X84696000Y-114474750D03*
D18*
X99936000Y-114474750D03*
D10*
X327491000Y-112604750D03*
X154901000Y-112604750D03*
D11*
X163406000Y-115779750D03*
D12*
X166586000Y-115779750D03*
X169766000Y-115779750D03*
X172946000Y-115779750D03*
X176126000Y-115779750D03*
X179306000Y-115779750D03*
X182486000Y-115779750D03*
X185666000Y-115779750D03*
X188846000Y-115779750D03*
X192026000Y-115779750D03*
X195206000Y-115779750D03*
X198386000Y-115779750D03*
X201566000Y-115779750D03*
X204746000Y-115779750D03*
X207926000Y-115779750D03*
X211106000Y-115779750D03*
X214286000Y-115779750D03*
X217466000Y-115779750D03*
X220646000Y-115779750D03*
X223826000Y-115779750D03*
X227006000Y-115779750D03*
X230186000Y-115779750D03*
X233366000Y-115779750D03*
X236546000Y-115779750D03*
X239726000Y-115779750D03*
X242906000Y-115779750D03*
X246086000Y-115779750D03*
X249266000Y-115779750D03*
X252446000Y-115779750D03*
X255626000Y-115779750D03*
X258806000Y-115779750D03*
X261986000Y-115779750D03*
X265166000Y-115779750D03*
X268346000Y-115779750D03*
X271526000Y-115779750D03*
X274706000Y-115779750D03*
X277886000Y-115779750D03*
X281066000Y-115779750D03*
X284246000Y-115779750D03*
X287426000Y-115779750D03*
X290606000Y-115779750D03*
X293786000Y-115779750D03*
X296966000Y-115779750D03*
X300146000Y-115779750D03*
X303326000Y-115779750D03*
X306506000Y-115779750D03*
X309686000Y-115779750D03*
X312866000Y-115779750D03*
X316046000Y-115779750D03*
X319226000Y-115779750D03*
X163406000Y-109429750D03*
X166586000Y-109429750D03*
X169766000Y-109429750D03*
X172946000Y-109429750D03*
X176126000Y-109429750D03*
X179306000Y-109429750D03*
X182486000Y-109429750D03*
X185666000Y-109429750D03*
X188846000Y-109429750D03*
X192026000Y-109429750D03*
X195206000Y-109429750D03*
X198386000Y-109429750D03*
X201566000Y-109429750D03*
X204746000Y-109429750D03*
X207926000Y-109429750D03*
X211106000Y-109429750D03*
X214286000Y-109429750D03*
X217466000Y-109429750D03*
X220646000Y-109429750D03*
X223826000Y-109429750D03*
X227006000Y-109429750D03*
X230186000Y-109429750D03*
X233366000Y-109429750D03*
X236546000Y-109429750D03*
X239726000Y-109429750D03*
X242906000Y-109429750D03*
X246086000Y-109429750D03*
X249266000Y-109429750D03*
X252446000Y-109429750D03*
X255626000Y-109429750D03*
X258806000Y-109429750D03*
X261986000Y-109429750D03*
X265166000Y-109429750D03*
X268346000Y-109429750D03*
X271526000Y-109429750D03*
X274706000Y-109429750D03*
X277886000Y-109429750D03*
X281066000Y-109429750D03*
X284246000Y-109429750D03*
X287426000Y-109429750D03*
X290606000Y-109429750D03*
X293786000Y-109429750D03*
X296966000Y-109429750D03*
X300146000Y-109429750D03*
X303326000Y-109429750D03*
X306506000Y-109429750D03*
X309686000Y-109429750D03*
X312866000Y-109429750D03*
X316046000Y-109429750D03*
X319226000Y-109429750D03*
D24*
X51366000Y-76954750D03*
D25*
X51366000Y-81984750D03*
X51366000Y-87014750D03*
X51366000Y-92044750D03*
X51366000Y-97074750D03*
D15*
X75826000Y-109164750D03*
D16*
X56996000Y-109164750D03*
D13*
X69866000Y-76204750D03*
D14*
X57166000Y-76204750D03*
D17*
X390126000Y-73124750D03*
D18*
X390126000Y-85824750D03*
D26*
X390156000Y-93254750D03*
D27*
X392696000Y-90714750D03*
X395236000Y-93254750D03*
D25*
X113856000Y-106644750D03*
D28*
X113856000Y-121884750D03*
D19*
X40406000Y-105874750D03*
D17*
X84696000Y-109974750D03*
D18*
X99936000Y-109974750D03*
D10*
X154901000Y-93492250D03*
X327491000Y-93492250D03*
D11*
X163406000Y-96667250D03*
D12*
X166586000Y-96667250D03*
X169766000Y-96667250D03*
X172946000Y-96667250D03*
X176126000Y-96667250D03*
X179306000Y-96667250D03*
X182486000Y-96667250D03*
X185666000Y-96667250D03*
X188846000Y-96667250D03*
X192026000Y-96667250D03*
X195206000Y-96667250D03*
X198386000Y-96667250D03*
X201566000Y-96667250D03*
X204746000Y-96667250D03*
X207926000Y-96667250D03*
X211106000Y-96667250D03*
X214286000Y-96667250D03*
X217466000Y-96667250D03*
X220646000Y-96667250D03*
X223826000Y-96667250D03*
X227006000Y-96667250D03*
X230186000Y-96667250D03*
X233366000Y-96667250D03*
X236546000Y-96667250D03*
X239726000Y-96667250D03*
X242906000Y-96667250D03*
X246086000Y-96667250D03*
X249266000Y-96667250D03*
X252446000Y-96667250D03*
X255626000Y-96667250D03*
X258806000Y-96667250D03*
X261986000Y-96667250D03*
X265166000Y-96667250D03*
X268346000Y-96667250D03*
X271526000Y-96667250D03*
X274706000Y-96667250D03*
X277886000Y-96667250D03*
X281066000Y-96667250D03*
X284246000Y-96667250D03*
X287426000Y-96667250D03*
X290606000Y-96667250D03*
X293786000Y-96667250D03*
X296966000Y-96667250D03*
X300146000Y-96667250D03*
X303326000Y-96667250D03*
X306506000Y-96667250D03*
X309686000Y-96667250D03*
X312866000Y-96667250D03*
X316046000Y-96667250D03*
X319226000Y-96667250D03*
X163406000Y-90317250D03*
X166586000Y-90317250D03*
X169766000Y-90317250D03*
X172946000Y-90317250D03*
X176126000Y-90317250D03*
X179306000Y-90317250D03*
X182486000Y-90317250D03*
X185666000Y-90317250D03*
X188846000Y-90317250D03*
X192026000Y-90317250D03*
X195206000Y-90317250D03*
X198386000Y-90317250D03*
X201566000Y-90317250D03*
X204746000Y-90317250D03*
X207926000Y-90317250D03*
X211106000Y-90317250D03*
X214286000Y-90317250D03*
X217466000Y-90317250D03*
X220646000Y-90317250D03*
X223826000Y-90317250D03*
X227006000Y-90317250D03*
X230186000Y-90317250D03*
X233366000Y-90317250D03*
X236546000Y-90317250D03*
X239726000Y-90317250D03*
X242906000Y-90317250D03*
X246086000Y-90317250D03*
X249266000Y-90317250D03*
X252446000Y-90317250D03*
X255626000Y-90317250D03*
X258806000Y-90317250D03*
X261986000Y-90317250D03*
X265166000Y-90317250D03*
X268346000Y-90317250D03*
X271526000Y-90317250D03*
X274706000Y-90317250D03*
X277886000Y-90317250D03*
X281066000Y-90317250D03*
X284246000Y-90317250D03*
X287426000Y-90317250D03*
X290606000Y-90317250D03*
X293786000Y-90317250D03*
X296966000Y-90317250D03*
X300146000Y-90317250D03*
X303326000Y-90317250D03*
X306506000Y-90317250D03*
X309686000Y-90317250D03*
X312866000Y-90317250D03*
X316046000Y-90317250D03*
X319226000Y-90317250D03*
D19*
X44086000Y-92084750D03*
D17*
X105086000Y-117454750D03*
X105086000Y-107454750D03*
D19*
X54531000Y-113744750D03*
D24*
X117326000Y-152984750D03*
D28*
X42326000Y-152984750D03*
D19*
X44086000Y-87059750D03*
X390160000Y-146174750D03*
X390160000Y-130299750D03*
X44086000Y-82034750D03*
X40406000Y-114114750D03*
D13*
X69966000Y-72014750D03*
D14*
X57266000Y-72014750D03*
D17*
X384136000Y-73124750D03*
D18*
X384136000Y-85824750D03*
D24*
X42326000Y-132184750D03*
D28*
X117326000Y-132184750D03*
D10*
X154901000Y-150829750D03*
X327491000Y-150829750D03*
D11*
X163406000Y-154004750D03*
D12*
X166586000Y-154004750D03*
X169766000Y-154004750D03*
X172946000Y-154004750D03*
X176126000Y-154004750D03*
X179306000Y-154004750D03*
X182486000Y-154004750D03*
X185666000Y-154004750D03*
X188846000Y-154004750D03*
X192026000Y-154004750D03*
X195206000Y-154004750D03*
X198386000Y-154004750D03*
X201566000Y-154004750D03*
X204746000Y-154004750D03*
X207926000Y-154004750D03*
X211106000Y-154004750D03*
X214286000Y-154004750D03*
X217466000Y-154004750D03*
X220646000Y-154004750D03*
X223826000Y-154004750D03*
X227006000Y-154004750D03*
X230186000Y-154004750D03*
X233366000Y-154004750D03*
X236546000Y-154004750D03*
X239726000Y-154004750D03*
X242906000Y-154004750D03*
X246086000Y-154004750D03*
X249266000Y-154004750D03*
X252446000Y-154004750D03*
X255626000Y-154004750D03*
X258806000Y-154004750D03*
X261986000Y-154004750D03*
X265166000Y-154004750D03*
X268346000Y-154004750D03*
X271526000Y-154004750D03*
X274706000Y-154004750D03*
X277886000Y-154004750D03*
X281066000Y-154004750D03*
X284246000Y-154004750D03*
X287426000Y-154004750D03*
X290606000Y-154004750D03*
X293786000Y-154004750D03*
X296966000Y-154004750D03*
X300146000Y-154004750D03*
X303326000Y-154004750D03*
X306506000Y-154004750D03*
X309686000Y-154004750D03*
X312866000Y-154004750D03*
X316046000Y-154004750D03*
X319226000Y-154004750D03*
X163406000Y-147654750D03*
X166586000Y-147654750D03*
X169766000Y-147654750D03*
X172946000Y-147654750D03*
X176126000Y-147654750D03*
X179306000Y-147654750D03*
X182486000Y-147654750D03*
X185666000Y-147654750D03*
X188846000Y-147654750D03*
X192026000Y-147654750D03*
X195206000Y-147654750D03*
X198386000Y-147654750D03*
X201566000Y-147654750D03*
X204746000Y-147654750D03*
X207926000Y-147654750D03*
X211106000Y-147654750D03*
X214286000Y-147654750D03*
X217466000Y-147654750D03*
X220646000Y-147654750D03*
X223826000Y-147654750D03*
X227006000Y-147654750D03*
X230186000Y-147654750D03*
X233366000Y-147654750D03*
X236546000Y-147654750D03*
X239726000Y-147654750D03*
X242906000Y-147654750D03*
X246086000Y-147654750D03*
X249266000Y-147654750D03*
X252446000Y-147654750D03*
X255626000Y-147654750D03*
X258806000Y-147654750D03*
X261986000Y-147654750D03*
X265166000Y-147654750D03*
X268346000Y-147654750D03*
X271526000Y-147654750D03*
X274706000Y-147654750D03*
X277886000Y-147654750D03*
X281066000Y-147654750D03*
X284246000Y-147654750D03*
X287426000Y-147654750D03*
X290606000Y-147654750D03*
X293786000Y-147654750D03*
X296966000Y-147654750D03*
X300146000Y-147654750D03*
X303326000Y-147654750D03*
X306506000Y-147654750D03*
X309686000Y-147654750D03*
X312866000Y-147654750D03*
X316046000Y-147654750D03*
X319226000Y-147654750D03*
D13*
X69866000Y-83054750D03*
D14*
X57166000Y-83054750D03*
D10*
X327491000Y-131717250D03*
X154901000Y-131717250D03*
D11*
X163406000Y-134892250D03*
D12*
X166586000Y-134892250D03*
X169766000Y-134892250D03*
X172946000Y-134892250D03*
X176126000Y-134892250D03*
X179306000Y-134892250D03*
X182486000Y-134892250D03*
X185666000Y-134892250D03*
X188846000Y-134892250D03*
X192026000Y-134892250D03*
X195206000Y-134892250D03*
X198386000Y-134892250D03*
X201566000Y-134892250D03*
X204746000Y-134892250D03*
X207926000Y-134892250D03*
X211106000Y-134892250D03*
X214286000Y-134892250D03*
X217466000Y-134892250D03*
X220646000Y-134892250D03*
X223826000Y-134892250D03*
X227006000Y-134892250D03*
X230186000Y-134892250D03*
X233366000Y-134892250D03*
X236546000Y-134892250D03*
X239726000Y-134892250D03*
X242906000Y-134892250D03*
X246086000Y-134892250D03*
X249266000Y-134892250D03*
X252446000Y-134892250D03*
X255626000Y-134892250D03*
X258806000Y-134892250D03*
X261986000Y-134892250D03*
X265166000Y-134892250D03*
X268346000Y-134892250D03*
X271526000Y-134892250D03*
X274706000Y-134892250D03*
X277886000Y-134892250D03*
X281066000Y-134892250D03*
X284246000Y-134892250D03*
X287426000Y-134892250D03*
X290606000Y-134892250D03*
X293786000Y-134892250D03*
X296966000Y-134892250D03*
X300146000Y-134892250D03*
X303326000Y-134892250D03*
X306506000Y-134892250D03*
X309686000Y-134892250D03*
X312866000Y-134892250D03*
X316046000Y-134892250D03*
X319226000Y-134892250D03*
X163406000Y-128542250D03*
X166586000Y-128542250D03*
X169766000Y-128542250D03*
X172946000Y-128542250D03*
X176126000Y-128542250D03*
X179306000Y-128542250D03*
X182486000Y-128542250D03*
X185666000Y-128542250D03*
X188846000Y-128542250D03*
X192026000Y-128542250D03*
X195206000Y-128542250D03*
X198386000Y-128542250D03*
X201566000Y-128542250D03*
X204746000Y-128542250D03*
X207926000Y-128542250D03*
X211106000Y-128542250D03*
X214286000Y-128542250D03*
X217466000Y-128542250D03*
X220646000Y-128542250D03*
X223826000Y-128542250D03*
X227006000Y-128542250D03*
X230186000Y-128542250D03*
X233366000Y-128542250D03*
X236546000Y-128542250D03*
X239726000Y-128542250D03*
X242906000Y-128542250D03*
X246086000Y-128542250D03*
X249266000Y-128542250D03*
X252446000Y-128542250D03*
X255626000Y-128542250D03*
X258806000Y-128542250D03*
X261986000Y-128542250D03*
X265166000Y-128542250D03*
X268346000Y-128542250D03*
X271526000Y-128542250D03*
X274706000Y-128542250D03*
X277886000Y-128542250D03*
X281066000Y-128542250D03*
X284246000Y-128542250D03*
X287426000Y-128542250D03*
X290606000Y-128542250D03*
X293786000Y-128542250D03*
X296966000Y-128542250D03*
X300146000Y-128542250D03*
X303326000Y-128542250D03*
X306506000Y-128542250D03*
X309686000Y-128542250D03*
X312866000Y-128542250D03*
X316046000Y-128542250D03*
X319226000Y-128542250D03*
D29*
X162903000Y-65473750D03*
D30*
X166586000Y-65473750D03*
X169761000Y-65473750D03*
X172936000Y-65473750D03*
X176111000Y-65473750D03*
X179286000Y-65473750D03*
X182461000Y-65473750D03*
X185636000Y-65473750D03*
X188811000Y-65473750D03*
X191986000Y-65473750D03*
X195161000Y-65473750D03*
X198336000Y-65473750D03*
X201511000Y-65473750D03*
X204686000Y-65473750D03*
X207861000Y-65473750D03*
X211036000Y-65473750D03*
X214211000Y-65473750D03*
X217386000Y-65473750D03*
X220561000Y-65473750D03*
X223736000Y-65473750D03*
X226911000Y-65473750D03*
X230086000Y-65473750D03*
X233261000Y-65473750D03*
X236436000Y-65473750D03*
X239611000Y-65473750D03*
X242786000Y-65473750D03*
X245961000Y-65473750D03*
X249136000Y-65473750D03*
X252311000Y-65473750D03*
X255486000Y-65473750D03*
X258661000Y-65473750D03*
X261836000Y-65473750D03*
X265011000Y-65473750D03*
X268186000Y-65473750D03*
X271361000Y-65473750D03*
X274536000Y-65473750D03*
X277711000Y-65473750D03*
X280886000Y-65473750D03*
X284061000Y-65473750D03*
X287236000Y-65473750D03*
X290411000Y-65473750D03*
X293586000Y-65473750D03*
X296761000Y-65473750D03*
X299936000Y-65473750D03*
X303111000Y-65473750D03*
X306286000Y-65473750D03*
X309461000Y-65473750D03*
X312636000Y-65473750D03*
X315811000Y-65473750D03*
D29*
X319494000Y-65473750D03*
X162903000Y-160742750D03*
D30*
X166586000Y-160742750D03*
X169761000Y-160742750D03*
X172936000Y-160742750D03*
X176111000Y-160742750D03*
X179286000Y-160742750D03*
X182461000Y-160742750D03*
X185636000Y-160742750D03*
X188811000Y-160742750D03*
X191986000Y-160742750D03*
X195161000Y-160742750D03*
X198336000Y-160742750D03*
X201511000Y-160742750D03*
X204686000Y-160742750D03*
X207861000Y-160742750D03*
X211036000Y-160742750D03*
X214211000Y-160742750D03*
X217386000Y-160742750D03*
X220561000Y-160742750D03*
X223736000Y-160742750D03*
X226911000Y-160742750D03*
X230086000Y-160742750D03*
X233261000Y-160742750D03*
X236436000Y-160742750D03*
X239611000Y-160742750D03*
X242786000Y-160742750D03*
X245961000Y-160742750D03*
X249136000Y-160742750D03*
X252311000Y-160742750D03*
X255486000Y-160742750D03*
X258661000Y-160742750D03*
X261836000Y-160742750D03*
X265011000Y-160742750D03*
X268186000Y-160742750D03*
X271361000Y-160742750D03*
X274536000Y-160742750D03*
X277711000Y-160742750D03*
X280886000Y-160742750D03*
X284061000Y-160742750D03*
X287236000Y-160742750D03*
X290411000Y-160742750D03*
X293586000Y-160742750D03*
X296761000Y-160742750D03*
X299936000Y-160742750D03*
X303111000Y-160742750D03*
X306286000Y-160742750D03*
X309461000Y-160742750D03*
X312636000Y-160742750D03*
X315811000Y-160742750D03*
D29*
X319494000Y-160742750D03*
M02*
