%FSLAX45Y45*%
G04 Gerber Fmt 4.5, Leading zero omitted, Abs format (unit mm)*
G04 Created by KiCad (PCBNEW (6.0.0)) date 2022-11-09 00:17:15*
%MOMM*%
%LPD*%
G01*
G04 APERTURE LIST*
%TA.AperFunction,Profile*%
%ADD10C,0.100000*%
%TD*%
%ADD11C,0.200000*%
%ADD12C,0.345000*%
G04 APERTURE END LIST*
D10*
X16054600Y-6997475D02*
X16054600Y-6234475D01*
X13025600Y-11596975D02*
G75*
G03*
X13025600Y-11596975I-196500J0D01*
G01*
X3684600Y-6997475D02*
X3684600Y-16502475D01*
X3684600Y-6997475D02*
X16054600Y-6997475D01*
X16054600Y-6234475D02*
X32164600Y-6234475D01*
X40193600Y-6997475D02*
X40193600Y-16502475D01*
X14622600Y-8099975D02*
G75*
G03*
X14622600Y-8099975I-196500J0D01*
G01*
X36585600Y-11596975D02*
G75*
G03*
X36585600Y-11596975I-196500J0D01*
G01*
X10119600Y-7779975D02*
G75*
G03*
X10119600Y-7779975I-247500J0D01*
G01*
X40193600Y-16502475D02*
X3684600Y-16502475D01*
X33987600Y-15095975D02*
G75*
G03*
X33987600Y-15095975I-196500J0D01*
G01*
X32164600Y-6234475D02*
X32164600Y-6997475D01*
X33987600Y-8099975D02*
G75*
G03*
X33987600Y-8099975I-196500J0D01*
G01*
X32164600Y-6997475D02*
X40193600Y-6997475D01*
X14622600Y-15095975D02*
G75*
G03*
X14622600Y-15095975I-196500J0D01*
G01*
D11*
D12*
X15317600Y-7265475D02*
X15662600Y-7610475D01*
X15662600Y-7265475D02*
X15317600Y-7610475D01*
X15317600Y-9176725D02*
X15662600Y-9521725D01*
X15662600Y-9176725D02*
X15317600Y-9521725D01*
X15317600Y-11087975D02*
X15662600Y-11432975D01*
X15662600Y-11087975D02*
X15317600Y-11432975D01*
X15317600Y-12999225D02*
X15662600Y-13344225D01*
X15662600Y-12999225D02*
X15317600Y-13344225D01*
X15317600Y-14910475D02*
X15662600Y-15255475D01*
X15662600Y-14910475D02*
X15317600Y-15255475D01*
X32576600Y-7265475D02*
X32921600Y-7610475D01*
X32921600Y-7265475D02*
X32576600Y-7610475D01*
X32576600Y-9176725D02*
X32921600Y-9521725D01*
X32921600Y-9176725D02*
X32576600Y-9521725D01*
X32576600Y-11087975D02*
X32921600Y-11432975D01*
X32921600Y-11087975D02*
X32576600Y-11432975D01*
X32576600Y-12999225D02*
X32921600Y-13344225D01*
X32921600Y-12999225D02*
X32576600Y-13344225D01*
X32576600Y-14910475D02*
X32921600Y-15255475D01*
X32921600Y-14910475D02*
X32576600Y-15255475D01*
D11*
X3937219Y-16817951D02*
X3937219Y-16617951D01*
X3984838Y-16617951D01*
X4013409Y-16627475D01*
X4032457Y-16646523D01*
X4041981Y-16665570D01*
X4051505Y-16703665D01*
X4051505Y-16732237D01*
X4041981Y-16770332D01*
X4032457Y-16789380D01*
X4013409Y-16808427D01*
X3984838Y-16817951D01*
X3937219Y-16817951D01*
X4137219Y-16817951D02*
X4137219Y-16684618D01*
X4137219Y-16722713D02*
X4146743Y-16703665D01*
X4156267Y-16694142D01*
X4175314Y-16684618D01*
X4194362Y-16684618D01*
X4261029Y-16817951D02*
X4261029Y-16684618D01*
X4261029Y-16617951D02*
X4251505Y-16627475D01*
X4261029Y-16636999D01*
X4270552Y-16627475D01*
X4261029Y-16617951D01*
X4261029Y-16636999D01*
X4384838Y-16817951D02*
X4365790Y-16808427D01*
X4356267Y-16789380D01*
X4356267Y-16617951D01*
X4489600Y-16817951D02*
X4470552Y-16808427D01*
X4461029Y-16789380D01*
X4461029Y-16617951D01*
X4718171Y-16817951D02*
X4718171Y-16617951D01*
X4784838Y-16760808D01*
X4851505Y-16617951D01*
X4851505Y-16817951D01*
X5032457Y-16817951D02*
X5032457Y-16713189D01*
X5022933Y-16694142D01*
X5003886Y-16684618D01*
X4965790Y-16684618D01*
X4946743Y-16694142D01*
X5032457Y-16808427D02*
X5013410Y-16817951D01*
X4965790Y-16817951D01*
X4946743Y-16808427D01*
X4937219Y-16789380D01*
X4937219Y-16770332D01*
X4946743Y-16751284D01*
X4965790Y-16741761D01*
X5013410Y-16741761D01*
X5032457Y-16732237D01*
X5127695Y-16684618D02*
X5127695Y-16884618D01*
X5127695Y-16694142D02*
X5146743Y-16684618D01*
X5184838Y-16684618D01*
X5203886Y-16694142D01*
X5213410Y-16703665D01*
X5222933Y-16722713D01*
X5222933Y-16779856D01*
X5213410Y-16798904D01*
X5203886Y-16808427D01*
X5184838Y-16817951D01*
X5146743Y-16817951D01*
X5127695Y-16808427D01*
X5308648Y-16798904D02*
X5318171Y-16808427D01*
X5308648Y-16817951D01*
X5299124Y-16808427D01*
X5308648Y-16798904D01*
X5308648Y-16817951D01*
X5308648Y-16694142D02*
X5318171Y-16703665D01*
X5308648Y-16713189D01*
X5299124Y-16703665D01*
X5308648Y-16694142D01*
X5308648Y-16713189D01*
X3479600Y-17047475D02*
X3679600Y-17247475D01*
X3679600Y-17047475D02*
X3479600Y-17247475D01*
X3918171Y-17037951D02*
X4041981Y-17037951D01*
X3975314Y-17114142D01*
X4003886Y-17114142D01*
X4022933Y-17123665D01*
X4032457Y-17133189D01*
X4041981Y-17152237D01*
X4041981Y-17199856D01*
X4032457Y-17218904D01*
X4022933Y-17228427D01*
X4003886Y-17237951D01*
X3946743Y-17237951D01*
X3927695Y-17228427D01*
X3918171Y-17218904D01*
X4127695Y-17218904D02*
X4137219Y-17228427D01*
X4127695Y-17237951D01*
X4118171Y-17228427D01*
X4127695Y-17218904D01*
X4127695Y-17237951D01*
X4308648Y-17104618D02*
X4308648Y-17237951D01*
X4261029Y-17028427D02*
X4213410Y-17171285D01*
X4337219Y-17171285D01*
X4508648Y-17037951D02*
X4413410Y-17037951D01*
X4403886Y-17133189D01*
X4413410Y-17123665D01*
X4432457Y-17114142D01*
X4480076Y-17114142D01*
X4499124Y-17123665D01*
X4508648Y-17133189D01*
X4518171Y-17152237D01*
X4518171Y-17199856D01*
X4508648Y-17218904D01*
X4499124Y-17228427D01*
X4480076Y-17237951D01*
X4432457Y-17237951D01*
X4413410Y-17228427D01*
X4403886Y-17218904D01*
X4641981Y-17037951D02*
X4661029Y-17037951D01*
X4680076Y-17047475D01*
X4689600Y-17056999D01*
X4699124Y-17076046D01*
X4708648Y-17114142D01*
X4708648Y-17161761D01*
X4699124Y-17199856D01*
X4689600Y-17218904D01*
X4680076Y-17228427D01*
X4661029Y-17237951D01*
X4641981Y-17237951D01*
X4622933Y-17228427D01*
X4613410Y-17218904D01*
X4603886Y-17199856D01*
X4594362Y-17161761D01*
X4594362Y-17114142D01*
X4603886Y-17076046D01*
X4613410Y-17056999D01*
X4622933Y-17047475D01*
X4641981Y-17037951D01*
X4794362Y-17237951D02*
X4794362Y-17104618D01*
X4794362Y-17123665D02*
X4803886Y-17114142D01*
X4822933Y-17104618D01*
X4851505Y-17104618D01*
X4870552Y-17114142D01*
X4880076Y-17133189D01*
X4880076Y-17237951D01*
X4880076Y-17133189D02*
X4889600Y-17114142D01*
X4908648Y-17104618D01*
X4937219Y-17104618D01*
X4956267Y-17114142D01*
X4965790Y-17133189D01*
X4965790Y-17237951D01*
X5061029Y-17237951D02*
X5061029Y-17104618D01*
X5061029Y-17123665D02*
X5070552Y-17114142D01*
X5089600Y-17104618D01*
X5118171Y-17104618D01*
X5137219Y-17114142D01*
X5146743Y-17133189D01*
X5146743Y-17237951D01*
X5146743Y-17133189D02*
X5156267Y-17114142D01*
X5175314Y-17104618D01*
X5203886Y-17104618D01*
X5222933Y-17114142D01*
X5232457Y-17133189D01*
X5232457Y-17237951D01*
X5622933Y-17028427D02*
X5451505Y-17285570D01*
X5880076Y-17037951D02*
X5899124Y-17037951D01*
X5918171Y-17047475D01*
X5927695Y-17056999D01*
X5937219Y-17076046D01*
X5946743Y-17114142D01*
X5946743Y-17161761D01*
X5937219Y-17199856D01*
X5927695Y-17218904D01*
X5918171Y-17228427D01*
X5899124Y-17237951D01*
X5880076Y-17237951D01*
X5861028Y-17228427D01*
X5851505Y-17218904D01*
X5841981Y-17199856D01*
X5832457Y-17161761D01*
X5832457Y-17114142D01*
X5841981Y-17076046D01*
X5851505Y-17056999D01*
X5861028Y-17047475D01*
X5880076Y-17037951D01*
X6032457Y-17218904D02*
X6041981Y-17228427D01*
X6032457Y-17237951D01*
X6022933Y-17228427D01*
X6032457Y-17218904D01*
X6032457Y-17237951D01*
X6232457Y-17237951D02*
X6118171Y-17237951D01*
X6175314Y-17237951D02*
X6175314Y-17037951D01*
X6156267Y-17066523D01*
X6137219Y-17085570D01*
X6118171Y-17095094D01*
X6299124Y-17037951D02*
X6422933Y-17037951D01*
X6356267Y-17114142D01*
X6384838Y-17114142D01*
X6403886Y-17123665D01*
X6413409Y-17133189D01*
X6422933Y-17152237D01*
X6422933Y-17199856D01*
X6413409Y-17218904D01*
X6403886Y-17228427D01*
X6384838Y-17237951D01*
X6327695Y-17237951D01*
X6308648Y-17228427D01*
X6299124Y-17218904D01*
X6603886Y-17037951D02*
X6508648Y-17037951D01*
X6499124Y-17133189D01*
X6508648Y-17123665D01*
X6527695Y-17114142D01*
X6575314Y-17114142D01*
X6594362Y-17123665D01*
X6603886Y-17133189D01*
X6613409Y-17152237D01*
X6613409Y-17199856D01*
X6603886Y-17218904D01*
X6594362Y-17228427D01*
X6575314Y-17237951D01*
X6527695Y-17237951D01*
X6508648Y-17228427D01*
X6499124Y-17218904D01*
X6727695Y-17123665D02*
X6708648Y-17114142D01*
X6699124Y-17104618D01*
X6689600Y-17085570D01*
X6689600Y-17076046D01*
X6699124Y-17056999D01*
X6708648Y-17047475D01*
X6727695Y-17037951D01*
X6765790Y-17037951D01*
X6784838Y-17047475D01*
X6794362Y-17056999D01*
X6803886Y-17076046D01*
X6803886Y-17085570D01*
X6794362Y-17104618D01*
X6784838Y-17114142D01*
X6765790Y-17123665D01*
X6727695Y-17123665D01*
X6708648Y-17133189D01*
X6699124Y-17142713D01*
X6689600Y-17161761D01*
X6689600Y-17199856D01*
X6699124Y-17218904D01*
X6708648Y-17228427D01*
X6727695Y-17237951D01*
X6765790Y-17237951D01*
X6784838Y-17228427D01*
X6794362Y-17218904D01*
X6803886Y-17199856D01*
X6803886Y-17161761D01*
X6794362Y-17142713D01*
X6784838Y-17133189D01*
X6765790Y-17123665D01*
X6880076Y-17037951D02*
X6880076Y-17076046D01*
X6956267Y-17037951D02*
X6956267Y-17076046D01*
X7251505Y-17314142D02*
X7241981Y-17304618D01*
X7222933Y-17276046D01*
X7213409Y-17256999D01*
X7203886Y-17228427D01*
X7194362Y-17180808D01*
X7194362Y-17142713D01*
X7203886Y-17095094D01*
X7213409Y-17066523D01*
X7222933Y-17047475D01*
X7241981Y-17018904D01*
X7251505Y-17009380D01*
X7432457Y-17237951D02*
X7318171Y-17237951D01*
X7375314Y-17237951D02*
X7375314Y-17037951D01*
X7356267Y-17066523D01*
X7337219Y-17085570D01*
X7318171Y-17095094D01*
X7556267Y-17037951D02*
X7575314Y-17037951D01*
X7594362Y-17047475D01*
X7603886Y-17056999D01*
X7613409Y-17076046D01*
X7622933Y-17114142D01*
X7622933Y-17161761D01*
X7613409Y-17199856D01*
X7603886Y-17218904D01*
X7594362Y-17228427D01*
X7575314Y-17237951D01*
X7556267Y-17237951D01*
X7537219Y-17228427D01*
X7527695Y-17218904D01*
X7518171Y-17199856D01*
X7508648Y-17161761D01*
X7508648Y-17114142D01*
X7518171Y-17076046D01*
X7527695Y-17056999D01*
X7537219Y-17047475D01*
X7556267Y-17037951D01*
X7861028Y-17237951D02*
X7861028Y-17037951D01*
X7946743Y-17237951D02*
X7946743Y-17133189D01*
X7937219Y-17114142D01*
X7918171Y-17104618D01*
X7889600Y-17104618D01*
X7870552Y-17114142D01*
X7861028Y-17123665D01*
X8070552Y-17237951D02*
X8051505Y-17228427D01*
X8041981Y-17218904D01*
X8032457Y-17199856D01*
X8032457Y-17142713D01*
X8041981Y-17123665D01*
X8051505Y-17114142D01*
X8070552Y-17104618D01*
X8099124Y-17104618D01*
X8118171Y-17114142D01*
X8127695Y-17123665D01*
X8137219Y-17142713D01*
X8137219Y-17199856D01*
X8127695Y-17218904D01*
X8118171Y-17228427D01*
X8099124Y-17237951D01*
X8070552Y-17237951D01*
X8251505Y-17237951D02*
X8232457Y-17228427D01*
X8222933Y-17209380D01*
X8222933Y-17037951D01*
X8403886Y-17228427D02*
X8384838Y-17237951D01*
X8346743Y-17237951D01*
X8327695Y-17228427D01*
X8318171Y-17209380D01*
X8318171Y-17133189D01*
X8327695Y-17114142D01*
X8346743Y-17104618D01*
X8384838Y-17104618D01*
X8403886Y-17114142D01*
X8413410Y-17133189D01*
X8413410Y-17152237D01*
X8318171Y-17171285D01*
X8489600Y-17228427D02*
X8508648Y-17237951D01*
X8546743Y-17237951D01*
X8565790Y-17228427D01*
X8575314Y-17209380D01*
X8575314Y-17199856D01*
X8565790Y-17180808D01*
X8546743Y-17171285D01*
X8518171Y-17171285D01*
X8499124Y-17161761D01*
X8489600Y-17142713D01*
X8489600Y-17133189D01*
X8499124Y-17114142D01*
X8518171Y-17104618D01*
X8546743Y-17104618D01*
X8565790Y-17114142D01*
X8641981Y-17314142D02*
X8651505Y-17304618D01*
X8670552Y-17276046D01*
X8680076Y-17256999D01*
X8689600Y-17228427D01*
X8699124Y-17180808D01*
X8699124Y-17142713D01*
X8689600Y-17095094D01*
X8680076Y-17066523D01*
X8670552Y-17047475D01*
X8651505Y-17018904D01*
X8641981Y-17009380D01*
X9003886Y-17314142D02*
X8994362Y-17304618D01*
X8975314Y-17276046D01*
X8965790Y-17256999D01*
X8956267Y-17228427D01*
X8946743Y-17180808D01*
X8946743Y-17142713D01*
X8956267Y-17095094D01*
X8965790Y-17066523D01*
X8975314Y-17047475D01*
X8994362Y-17018904D01*
X9003886Y-17009380D01*
X9080076Y-17104618D02*
X9080076Y-17237951D01*
X9080076Y-17123665D02*
X9089600Y-17114142D01*
X9108648Y-17104618D01*
X9137219Y-17104618D01*
X9156267Y-17114142D01*
X9165790Y-17133189D01*
X9165790Y-17237951D01*
X9289600Y-17237951D02*
X9270552Y-17228427D01*
X9261029Y-17218904D01*
X9251505Y-17199856D01*
X9251505Y-17142713D01*
X9261029Y-17123665D01*
X9270552Y-17114142D01*
X9289600Y-17104618D01*
X9318171Y-17104618D01*
X9337219Y-17114142D01*
X9346743Y-17123665D01*
X9356267Y-17142713D01*
X9356267Y-17199856D01*
X9346743Y-17218904D01*
X9337219Y-17228427D01*
X9318171Y-17237951D01*
X9289600Y-17237951D01*
X9413410Y-17104618D02*
X9489600Y-17104618D01*
X9441981Y-17037951D02*
X9441981Y-17209380D01*
X9451505Y-17228427D01*
X9470552Y-17237951D01*
X9489600Y-17237951D01*
X9708648Y-17104618D02*
X9708648Y-17304618D01*
X9708648Y-17114142D02*
X9727695Y-17104618D01*
X9765790Y-17104618D01*
X9784838Y-17114142D01*
X9794362Y-17123665D01*
X9803886Y-17142713D01*
X9803886Y-17199856D01*
X9794362Y-17218904D01*
X9784838Y-17228427D01*
X9765790Y-17237951D01*
X9727695Y-17237951D01*
X9708648Y-17228427D01*
X9918171Y-17237951D02*
X9899124Y-17228427D01*
X9889600Y-17209380D01*
X9889600Y-17037951D01*
X10080076Y-17237951D02*
X10080076Y-17133189D01*
X10070552Y-17114142D01*
X10051505Y-17104618D01*
X10013410Y-17104618D01*
X9994362Y-17114142D01*
X10080076Y-17228427D02*
X10061029Y-17237951D01*
X10013410Y-17237951D01*
X9994362Y-17228427D01*
X9984838Y-17209380D01*
X9984838Y-17190332D01*
X9994362Y-17171285D01*
X10013410Y-17161761D01*
X10061029Y-17161761D01*
X10080076Y-17152237D01*
X10146743Y-17104618D02*
X10222933Y-17104618D01*
X10175314Y-17037951D02*
X10175314Y-17209380D01*
X10184838Y-17228427D01*
X10203886Y-17237951D01*
X10222933Y-17237951D01*
X10365790Y-17228427D02*
X10346743Y-17237951D01*
X10308648Y-17237951D01*
X10289600Y-17228427D01*
X10280076Y-17209380D01*
X10280076Y-17133189D01*
X10289600Y-17114142D01*
X10308648Y-17104618D01*
X10346743Y-17104618D01*
X10365790Y-17114142D01*
X10375314Y-17133189D01*
X10375314Y-17152237D01*
X10280076Y-17171285D01*
X10546743Y-17237951D02*
X10546743Y-17037951D01*
X10546743Y-17228427D02*
X10527695Y-17237951D01*
X10489600Y-17237951D01*
X10470552Y-17228427D01*
X10461029Y-17218904D01*
X10451505Y-17199856D01*
X10451505Y-17142713D01*
X10461029Y-17123665D01*
X10470552Y-17114142D01*
X10489600Y-17104618D01*
X10527695Y-17104618D01*
X10546743Y-17114142D01*
X10622933Y-17314142D02*
X10632457Y-17304618D01*
X10651505Y-17276046D01*
X10661029Y-17256999D01*
X10670552Y-17228427D01*
X10680076Y-17180808D01*
X10680076Y-17142713D01*
X10670552Y-17095094D01*
X10661029Y-17066523D01*
X10651505Y-17047475D01*
X10632457Y-17018904D01*
X10622933Y-17009380D01*
M02*
