%FSLAX45Y45*%
G04 Gerber Fmt 4.5, Leading zero omitted, Abs format (unit mm)*
G04 Created by KiCad (PCBNEW (6.0.0)) date 2022-11-09 00:17:15*
%MOMM*%
%LPD*%
G01*
G04 APERTURE LIST*
%TA.AperFunction,Profile*%
%ADD10C,0.100000*%
%TD*%
%ADD11C,0.200000*%
%ADD12C,0.040000*%
%ADD13C,0.080000*%
%ADD14C,0.110000*%
%ADD15C,0.117000*%
%ADD16C,0.120000*%
%ADD17C,0.160000*%
%ADD18C,0.165000*%
%ADD19C,0.170000*%
%ADD20C,0.490000*%
G04 APERTURE END LIST*
D10*
X16054600Y-6997475D02*
X16054600Y-6234475D01*
X13025600Y-11596975D02*
G75*
G03*
X13025600Y-11596975I-196500J0D01*
G01*
X3684600Y-6997475D02*
X3684600Y-16502475D01*
X3684600Y-6997475D02*
X16054600Y-6997475D01*
X16054600Y-6234475D02*
X32164600Y-6234475D01*
X40193600Y-6997475D02*
X40193600Y-16502475D01*
X14622600Y-8099975D02*
G75*
G03*
X14622600Y-8099975I-196500J0D01*
G01*
X36585600Y-11596975D02*
G75*
G03*
X36585600Y-11596975I-196500J0D01*
G01*
X10119600Y-7779975D02*
G75*
G03*
X10119600Y-7779975I-247500J0D01*
G01*
X40193600Y-16502475D02*
X3684600Y-16502475D01*
X33987600Y-15095975D02*
G75*
G03*
X33987600Y-15095975I-196500J0D01*
G01*
X32164600Y-6234475D02*
X32164600Y-6997475D01*
X33987600Y-8099975D02*
G75*
G03*
X33987600Y-8099975I-196500J0D01*
G01*
X32164600Y-6997475D02*
X40193600Y-6997475D01*
X14622600Y-15095975D02*
G75*
G03*
X14622600Y-15095975I-196500J0D01*
G01*
D11*
D12*
X15475600Y-10812875D02*
X15515600Y-10852875D01*
X15515600Y-10812875D02*
X15475600Y-10852875D01*
X15488300Y-12654375D02*
X15528300Y-12694375D01*
X15528300Y-12654375D02*
X15488300Y-12694375D01*
X15488300Y-13683075D02*
X15528300Y-13723075D01*
X15528300Y-13683075D02*
X15488300Y-13723075D01*
X32696800Y-10444575D02*
X32736800Y-10484575D01*
X32736800Y-10444575D02*
X32696800Y-10484575D01*
X32887300Y-8641175D02*
X32927300Y-8681175D01*
X32927300Y-8641175D02*
X32887300Y-8681175D01*
X33027000Y-10431875D02*
X33067000Y-10471875D01*
X33067000Y-10431875D02*
X33027000Y-10471875D01*
X33115900Y-8641175D02*
X33155900Y-8681175D01*
X33155900Y-8641175D02*
X33115900Y-8681175D01*
X39719900Y-9568275D02*
X39759900Y-9608275D01*
X39759900Y-9568275D02*
X39719900Y-9608275D01*
D13*
X6069600Y-11628475D02*
G75*
G03*
X6069600Y-11628475I-40000J0D01*
G01*
X6069600Y-12000475D02*
G75*
G03*
X6069600Y-12000475I-40000J0D01*
G01*
X7330600Y-11628475D02*
G75*
G03*
X7330600Y-11628475I-40000J0D01*
G01*
X7330600Y-12000475D02*
G75*
G03*
X7330600Y-12000475I-40000J0D01*
G01*
X7750600Y-12000475D02*
G75*
G03*
X7750600Y-12000475I-40000J0D01*
G01*
X8509600Y-10997475D02*
G75*
G03*
X8509600Y-10997475I-40000J0D01*
G01*
X8509600Y-11447475D02*
G75*
G03*
X8509600Y-11447475I-40000J0D01*
G01*
X9274600Y-12000475D02*
G75*
G03*
X9274600Y-12000475I-40000J0D01*
G01*
X10033600Y-10997475D02*
G75*
G03*
X10033600Y-10997475I-40000J0D01*
G01*
X10033600Y-11447475D02*
G75*
G03*
X10033600Y-11447475I-40000J0D01*
G01*
X10548600Y-10745475D02*
G75*
G03*
X10548600Y-10745475I-40000J0D01*
G01*
X10548600Y-11745475D02*
G75*
G03*
X10548600Y-11745475I-40000J0D01*
G01*
X38453600Y-7312475D02*
G75*
G03*
X38453600Y-7312475I-40000J0D01*
G01*
X38453600Y-8582475D02*
G75*
G03*
X38453600Y-8582475I-40000J0D01*
G01*
X39052600Y-7312475D02*
G75*
G03*
X39052600Y-7312475I-40000J0D01*
G01*
X39052600Y-8582475D02*
G75*
G03*
X39052600Y-8582475I-40000J0D01*
G01*
X39055600Y-9325475D02*
G75*
G03*
X39055600Y-9325475I-40000J0D01*
G01*
X39309600Y-9071475D02*
G75*
G03*
X39309600Y-9071475I-40000J0D01*
G01*
X39563600Y-9325475D02*
G75*
G03*
X39563600Y-9325475I-40000J0D01*
G01*
D14*
X5716600Y-7565475D02*
X5716600Y-7675475D01*
X5661600Y-7620475D02*
X5771600Y-7620475D01*
X5716600Y-8250475D02*
X5716600Y-8360475D01*
X5661600Y-8305475D02*
X5771600Y-8305475D01*
X5726600Y-7146475D02*
X5726600Y-7256475D01*
X5671600Y-7201475D02*
X5781600Y-7201475D01*
X5887600Y-8723475D02*
X5887600Y-8833475D01*
X5832600Y-8778475D02*
X5942600Y-8778475D01*
X5887600Y-9198475D02*
X5887600Y-9308475D01*
X5832600Y-9253475D02*
X5942600Y-9253475D01*
X6986600Y-7565475D02*
X6986600Y-7675475D01*
X6931600Y-7620475D02*
X7041600Y-7620475D01*
X6986600Y-8250475D02*
X6986600Y-8360475D01*
X6931600Y-8305475D02*
X7041600Y-8305475D01*
X6996600Y-7146475D02*
X6996600Y-7256475D01*
X6941600Y-7201475D02*
X7051600Y-7201475D01*
X6996600Y-8723475D02*
X6996600Y-8833475D01*
X6941600Y-8778475D02*
X7051600Y-8778475D01*
X6996600Y-9198475D02*
X6996600Y-9308475D01*
X6941600Y-9253475D02*
X7051600Y-9253475D01*
D15*
X16381966Y-7161841D02*
X16381966Y-7079109D01*
X16299234Y-7079109D01*
X16299234Y-7161841D01*
X16381966Y-7161841D01*
X16381966Y-7796841D02*
X16381966Y-7714109D01*
X16299234Y-7714109D01*
X16299234Y-7796841D01*
X16381966Y-7796841D01*
X16381966Y-9073091D02*
X16381966Y-8990359D01*
X16299234Y-8990359D01*
X16299234Y-9073091D01*
X16381966Y-9073091D01*
X16381966Y-9708091D02*
X16381966Y-9625359D01*
X16299234Y-9625359D01*
X16299234Y-9708091D01*
X16381966Y-9708091D01*
X16381966Y-10984341D02*
X16381966Y-10901609D01*
X16299234Y-10901609D01*
X16299234Y-10984341D01*
X16381966Y-10984341D01*
X16381966Y-11619341D02*
X16381966Y-11536609D01*
X16299234Y-11536609D01*
X16299234Y-11619341D01*
X16381966Y-11619341D01*
X16381966Y-12895591D02*
X16381966Y-12812859D01*
X16299234Y-12812859D01*
X16299234Y-12895591D01*
X16381966Y-12895591D01*
X16381966Y-13530591D02*
X16381966Y-13447859D01*
X16299234Y-13447859D01*
X16299234Y-13530591D01*
X16381966Y-13530591D01*
X16381966Y-14806841D02*
X16381966Y-14724109D01*
X16299234Y-14724109D01*
X16299234Y-14806841D01*
X16381966Y-14806841D01*
X16381966Y-15441841D02*
X16381966Y-15359109D01*
X16299234Y-15359109D01*
X16299234Y-15441841D01*
X16381966Y-15441841D01*
X16699966Y-7161841D02*
X16699966Y-7079109D01*
X16617234Y-7079109D01*
X16617234Y-7161841D01*
X16699966Y-7161841D01*
X16699966Y-7796841D02*
X16699966Y-7714109D01*
X16617234Y-7714109D01*
X16617234Y-7796841D01*
X16699966Y-7796841D01*
X16699966Y-9073091D02*
X16699966Y-8990359D01*
X16617234Y-8990359D01*
X16617234Y-9073091D01*
X16699966Y-9073091D01*
X16699966Y-9708091D02*
X16699966Y-9625359D01*
X16617234Y-9625359D01*
X16617234Y-9708091D01*
X16699966Y-9708091D01*
X16699966Y-10984341D02*
X16699966Y-10901609D01*
X16617234Y-10901609D01*
X16617234Y-10984341D01*
X16699966Y-10984341D01*
X16699966Y-11619341D02*
X16699966Y-11536609D01*
X16617234Y-11536609D01*
X16617234Y-11619341D01*
X16699966Y-11619341D01*
X16699966Y-12895591D02*
X16699966Y-12812859D01*
X16617234Y-12812859D01*
X16617234Y-12895591D01*
X16699966Y-12895591D01*
X16699966Y-13530591D02*
X16699966Y-13447859D01*
X16617234Y-13447859D01*
X16617234Y-13530591D01*
X16699966Y-13530591D01*
X16699966Y-14806841D02*
X16699966Y-14724109D01*
X16617234Y-14724109D01*
X16617234Y-14806841D01*
X16699966Y-14806841D01*
X16699966Y-15441841D02*
X16699966Y-15359109D01*
X16617234Y-15359109D01*
X16617234Y-15441841D01*
X16699966Y-15441841D01*
X17017966Y-7161841D02*
X17017966Y-7079109D01*
X16935234Y-7079109D01*
X16935234Y-7161841D01*
X17017966Y-7161841D01*
X17017966Y-7796841D02*
X17017966Y-7714109D01*
X16935234Y-7714109D01*
X16935234Y-7796841D01*
X17017966Y-7796841D01*
X17017966Y-9073091D02*
X17017966Y-8990359D01*
X16935234Y-8990359D01*
X16935234Y-9073091D01*
X17017966Y-9073091D01*
X17017966Y-9708091D02*
X17017966Y-9625359D01*
X16935234Y-9625359D01*
X16935234Y-9708091D01*
X17017966Y-9708091D01*
X17017966Y-10984341D02*
X17017966Y-10901609D01*
X16935234Y-10901609D01*
X16935234Y-10984341D01*
X17017966Y-10984341D01*
X17017966Y-11619341D02*
X17017966Y-11536609D01*
X16935234Y-11536609D01*
X16935234Y-11619341D01*
X17017966Y-11619341D01*
X17017966Y-12895591D02*
X17017966Y-12812859D01*
X16935234Y-12812859D01*
X16935234Y-12895591D01*
X17017966Y-12895591D01*
X17017966Y-13530591D02*
X17017966Y-13447859D01*
X16935234Y-13447859D01*
X16935234Y-13530591D01*
X17017966Y-13530591D01*
X17017966Y-14806841D02*
X17017966Y-14724109D01*
X16935234Y-14724109D01*
X16935234Y-14806841D01*
X17017966Y-14806841D01*
X17017966Y-15441841D02*
X17017966Y-15359109D01*
X16935234Y-15359109D01*
X16935234Y-15441841D01*
X17017966Y-15441841D01*
X17335966Y-7161841D02*
X17335966Y-7079109D01*
X17253234Y-7079109D01*
X17253234Y-7161841D01*
X17335966Y-7161841D01*
X17335966Y-7796841D02*
X17335966Y-7714109D01*
X17253234Y-7714109D01*
X17253234Y-7796841D01*
X17335966Y-7796841D01*
X17335966Y-9073091D02*
X17335966Y-8990359D01*
X17253234Y-8990359D01*
X17253234Y-9073091D01*
X17335966Y-9073091D01*
X17335966Y-9708091D02*
X17335966Y-9625359D01*
X17253234Y-9625359D01*
X17253234Y-9708091D01*
X17335966Y-9708091D01*
X17335966Y-10984341D02*
X17335966Y-10901609D01*
X17253234Y-10901609D01*
X17253234Y-10984341D01*
X17335966Y-10984341D01*
X17335966Y-11619341D02*
X17335966Y-11536609D01*
X17253234Y-11536609D01*
X17253234Y-11619341D01*
X17335966Y-11619341D01*
X17335966Y-12895591D02*
X17335966Y-12812859D01*
X17253234Y-12812859D01*
X17253234Y-12895591D01*
X17335966Y-12895591D01*
X17335966Y-13530591D02*
X17335966Y-13447859D01*
X17253234Y-13447859D01*
X17253234Y-13530591D01*
X17335966Y-13530591D01*
X17335966Y-14806841D02*
X17335966Y-14724109D01*
X17253234Y-14724109D01*
X17253234Y-14806841D01*
X17335966Y-14806841D01*
X17335966Y-15441841D02*
X17335966Y-15359109D01*
X17253234Y-15359109D01*
X17253234Y-15441841D01*
X17335966Y-15441841D01*
X17653966Y-7161841D02*
X17653966Y-7079109D01*
X17571234Y-7079109D01*
X17571234Y-7161841D01*
X17653966Y-7161841D01*
X17653966Y-7796841D02*
X17653966Y-7714109D01*
X17571234Y-7714109D01*
X17571234Y-7796841D01*
X17653966Y-7796841D01*
X17653966Y-9073091D02*
X17653966Y-8990359D01*
X17571234Y-8990359D01*
X17571234Y-9073091D01*
X17653966Y-9073091D01*
X17653966Y-9708091D02*
X17653966Y-9625359D01*
X17571234Y-9625359D01*
X17571234Y-9708091D01*
X17653966Y-9708091D01*
X17653966Y-10984341D02*
X17653966Y-10901609D01*
X17571234Y-10901609D01*
X17571234Y-10984341D01*
X17653966Y-10984341D01*
X17653966Y-11619341D02*
X17653966Y-11536609D01*
X17571234Y-11536609D01*
X17571234Y-11619341D01*
X17653966Y-11619341D01*
X17653966Y-12895591D02*
X17653966Y-12812859D01*
X17571234Y-12812859D01*
X17571234Y-12895591D01*
X17653966Y-12895591D01*
X17653966Y-13530591D02*
X17653966Y-13447859D01*
X17571234Y-13447859D01*
X17571234Y-13530591D01*
X17653966Y-13530591D01*
X17653966Y-14806841D02*
X17653966Y-14724109D01*
X17571234Y-14724109D01*
X17571234Y-14806841D01*
X17653966Y-14806841D01*
X17653966Y-15441841D02*
X17653966Y-15359109D01*
X17571234Y-15359109D01*
X17571234Y-15441841D01*
X17653966Y-15441841D01*
X17971966Y-7161841D02*
X17971966Y-7079109D01*
X17889234Y-7079109D01*
X17889234Y-7161841D01*
X17971966Y-7161841D01*
X17971966Y-7796841D02*
X17971966Y-7714109D01*
X17889234Y-7714109D01*
X17889234Y-7796841D01*
X17971966Y-7796841D01*
X17971966Y-9073091D02*
X17971966Y-8990359D01*
X17889234Y-8990359D01*
X17889234Y-9073091D01*
X17971966Y-9073091D01*
X17971966Y-9708091D02*
X17971966Y-9625359D01*
X17889234Y-9625359D01*
X17889234Y-9708091D01*
X17971966Y-9708091D01*
X17971966Y-10984341D02*
X17971966Y-10901609D01*
X17889234Y-10901609D01*
X17889234Y-10984341D01*
X17971966Y-10984341D01*
X17971966Y-11619341D02*
X17971966Y-11536609D01*
X17889234Y-11536609D01*
X17889234Y-11619341D01*
X17971966Y-11619341D01*
X17971966Y-12895591D02*
X17971966Y-12812859D01*
X17889234Y-12812859D01*
X17889234Y-12895591D01*
X17971966Y-12895591D01*
X17971966Y-13530591D02*
X17971966Y-13447859D01*
X17889234Y-13447859D01*
X17889234Y-13530591D01*
X17971966Y-13530591D01*
X17971966Y-14806841D02*
X17971966Y-14724109D01*
X17889234Y-14724109D01*
X17889234Y-14806841D01*
X17971966Y-14806841D01*
X17971966Y-15441841D02*
X17971966Y-15359109D01*
X17889234Y-15359109D01*
X17889234Y-15441841D01*
X17971966Y-15441841D01*
X18289966Y-7161841D02*
X18289966Y-7079109D01*
X18207234Y-7079109D01*
X18207234Y-7161841D01*
X18289966Y-7161841D01*
X18289966Y-7796841D02*
X18289966Y-7714109D01*
X18207234Y-7714109D01*
X18207234Y-7796841D01*
X18289966Y-7796841D01*
X18289966Y-9073091D02*
X18289966Y-8990359D01*
X18207234Y-8990359D01*
X18207234Y-9073091D01*
X18289966Y-9073091D01*
X18289966Y-9708091D02*
X18289966Y-9625359D01*
X18207234Y-9625359D01*
X18207234Y-9708091D01*
X18289966Y-9708091D01*
X18289966Y-10984341D02*
X18289966Y-10901609D01*
X18207234Y-10901609D01*
X18207234Y-10984341D01*
X18289966Y-10984341D01*
X18289966Y-11619341D02*
X18289966Y-11536609D01*
X18207234Y-11536609D01*
X18207234Y-11619341D01*
X18289966Y-11619341D01*
X18289966Y-12895591D02*
X18289966Y-12812859D01*
X18207234Y-12812859D01*
X18207234Y-12895591D01*
X18289966Y-12895591D01*
X18289966Y-13530591D02*
X18289966Y-13447859D01*
X18207234Y-13447859D01*
X18207234Y-13530591D01*
X18289966Y-13530591D01*
X18289966Y-14806841D02*
X18289966Y-14724109D01*
X18207234Y-14724109D01*
X18207234Y-14806841D01*
X18289966Y-14806841D01*
X18289966Y-15441841D02*
X18289966Y-15359109D01*
X18207234Y-15359109D01*
X18207234Y-15441841D01*
X18289966Y-15441841D01*
X18607966Y-7161841D02*
X18607966Y-7079109D01*
X18525234Y-7079109D01*
X18525234Y-7161841D01*
X18607966Y-7161841D01*
X18607966Y-7796841D02*
X18607966Y-7714109D01*
X18525234Y-7714109D01*
X18525234Y-7796841D01*
X18607966Y-7796841D01*
X18607966Y-9073091D02*
X18607966Y-8990359D01*
X18525234Y-8990359D01*
X18525234Y-9073091D01*
X18607966Y-9073091D01*
X18607966Y-9708091D02*
X18607966Y-9625359D01*
X18525234Y-9625359D01*
X18525234Y-9708091D01*
X18607966Y-9708091D01*
X18607966Y-10984341D02*
X18607966Y-10901609D01*
X18525234Y-10901609D01*
X18525234Y-10984341D01*
X18607966Y-10984341D01*
X18607966Y-11619341D02*
X18607966Y-11536609D01*
X18525234Y-11536609D01*
X18525234Y-11619341D01*
X18607966Y-11619341D01*
X18607966Y-12895591D02*
X18607966Y-12812859D01*
X18525234Y-12812859D01*
X18525234Y-12895591D01*
X18607966Y-12895591D01*
X18607966Y-13530591D02*
X18607966Y-13447859D01*
X18525234Y-13447859D01*
X18525234Y-13530591D01*
X18607966Y-13530591D01*
X18607966Y-14806841D02*
X18607966Y-14724109D01*
X18525234Y-14724109D01*
X18525234Y-14806841D01*
X18607966Y-14806841D01*
X18607966Y-15441841D02*
X18607966Y-15359109D01*
X18525234Y-15359109D01*
X18525234Y-15441841D01*
X18607966Y-15441841D01*
X18925966Y-7161841D02*
X18925966Y-7079109D01*
X18843234Y-7079109D01*
X18843234Y-7161841D01*
X18925966Y-7161841D01*
X18925966Y-7796841D02*
X18925966Y-7714109D01*
X18843234Y-7714109D01*
X18843234Y-7796841D01*
X18925966Y-7796841D01*
X18925966Y-9073091D02*
X18925966Y-8990359D01*
X18843234Y-8990359D01*
X18843234Y-9073091D01*
X18925966Y-9073091D01*
X18925966Y-9708091D02*
X18925966Y-9625359D01*
X18843234Y-9625359D01*
X18843234Y-9708091D01*
X18925966Y-9708091D01*
X18925966Y-10984341D02*
X18925966Y-10901609D01*
X18843234Y-10901609D01*
X18843234Y-10984341D01*
X18925966Y-10984341D01*
X18925966Y-11619341D02*
X18925966Y-11536609D01*
X18843234Y-11536609D01*
X18843234Y-11619341D01*
X18925966Y-11619341D01*
X18925966Y-12895591D02*
X18925966Y-12812859D01*
X18843234Y-12812859D01*
X18843234Y-12895591D01*
X18925966Y-12895591D01*
X18925966Y-13530591D02*
X18925966Y-13447859D01*
X18843234Y-13447859D01*
X18843234Y-13530591D01*
X18925966Y-13530591D01*
X18925966Y-14806841D02*
X18925966Y-14724109D01*
X18843234Y-14724109D01*
X18843234Y-14806841D01*
X18925966Y-14806841D01*
X18925966Y-15441841D02*
X18925966Y-15359109D01*
X18843234Y-15359109D01*
X18843234Y-15441841D01*
X18925966Y-15441841D01*
X19243966Y-7161841D02*
X19243966Y-7079109D01*
X19161234Y-7079109D01*
X19161234Y-7161841D01*
X19243966Y-7161841D01*
X19243966Y-7796841D02*
X19243966Y-7714109D01*
X19161234Y-7714109D01*
X19161234Y-7796841D01*
X19243966Y-7796841D01*
X19243966Y-9073091D02*
X19243966Y-8990359D01*
X19161234Y-8990359D01*
X19161234Y-9073091D01*
X19243966Y-9073091D01*
X19243966Y-9708091D02*
X19243966Y-9625359D01*
X19161234Y-9625359D01*
X19161234Y-9708091D01*
X19243966Y-9708091D01*
X19243966Y-10984341D02*
X19243966Y-10901609D01*
X19161234Y-10901609D01*
X19161234Y-10984341D01*
X19243966Y-10984341D01*
X19243966Y-11619341D02*
X19243966Y-11536609D01*
X19161234Y-11536609D01*
X19161234Y-11619341D01*
X19243966Y-11619341D01*
X19243966Y-12895591D02*
X19243966Y-12812859D01*
X19161234Y-12812859D01*
X19161234Y-12895591D01*
X19243966Y-12895591D01*
X19243966Y-13530591D02*
X19243966Y-13447859D01*
X19161234Y-13447859D01*
X19161234Y-13530591D01*
X19243966Y-13530591D01*
X19243966Y-14806841D02*
X19243966Y-14724109D01*
X19161234Y-14724109D01*
X19161234Y-14806841D01*
X19243966Y-14806841D01*
X19243966Y-15441841D02*
X19243966Y-15359109D01*
X19161234Y-15359109D01*
X19161234Y-15441841D01*
X19243966Y-15441841D01*
X19561966Y-7161841D02*
X19561966Y-7079109D01*
X19479234Y-7079109D01*
X19479234Y-7161841D01*
X19561966Y-7161841D01*
X19561966Y-7796841D02*
X19561966Y-7714109D01*
X19479234Y-7714109D01*
X19479234Y-7796841D01*
X19561966Y-7796841D01*
X19561966Y-9073091D02*
X19561966Y-8990359D01*
X19479234Y-8990359D01*
X19479234Y-9073091D01*
X19561966Y-9073091D01*
X19561966Y-9708091D02*
X19561966Y-9625359D01*
X19479234Y-9625359D01*
X19479234Y-9708091D01*
X19561966Y-9708091D01*
X19561966Y-10984341D02*
X19561966Y-10901609D01*
X19479234Y-10901609D01*
X19479234Y-10984341D01*
X19561966Y-10984341D01*
X19561966Y-11619341D02*
X19561966Y-11536609D01*
X19479234Y-11536609D01*
X19479234Y-11619341D01*
X19561966Y-11619341D01*
X19561966Y-12895591D02*
X19561966Y-12812859D01*
X19479234Y-12812859D01*
X19479234Y-12895591D01*
X19561966Y-12895591D01*
X19561966Y-13530591D02*
X19561966Y-13447859D01*
X19479234Y-13447859D01*
X19479234Y-13530591D01*
X19561966Y-13530591D01*
X19561966Y-14806841D02*
X19561966Y-14724109D01*
X19479234Y-14724109D01*
X19479234Y-14806841D01*
X19561966Y-14806841D01*
X19561966Y-15441841D02*
X19561966Y-15359109D01*
X19479234Y-15359109D01*
X19479234Y-15441841D01*
X19561966Y-15441841D01*
X19879966Y-7161841D02*
X19879966Y-7079109D01*
X19797234Y-7079109D01*
X19797234Y-7161841D01*
X19879966Y-7161841D01*
X19879966Y-7796841D02*
X19879966Y-7714109D01*
X19797234Y-7714109D01*
X19797234Y-7796841D01*
X19879966Y-7796841D01*
X19879966Y-9073091D02*
X19879966Y-8990359D01*
X19797234Y-8990359D01*
X19797234Y-9073091D01*
X19879966Y-9073091D01*
X19879966Y-9708091D02*
X19879966Y-9625359D01*
X19797234Y-9625359D01*
X19797234Y-9708091D01*
X19879966Y-9708091D01*
X19879966Y-10984341D02*
X19879966Y-10901609D01*
X19797234Y-10901609D01*
X19797234Y-10984341D01*
X19879966Y-10984341D01*
X19879966Y-11619341D02*
X19879966Y-11536609D01*
X19797234Y-11536609D01*
X19797234Y-11619341D01*
X19879966Y-11619341D01*
X19879966Y-12895591D02*
X19879966Y-12812859D01*
X19797234Y-12812859D01*
X19797234Y-12895591D01*
X19879966Y-12895591D01*
X19879966Y-13530591D02*
X19879966Y-13447859D01*
X19797234Y-13447859D01*
X19797234Y-13530591D01*
X19879966Y-13530591D01*
X19879966Y-14806841D02*
X19879966Y-14724109D01*
X19797234Y-14724109D01*
X19797234Y-14806841D01*
X19879966Y-14806841D01*
X19879966Y-15441841D02*
X19879966Y-15359109D01*
X19797234Y-15359109D01*
X19797234Y-15441841D01*
X19879966Y-15441841D01*
X20197966Y-7161841D02*
X20197966Y-7079109D01*
X20115234Y-7079109D01*
X20115234Y-7161841D01*
X20197966Y-7161841D01*
X20197966Y-7796841D02*
X20197966Y-7714109D01*
X20115234Y-7714109D01*
X20115234Y-7796841D01*
X20197966Y-7796841D01*
X20197966Y-9073091D02*
X20197966Y-8990359D01*
X20115234Y-8990359D01*
X20115234Y-9073091D01*
X20197966Y-9073091D01*
X20197966Y-9708091D02*
X20197966Y-9625359D01*
X20115234Y-9625359D01*
X20115234Y-9708091D01*
X20197966Y-9708091D01*
X20197966Y-10984341D02*
X20197966Y-10901609D01*
X20115234Y-10901609D01*
X20115234Y-10984341D01*
X20197966Y-10984341D01*
X20197966Y-11619341D02*
X20197966Y-11536609D01*
X20115234Y-11536609D01*
X20115234Y-11619341D01*
X20197966Y-11619341D01*
X20197966Y-12895591D02*
X20197966Y-12812859D01*
X20115234Y-12812859D01*
X20115234Y-12895591D01*
X20197966Y-12895591D01*
X20197966Y-13530591D02*
X20197966Y-13447859D01*
X20115234Y-13447859D01*
X20115234Y-13530591D01*
X20197966Y-13530591D01*
X20197966Y-14806841D02*
X20197966Y-14724109D01*
X20115234Y-14724109D01*
X20115234Y-14806841D01*
X20197966Y-14806841D01*
X20197966Y-15441841D02*
X20197966Y-15359109D01*
X20115234Y-15359109D01*
X20115234Y-15441841D01*
X20197966Y-15441841D01*
X20515966Y-7161841D02*
X20515966Y-7079109D01*
X20433234Y-7079109D01*
X20433234Y-7161841D01*
X20515966Y-7161841D01*
X20515966Y-7796841D02*
X20515966Y-7714109D01*
X20433234Y-7714109D01*
X20433234Y-7796841D01*
X20515966Y-7796841D01*
X20515966Y-9073091D02*
X20515966Y-8990359D01*
X20433234Y-8990359D01*
X20433234Y-9073091D01*
X20515966Y-9073091D01*
X20515966Y-9708091D02*
X20515966Y-9625359D01*
X20433234Y-9625359D01*
X20433234Y-9708091D01*
X20515966Y-9708091D01*
X20515966Y-10984341D02*
X20515966Y-10901609D01*
X20433234Y-10901609D01*
X20433234Y-10984341D01*
X20515966Y-10984341D01*
X20515966Y-11619341D02*
X20515966Y-11536609D01*
X20433234Y-11536609D01*
X20433234Y-11619341D01*
X20515966Y-11619341D01*
X20515966Y-12895591D02*
X20515966Y-12812859D01*
X20433234Y-12812859D01*
X20433234Y-12895591D01*
X20515966Y-12895591D01*
X20515966Y-13530591D02*
X20515966Y-13447859D01*
X20433234Y-13447859D01*
X20433234Y-13530591D01*
X20515966Y-13530591D01*
X20515966Y-14806841D02*
X20515966Y-14724109D01*
X20433234Y-14724109D01*
X20433234Y-14806841D01*
X20515966Y-14806841D01*
X20515966Y-15441841D02*
X20515966Y-15359109D01*
X20433234Y-15359109D01*
X20433234Y-15441841D01*
X20515966Y-15441841D01*
X20833966Y-7161841D02*
X20833966Y-7079109D01*
X20751234Y-7079109D01*
X20751234Y-7161841D01*
X20833966Y-7161841D01*
X20833966Y-7796841D02*
X20833966Y-7714109D01*
X20751234Y-7714109D01*
X20751234Y-7796841D01*
X20833966Y-7796841D01*
X20833966Y-9073091D02*
X20833966Y-8990359D01*
X20751234Y-8990359D01*
X20751234Y-9073091D01*
X20833966Y-9073091D01*
X20833966Y-9708091D02*
X20833966Y-9625359D01*
X20751234Y-9625359D01*
X20751234Y-9708091D01*
X20833966Y-9708091D01*
X20833966Y-10984341D02*
X20833966Y-10901609D01*
X20751234Y-10901609D01*
X20751234Y-10984341D01*
X20833966Y-10984341D01*
X20833966Y-11619341D02*
X20833966Y-11536609D01*
X20751234Y-11536609D01*
X20751234Y-11619341D01*
X20833966Y-11619341D01*
X20833966Y-12895591D02*
X20833966Y-12812859D01*
X20751234Y-12812859D01*
X20751234Y-12895591D01*
X20833966Y-12895591D01*
X20833966Y-13530591D02*
X20833966Y-13447859D01*
X20751234Y-13447859D01*
X20751234Y-13530591D01*
X20833966Y-13530591D01*
X20833966Y-14806841D02*
X20833966Y-14724109D01*
X20751234Y-14724109D01*
X20751234Y-14806841D01*
X20833966Y-14806841D01*
X20833966Y-15441841D02*
X20833966Y-15359109D01*
X20751234Y-15359109D01*
X20751234Y-15441841D01*
X20833966Y-15441841D01*
X21151966Y-7161841D02*
X21151966Y-7079109D01*
X21069234Y-7079109D01*
X21069234Y-7161841D01*
X21151966Y-7161841D01*
X21151966Y-7796841D02*
X21151966Y-7714109D01*
X21069234Y-7714109D01*
X21069234Y-7796841D01*
X21151966Y-7796841D01*
X21151966Y-9073091D02*
X21151966Y-8990359D01*
X21069234Y-8990359D01*
X21069234Y-9073091D01*
X21151966Y-9073091D01*
X21151966Y-9708091D02*
X21151966Y-9625359D01*
X21069234Y-9625359D01*
X21069234Y-9708091D01*
X21151966Y-9708091D01*
X21151966Y-10984341D02*
X21151966Y-10901609D01*
X21069234Y-10901609D01*
X21069234Y-10984341D01*
X21151966Y-10984341D01*
X21151966Y-11619341D02*
X21151966Y-11536609D01*
X21069234Y-11536609D01*
X21069234Y-11619341D01*
X21151966Y-11619341D01*
X21151966Y-12895591D02*
X21151966Y-12812859D01*
X21069234Y-12812859D01*
X21069234Y-12895591D01*
X21151966Y-12895591D01*
X21151966Y-13530591D02*
X21151966Y-13447859D01*
X21069234Y-13447859D01*
X21069234Y-13530591D01*
X21151966Y-13530591D01*
X21151966Y-14806841D02*
X21151966Y-14724109D01*
X21069234Y-14724109D01*
X21069234Y-14806841D01*
X21151966Y-14806841D01*
X21151966Y-15441841D02*
X21151966Y-15359109D01*
X21069234Y-15359109D01*
X21069234Y-15441841D01*
X21151966Y-15441841D01*
X21469966Y-7161841D02*
X21469966Y-7079109D01*
X21387234Y-7079109D01*
X21387234Y-7161841D01*
X21469966Y-7161841D01*
X21469966Y-7796841D02*
X21469966Y-7714109D01*
X21387234Y-7714109D01*
X21387234Y-7796841D01*
X21469966Y-7796841D01*
X21469966Y-9073091D02*
X21469966Y-8990359D01*
X21387234Y-8990359D01*
X21387234Y-9073091D01*
X21469966Y-9073091D01*
X21469966Y-9708091D02*
X21469966Y-9625359D01*
X21387234Y-9625359D01*
X21387234Y-9708091D01*
X21469966Y-9708091D01*
X21469966Y-10984341D02*
X21469966Y-10901609D01*
X21387234Y-10901609D01*
X21387234Y-10984341D01*
X21469966Y-10984341D01*
X21469966Y-11619341D02*
X21469966Y-11536609D01*
X21387234Y-11536609D01*
X21387234Y-11619341D01*
X21469966Y-11619341D01*
X21469966Y-12895591D02*
X21469966Y-12812859D01*
X21387234Y-12812859D01*
X21387234Y-12895591D01*
X21469966Y-12895591D01*
X21469966Y-13530591D02*
X21469966Y-13447859D01*
X21387234Y-13447859D01*
X21387234Y-13530591D01*
X21469966Y-13530591D01*
X21469966Y-14806841D02*
X21469966Y-14724109D01*
X21387234Y-14724109D01*
X21387234Y-14806841D01*
X21469966Y-14806841D01*
X21469966Y-15441841D02*
X21469966Y-15359109D01*
X21387234Y-15359109D01*
X21387234Y-15441841D01*
X21469966Y-15441841D01*
X21787966Y-7161841D02*
X21787966Y-7079109D01*
X21705234Y-7079109D01*
X21705234Y-7161841D01*
X21787966Y-7161841D01*
X21787966Y-7796841D02*
X21787966Y-7714109D01*
X21705234Y-7714109D01*
X21705234Y-7796841D01*
X21787966Y-7796841D01*
X21787966Y-9073091D02*
X21787966Y-8990359D01*
X21705234Y-8990359D01*
X21705234Y-9073091D01*
X21787966Y-9073091D01*
X21787966Y-9708091D02*
X21787966Y-9625359D01*
X21705234Y-9625359D01*
X21705234Y-9708091D01*
X21787966Y-9708091D01*
X21787966Y-10984341D02*
X21787966Y-10901609D01*
X21705234Y-10901609D01*
X21705234Y-10984341D01*
X21787966Y-10984341D01*
X21787966Y-11619341D02*
X21787966Y-11536609D01*
X21705234Y-11536609D01*
X21705234Y-11619341D01*
X21787966Y-11619341D01*
X21787966Y-12895591D02*
X21787966Y-12812859D01*
X21705234Y-12812859D01*
X21705234Y-12895591D01*
X21787966Y-12895591D01*
X21787966Y-13530591D02*
X21787966Y-13447859D01*
X21705234Y-13447859D01*
X21705234Y-13530591D01*
X21787966Y-13530591D01*
X21787966Y-14806841D02*
X21787966Y-14724109D01*
X21705234Y-14724109D01*
X21705234Y-14806841D01*
X21787966Y-14806841D01*
X21787966Y-15441841D02*
X21787966Y-15359109D01*
X21705234Y-15359109D01*
X21705234Y-15441841D01*
X21787966Y-15441841D01*
X22105966Y-7161841D02*
X22105966Y-7079109D01*
X22023234Y-7079109D01*
X22023234Y-7161841D01*
X22105966Y-7161841D01*
X22105966Y-7796841D02*
X22105966Y-7714109D01*
X22023234Y-7714109D01*
X22023234Y-7796841D01*
X22105966Y-7796841D01*
X22105966Y-9073091D02*
X22105966Y-8990359D01*
X22023234Y-8990359D01*
X22023234Y-9073091D01*
X22105966Y-9073091D01*
X22105966Y-9708091D02*
X22105966Y-9625359D01*
X22023234Y-9625359D01*
X22023234Y-9708091D01*
X22105966Y-9708091D01*
X22105966Y-10984341D02*
X22105966Y-10901609D01*
X22023234Y-10901609D01*
X22023234Y-10984341D01*
X22105966Y-10984341D01*
X22105966Y-11619341D02*
X22105966Y-11536609D01*
X22023234Y-11536609D01*
X22023234Y-11619341D01*
X22105966Y-11619341D01*
X22105966Y-12895591D02*
X22105966Y-12812859D01*
X22023234Y-12812859D01*
X22023234Y-12895591D01*
X22105966Y-12895591D01*
X22105966Y-13530591D02*
X22105966Y-13447859D01*
X22023234Y-13447859D01*
X22023234Y-13530591D01*
X22105966Y-13530591D01*
X22105966Y-14806841D02*
X22105966Y-14724109D01*
X22023234Y-14724109D01*
X22023234Y-14806841D01*
X22105966Y-14806841D01*
X22105966Y-15441841D02*
X22105966Y-15359109D01*
X22023234Y-15359109D01*
X22023234Y-15441841D01*
X22105966Y-15441841D01*
X22423966Y-7161841D02*
X22423966Y-7079109D01*
X22341234Y-7079109D01*
X22341234Y-7161841D01*
X22423966Y-7161841D01*
X22423966Y-7796841D02*
X22423966Y-7714109D01*
X22341234Y-7714109D01*
X22341234Y-7796841D01*
X22423966Y-7796841D01*
X22423966Y-9073091D02*
X22423966Y-8990359D01*
X22341234Y-8990359D01*
X22341234Y-9073091D01*
X22423966Y-9073091D01*
X22423966Y-9708091D02*
X22423966Y-9625359D01*
X22341234Y-9625359D01*
X22341234Y-9708091D01*
X22423966Y-9708091D01*
X22423966Y-10984341D02*
X22423966Y-10901609D01*
X22341234Y-10901609D01*
X22341234Y-10984341D01*
X22423966Y-10984341D01*
X22423966Y-11619341D02*
X22423966Y-11536609D01*
X22341234Y-11536609D01*
X22341234Y-11619341D01*
X22423966Y-11619341D01*
X22423966Y-12895591D02*
X22423966Y-12812859D01*
X22341234Y-12812859D01*
X22341234Y-12895591D01*
X22423966Y-12895591D01*
X22423966Y-13530591D02*
X22423966Y-13447859D01*
X22341234Y-13447859D01*
X22341234Y-13530591D01*
X22423966Y-13530591D01*
X22423966Y-14806841D02*
X22423966Y-14724109D01*
X22341234Y-14724109D01*
X22341234Y-14806841D01*
X22423966Y-14806841D01*
X22423966Y-15441841D02*
X22423966Y-15359109D01*
X22341234Y-15359109D01*
X22341234Y-15441841D01*
X22423966Y-15441841D01*
X22741966Y-7161841D02*
X22741966Y-7079109D01*
X22659234Y-7079109D01*
X22659234Y-7161841D01*
X22741966Y-7161841D01*
X22741966Y-7796841D02*
X22741966Y-7714109D01*
X22659234Y-7714109D01*
X22659234Y-7796841D01*
X22741966Y-7796841D01*
X22741966Y-9073091D02*
X22741966Y-8990359D01*
X22659234Y-8990359D01*
X22659234Y-9073091D01*
X22741966Y-9073091D01*
X22741966Y-9708091D02*
X22741966Y-9625359D01*
X22659234Y-9625359D01*
X22659234Y-9708091D01*
X22741966Y-9708091D01*
X22741966Y-10984341D02*
X22741966Y-10901609D01*
X22659234Y-10901609D01*
X22659234Y-10984341D01*
X22741966Y-10984341D01*
X22741966Y-11619341D02*
X22741966Y-11536609D01*
X22659234Y-11536609D01*
X22659234Y-11619341D01*
X22741966Y-11619341D01*
X22741966Y-12895591D02*
X22741966Y-12812859D01*
X22659234Y-12812859D01*
X22659234Y-12895591D01*
X22741966Y-12895591D01*
X22741966Y-13530591D02*
X22741966Y-13447859D01*
X22659234Y-13447859D01*
X22659234Y-13530591D01*
X22741966Y-13530591D01*
X22741966Y-14806841D02*
X22741966Y-14724109D01*
X22659234Y-14724109D01*
X22659234Y-14806841D01*
X22741966Y-14806841D01*
X22741966Y-15441841D02*
X22741966Y-15359109D01*
X22659234Y-15359109D01*
X22659234Y-15441841D01*
X22741966Y-15441841D01*
X23059966Y-7161841D02*
X23059966Y-7079109D01*
X22977234Y-7079109D01*
X22977234Y-7161841D01*
X23059966Y-7161841D01*
X23059966Y-7796841D02*
X23059966Y-7714109D01*
X22977234Y-7714109D01*
X22977234Y-7796841D01*
X23059966Y-7796841D01*
X23059966Y-9073091D02*
X23059966Y-8990359D01*
X22977234Y-8990359D01*
X22977234Y-9073091D01*
X23059966Y-9073091D01*
X23059966Y-9708091D02*
X23059966Y-9625359D01*
X22977234Y-9625359D01*
X22977234Y-9708091D01*
X23059966Y-9708091D01*
X23059966Y-10984341D02*
X23059966Y-10901609D01*
X22977234Y-10901609D01*
X22977234Y-10984341D01*
X23059966Y-10984341D01*
X23059966Y-11619341D02*
X23059966Y-11536609D01*
X22977234Y-11536609D01*
X22977234Y-11619341D01*
X23059966Y-11619341D01*
X23059966Y-12895591D02*
X23059966Y-12812859D01*
X22977234Y-12812859D01*
X22977234Y-12895591D01*
X23059966Y-12895591D01*
X23059966Y-13530591D02*
X23059966Y-13447859D01*
X22977234Y-13447859D01*
X22977234Y-13530591D01*
X23059966Y-13530591D01*
X23059966Y-14806841D02*
X23059966Y-14724109D01*
X22977234Y-14724109D01*
X22977234Y-14806841D01*
X23059966Y-14806841D01*
X23059966Y-15441841D02*
X23059966Y-15359109D01*
X22977234Y-15359109D01*
X22977234Y-15441841D01*
X23059966Y-15441841D01*
X23377966Y-7161841D02*
X23377966Y-7079109D01*
X23295234Y-7079109D01*
X23295234Y-7161841D01*
X23377966Y-7161841D01*
X23377966Y-7796841D02*
X23377966Y-7714109D01*
X23295234Y-7714109D01*
X23295234Y-7796841D01*
X23377966Y-7796841D01*
X23377966Y-9073091D02*
X23377966Y-8990359D01*
X23295234Y-8990359D01*
X23295234Y-9073091D01*
X23377966Y-9073091D01*
X23377966Y-9708091D02*
X23377966Y-9625359D01*
X23295234Y-9625359D01*
X23295234Y-9708091D01*
X23377966Y-9708091D01*
X23377966Y-10984341D02*
X23377966Y-10901609D01*
X23295234Y-10901609D01*
X23295234Y-10984341D01*
X23377966Y-10984341D01*
X23377966Y-11619341D02*
X23377966Y-11536609D01*
X23295234Y-11536609D01*
X23295234Y-11619341D01*
X23377966Y-11619341D01*
X23377966Y-12895591D02*
X23377966Y-12812859D01*
X23295234Y-12812859D01*
X23295234Y-12895591D01*
X23377966Y-12895591D01*
X23377966Y-13530591D02*
X23377966Y-13447859D01*
X23295234Y-13447859D01*
X23295234Y-13530591D01*
X23377966Y-13530591D01*
X23377966Y-14806841D02*
X23377966Y-14724109D01*
X23295234Y-14724109D01*
X23295234Y-14806841D01*
X23377966Y-14806841D01*
X23377966Y-15441841D02*
X23377966Y-15359109D01*
X23295234Y-15359109D01*
X23295234Y-15441841D01*
X23377966Y-15441841D01*
X23695966Y-7161841D02*
X23695966Y-7079109D01*
X23613234Y-7079109D01*
X23613234Y-7161841D01*
X23695966Y-7161841D01*
X23695966Y-7796841D02*
X23695966Y-7714109D01*
X23613234Y-7714109D01*
X23613234Y-7796841D01*
X23695966Y-7796841D01*
X23695966Y-9073091D02*
X23695966Y-8990359D01*
X23613234Y-8990359D01*
X23613234Y-9073091D01*
X23695966Y-9073091D01*
X23695966Y-9708091D02*
X23695966Y-9625359D01*
X23613234Y-9625359D01*
X23613234Y-9708091D01*
X23695966Y-9708091D01*
X23695966Y-10984341D02*
X23695966Y-10901609D01*
X23613234Y-10901609D01*
X23613234Y-10984341D01*
X23695966Y-10984341D01*
X23695966Y-11619341D02*
X23695966Y-11536609D01*
X23613234Y-11536609D01*
X23613234Y-11619341D01*
X23695966Y-11619341D01*
X23695966Y-12895591D02*
X23695966Y-12812859D01*
X23613234Y-12812859D01*
X23613234Y-12895591D01*
X23695966Y-12895591D01*
X23695966Y-13530591D02*
X23695966Y-13447859D01*
X23613234Y-13447859D01*
X23613234Y-13530591D01*
X23695966Y-13530591D01*
X23695966Y-14806841D02*
X23695966Y-14724109D01*
X23613234Y-14724109D01*
X23613234Y-14806841D01*
X23695966Y-14806841D01*
X23695966Y-15441841D02*
X23695966Y-15359109D01*
X23613234Y-15359109D01*
X23613234Y-15441841D01*
X23695966Y-15441841D01*
X24013966Y-7161841D02*
X24013966Y-7079109D01*
X23931234Y-7079109D01*
X23931234Y-7161841D01*
X24013966Y-7161841D01*
X24013966Y-7796841D02*
X24013966Y-7714109D01*
X23931234Y-7714109D01*
X23931234Y-7796841D01*
X24013966Y-7796841D01*
X24013966Y-9073091D02*
X24013966Y-8990359D01*
X23931234Y-8990359D01*
X23931234Y-9073091D01*
X24013966Y-9073091D01*
X24013966Y-9708091D02*
X24013966Y-9625359D01*
X23931234Y-9625359D01*
X23931234Y-9708091D01*
X24013966Y-9708091D01*
X24013966Y-10984341D02*
X24013966Y-10901609D01*
X23931234Y-10901609D01*
X23931234Y-10984341D01*
X24013966Y-10984341D01*
X24013966Y-11619341D02*
X24013966Y-11536609D01*
X23931234Y-11536609D01*
X23931234Y-11619341D01*
X24013966Y-11619341D01*
X24013966Y-12895591D02*
X24013966Y-12812859D01*
X23931234Y-12812859D01*
X23931234Y-12895591D01*
X24013966Y-12895591D01*
X24013966Y-13530591D02*
X24013966Y-13447859D01*
X23931234Y-13447859D01*
X23931234Y-13530591D01*
X24013966Y-13530591D01*
X24013966Y-14806841D02*
X24013966Y-14724109D01*
X23931234Y-14724109D01*
X23931234Y-14806841D01*
X24013966Y-14806841D01*
X24013966Y-15441841D02*
X24013966Y-15359109D01*
X23931234Y-15359109D01*
X23931234Y-15441841D01*
X24013966Y-15441841D01*
X24331966Y-7161841D02*
X24331966Y-7079109D01*
X24249234Y-7079109D01*
X24249234Y-7161841D01*
X24331966Y-7161841D01*
X24331966Y-7796841D02*
X24331966Y-7714109D01*
X24249234Y-7714109D01*
X24249234Y-7796841D01*
X24331966Y-7796841D01*
X24331966Y-9073091D02*
X24331966Y-8990359D01*
X24249234Y-8990359D01*
X24249234Y-9073091D01*
X24331966Y-9073091D01*
X24331966Y-9708091D02*
X24331966Y-9625359D01*
X24249234Y-9625359D01*
X24249234Y-9708091D01*
X24331966Y-9708091D01*
X24331966Y-10984341D02*
X24331966Y-10901609D01*
X24249234Y-10901609D01*
X24249234Y-10984341D01*
X24331966Y-10984341D01*
X24331966Y-11619341D02*
X24331966Y-11536609D01*
X24249234Y-11536609D01*
X24249234Y-11619341D01*
X24331966Y-11619341D01*
X24331966Y-12895591D02*
X24331966Y-12812859D01*
X24249234Y-12812859D01*
X24249234Y-12895591D01*
X24331966Y-12895591D01*
X24331966Y-13530591D02*
X24331966Y-13447859D01*
X24249234Y-13447859D01*
X24249234Y-13530591D01*
X24331966Y-13530591D01*
X24331966Y-14806841D02*
X24331966Y-14724109D01*
X24249234Y-14724109D01*
X24249234Y-14806841D01*
X24331966Y-14806841D01*
X24331966Y-15441841D02*
X24331966Y-15359109D01*
X24249234Y-15359109D01*
X24249234Y-15441841D01*
X24331966Y-15441841D01*
X24649966Y-7161841D02*
X24649966Y-7079109D01*
X24567234Y-7079109D01*
X24567234Y-7161841D01*
X24649966Y-7161841D01*
X24649966Y-7796841D02*
X24649966Y-7714109D01*
X24567234Y-7714109D01*
X24567234Y-7796841D01*
X24649966Y-7796841D01*
X24649966Y-9073091D02*
X24649966Y-8990359D01*
X24567234Y-8990359D01*
X24567234Y-9073091D01*
X24649966Y-9073091D01*
X24649966Y-9708091D02*
X24649966Y-9625359D01*
X24567234Y-9625359D01*
X24567234Y-9708091D01*
X24649966Y-9708091D01*
X24649966Y-10984341D02*
X24649966Y-10901609D01*
X24567234Y-10901609D01*
X24567234Y-10984341D01*
X24649966Y-10984341D01*
X24649966Y-11619341D02*
X24649966Y-11536609D01*
X24567234Y-11536609D01*
X24567234Y-11619341D01*
X24649966Y-11619341D01*
X24649966Y-12895591D02*
X24649966Y-12812859D01*
X24567234Y-12812859D01*
X24567234Y-12895591D01*
X24649966Y-12895591D01*
X24649966Y-13530591D02*
X24649966Y-13447859D01*
X24567234Y-13447859D01*
X24567234Y-13530591D01*
X24649966Y-13530591D01*
X24649966Y-14806841D02*
X24649966Y-14724109D01*
X24567234Y-14724109D01*
X24567234Y-14806841D01*
X24649966Y-14806841D01*
X24649966Y-15441841D02*
X24649966Y-15359109D01*
X24567234Y-15359109D01*
X24567234Y-15441841D01*
X24649966Y-15441841D01*
X24967966Y-7161841D02*
X24967966Y-7079109D01*
X24885234Y-7079109D01*
X24885234Y-7161841D01*
X24967966Y-7161841D01*
X24967966Y-7796841D02*
X24967966Y-7714109D01*
X24885234Y-7714109D01*
X24885234Y-7796841D01*
X24967966Y-7796841D01*
X24967966Y-9073091D02*
X24967966Y-8990359D01*
X24885234Y-8990359D01*
X24885234Y-9073091D01*
X24967966Y-9073091D01*
X24967966Y-9708091D02*
X24967966Y-9625359D01*
X24885234Y-9625359D01*
X24885234Y-9708091D01*
X24967966Y-9708091D01*
X24967966Y-10984341D02*
X24967966Y-10901609D01*
X24885234Y-10901609D01*
X24885234Y-10984341D01*
X24967966Y-10984341D01*
X24967966Y-11619341D02*
X24967966Y-11536609D01*
X24885234Y-11536609D01*
X24885234Y-11619341D01*
X24967966Y-11619341D01*
X24967966Y-12895591D02*
X24967966Y-12812859D01*
X24885234Y-12812859D01*
X24885234Y-12895591D01*
X24967966Y-12895591D01*
X24967966Y-13530591D02*
X24967966Y-13447859D01*
X24885234Y-13447859D01*
X24885234Y-13530591D01*
X24967966Y-13530591D01*
X24967966Y-14806841D02*
X24967966Y-14724109D01*
X24885234Y-14724109D01*
X24885234Y-14806841D01*
X24967966Y-14806841D01*
X24967966Y-15441841D02*
X24967966Y-15359109D01*
X24885234Y-15359109D01*
X24885234Y-15441841D01*
X24967966Y-15441841D01*
X25285966Y-7161841D02*
X25285966Y-7079109D01*
X25203234Y-7079109D01*
X25203234Y-7161841D01*
X25285966Y-7161841D01*
X25285966Y-7796841D02*
X25285966Y-7714109D01*
X25203234Y-7714109D01*
X25203234Y-7796841D01*
X25285966Y-7796841D01*
X25285966Y-9073091D02*
X25285966Y-8990359D01*
X25203234Y-8990359D01*
X25203234Y-9073091D01*
X25285966Y-9073091D01*
X25285966Y-9708091D02*
X25285966Y-9625359D01*
X25203234Y-9625359D01*
X25203234Y-9708091D01*
X25285966Y-9708091D01*
X25285966Y-10984341D02*
X25285966Y-10901609D01*
X25203234Y-10901609D01*
X25203234Y-10984341D01*
X25285966Y-10984341D01*
X25285966Y-11619341D02*
X25285966Y-11536609D01*
X25203234Y-11536609D01*
X25203234Y-11619341D01*
X25285966Y-11619341D01*
X25285966Y-12895591D02*
X25285966Y-12812859D01*
X25203234Y-12812859D01*
X25203234Y-12895591D01*
X25285966Y-12895591D01*
X25285966Y-13530591D02*
X25285966Y-13447859D01*
X25203234Y-13447859D01*
X25203234Y-13530591D01*
X25285966Y-13530591D01*
X25285966Y-14806841D02*
X25285966Y-14724109D01*
X25203234Y-14724109D01*
X25203234Y-14806841D01*
X25285966Y-14806841D01*
X25285966Y-15441841D02*
X25285966Y-15359109D01*
X25203234Y-15359109D01*
X25203234Y-15441841D01*
X25285966Y-15441841D01*
X25603966Y-7161841D02*
X25603966Y-7079109D01*
X25521234Y-7079109D01*
X25521234Y-7161841D01*
X25603966Y-7161841D01*
X25603966Y-7796841D02*
X25603966Y-7714109D01*
X25521234Y-7714109D01*
X25521234Y-7796841D01*
X25603966Y-7796841D01*
X25603966Y-9073091D02*
X25603966Y-8990359D01*
X25521234Y-8990359D01*
X25521234Y-9073091D01*
X25603966Y-9073091D01*
X25603966Y-9708091D02*
X25603966Y-9625359D01*
X25521234Y-9625359D01*
X25521234Y-9708091D01*
X25603966Y-9708091D01*
X25603966Y-10984341D02*
X25603966Y-10901609D01*
X25521234Y-10901609D01*
X25521234Y-10984341D01*
X25603966Y-10984341D01*
X25603966Y-11619341D02*
X25603966Y-11536609D01*
X25521234Y-11536609D01*
X25521234Y-11619341D01*
X25603966Y-11619341D01*
X25603966Y-12895591D02*
X25603966Y-12812859D01*
X25521234Y-12812859D01*
X25521234Y-12895591D01*
X25603966Y-12895591D01*
X25603966Y-13530591D02*
X25603966Y-13447859D01*
X25521234Y-13447859D01*
X25521234Y-13530591D01*
X25603966Y-13530591D01*
X25603966Y-14806841D02*
X25603966Y-14724109D01*
X25521234Y-14724109D01*
X25521234Y-14806841D01*
X25603966Y-14806841D01*
X25603966Y-15441841D02*
X25603966Y-15359109D01*
X25521234Y-15359109D01*
X25521234Y-15441841D01*
X25603966Y-15441841D01*
X25921966Y-7161841D02*
X25921966Y-7079109D01*
X25839234Y-7079109D01*
X25839234Y-7161841D01*
X25921966Y-7161841D01*
X25921966Y-7796841D02*
X25921966Y-7714109D01*
X25839234Y-7714109D01*
X25839234Y-7796841D01*
X25921966Y-7796841D01*
X25921966Y-9073091D02*
X25921966Y-8990359D01*
X25839234Y-8990359D01*
X25839234Y-9073091D01*
X25921966Y-9073091D01*
X25921966Y-9708091D02*
X25921966Y-9625359D01*
X25839234Y-9625359D01*
X25839234Y-9708091D01*
X25921966Y-9708091D01*
X25921966Y-10984341D02*
X25921966Y-10901609D01*
X25839234Y-10901609D01*
X25839234Y-10984341D01*
X25921966Y-10984341D01*
X25921966Y-11619341D02*
X25921966Y-11536609D01*
X25839234Y-11536609D01*
X25839234Y-11619341D01*
X25921966Y-11619341D01*
X25921966Y-12895591D02*
X25921966Y-12812859D01*
X25839234Y-12812859D01*
X25839234Y-12895591D01*
X25921966Y-12895591D01*
X25921966Y-13530591D02*
X25921966Y-13447859D01*
X25839234Y-13447859D01*
X25839234Y-13530591D01*
X25921966Y-13530591D01*
X25921966Y-14806841D02*
X25921966Y-14724109D01*
X25839234Y-14724109D01*
X25839234Y-14806841D01*
X25921966Y-14806841D01*
X25921966Y-15441841D02*
X25921966Y-15359109D01*
X25839234Y-15359109D01*
X25839234Y-15441841D01*
X25921966Y-15441841D01*
X26239966Y-7161841D02*
X26239966Y-7079109D01*
X26157234Y-7079109D01*
X26157234Y-7161841D01*
X26239966Y-7161841D01*
X26239966Y-7796841D02*
X26239966Y-7714109D01*
X26157234Y-7714109D01*
X26157234Y-7796841D01*
X26239966Y-7796841D01*
X26239966Y-9073091D02*
X26239966Y-8990359D01*
X26157234Y-8990359D01*
X26157234Y-9073091D01*
X26239966Y-9073091D01*
X26239966Y-9708091D02*
X26239966Y-9625359D01*
X26157234Y-9625359D01*
X26157234Y-9708091D01*
X26239966Y-9708091D01*
X26239966Y-10984341D02*
X26239966Y-10901609D01*
X26157234Y-10901609D01*
X26157234Y-10984341D01*
X26239966Y-10984341D01*
X26239966Y-11619341D02*
X26239966Y-11536609D01*
X26157234Y-11536609D01*
X26157234Y-11619341D01*
X26239966Y-11619341D01*
X26239966Y-12895591D02*
X26239966Y-12812859D01*
X26157234Y-12812859D01*
X26157234Y-12895591D01*
X26239966Y-12895591D01*
X26239966Y-13530591D02*
X26239966Y-13447859D01*
X26157234Y-13447859D01*
X26157234Y-13530591D01*
X26239966Y-13530591D01*
X26239966Y-14806841D02*
X26239966Y-14724109D01*
X26157234Y-14724109D01*
X26157234Y-14806841D01*
X26239966Y-14806841D01*
X26239966Y-15441841D02*
X26239966Y-15359109D01*
X26157234Y-15359109D01*
X26157234Y-15441841D01*
X26239966Y-15441841D01*
X26557966Y-7161841D02*
X26557966Y-7079109D01*
X26475234Y-7079109D01*
X26475234Y-7161841D01*
X26557966Y-7161841D01*
X26557966Y-7796841D02*
X26557966Y-7714109D01*
X26475234Y-7714109D01*
X26475234Y-7796841D01*
X26557966Y-7796841D01*
X26557966Y-9073091D02*
X26557966Y-8990359D01*
X26475234Y-8990359D01*
X26475234Y-9073091D01*
X26557966Y-9073091D01*
X26557966Y-9708091D02*
X26557966Y-9625359D01*
X26475234Y-9625359D01*
X26475234Y-9708091D01*
X26557966Y-9708091D01*
X26557966Y-10984341D02*
X26557966Y-10901609D01*
X26475234Y-10901609D01*
X26475234Y-10984341D01*
X26557966Y-10984341D01*
X26557966Y-11619341D02*
X26557966Y-11536609D01*
X26475234Y-11536609D01*
X26475234Y-11619341D01*
X26557966Y-11619341D01*
X26557966Y-12895591D02*
X26557966Y-12812859D01*
X26475234Y-12812859D01*
X26475234Y-12895591D01*
X26557966Y-12895591D01*
X26557966Y-13530591D02*
X26557966Y-13447859D01*
X26475234Y-13447859D01*
X26475234Y-13530591D01*
X26557966Y-13530591D01*
X26557966Y-14806841D02*
X26557966Y-14724109D01*
X26475234Y-14724109D01*
X26475234Y-14806841D01*
X26557966Y-14806841D01*
X26557966Y-15441841D02*
X26557966Y-15359109D01*
X26475234Y-15359109D01*
X26475234Y-15441841D01*
X26557966Y-15441841D01*
X26875966Y-7161841D02*
X26875966Y-7079109D01*
X26793234Y-7079109D01*
X26793234Y-7161841D01*
X26875966Y-7161841D01*
X26875966Y-7796841D02*
X26875966Y-7714109D01*
X26793234Y-7714109D01*
X26793234Y-7796841D01*
X26875966Y-7796841D01*
X26875966Y-9073091D02*
X26875966Y-8990359D01*
X26793234Y-8990359D01*
X26793234Y-9073091D01*
X26875966Y-9073091D01*
X26875966Y-9708091D02*
X26875966Y-9625359D01*
X26793234Y-9625359D01*
X26793234Y-9708091D01*
X26875966Y-9708091D01*
X26875966Y-10984341D02*
X26875966Y-10901609D01*
X26793234Y-10901609D01*
X26793234Y-10984341D01*
X26875966Y-10984341D01*
X26875966Y-11619341D02*
X26875966Y-11536609D01*
X26793234Y-11536609D01*
X26793234Y-11619341D01*
X26875966Y-11619341D01*
X26875966Y-12895591D02*
X26875966Y-12812859D01*
X26793234Y-12812859D01*
X26793234Y-12895591D01*
X26875966Y-12895591D01*
X26875966Y-13530591D02*
X26875966Y-13447859D01*
X26793234Y-13447859D01*
X26793234Y-13530591D01*
X26875966Y-13530591D01*
X26875966Y-14806841D02*
X26875966Y-14724109D01*
X26793234Y-14724109D01*
X26793234Y-14806841D01*
X26875966Y-14806841D01*
X26875966Y-15441841D02*
X26875966Y-15359109D01*
X26793234Y-15359109D01*
X26793234Y-15441841D01*
X26875966Y-15441841D01*
X27193966Y-7161841D02*
X27193966Y-7079109D01*
X27111234Y-7079109D01*
X27111234Y-7161841D01*
X27193966Y-7161841D01*
X27193966Y-7796841D02*
X27193966Y-7714109D01*
X27111234Y-7714109D01*
X27111234Y-7796841D01*
X27193966Y-7796841D01*
X27193966Y-9073091D02*
X27193966Y-8990359D01*
X27111234Y-8990359D01*
X27111234Y-9073091D01*
X27193966Y-9073091D01*
X27193966Y-9708091D02*
X27193966Y-9625359D01*
X27111234Y-9625359D01*
X27111234Y-9708091D01*
X27193966Y-9708091D01*
X27193966Y-10984341D02*
X27193966Y-10901609D01*
X27111234Y-10901609D01*
X27111234Y-10984341D01*
X27193966Y-10984341D01*
X27193966Y-11619341D02*
X27193966Y-11536609D01*
X27111234Y-11536609D01*
X27111234Y-11619341D01*
X27193966Y-11619341D01*
X27193966Y-12895591D02*
X27193966Y-12812859D01*
X27111234Y-12812859D01*
X27111234Y-12895591D01*
X27193966Y-12895591D01*
X27193966Y-13530591D02*
X27193966Y-13447859D01*
X27111234Y-13447859D01*
X27111234Y-13530591D01*
X27193966Y-13530591D01*
X27193966Y-14806841D02*
X27193966Y-14724109D01*
X27111234Y-14724109D01*
X27111234Y-14806841D01*
X27193966Y-14806841D01*
X27193966Y-15441841D02*
X27193966Y-15359109D01*
X27111234Y-15359109D01*
X27111234Y-15441841D01*
X27193966Y-15441841D01*
X27511966Y-7161841D02*
X27511966Y-7079109D01*
X27429234Y-7079109D01*
X27429234Y-7161841D01*
X27511966Y-7161841D01*
X27511966Y-7796841D02*
X27511966Y-7714109D01*
X27429234Y-7714109D01*
X27429234Y-7796841D01*
X27511966Y-7796841D01*
X27511966Y-9073091D02*
X27511966Y-8990359D01*
X27429234Y-8990359D01*
X27429234Y-9073091D01*
X27511966Y-9073091D01*
X27511966Y-9708091D02*
X27511966Y-9625359D01*
X27429234Y-9625359D01*
X27429234Y-9708091D01*
X27511966Y-9708091D01*
X27511966Y-10984341D02*
X27511966Y-10901609D01*
X27429234Y-10901609D01*
X27429234Y-10984341D01*
X27511966Y-10984341D01*
X27511966Y-11619341D02*
X27511966Y-11536609D01*
X27429234Y-11536609D01*
X27429234Y-11619341D01*
X27511966Y-11619341D01*
X27511966Y-12895591D02*
X27511966Y-12812859D01*
X27429234Y-12812859D01*
X27429234Y-12895591D01*
X27511966Y-12895591D01*
X27511966Y-13530591D02*
X27511966Y-13447859D01*
X27429234Y-13447859D01*
X27429234Y-13530591D01*
X27511966Y-13530591D01*
X27511966Y-14806841D02*
X27511966Y-14724109D01*
X27429234Y-14724109D01*
X27429234Y-14806841D01*
X27511966Y-14806841D01*
X27511966Y-15441841D02*
X27511966Y-15359109D01*
X27429234Y-15359109D01*
X27429234Y-15441841D01*
X27511966Y-15441841D01*
X27829966Y-7161841D02*
X27829966Y-7079109D01*
X27747234Y-7079109D01*
X27747234Y-7161841D01*
X27829966Y-7161841D01*
X27829966Y-7796841D02*
X27829966Y-7714109D01*
X27747234Y-7714109D01*
X27747234Y-7796841D01*
X27829966Y-7796841D01*
X27829966Y-9073091D02*
X27829966Y-8990359D01*
X27747234Y-8990359D01*
X27747234Y-9073091D01*
X27829966Y-9073091D01*
X27829966Y-9708091D02*
X27829966Y-9625359D01*
X27747234Y-9625359D01*
X27747234Y-9708091D01*
X27829966Y-9708091D01*
X27829966Y-10984341D02*
X27829966Y-10901609D01*
X27747234Y-10901609D01*
X27747234Y-10984341D01*
X27829966Y-10984341D01*
X27829966Y-11619341D02*
X27829966Y-11536609D01*
X27747234Y-11536609D01*
X27747234Y-11619341D01*
X27829966Y-11619341D01*
X27829966Y-12895591D02*
X27829966Y-12812859D01*
X27747234Y-12812859D01*
X27747234Y-12895591D01*
X27829966Y-12895591D01*
X27829966Y-13530591D02*
X27829966Y-13447859D01*
X27747234Y-13447859D01*
X27747234Y-13530591D01*
X27829966Y-13530591D01*
X27829966Y-14806841D02*
X27829966Y-14724109D01*
X27747234Y-14724109D01*
X27747234Y-14806841D01*
X27829966Y-14806841D01*
X27829966Y-15441841D02*
X27829966Y-15359109D01*
X27747234Y-15359109D01*
X27747234Y-15441841D01*
X27829966Y-15441841D01*
X28147966Y-7161841D02*
X28147966Y-7079109D01*
X28065234Y-7079109D01*
X28065234Y-7161841D01*
X28147966Y-7161841D01*
X28147966Y-7796841D02*
X28147966Y-7714109D01*
X28065234Y-7714109D01*
X28065234Y-7796841D01*
X28147966Y-7796841D01*
X28147966Y-9073091D02*
X28147966Y-8990359D01*
X28065234Y-8990359D01*
X28065234Y-9073091D01*
X28147966Y-9073091D01*
X28147966Y-9708091D02*
X28147966Y-9625359D01*
X28065234Y-9625359D01*
X28065234Y-9708091D01*
X28147966Y-9708091D01*
X28147966Y-10984341D02*
X28147966Y-10901609D01*
X28065234Y-10901609D01*
X28065234Y-10984341D01*
X28147966Y-10984341D01*
X28147966Y-11619341D02*
X28147966Y-11536609D01*
X28065234Y-11536609D01*
X28065234Y-11619341D01*
X28147966Y-11619341D01*
X28147966Y-12895591D02*
X28147966Y-12812859D01*
X28065234Y-12812859D01*
X28065234Y-12895591D01*
X28147966Y-12895591D01*
X28147966Y-13530591D02*
X28147966Y-13447859D01*
X28065234Y-13447859D01*
X28065234Y-13530591D01*
X28147966Y-13530591D01*
X28147966Y-14806841D02*
X28147966Y-14724109D01*
X28065234Y-14724109D01*
X28065234Y-14806841D01*
X28147966Y-14806841D01*
X28147966Y-15441841D02*
X28147966Y-15359109D01*
X28065234Y-15359109D01*
X28065234Y-15441841D01*
X28147966Y-15441841D01*
X28465966Y-7161841D02*
X28465966Y-7079109D01*
X28383234Y-7079109D01*
X28383234Y-7161841D01*
X28465966Y-7161841D01*
X28465966Y-7796841D02*
X28465966Y-7714109D01*
X28383234Y-7714109D01*
X28383234Y-7796841D01*
X28465966Y-7796841D01*
X28465966Y-9073091D02*
X28465966Y-8990359D01*
X28383234Y-8990359D01*
X28383234Y-9073091D01*
X28465966Y-9073091D01*
X28465966Y-9708091D02*
X28465966Y-9625359D01*
X28383234Y-9625359D01*
X28383234Y-9708091D01*
X28465966Y-9708091D01*
X28465966Y-10984341D02*
X28465966Y-10901609D01*
X28383234Y-10901609D01*
X28383234Y-10984341D01*
X28465966Y-10984341D01*
X28465966Y-11619341D02*
X28465966Y-11536609D01*
X28383234Y-11536609D01*
X28383234Y-11619341D01*
X28465966Y-11619341D01*
X28465966Y-12895591D02*
X28465966Y-12812859D01*
X28383234Y-12812859D01*
X28383234Y-12895591D01*
X28465966Y-12895591D01*
X28465966Y-13530591D02*
X28465966Y-13447859D01*
X28383234Y-13447859D01*
X28383234Y-13530591D01*
X28465966Y-13530591D01*
X28465966Y-14806841D02*
X28465966Y-14724109D01*
X28383234Y-14724109D01*
X28383234Y-14806841D01*
X28465966Y-14806841D01*
X28465966Y-15441841D02*
X28465966Y-15359109D01*
X28383234Y-15359109D01*
X28383234Y-15441841D01*
X28465966Y-15441841D01*
X28783966Y-7161841D02*
X28783966Y-7079109D01*
X28701234Y-7079109D01*
X28701234Y-7161841D01*
X28783966Y-7161841D01*
X28783966Y-7796841D02*
X28783966Y-7714109D01*
X28701234Y-7714109D01*
X28701234Y-7796841D01*
X28783966Y-7796841D01*
X28783966Y-9073091D02*
X28783966Y-8990359D01*
X28701234Y-8990359D01*
X28701234Y-9073091D01*
X28783966Y-9073091D01*
X28783966Y-9708091D02*
X28783966Y-9625359D01*
X28701234Y-9625359D01*
X28701234Y-9708091D01*
X28783966Y-9708091D01*
X28783966Y-10984341D02*
X28783966Y-10901609D01*
X28701234Y-10901609D01*
X28701234Y-10984341D01*
X28783966Y-10984341D01*
X28783966Y-11619341D02*
X28783966Y-11536609D01*
X28701234Y-11536609D01*
X28701234Y-11619341D01*
X28783966Y-11619341D01*
X28783966Y-12895591D02*
X28783966Y-12812859D01*
X28701234Y-12812859D01*
X28701234Y-12895591D01*
X28783966Y-12895591D01*
X28783966Y-13530591D02*
X28783966Y-13447859D01*
X28701234Y-13447859D01*
X28701234Y-13530591D01*
X28783966Y-13530591D01*
X28783966Y-14806841D02*
X28783966Y-14724109D01*
X28701234Y-14724109D01*
X28701234Y-14806841D01*
X28783966Y-14806841D01*
X28783966Y-15441841D02*
X28783966Y-15359109D01*
X28701234Y-15359109D01*
X28701234Y-15441841D01*
X28783966Y-15441841D01*
X29101966Y-7161841D02*
X29101966Y-7079109D01*
X29019234Y-7079109D01*
X29019234Y-7161841D01*
X29101966Y-7161841D01*
X29101966Y-7796841D02*
X29101966Y-7714109D01*
X29019234Y-7714109D01*
X29019234Y-7796841D01*
X29101966Y-7796841D01*
X29101966Y-9073091D02*
X29101966Y-8990359D01*
X29019234Y-8990359D01*
X29019234Y-9073091D01*
X29101966Y-9073091D01*
X29101966Y-9708091D02*
X29101966Y-9625359D01*
X29019234Y-9625359D01*
X29019234Y-9708091D01*
X29101966Y-9708091D01*
X29101966Y-10984341D02*
X29101966Y-10901609D01*
X29019234Y-10901609D01*
X29019234Y-10984341D01*
X29101966Y-10984341D01*
X29101966Y-11619341D02*
X29101966Y-11536609D01*
X29019234Y-11536609D01*
X29019234Y-11619341D01*
X29101966Y-11619341D01*
X29101966Y-12895591D02*
X29101966Y-12812859D01*
X29019234Y-12812859D01*
X29019234Y-12895591D01*
X29101966Y-12895591D01*
X29101966Y-13530591D02*
X29101966Y-13447859D01*
X29019234Y-13447859D01*
X29019234Y-13530591D01*
X29101966Y-13530591D01*
X29101966Y-14806841D02*
X29101966Y-14724109D01*
X29019234Y-14724109D01*
X29019234Y-14806841D01*
X29101966Y-14806841D01*
X29101966Y-15441841D02*
X29101966Y-15359109D01*
X29019234Y-15359109D01*
X29019234Y-15441841D01*
X29101966Y-15441841D01*
X29419966Y-7161841D02*
X29419966Y-7079109D01*
X29337234Y-7079109D01*
X29337234Y-7161841D01*
X29419966Y-7161841D01*
X29419966Y-7796841D02*
X29419966Y-7714109D01*
X29337234Y-7714109D01*
X29337234Y-7796841D01*
X29419966Y-7796841D01*
X29419966Y-9073091D02*
X29419966Y-8990359D01*
X29337234Y-8990359D01*
X29337234Y-9073091D01*
X29419966Y-9073091D01*
X29419966Y-9708091D02*
X29419966Y-9625359D01*
X29337234Y-9625359D01*
X29337234Y-9708091D01*
X29419966Y-9708091D01*
X29419966Y-10984341D02*
X29419966Y-10901609D01*
X29337234Y-10901609D01*
X29337234Y-10984341D01*
X29419966Y-10984341D01*
X29419966Y-11619341D02*
X29419966Y-11536609D01*
X29337234Y-11536609D01*
X29337234Y-11619341D01*
X29419966Y-11619341D01*
X29419966Y-12895591D02*
X29419966Y-12812859D01*
X29337234Y-12812859D01*
X29337234Y-12895591D01*
X29419966Y-12895591D01*
X29419966Y-13530591D02*
X29419966Y-13447859D01*
X29337234Y-13447859D01*
X29337234Y-13530591D01*
X29419966Y-13530591D01*
X29419966Y-14806841D02*
X29419966Y-14724109D01*
X29337234Y-14724109D01*
X29337234Y-14806841D01*
X29419966Y-14806841D01*
X29419966Y-15441841D02*
X29419966Y-15359109D01*
X29337234Y-15359109D01*
X29337234Y-15441841D01*
X29419966Y-15441841D01*
X29737966Y-7161841D02*
X29737966Y-7079109D01*
X29655234Y-7079109D01*
X29655234Y-7161841D01*
X29737966Y-7161841D01*
X29737966Y-7796841D02*
X29737966Y-7714109D01*
X29655234Y-7714109D01*
X29655234Y-7796841D01*
X29737966Y-7796841D01*
X29737966Y-9073091D02*
X29737966Y-8990359D01*
X29655234Y-8990359D01*
X29655234Y-9073091D01*
X29737966Y-9073091D01*
X29737966Y-9708091D02*
X29737966Y-9625359D01*
X29655234Y-9625359D01*
X29655234Y-9708091D01*
X29737966Y-9708091D01*
X29737966Y-10984341D02*
X29737966Y-10901609D01*
X29655234Y-10901609D01*
X29655234Y-10984341D01*
X29737966Y-10984341D01*
X29737966Y-11619341D02*
X29737966Y-11536609D01*
X29655234Y-11536609D01*
X29655234Y-11619341D01*
X29737966Y-11619341D01*
X29737966Y-12895591D02*
X29737966Y-12812859D01*
X29655234Y-12812859D01*
X29655234Y-12895591D01*
X29737966Y-12895591D01*
X29737966Y-13530591D02*
X29737966Y-13447859D01*
X29655234Y-13447859D01*
X29655234Y-13530591D01*
X29737966Y-13530591D01*
X29737966Y-14806841D02*
X29737966Y-14724109D01*
X29655234Y-14724109D01*
X29655234Y-14806841D01*
X29737966Y-14806841D01*
X29737966Y-15441841D02*
X29737966Y-15359109D01*
X29655234Y-15359109D01*
X29655234Y-15441841D01*
X29737966Y-15441841D01*
X30055966Y-7161841D02*
X30055966Y-7079109D01*
X29973234Y-7079109D01*
X29973234Y-7161841D01*
X30055966Y-7161841D01*
X30055966Y-7796841D02*
X30055966Y-7714109D01*
X29973234Y-7714109D01*
X29973234Y-7796841D01*
X30055966Y-7796841D01*
X30055966Y-9073091D02*
X30055966Y-8990359D01*
X29973234Y-8990359D01*
X29973234Y-9073091D01*
X30055966Y-9073091D01*
X30055966Y-9708091D02*
X30055966Y-9625359D01*
X29973234Y-9625359D01*
X29973234Y-9708091D01*
X30055966Y-9708091D01*
X30055966Y-10984341D02*
X30055966Y-10901609D01*
X29973234Y-10901609D01*
X29973234Y-10984341D01*
X30055966Y-10984341D01*
X30055966Y-11619341D02*
X30055966Y-11536609D01*
X29973234Y-11536609D01*
X29973234Y-11619341D01*
X30055966Y-11619341D01*
X30055966Y-12895591D02*
X30055966Y-12812859D01*
X29973234Y-12812859D01*
X29973234Y-12895591D01*
X30055966Y-12895591D01*
X30055966Y-13530591D02*
X30055966Y-13447859D01*
X29973234Y-13447859D01*
X29973234Y-13530591D01*
X30055966Y-13530591D01*
X30055966Y-14806841D02*
X30055966Y-14724109D01*
X29973234Y-14724109D01*
X29973234Y-14806841D01*
X30055966Y-14806841D01*
X30055966Y-15441841D02*
X30055966Y-15359109D01*
X29973234Y-15359109D01*
X29973234Y-15441841D01*
X30055966Y-15441841D01*
X30373966Y-7161841D02*
X30373966Y-7079109D01*
X30291234Y-7079109D01*
X30291234Y-7161841D01*
X30373966Y-7161841D01*
X30373966Y-7796841D02*
X30373966Y-7714109D01*
X30291234Y-7714109D01*
X30291234Y-7796841D01*
X30373966Y-7796841D01*
X30373966Y-9073091D02*
X30373966Y-8990359D01*
X30291234Y-8990359D01*
X30291234Y-9073091D01*
X30373966Y-9073091D01*
X30373966Y-9708091D02*
X30373966Y-9625359D01*
X30291234Y-9625359D01*
X30291234Y-9708091D01*
X30373966Y-9708091D01*
X30373966Y-10984341D02*
X30373966Y-10901609D01*
X30291234Y-10901609D01*
X30291234Y-10984341D01*
X30373966Y-10984341D01*
X30373966Y-11619341D02*
X30373966Y-11536609D01*
X30291234Y-11536609D01*
X30291234Y-11619341D01*
X30373966Y-11619341D01*
X30373966Y-12895591D02*
X30373966Y-12812859D01*
X30291234Y-12812859D01*
X30291234Y-12895591D01*
X30373966Y-12895591D01*
X30373966Y-13530591D02*
X30373966Y-13447859D01*
X30291234Y-13447859D01*
X30291234Y-13530591D01*
X30373966Y-13530591D01*
X30373966Y-14806841D02*
X30373966Y-14724109D01*
X30291234Y-14724109D01*
X30291234Y-14806841D01*
X30373966Y-14806841D01*
X30373966Y-15441841D02*
X30373966Y-15359109D01*
X30291234Y-15359109D01*
X30291234Y-15441841D01*
X30373966Y-15441841D01*
X30691966Y-7161841D02*
X30691966Y-7079109D01*
X30609234Y-7079109D01*
X30609234Y-7161841D01*
X30691966Y-7161841D01*
X30691966Y-7796841D02*
X30691966Y-7714109D01*
X30609234Y-7714109D01*
X30609234Y-7796841D01*
X30691966Y-7796841D01*
X30691966Y-9073091D02*
X30691966Y-8990359D01*
X30609234Y-8990359D01*
X30609234Y-9073091D01*
X30691966Y-9073091D01*
X30691966Y-9708091D02*
X30691966Y-9625359D01*
X30609234Y-9625359D01*
X30609234Y-9708091D01*
X30691966Y-9708091D01*
X30691966Y-10984341D02*
X30691966Y-10901609D01*
X30609234Y-10901609D01*
X30609234Y-10984341D01*
X30691966Y-10984341D01*
X30691966Y-11619341D02*
X30691966Y-11536609D01*
X30609234Y-11536609D01*
X30609234Y-11619341D01*
X30691966Y-11619341D01*
X30691966Y-12895591D02*
X30691966Y-12812859D01*
X30609234Y-12812859D01*
X30609234Y-12895591D01*
X30691966Y-12895591D01*
X30691966Y-13530591D02*
X30691966Y-13447859D01*
X30609234Y-13447859D01*
X30609234Y-13530591D01*
X30691966Y-13530591D01*
X30691966Y-14806841D02*
X30691966Y-14724109D01*
X30609234Y-14724109D01*
X30609234Y-14806841D01*
X30691966Y-14806841D01*
X30691966Y-15441841D02*
X30691966Y-15359109D01*
X30609234Y-15359109D01*
X30609234Y-15441841D01*
X30691966Y-15441841D01*
X31009966Y-7161841D02*
X31009966Y-7079109D01*
X30927234Y-7079109D01*
X30927234Y-7161841D01*
X31009966Y-7161841D01*
X31009966Y-7796841D02*
X31009966Y-7714109D01*
X30927234Y-7714109D01*
X30927234Y-7796841D01*
X31009966Y-7796841D01*
X31009966Y-9073091D02*
X31009966Y-8990359D01*
X30927234Y-8990359D01*
X30927234Y-9073091D01*
X31009966Y-9073091D01*
X31009966Y-9708091D02*
X31009966Y-9625359D01*
X30927234Y-9625359D01*
X30927234Y-9708091D01*
X31009966Y-9708091D01*
X31009966Y-10984341D02*
X31009966Y-10901609D01*
X30927234Y-10901609D01*
X30927234Y-10984341D01*
X31009966Y-10984341D01*
X31009966Y-11619341D02*
X31009966Y-11536609D01*
X30927234Y-11536609D01*
X30927234Y-11619341D01*
X31009966Y-11619341D01*
X31009966Y-12895591D02*
X31009966Y-12812859D01*
X30927234Y-12812859D01*
X30927234Y-12895591D01*
X31009966Y-12895591D01*
X31009966Y-13530591D02*
X31009966Y-13447859D01*
X30927234Y-13447859D01*
X30927234Y-13530591D01*
X31009966Y-13530591D01*
X31009966Y-14806841D02*
X31009966Y-14724109D01*
X30927234Y-14724109D01*
X30927234Y-14806841D01*
X31009966Y-14806841D01*
X31009966Y-15441841D02*
X31009966Y-15359109D01*
X30927234Y-15359109D01*
X30927234Y-15441841D01*
X31009966Y-15441841D01*
X31327966Y-7161841D02*
X31327966Y-7079109D01*
X31245234Y-7079109D01*
X31245234Y-7161841D01*
X31327966Y-7161841D01*
X31327966Y-7796841D02*
X31327966Y-7714109D01*
X31245234Y-7714109D01*
X31245234Y-7796841D01*
X31327966Y-7796841D01*
X31327966Y-9073091D02*
X31327966Y-8990359D01*
X31245234Y-8990359D01*
X31245234Y-9073091D01*
X31327966Y-9073091D01*
X31327966Y-9708091D02*
X31327966Y-9625359D01*
X31245234Y-9625359D01*
X31245234Y-9708091D01*
X31327966Y-9708091D01*
X31327966Y-10984341D02*
X31327966Y-10901609D01*
X31245234Y-10901609D01*
X31245234Y-10984341D01*
X31327966Y-10984341D01*
X31327966Y-11619341D02*
X31327966Y-11536609D01*
X31245234Y-11536609D01*
X31245234Y-11619341D01*
X31327966Y-11619341D01*
X31327966Y-12895591D02*
X31327966Y-12812859D01*
X31245234Y-12812859D01*
X31245234Y-12895591D01*
X31327966Y-12895591D01*
X31327966Y-13530591D02*
X31327966Y-13447859D01*
X31245234Y-13447859D01*
X31245234Y-13530591D01*
X31327966Y-13530591D01*
X31327966Y-14806841D02*
X31327966Y-14724109D01*
X31245234Y-14724109D01*
X31245234Y-14806841D01*
X31327966Y-14806841D01*
X31327966Y-15441841D02*
X31327966Y-15359109D01*
X31245234Y-15359109D01*
X31245234Y-15441841D01*
X31327966Y-15441841D01*
X31645966Y-7161841D02*
X31645966Y-7079109D01*
X31563234Y-7079109D01*
X31563234Y-7161841D01*
X31645966Y-7161841D01*
X31645966Y-7796841D02*
X31645966Y-7714109D01*
X31563234Y-7714109D01*
X31563234Y-7796841D01*
X31645966Y-7796841D01*
X31645966Y-9073091D02*
X31645966Y-8990359D01*
X31563234Y-8990359D01*
X31563234Y-9073091D01*
X31645966Y-9073091D01*
X31645966Y-9708091D02*
X31645966Y-9625359D01*
X31563234Y-9625359D01*
X31563234Y-9708091D01*
X31645966Y-9708091D01*
X31645966Y-10984341D02*
X31645966Y-10901609D01*
X31563234Y-10901609D01*
X31563234Y-10984341D01*
X31645966Y-10984341D01*
X31645966Y-11619341D02*
X31645966Y-11536609D01*
X31563234Y-11536609D01*
X31563234Y-11619341D01*
X31645966Y-11619341D01*
X31645966Y-12895591D02*
X31645966Y-12812859D01*
X31563234Y-12812859D01*
X31563234Y-12895591D01*
X31645966Y-12895591D01*
X31645966Y-13530591D02*
X31645966Y-13447859D01*
X31563234Y-13447859D01*
X31563234Y-13530591D01*
X31645966Y-13530591D01*
X31645966Y-14806841D02*
X31645966Y-14724109D01*
X31563234Y-14724109D01*
X31563234Y-14806841D01*
X31645966Y-14806841D01*
X31645966Y-15441841D02*
X31645966Y-15359109D01*
X31563234Y-15359109D01*
X31563234Y-15441841D01*
X31645966Y-15441841D01*
X31963966Y-7161841D02*
X31963966Y-7079109D01*
X31881234Y-7079109D01*
X31881234Y-7161841D01*
X31963966Y-7161841D01*
X31963966Y-7796841D02*
X31963966Y-7714109D01*
X31881234Y-7714109D01*
X31881234Y-7796841D01*
X31963966Y-7796841D01*
X31963966Y-9073091D02*
X31963966Y-8990359D01*
X31881234Y-8990359D01*
X31881234Y-9073091D01*
X31963966Y-9073091D01*
X31963966Y-9708091D02*
X31963966Y-9625359D01*
X31881234Y-9625359D01*
X31881234Y-9708091D01*
X31963966Y-9708091D01*
X31963966Y-10984341D02*
X31963966Y-10901609D01*
X31881234Y-10901609D01*
X31881234Y-10984341D01*
X31963966Y-10984341D01*
X31963966Y-11619341D02*
X31963966Y-11536609D01*
X31881234Y-11536609D01*
X31881234Y-11619341D01*
X31963966Y-11619341D01*
X31963966Y-12895591D02*
X31963966Y-12812859D01*
X31881234Y-12812859D01*
X31881234Y-12895591D01*
X31963966Y-12895591D01*
X31963966Y-13530591D02*
X31963966Y-13447859D01*
X31881234Y-13447859D01*
X31881234Y-13530591D01*
X31963966Y-13530591D01*
X31963966Y-14806841D02*
X31963966Y-14724109D01*
X31881234Y-14724109D01*
X31881234Y-14806841D01*
X31963966Y-14806841D01*
X31963966Y-15441841D02*
X31963966Y-15359109D01*
X31881234Y-15359109D01*
X31881234Y-15441841D01*
X31963966Y-15441841D01*
D16*
X4232600Y-13278475D02*
X4292600Y-13218475D01*
X4232600Y-13158475D01*
X4172600Y-13218475D01*
X4232600Y-13278475D01*
X4232600Y-15358475D02*
X4292600Y-15298475D01*
X4232600Y-15238475D01*
X4172600Y-15298475D01*
X4232600Y-15358475D01*
X11385600Y-10724475D02*
X11445600Y-10664475D01*
X11385600Y-10604475D01*
X11325600Y-10664475D01*
X11385600Y-10724475D01*
X11385600Y-12248475D02*
X11445600Y-12188475D01*
X11385600Y-12128475D01*
X11325600Y-12188475D01*
X11385600Y-12248475D01*
X11732600Y-13278475D02*
X11792600Y-13218475D01*
X11732600Y-13158475D01*
X11672600Y-13218475D01*
X11732600Y-13278475D01*
X11732600Y-15358475D02*
X11792600Y-15298475D01*
X11732600Y-15238475D01*
X11672600Y-15298475D01*
X11732600Y-15358475D01*
D17*
X5056600Y-7615475D02*
X5216600Y-7775475D01*
X5216600Y-7615475D02*
X5056600Y-7775475D01*
X5216600Y-7695475D02*
G75*
G03*
X5216600Y-7695475I-80000J0D01*
G01*
X5056600Y-8118475D02*
X5216600Y-8278475D01*
X5216600Y-8118475D02*
X5056600Y-8278475D01*
X5216600Y-8198475D02*
G75*
G03*
X5216600Y-8198475I-80000J0D01*
G01*
X5056600Y-8621475D02*
X5216600Y-8781475D01*
X5216600Y-8621475D02*
X5056600Y-8781475D01*
X5216600Y-8701475D02*
G75*
G03*
X5216600Y-8701475I-80000J0D01*
G01*
X5056600Y-9124475D02*
X5216600Y-9284475D01*
X5216600Y-9124475D02*
X5056600Y-9284475D01*
X5216600Y-9204475D02*
G75*
G03*
X5216600Y-9204475I-80000J0D01*
G01*
X5056600Y-9627475D02*
X5216600Y-9787475D01*
X5216600Y-9627475D02*
X5056600Y-9787475D01*
X5216600Y-9707475D02*
G75*
G03*
X5216600Y-9707475I-80000J0D01*
G01*
X5619600Y-10198475D02*
X5779600Y-10358475D01*
X5779600Y-10198475D02*
X5619600Y-10358475D01*
X5779600Y-10278475D02*
G75*
G03*
X5779600Y-10278475I-80000J0D01*
G01*
X5619600Y-10836475D02*
X5779600Y-10996475D01*
X5779600Y-10836475D02*
X5619600Y-10996475D01*
X5779600Y-10916475D02*
G75*
G03*
X5779600Y-10916475I-80000J0D01*
G01*
X7502600Y-10198475D02*
X7662600Y-10358475D01*
X7662600Y-10198475D02*
X7502600Y-10358475D01*
X7662600Y-10278475D02*
G75*
G03*
X7662600Y-10278475I-80000J0D01*
G01*
X7502600Y-10836475D02*
X7662600Y-10996475D01*
X7662600Y-10836475D02*
X7502600Y-10996475D01*
X7662600Y-10916475D02*
G75*
G03*
X7662600Y-10916475I-80000J0D01*
G01*
D18*
X3958100Y-10504975D02*
X4123100Y-10669975D01*
X4123100Y-10504975D02*
X3958100Y-10669975D01*
X4040600Y-10504975D02*
X4040600Y-10669975D01*
X3958100Y-10587475D02*
X4123100Y-10587475D01*
X3958100Y-11328975D02*
X4123100Y-11493975D01*
X4123100Y-11328975D02*
X3958100Y-11493975D01*
X4040600Y-11328975D02*
X4040600Y-11493975D01*
X3958100Y-11411475D02*
X4123100Y-11411475D01*
X4326100Y-8120975D02*
X4491100Y-8285975D01*
X4491100Y-8120975D02*
X4326100Y-8285975D01*
X4408600Y-8120975D02*
X4408600Y-8285975D01*
X4326100Y-8203475D02*
X4491100Y-8203475D01*
X4326100Y-8623475D02*
X4491100Y-8788475D01*
X4491100Y-8623475D02*
X4326100Y-8788475D01*
X4408600Y-8623475D02*
X4408600Y-8788475D01*
X4326100Y-8705975D02*
X4491100Y-8705975D01*
X4326100Y-9125975D02*
X4491100Y-9290975D01*
X4491100Y-9125975D02*
X4326100Y-9290975D01*
X4408600Y-9125975D02*
X4408600Y-9290975D01*
X4326100Y-9208475D02*
X4491100Y-9208475D01*
X5370600Y-10452975D02*
X5535600Y-10617975D01*
X5535600Y-10452975D02*
X5370600Y-10617975D01*
X5453100Y-10452975D02*
X5453100Y-10617975D01*
X5370600Y-10535475D02*
X5535600Y-10535475D01*
X5370600Y-11291975D02*
X5535600Y-11456975D01*
X5535600Y-11291975D02*
X5370600Y-11456975D01*
X5453100Y-11291975D02*
X5453100Y-11456975D01*
X5370600Y-11374475D02*
X5535600Y-11374475D01*
X38933500Y-12947475D02*
X39098500Y-13112475D01*
X39098500Y-12947475D02*
X38933500Y-13112475D01*
X39016000Y-12947475D02*
X39016000Y-13112475D01*
X38933500Y-13029975D02*
X39098500Y-13029975D01*
X38933500Y-14534975D02*
X39098500Y-14699975D01*
X39098500Y-14534975D02*
X38933500Y-14699975D01*
X39016000Y-14534975D02*
X39016000Y-14699975D01*
X38933500Y-14617475D02*
X39098500Y-14617475D01*
D19*
X39628100Y-7272475D02*
X39798100Y-7442475D01*
X39798100Y-7272475D02*
X39628100Y-7442475D01*
X39773205Y-7417580D02*
X39773205Y-7297370D01*
X39652995Y-7297370D01*
X39652995Y-7417580D01*
X39773205Y-7417580D01*
X39628100Y-7668475D02*
X39798100Y-7838475D01*
X39798100Y-7668475D02*
X39628100Y-7838475D01*
X39773205Y-7813580D02*
X39773205Y-7693370D01*
X39652995Y-7693370D01*
X39652995Y-7813580D01*
X39773205Y-7813580D01*
X39628100Y-8064475D02*
X39798100Y-8234475D01*
X39798100Y-8064475D02*
X39628100Y-8234475D01*
X39773205Y-8209580D02*
X39773205Y-8089370D01*
X39652995Y-8089370D01*
X39652995Y-8209580D01*
X39773205Y-8209580D01*
X39628100Y-8460475D02*
X39798100Y-8630475D01*
X39798100Y-8460475D02*
X39628100Y-8630475D01*
X39773205Y-8605580D02*
X39773205Y-8485370D01*
X39652995Y-8485370D01*
X39652995Y-8605580D01*
X39773205Y-8605580D01*
D20*
X8990100Y-8633975D02*
X9480100Y-9123975D01*
X9480100Y-8633975D02*
X8990100Y-9123975D01*
X9235100Y-9123975D02*
X9480100Y-8878975D01*
X9235100Y-8633975D01*
X8990100Y-8878975D01*
X9235100Y-9123975D01*
X10268100Y-8633975D02*
X10758100Y-9123975D01*
X10758100Y-8633975D02*
X10268100Y-9123975D01*
X10513100Y-9123975D02*
X10758100Y-8878975D01*
X10513100Y-8633975D01*
X10268100Y-8878975D01*
X10513100Y-9123975D01*
D11*
X3937219Y-16817951D02*
X3937219Y-16617951D01*
X3984838Y-16617951D01*
X4013409Y-16627475D01*
X4032457Y-16646523D01*
X4041981Y-16665570D01*
X4051505Y-16703665D01*
X4051505Y-16732237D01*
X4041981Y-16770332D01*
X4032457Y-16789380D01*
X4013409Y-16808427D01*
X3984838Y-16817951D01*
X3937219Y-16817951D01*
X4137219Y-16817951D02*
X4137219Y-16684618D01*
X4137219Y-16722713D02*
X4146743Y-16703665D01*
X4156267Y-16694142D01*
X4175314Y-16684618D01*
X4194362Y-16684618D01*
X4261029Y-16817951D02*
X4261029Y-16684618D01*
X4261029Y-16617951D02*
X4251505Y-16627475D01*
X4261029Y-16636999D01*
X4270552Y-16627475D01*
X4261029Y-16617951D01*
X4261029Y-16636999D01*
X4384838Y-16817951D02*
X4365790Y-16808427D01*
X4356267Y-16789380D01*
X4356267Y-16617951D01*
X4489600Y-16817951D02*
X4470552Y-16808427D01*
X4461029Y-16789380D01*
X4461029Y-16617951D01*
X4718171Y-16817951D02*
X4718171Y-16617951D01*
X4784838Y-16760808D01*
X4851505Y-16617951D01*
X4851505Y-16817951D01*
X5032457Y-16817951D02*
X5032457Y-16713189D01*
X5022933Y-16694142D01*
X5003886Y-16684618D01*
X4965790Y-16684618D01*
X4946743Y-16694142D01*
X5032457Y-16808427D02*
X5013410Y-16817951D01*
X4965790Y-16817951D01*
X4946743Y-16808427D01*
X4937219Y-16789380D01*
X4937219Y-16770332D01*
X4946743Y-16751284D01*
X4965790Y-16741761D01*
X5013410Y-16741761D01*
X5032457Y-16732237D01*
X5127695Y-16684618D02*
X5127695Y-16884618D01*
X5127695Y-16694142D02*
X5146743Y-16684618D01*
X5184838Y-16684618D01*
X5203886Y-16694142D01*
X5213410Y-16703665D01*
X5222933Y-16722713D01*
X5222933Y-16779856D01*
X5213410Y-16798904D01*
X5203886Y-16808427D01*
X5184838Y-16817951D01*
X5146743Y-16817951D01*
X5127695Y-16808427D01*
X5308648Y-16798904D02*
X5318171Y-16808427D01*
X5308648Y-16817951D01*
X5299124Y-16808427D01*
X5308648Y-16798904D01*
X5308648Y-16817951D01*
X5308648Y-16694142D02*
X5318171Y-16703665D01*
X5308648Y-16713189D01*
X5299124Y-16703665D01*
X5308648Y-16694142D01*
X5308648Y-16713189D01*
D12*
X3639600Y-17127475D02*
X3679600Y-17167475D01*
X3679600Y-17127475D02*
X3639600Y-17167475D01*
D11*
X3975314Y-17037951D02*
X3994362Y-17037951D01*
X4013409Y-17047475D01*
X4022933Y-17056999D01*
X4032457Y-17076046D01*
X4041981Y-17114142D01*
X4041981Y-17161761D01*
X4032457Y-17199856D01*
X4022933Y-17218904D01*
X4013409Y-17228427D01*
X3994362Y-17237951D01*
X3975314Y-17237951D01*
X3956267Y-17228427D01*
X3946743Y-17218904D01*
X3937219Y-17199856D01*
X3927695Y-17161761D01*
X3927695Y-17114142D01*
X3937219Y-17076046D01*
X3946743Y-17056999D01*
X3956267Y-17047475D01*
X3975314Y-17037951D01*
X4127695Y-17218904D02*
X4137219Y-17228427D01*
X4127695Y-17237951D01*
X4118171Y-17228427D01*
X4127695Y-17218904D01*
X4127695Y-17237951D01*
X4308648Y-17104618D02*
X4308648Y-17237951D01*
X4261029Y-17028427D02*
X4213410Y-17171285D01*
X4337219Y-17171285D01*
X4451505Y-17037951D02*
X4470552Y-17037951D01*
X4489600Y-17047475D01*
X4499124Y-17056999D01*
X4508648Y-17076046D01*
X4518171Y-17114142D01*
X4518171Y-17161761D01*
X4508648Y-17199856D01*
X4499124Y-17218904D01*
X4489600Y-17228427D01*
X4470552Y-17237951D01*
X4451505Y-17237951D01*
X4432457Y-17228427D01*
X4422933Y-17218904D01*
X4413410Y-17199856D01*
X4403886Y-17161761D01*
X4403886Y-17114142D01*
X4413410Y-17076046D01*
X4422933Y-17056999D01*
X4432457Y-17047475D01*
X4451505Y-17037951D01*
X4641981Y-17037951D02*
X4661029Y-17037951D01*
X4680076Y-17047475D01*
X4689600Y-17056999D01*
X4699124Y-17076046D01*
X4708648Y-17114142D01*
X4708648Y-17161761D01*
X4699124Y-17199856D01*
X4689600Y-17218904D01*
X4680076Y-17228427D01*
X4661029Y-17237951D01*
X4641981Y-17237951D01*
X4622933Y-17228427D01*
X4613410Y-17218904D01*
X4603886Y-17199856D01*
X4594362Y-17161761D01*
X4594362Y-17114142D01*
X4603886Y-17076046D01*
X4613410Y-17056999D01*
X4622933Y-17047475D01*
X4641981Y-17037951D01*
X4794362Y-17237951D02*
X4794362Y-17104618D01*
X4794362Y-17123665D02*
X4803886Y-17114142D01*
X4822933Y-17104618D01*
X4851505Y-17104618D01*
X4870552Y-17114142D01*
X4880076Y-17133189D01*
X4880076Y-17237951D01*
X4880076Y-17133189D02*
X4889600Y-17114142D01*
X4908648Y-17104618D01*
X4937219Y-17104618D01*
X4956267Y-17114142D01*
X4965790Y-17133189D01*
X4965790Y-17237951D01*
X5061029Y-17237951D02*
X5061029Y-17104618D01*
X5061029Y-17123665D02*
X5070552Y-17114142D01*
X5089600Y-17104618D01*
X5118171Y-17104618D01*
X5137219Y-17114142D01*
X5146743Y-17133189D01*
X5146743Y-17237951D01*
X5146743Y-17133189D02*
X5156267Y-17114142D01*
X5175314Y-17104618D01*
X5203886Y-17104618D01*
X5222933Y-17114142D01*
X5232457Y-17133189D01*
X5232457Y-17237951D01*
X5622933Y-17028427D02*
X5451505Y-17285570D01*
X5880076Y-17037951D02*
X5899124Y-17037951D01*
X5918171Y-17047475D01*
X5927695Y-17056999D01*
X5937219Y-17076046D01*
X5946743Y-17114142D01*
X5946743Y-17161761D01*
X5937219Y-17199856D01*
X5927695Y-17218904D01*
X5918171Y-17228427D01*
X5899124Y-17237951D01*
X5880076Y-17237951D01*
X5861028Y-17228427D01*
X5851505Y-17218904D01*
X5841981Y-17199856D01*
X5832457Y-17161761D01*
X5832457Y-17114142D01*
X5841981Y-17076046D01*
X5851505Y-17056999D01*
X5861028Y-17047475D01*
X5880076Y-17037951D01*
X6032457Y-17218904D02*
X6041981Y-17228427D01*
X6032457Y-17237951D01*
X6022933Y-17228427D01*
X6032457Y-17218904D01*
X6032457Y-17237951D01*
X6165790Y-17037951D02*
X6184838Y-17037951D01*
X6203886Y-17047475D01*
X6213409Y-17056999D01*
X6222933Y-17076046D01*
X6232457Y-17114142D01*
X6232457Y-17161761D01*
X6222933Y-17199856D01*
X6213409Y-17218904D01*
X6203886Y-17228427D01*
X6184838Y-17237951D01*
X6165790Y-17237951D01*
X6146743Y-17228427D01*
X6137219Y-17218904D01*
X6127695Y-17199856D01*
X6118171Y-17161761D01*
X6118171Y-17114142D01*
X6127695Y-17076046D01*
X6137219Y-17056999D01*
X6146743Y-17047475D01*
X6165790Y-17037951D01*
X6422933Y-17237951D02*
X6308648Y-17237951D01*
X6365790Y-17237951D02*
X6365790Y-17037951D01*
X6346743Y-17066523D01*
X6327695Y-17085570D01*
X6308648Y-17095094D01*
X6603886Y-17037951D02*
X6508648Y-17037951D01*
X6499124Y-17133189D01*
X6508648Y-17123665D01*
X6527695Y-17114142D01*
X6575314Y-17114142D01*
X6594362Y-17123665D01*
X6603886Y-17133189D01*
X6613409Y-17152237D01*
X6613409Y-17199856D01*
X6603886Y-17218904D01*
X6594362Y-17228427D01*
X6575314Y-17237951D01*
X6527695Y-17237951D01*
X6508648Y-17228427D01*
X6499124Y-17218904D01*
X6680076Y-17037951D02*
X6813409Y-17037951D01*
X6727695Y-17237951D01*
X6880076Y-17037951D02*
X6880076Y-17076046D01*
X6956267Y-17037951D02*
X6956267Y-17076046D01*
X7251505Y-17314142D02*
X7241981Y-17304618D01*
X7222933Y-17276046D01*
X7213409Y-17256999D01*
X7203886Y-17228427D01*
X7194362Y-17180808D01*
X7194362Y-17142713D01*
X7203886Y-17095094D01*
X7213409Y-17066523D01*
X7222933Y-17047475D01*
X7241981Y-17018904D01*
X7251505Y-17009380D01*
X7356267Y-17123665D02*
X7337219Y-17114142D01*
X7327695Y-17104618D01*
X7318171Y-17085570D01*
X7318171Y-17076046D01*
X7327695Y-17056999D01*
X7337219Y-17047475D01*
X7356267Y-17037951D01*
X7394362Y-17037951D01*
X7413409Y-17047475D01*
X7422933Y-17056999D01*
X7432457Y-17076046D01*
X7432457Y-17085570D01*
X7422933Y-17104618D01*
X7413409Y-17114142D01*
X7394362Y-17123665D01*
X7356267Y-17123665D01*
X7337219Y-17133189D01*
X7327695Y-17142713D01*
X7318171Y-17161761D01*
X7318171Y-17199856D01*
X7327695Y-17218904D01*
X7337219Y-17228427D01*
X7356267Y-17237951D01*
X7394362Y-17237951D01*
X7413409Y-17228427D01*
X7422933Y-17218904D01*
X7432457Y-17199856D01*
X7432457Y-17161761D01*
X7422933Y-17142713D01*
X7413409Y-17133189D01*
X7394362Y-17123665D01*
X7670552Y-17237951D02*
X7670552Y-17037951D01*
X7756267Y-17237951D02*
X7756267Y-17133189D01*
X7746743Y-17114142D01*
X7727695Y-17104618D01*
X7699124Y-17104618D01*
X7680076Y-17114142D01*
X7670552Y-17123665D01*
X7880076Y-17237951D02*
X7861028Y-17228427D01*
X7851505Y-17218904D01*
X7841981Y-17199856D01*
X7841981Y-17142713D01*
X7851505Y-17123665D01*
X7861028Y-17114142D01*
X7880076Y-17104618D01*
X7908648Y-17104618D01*
X7927695Y-17114142D01*
X7937219Y-17123665D01*
X7946743Y-17142713D01*
X7946743Y-17199856D01*
X7937219Y-17218904D01*
X7927695Y-17228427D01*
X7908648Y-17237951D01*
X7880076Y-17237951D01*
X8061028Y-17237951D02*
X8041981Y-17228427D01*
X8032457Y-17209380D01*
X8032457Y-17037951D01*
X8213409Y-17228427D02*
X8194362Y-17237951D01*
X8156267Y-17237951D01*
X8137219Y-17228427D01*
X8127695Y-17209380D01*
X8127695Y-17133189D01*
X8137219Y-17114142D01*
X8156267Y-17104618D01*
X8194362Y-17104618D01*
X8213409Y-17114142D01*
X8222933Y-17133189D01*
X8222933Y-17152237D01*
X8127695Y-17171285D01*
X8299124Y-17228427D02*
X8318171Y-17237951D01*
X8356267Y-17237951D01*
X8375314Y-17228427D01*
X8384838Y-17209380D01*
X8384838Y-17199856D01*
X8375314Y-17180808D01*
X8356267Y-17171285D01*
X8327695Y-17171285D01*
X8308648Y-17161761D01*
X8299124Y-17142713D01*
X8299124Y-17133189D01*
X8308648Y-17114142D01*
X8327695Y-17104618D01*
X8356267Y-17104618D01*
X8375314Y-17114142D01*
X8451505Y-17314142D02*
X8461029Y-17304618D01*
X8480076Y-17276046D01*
X8489600Y-17256999D01*
X8499124Y-17228427D01*
X8508648Y-17180808D01*
X8508648Y-17142713D01*
X8499124Y-17095094D01*
X8489600Y-17066523D01*
X8480076Y-17047475D01*
X8461029Y-17018904D01*
X8451505Y-17009380D01*
D13*
X3679600Y-17411475D02*
G75*
G03*
X3679600Y-17411475I-40000J0D01*
G01*
D11*
X3975314Y-17301951D02*
X3994362Y-17301951D01*
X4013409Y-17311475D01*
X4022933Y-17320999D01*
X4032457Y-17340046D01*
X4041981Y-17378142D01*
X4041981Y-17425761D01*
X4032457Y-17463856D01*
X4022933Y-17482904D01*
X4013409Y-17492427D01*
X3994362Y-17501951D01*
X3975314Y-17501951D01*
X3956267Y-17492427D01*
X3946743Y-17482904D01*
X3937219Y-17463856D01*
X3927695Y-17425761D01*
X3927695Y-17378142D01*
X3937219Y-17340046D01*
X3946743Y-17320999D01*
X3956267Y-17311475D01*
X3975314Y-17301951D01*
X4127695Y-17482904D02*
X4137219Y-17492427D01*
X4127695Y-17501951D01*
X4118171Y-17492427D01*
X4127695Y-17482904D01*
X4127695Y-17501951D01*
X4251505Y-17387665D02*
X4232457Y-17378142D01*
X4222933Y-17368618D01*
X4213410Y-17349570D01*
X4213410Y-17340046D01*
X4222933Y-17320999D01*
X4232457Y-17311475D01*
X4251505Y-17301951D01*
X4289600Y-17301951D01*
X4308648Y-17311475D01*
X4318171Y-17320999D01*
X4327695Y-17340046D01*
X4327695Y-17349570D01*
X4318171Y-17368618D01*
X4308648Y-17378142D01*
X4289600Y-17387665D01*
X4251505Y-17387665D01*
X4232457Y-17397189D01*
X4222933Y-17406713D01*
X4213410Y-17425761D01*
X4213410Y-17463856D01*
X4222933Y-17482904D01*
X4232457Y-17492427D01*
X4251505Y-17501951D01*
X4289600Y-17501951D01*
X4308648Y-17492427D01*
X4318171Y-17482904D01*
X4327695Y-17463856D01*
X4327695Y-17425761D01*
X4318171Y-17406713D01*
X4308648Y-17397189D01*
X4289600Y-17387665D01*
X4451505Y-17301951D02*
X4470552Y-17301951D01*
X4489600Y-17311475D01*
X4499124Y-17320999D01*
X4508648Y-17340046D01*
X4518171Y-17378142D01*
X4518171Y-17425761D01*
X4508648Y-17463856D01*
X4499124Y-17482904D01*
X4489600Y-17492427D01*
X4470552Y-17501951D01*
X4451505Y-17501951D01*
X4432457Y-17492427D01*
X4422933Y-17482904D01*
X4413410Y-17463856D01*
X4403886Y-17425761D01*
X4403886Y-17378142D01*
X4413410Y-17340046D01*
X4422933Y-17320999D01*
X4432457Y-17311475D01*
X4451505Y-17301951D01*
X4641981Y-17301951D02*
X4661029Y-17301951D01*
X4680076Y-17311475D01*
X4689600Y-17320999D01*
X4699124Y-17340046D01*
X4708648Y-17378142D01*
X4708648Y-17425761D01*
X4699124Y-17463856D01*
X4689600Y-17482904D01*
X4680076Y-17492427D01*
X4661029Y-17501951D01*
X4641981Y-17501951D01*
X4622933Y-17492427D01*
X4613410Y-17482904D01*
X4603886Y-17463856D01*
X4594362Y-17425761D01*
X4594362Y-17378142D01*
X4603886Y-17340046D01*
X4613410Y-17320999D01*
X4622933Y-17311475D01*
X4641981Y-17301951D01*
X4794362Y-17501951D02*
X4794362Y-17368618D01*
X4794362Y-17387665D02*
X4803886Y-17378142D01*
X4822933Y-17368618D01*
X4851505Y-17368618D01*
X4870552Y-17378142D01*
X4880076Y-17397189D01*
X4880076Y-17501951D01*
X4880076Y-17397189D02*
X4889600Y-17378142D01*
X4908648Y-17368618D01*
X4937219Y-17368618D01*
X4956267Y-17378142D01*
X4965790Y-17397189D01*
X4965790Y-17501951D01*
X5061029Y-17501951D02*
X5061029Y-17368618D01*
X5061029Y-17387665D02*
X5070552Y-17378142D01*
X5089600Y-17368618D01*
X5118171Y-17368618D01*
X5137219Y-17378142D01*
X5146743Y-17397189D01*
X5146743Y-17501951D01*
X5146743Y-17397189D02*
X5156267Y-17378142D01*
X5175314Y-17368618D01*
X5203886Y-17368618D01*
X5222933Y-17378142D01*
X5232457Y-17397189D01*
X5232457Y-17501951D01*
X5622933Y-17292427D02*
X5451505Y-17549570D01*
X5880076Y-17301951D02*
X5899124Y-17301951D01*
X5918171Y-17311475D01*
X5927695Y-17320999D01*
X5937219Y-17340046D01*
X5946743Y-17378142D01*
X5946743Y-17425761D01*
X5937219Y-17463856D01*
X5927695Y-17482904D01*
X5918171Y-17492427D01*
X5899124Y-17501951D01*
X5880076Y-17501951D01*
X5861028Y-17492427D01*
X5851505Y-17482904D01*
X5841981Y-17463856D01*
X5832457Y-17425761D01*
X5832457Y-17378142D01*
X5841981Y-17340046D01*
X5851505Y-17320999D01*
X5861028Y-17311475D01*
X5880076Y-17301951D01*
X6032457Y-17482904D02*
X6041981Y-17492427D01*
X6032457Y-17501951D01*
X6022933Y-17492427D01*
X6032457Y-17482904D01*
X6032457Y-17501951D01*
X6165790Y-17301951D02*
X6184838Y-17301951D01*
X6203886Y-17311475D01*
X6213409Y-17320999D01*
X6222933Y-17340046D01*
X6232457Y-17378142D01*
X6232457Y-17425761D01*
X6222933Y-17463856D01*
X6213409Y-17482904D01*
X6203886Y-17492427D01*
X6184838Y-17501951D01*
X6165790Y-17501951D01*
X6146743Y-17492427D01*
X6137219Y-17482904D01*
X6127695Y-17463856D01*
X6118171Y-17425761D01*
X6118171Y-17378142D01*
X6127695Y-17340046D01*
X6137219Y-17320999D01*
X6146743Y-17311475D01*
X6165790Y-17301951D01*
X6299124Y-17301951D02*
X6422933Y-17301951D01*
X6356267Y-17378142D01*
X6384838Y-17378142D01*
X6403886Y-17387665D01*
X6413409Y-17397189D01*
X6422933Y-17416237D01*
X6422933Y-17463856D01*
X6413409Y-17482904D01*
X6403886Y-17492427D01*
X6384838Y-17501951D01*
X6327695Y-17501951D01*
X6308648Y-17492427D01*
X6299124Y-17482904D01*
X6613409Y-17501951D02*
X6499124Y-17501951D01*
X6556267Y-17501951D02*
X6556267Y-17301951D01*
X6537219Y-17330523D01*
X6518171Y-17349570D01*
X6499124Y-17359094D01*
X6794362Y-17301951D02*
X6699124Y-17301951D01*
X6689600Y-17397189D01*
X6699124Y-17387665D01*
X6718171Y-17378142D01*
X6765790Y-17378142D01*
X6784838Y-17387665D01*
X6794362Y-17397189D01*
X6803886Y-17416237D01*
X6803886Y-17463856D01*
X6794362Y-17482904D01*
X6784838Y-17492427D01*
X6765790Y-17501951D01*
X6718171Y-17501951D01*
X6699124Y-17492427D01*
X6689600Y-17482904D01*
X6880076Y-17301951D02*
X6880076Y-17340046D01*
X6956267Y-17301951D02*
X6956267Y-17340046D01*
X7251505Y-17578142D02*
X7241981Y-17568618D01*
X7222933Y-17540046D01*
X7213409Y-17520999D01*
X7203886Y-17492427D01*
X7194362Y-17444808D01*
X7194362Y-17406713D01*
X7203886Y-17359094D01*
X7213409Y-17330523D01*
X7222933Y-17311475D01*
X7241981Y-17282904D01*
X7251505Y-17273380D01*
X7432457Y-17501951D02*
X7318171Y-17501951D01*
X7375314Y-17501951D02*
X7375314Y-17301951D01*
X7356267Y-17330523D01*
X7337219Y-17349570D01*
X7318171Y-17359094D01*
X7527695Y-17501951D02*
X7565790Y-17501951D01*
X7584838Y-17492427D01*
X7594362Y-17482904D01*
X7613409Y-17454332D01*
X7622933Y-17416237D01*
X7622933Y-17340046D01*
X7613409Y-17320999D01*
X7603886Y-17311475D01*
X7584838Y-17301951D01*
X7546743Y-17301951D01*
X7527695Y-17311475D01*
X7518171Y-17320999D01*
X7508648Y-17340046D01*
X7508648Y-17387665D01*
X7518171Y-17406713D01*
X7527695Y-17416237D01*
X7546743Y-17425761D01*
X7584838Y-17425761D01*
X7603886Y-17416237D01*
X7613409Y-17406713D01*
X7622933Y-17387665D01*
X7861028Y-17501951D02*
X7861028Y-17301951D01*
X7946743Y-17501951D02*
X7946743Y-17397189D01*
X7937219Y-17378142D01*
X7918171Y-17368618D01*
X7889600Y-17368618D01*
X7870552Y-17378142D01*
X7861028Y-17387665D01*
X8070552Y-17501951D02*
X8051505Y-17492427D01*
X8041981Y-17482904D01*
X8032457Y-17463856D01*
X8032457Y-17406713D01*
X8041981Y-17387665D01*
X8051505Y-17378142D01*
X8070552Y-17368618D01*
X8099124Y-17368618D01*
X8118171Y-17378142D01*
X8127695Y-17387665D01*
X8137219Y-17406713D01*
X8137219Y-17463856D01*
X8127695Y-17482904D01*
X8118171Y-17492427D01*
X8099124Y-17501951D01*
X8070552Y-17501951D01*
X8251505Y-17501951D02*
X8232457Y-17492427D01*
X8222933Y-17473380D01*
X8222933Y-17301951D01*
X8403886Y-17492427D02*
X8384838Y-17501951D01*
X8346743Y-17501951D01*
X8327695Y-17492427D01*
X8318171Y-17473380D01*
X8318171Y-17397189D01*
X8327695Y-17378142D01*
X8346743Y-17368618D01*
X8384838Y-17368618D01*
X8403886Y-17378142D01*
X8413410Y-17397189D01*
X8413410Y-17416237D01*
X8318171Y-17435285D01*
X8489600Y-17492427D02*
X8508648Y-17501951D01*
X8546743Y-17501951D01*
X8565790Y-17492427D01*
X8575314Y-17473380D01*
X8575314Y-17463856D01*
X8565790Y-17444808D01*
X8546743Y-17435285D01*
X8518171Y-17435285D01*
X8499124Y-17425761D01*
X8489600Y-17406713D01*
X8489600Y-17397189D01*
X8499124Y-17378142D01*
X8518171Y-17368618D01*
X8546743Y-17368618D01*
X8565790Y-17378142D01*
X8641981Y-17578142D02*
X8651505Y-17568618D01*
X8670552Y-17540046D01*
X8680076Y-17520999D01*
X8689600Y-17492427D01*
X8699124Y-17444808D01*
X8699124Y-17406713D01*
X8689600Y-17359094D01*
X8680076Y-17330523D01*
X8670552Y-17311475D01*
X8651505Y-17282904D01*
X8641981Y-17273380D01*
D14*
X3624600Y-17620475D02*
X3624600Y-17730475D01*
X3569600Y-17675475D02*
X3679600Y-17675475D01*
D11*
X4041981Y-17765951D02*
X3927695Y-17765951D01*
X3984838Y-17765951D02*
X3984838Y-17565951D01*
X3965790Y-17594523D01*
X3946743Y-17613570D01*
X3927695Y-17623094D01*
X4127695Y-17746904D02*
X4137219Y-17756427D01*
X4127695Y-17765951D01*
X4118171Y-17756427D01*
X4127695Y-17746904D01*
X4127695Y-17765951D01*
X4327695Y-17765951D02*
X4213410Y-17765951D01*
X4270552Y-17765951D02*
X4270552Y-17565951D01*
X4251505Y-17594523D01*
X4232457Y-17613570D01*
X4213410Y-17623094D01*
X4451505Y-17565951D02*
X4470552Y-17565951D01*
X4489600Y-17575475D01*
X4499124Y-17584999D01*
X4508648Y-17604046D01*
X4518171Y-17642142D01*
X4518171Y-17689761D01*
X4508648Y-17727856D01*
X4499124Y-17746904D01*
X4489600Y-17756427D01*
X4470552Y-17765951D01*
X4451505Y-17765951D01*
X4432457Y-17756427D01*
X4422933Y-17746904D01*
X4413410Y-17727856D01*
X4403886Y-17689761D01*
X4403886Y-17642142D01*
X4413410Y-17604046D01*
X4422933Y-17584999D01*
X4432457Y-17575475D01*
X4451505Y-17565951D01*
X4641981Y-17565951D02*
X4661029Y-17565951D01*
X4680076Y-17575475D01*
X4689600Y-17584999D01*
X4699124Y-17604046D01*
X4708648Y-17642142D01*
X4708648Y-17689761D01*
X4699124Y-17727856D01*
X4689600Y-17746904D01*
X4680076Y-17756427D01*
X4661029Y-17765951D01*
X4641981Y-17765951D01*
X4622933Y-17756427D01*
X4613410Y-17746904D01*
X4603886Y-17727856D01*
X4594362Y-17689761D01*
X4594362Y-17642142D01*
X4603886Y-17604046D01*
X4613410Y-17584999D01*
X4622933Y-17575475D01*
X4641981Y-17565951D01*
X4794362Y-17765951D02*
X4794362Y-17632618D01*
X4794362Y-17651665D02*
X4803886Y-17642142D01*
X4822933Y-17632618D01*
X4851505Y-17632618D01*
X4870552Y-17642142D01*
X4880076Y-17661189D01*
X4880076Y-17765951D01*
X4880076Y-17661189D02*
X4889600Y-17642142D01*
X4908648Y-17632618D01*
X4937219Y-17632618D01*
X4956267Y-17642142D01*
X4965790Y-17661189D01*
X4965790Y-17765951D01*
X5061029Y-17765951D02*
X5061029Y-17632618D01*
X5061029Y-17651665D02*
X5070552Y-17642142D01*
X5089600Y-17632618D01*
X5118171Y-17632618D01*
X5137219Y-17642142D01*
X5146743Y-17661189D01*
X5146743Y-17765951D01*
X5146743Y-17661189D02*
X5156267Y-17642142D01*
X5175314Y-17632618D01*
X5203886Y-17632618D01*
X5222933Y-17642142D01*
X5232457Y-17661189D01*
X5232457Y-17765951D01*
X5622933Y-17556427D02*
X5451505Y-17813570D01*
X5880076Y-17565951D02*
X5899124Y-17565951D01*
X5918171Y-17575475D01*
X5927695Y-17584999D01*
X5937219Y-17604046D01*
X5946743Y-17642142D01*
X5946743Y-17689761D01*
X5937219Y-17727856D01*
X5927695Y-17746904D01*
X5918171Y-17756427D01*
X5899124Y-17765951D01*
X5880076Y-17765951D01*
X5861028Y-17756427D01*
X5851505Y-17746904D01*
X5841981Y-17727856D01*
X5832457Y-17689761D01*
X5832457Y-17642142D01*
X5841981Y-17604046D01*
X5851505Y-17584999D01*
X5861028Y-17575475D01*
X5880076Y-17565951D01*
X6032457Y-17746904D02*
X6041981Y-17756427D01*
X6032457Y-17765951D01*
X6022933Y-17756427D01*
X6032457Y-17746904D01*
X6032457Y-17765951D01*
X6165790Y-17565951D02*
X6184838Y-17565951D01*
X6203886Y-17575475D01*
X6213409Y-17584999D01*
X6222933Y-17604046D01*
X6232457Y-17642142D01*
X6232457Y-17689761D01*
X6222933Y-17727856D01*
X6213409Y-17746904D01*
X6203886Y-17756427D01*
X6184838Y-17765951D01*
X6165790Y-17765951D01*
X6146743Y-17756427D01*
X6137219Y-17746904D01*
X6127695Y-17727856D01*
X6118171Y-17689761D01*
X6118171Y-17642142D01*
X6127695Y-17604046D01*
X6137219Y-17584999D01*
X6146743Y-17575475D01*
X6165790Y-17565951D01*
X6403886Y-17632618D02*
X6403886Y-17765951D01*
X6356267Y-17556427D02*
X6308648Y-17699285D01*
X6432457Y-17699285D01*
X6489600Y-17565951D02*
X6613409Y-17565951D01*
X6546743Y-17642142D01*
X6575314Y-17642142D01*
X6594362Y-17651665D01*
X6603886Y-17661189D01*
X6613409Y-17680237D01*
X6613409Y-17727856D01*
X6603886Y-17746904D01*
X6594362Y-17756427D01*
X6575314Y-17765951D01*
X6518171Y-17765951D01*
X6499124Y-17756427D01*
X6489600Y-17746904D01*
X6680076Y-17565951D02*
X6803886Y-17565951D01*
X6737219Y-17642142D01*
X6765790Y-17642142D01*
X6784838Y-17651665D01*
X6794362Y-17661189D01*
X6803886Y-17680237D01*
X6803886Y-17727856D01*
X6794362Y-17746904D01*
X6784838Y-17756427D01*
X6765790Y-17765951D01*
X6708648Y-17765951D01*
X6689600Y-17756427D01*
X6680076Y-17746904D01*
X6880076Y-17565951D02*
X6880076Y-17604046D01*
X6956267Y-17565951D02*
X6956267Y-17604046D01*
X7251505Y-17842142D02*
X7241981Y-17832618D01*
X7222933Y-17804046D01*
X7213409Y-17784999D01*
X7203886Y-17756427D01*
X7194362Y-17708808D01*
X7194362Y-17670713D01*
X7203886Y-17623094D01*
X7213409Y-17594523D01*
X7222933Y-17575475D01*
X7241981Y-17546904D01*
X7251505Y-17537380D01*
X7432457Y-17765951D02*
X7318171Y-17765951D01*
X7375314Y-17765951D02*
X7375314Y-17565951D01*
X7356267Y-17594523D01*
X7337219Y-17613570D01*
X7318171Y-17623094D01*
X7556267Y-17565951D02*
X7575314Y-17565951D01*
X7594362Y-17575475D01*
X7603886Y-17584999D01*
X7613409Y-17604046D01*
X7622933Y-17642142D01*
X7622933Y-17689761D01*
X7613409Y-17727856D01*
X7603886Y-17746904D01*
X7594362Y-17756427D01*
X7575314Y-17765951D01*
X7556267Y-17765951D01*
X7537219Y-17756427D01*
X7527695Y-17746904D01*
X7518171Y-17727856D01*
X7508648Y-17689761D01*
X7508648Y-17642142D01*
X7518171Y-17604046D01*
X7527695Y-17584999D01*
X7537219Y-17575475D01*
X7556267Y-17565951D01*
X7861028Y-17765951D02*
X7861028Y-17565951D01*
X7946743Y-17765951D02*
X7946743Y-17661189D01*
X7937219Y-17642142D01*
X7918171Y-17632618D01*
X7889600Y-17632618D01*
X7870552Y-17642142D01*
X7861028Y-17651665D01*
X8070552Y-17765951D02*
X8051505Y-17756427D01*
X8041981Y-17746904D01*
X8032457Y-17727856D01*
X8032457Y-17670713D01*
X8041981Y-17651665D01*
X8051505Y-17642142D01*
X8070552Y-17632618D01*
X8099124Y-17632618D01*
X8118171Y-17642142D01*
X8127695Y-17651665D01*
X8137219Y-17670713D01*
X8137219Y-17727856D01*
X8127695Y-17746904D01*
X8118171Y-17756427D01*
X8099124Y-17765951D01*
X8070552Y-17765951D01*
X8251505Y-17765951D02*
X8232457Y-17756427D01*
X8222933Y-17737380D01*
X8222933Y-17565951D01*
X8403886Y-17756427D02*
X8384838Y-17765951D01*
X8346743Y-17765951D01*
X8327695Y-17756427D01*
X8318171Y-17737380D01*
X8318171Y-17661189D01*
X8327695Y-17642142D01*
X8346743Y-17632618D01*
X8384838Y-17632618D01*
X8403886Y-17642142D01*
X8413410Y-17661189D01*
X8413410Y-17680237D01*
X8318171Y-17699285D01*
X8489600Y-17756427D02*
X8508648Y-17765951D01*
X8546743Y-17765951D01*
X8565790Y-17756427D01*
X8575314Y-17737380D01*
X8575314Y-17727856D01*
X8565790Y-17708808D01*
X8546743Y-17699285D01*
X8518171Y-17699285D01*
X8499124Y-17689761D01*
X8489600Y-17670713D01*
X8489600Y-17661189D01*
X8499124Y-17642142D01*
X8518171Y-17632618D01*
X8546743Y-17632618D01*
X8565790Y-17642142D01*
X8641981Y-17842142D02*
X8651505Y-17832618D01*
X8670552Y-17804046D01*
X8680076Y-17784999D01*
X8689600Y-17756427D01*
X8699124Y-17708808D01*
X8699124Y-17670713D01*
X8689600Y-17623094D01*
X8680076Y-17594523D01*
X8670552Y-17575475D01*
X8651505Y-17546904D01*
X8641981Y-17537380D01*
D15*
X3662466Y-17980841D02*
X3662466Y-17898109D01*
X3579734Y-17898109D01*
X3579734Y-17980841D01*
X3662466Y-17980841D01*
D11*
X4041981Y-18029951D02*
X3927695Y-18029951D01*
X3984838Y-18029951D02*
X3984838Y-17829951D01*
X3965790Y-17858523D01*
X3946743Y-17877570D01*
X3927695Y-17887094D01*
X4127695Y-18010904D02*
X4137219Y-18020427D01*
X4127695Y-18029951D01*
X4118171Y-18020427D01*
X4127695Y-18010904D01*
X4127695Y-18029951D01*
X4327695Y-18029951D02*
X4213410Y-18029951D01*
X4270552Y-18029951D02*
X4270552Y-17829951D01*
X4251505Y-17858523D01*
X4232457Y-17877570D01*
X4213410Y-17887094D01*
X4394362Y-17829951D02*
X4527695Y-17829951D01*
X4441981Y-18029951D01*
X4641981Y-17829951D02*
X4661029Y-17829951D01*
X4680076Y-17839475D01*
X4689600Y-17848999D01*
X4699124Y-17868046D01*
X4708648Y-17906142D01*
X4708648Y-17953761D01*
X4699124Y-17991856D01*
X4689600Y-18010904D01*
X4680076Y-18020427D01*
X4661029Y-18029951D01*
X4641981Y-18029951D01*
X4622933Y-18020427D01*
X4613410Y-18010904D01*
X4603886Y-17991856D01*
X4594362Y-17953761D01*
X4594362Y-17906142D01*
X4603886Y-17868046D01*
X4613410Y-17848999D01*
X4622933Y-17839475D01*
X4641981Y-17829951D01*
X4794362Y-18029951D02*
X4794362Y-17896618D01*
X4794362Y-17915665D02*
X4803886Y-17906142D01*
X4822933Y-17896618D01*
X4851505Y-17896618D01*
X4870552Y-17906142D01*
X4880076Y-17925189D01*
X4880076Y-18029951D01*
X4880076Y-17925189D02*
X4889600Y-17906142D01*
X4908648Y-17896618D01*
X4937219Y-17896618D01*
X4956267Y-17906142D01*
X4965790Y-17925189D01*
X4965790Y-18029951D01*
X5061029Y-18029951D02*
X5061029Y-17896618D01*
X5061029Y-17915665D02*
X5070552Y-17906142D01*
X5089600Y-17896618D01*
X5118171Y-17896618D01*
X5137219Y-17906142D01*
X5146743Y-17925189D01*
X5146743Y-18029951D01*
X5146743Y-17925189D02*
X5156267Y-17906142D01*
X5175314Y-17896618D01*
X5203886Y-17896618D01*
X5222933Y-17906142D01*
X5232457Y-17925189D01*
X5232457Y-18029951D01*
X5622933Y-17820427D02*
X5451505Y-18077570D01*
X5880076Y-17829951D02*
X5899124Y-17829951D01*
X5918171Y-17839475D01*
X5927695Y-17848999D01*
X5937219Y-17868046D01*
X5946743Y-17906142D01*
X5946743Y-17953761D01*
X5937219Y-17991856D01*
X5927695Y-18010904D01*
X5918171Y-18020427D01*
X5899124Y-18029951D01*
X5880076Y-18029951D01*
X5861028Y-18020427D01*
X5851505Y-18010904D01*
X5841981Y-17991856D01*
X5832457Y-17953761D01*
X5832457Y-17906142D01*
X5841981Y-17868046D01*
X5851505Y-17848999D01*
X5861028Y-17839475D01*
X5880076Y-17829951D01*
X6032457Y-18010904D02*
X6041981Y-18020427D01*
X6032457Y-18029951D01*
X6022933Y-18020427D01*
X6032457Y-18010904D01*
X6032457Y-18029951D01*
X6165790Y-17829951D02*
X6184838Y-17829951D01*
X6203886Y-17839475D01*
X6213409Y-17848999D01*
X6222933Y-17868046D01*
X6232457Y-17906142D01*
X6232457Y-17953761D01*
X6222933Y-17991856D01*
X6213409Y-18010904D01*
X6203886Y-18020427D01*
X6184838Y-18029951D01*
X6165790Y-18029951D01*
X6146743Y-18020427D01*
X6137219Y-18010904D01*
X6127695Y-17991856D01*
X6118171Y-17953761D01*
X6118171Y-17906142D01*
X6127695Y-17868046D01*
X6137219Y-17848999D01*
X6146743Y-17839475D01*
X6165790Y-17829951D01*
X6403886Y-17896618D02*
X6403886Y-18029951D01*
X6356267Y-17820427D02*
X6308648Y-17963285D01*
X6432457Y-17963285D01*
X6594362Y-17829951D02*
X6556267Y-17829951D01*
X6537219Y-17839475D01*
X6527695Y-17848999D01*
X6508648Y-17877570D01*
X6499124Y-17915665D01*
X6499124Y-17991856D01*
X6508648Y-18010904D01*
X6518171Y-18020427D01*
X6537219Y-18029951D01*
X6575314Y-18029951D01*
X6594362Y-18020427D01*
X6603886Y-18010904D01*
X6613409Y-17991856D01*
X6613409Y-17944237D01*
X6603886Y-17925189D01*
X6594362Y-17915665D01*
X6575314Y-17906142D01*
X6537219Y-17906142D01*
X6518171Y-17915665D01*
X6508648Y-17925189D01*
X6499124Y-17944237D01*
X6803886Y-18029951D02*
X6689600Y-18029951D01*
X6746743Y-18029951D02*
X6746743Y-17829951D01*
X6727695Y-17858523D01*
X6708648Y-17877570D01*
X6689600Y-17887094D01*
X6880076Y-17829951D02*
X6880076Y-17868046D01*
X6956267Y-17829951D02*
X6956267Y-17868046D01*
X7251505Y-18106142D02*
X7241981Y-18096618D01*
X7222933Y-18068046D01*
X7213409Y-18048999D01*
X7203886Y-18020427D01*
X7194362Y-17972808D01*
X7194362Y-17934713D01*
X7203886Y-17887094D01*
X7213409Y-17858523D01*
X7222933Y-17839475D01*
X7241981Y-17810904D01*
X7251505Y-17801380D01*
X7422933Y-17829951D02*
X7327695Y-17829951D01*
X7318171Y-17925189D01*
X7327695Y-17915665D01*
X7346743Y-17906142D01*
X7394362Y-17906142D01*
X7413409Y-17915665D01*
X7422933Y-17925189D01*
X7432457Y-17944237D01*
X7432457Y-17991856D01*
X7422933Y-18010904D01*
X7413409Y-18020427D01*
X7394362Y-18029951D01*
X7346743Y-18029951D01*
X7327695Y-18020427D01*
X7318171Y-18010904D01*
X7556267Y-17829951D02*
X7575314Y-17829951D01*
X7594362Y-17839475D01*
X7603886Y-17848999D01*
X7613409Y-17868046D01*
X7622933Y-17906142D01*
X7622933Y-17953761D01*
X7613409Y-17991856D01*
X7603886Y-18010904D01*
X7594362Y-18020427D01*
X7575314Y-18029951D01*
X7556267Y-18029951D01*
X7537219Y-18020427D01*
X7527695Y-18010904D01*
X7518171Y-17991856D01*
X7508648Y-17953761D01*
X7508648Y-17906142D01*
X7518171Y-17868046D01*
X7527695Y-17848999D01*
X7537219Y-17839475D01*
X7556267Y-17829951D01*
X7746743Y-17829951D02*
X7765790Y-17829951D01*
X7784838Y-17839475D01*
X7794362Y-17848999D01*
X7803886Y-17868046D01*
X7813409Y-17906142D01*
X7813409Y-17953761D01*
X7803886Y-17991856D01*
X7794362Y-18010904D01*
X7784838Y-18020427D01*
X7765790Y-18029951D01*
X7746743Y-18029951D01*
X7727695Y-18020427D01*
X7718171Y-18010904D01*
X7708648Y-17991856D01*
X7699124Y-17953761D01*
X7699124Y-17906142D01*
X7708648Y-17868046D01*
X7718171Y-17848999D01*
X7727695Y-17839475D01*
X7746743Y-17829951D01*
X8051505Y-18029951D02*
X8051505Y-17829951D01*
X8137219Y-18029951D02*
X8137219Y-17925189D01*
X8127695Y-17906142D01*
X8108648Y-17896618D01*
X8080076Y-17896618D01*
X8061028Y-17906142D01*
X8051505Y-17915665D01*
X8261028Y-18029951D02*
X8241981Y-18020427D01*
X8232457Y-18010904D01*
X8222933Y-17991856D01*
X8222933Y-17934713D01*
X8232457Y-17915665D01*
X8241981Y-17906142D01*
X8261028Y-17896618D01*
X8289600Y-17896618D01*
X8308648Y-17906142D01*
X8318171Y-17915665D01*
X8327695Y-17934713D01*
X8327695Y-17991856D01*
X8318171Y-18010904D01*
X8308648Y-18020427D01*
X8289600Y-18029951D01*
X8261028Y-18029951D01*
X8441981Y-18029951D02*
X8422933Y-18020427D01*
X8413410Y-18001380D01*
X8413410Y-17829951D01*
X8594362Y-18020427D02*
X8575314Y-18029951D01*
X8537219Y-18029951D01*
X8518171Y-18020427D01*
X8508648Y-18001380D01*
X8508648Y-17925189D01*
X8518171Y-17906142D01*
X8537219Y-17896618D01*
X8575314Y-17896618D01*
X8594362Y-17906142D01*
X8603886Y-17925189D01*
X8603886Y-17944237D01*
X8508648Y-17963285D01*
X8680076Y-18020427D02*
X8699124Y-18029951D01*
X8737219Y-18029951D01*
X8756267Y-18020427D01*
X8765790Y-18001380D01*
X8765790Y-17991856D01*
X8756267Y-17972808D01*
X8737219Y-17963285D01*
X8708648Y-17963285D01*
X8689600Y-17953761D01*
X8680076Y-17934713D01*
X8680076Y-17925189D01*
X8689600Y-17906142D01*
X8708648Y-17896618D01*
X8737219Y-17896618D01*
X8756267Y-17906142D01*
X8832457Y-18106142D02*
X8841981Y-18096618D01*
X8861029Y-18068046D01*
X8870552Y-18048999D01*
X8880076Y-18020427D01*
X8889600Y-17972808D01*
X8889600Y-17934713D01*
X8880076Y-17887094D01*
X8870552Y-17858523D01*
X8861029Y-17839475D01*
X8841981Y-17810904D01*
X8832457Y-17801380D01*
D16*
X3619600Y-18263475D02*
X3679600Y-18203475D01*
X3619600Y-18143475D01*
X3559600Y-18203475D01*
X3619600Y-18263475D01*
D11*
X4041981Y-18293951D02*
X3927695Y-18293951D01*
X3984838Y-18293951D02*
X3984838Y-18093951D01*
X3965790Y-18122523D01*
X3946743Y-18141570D01*
X3927695Y-18151094D01*
X4127695Y-18274904D02*
X4137219Y-18284427D01*
X4127695Y-18293951D01*
X4118171Y-18284427D01*
X4127695Y-18274904D01*
X4127695Y-18293951D01*
X4213410Y-18112999D02*
X4222933Y-18103475D01*
X4241981Y-18093951D01*
X4289600Y-18093951D01*
X4308648Y-18103475D01*
X4318171Y-18112999D01*
X4327695Y-18132046D01*
X4327695Y-18151094D01*
X4318171Y-18179665D01*
X4203886Y-18293951D01*
X4327695Y-18293951D01*
X4451505Y-18093951D02*
X4470552Y-18093951D01*
X4489600Y-18103475D01*
X4499124Y-18112999D01*
X4508648Y-18132046D01*
X4518171Y-18170142D01*
X4518171Y-18217761D01*
X4508648Y-18255856D01*
X4499124Y-18274904D01*
X4489600Y-18284427D01*
X4470552Y-18293951D01*
X4451505Y-18293951D01*
X4432457Y-18284427D01*
X4422933Y-18274904D01*
X4413410Y-18255856D01*
X4403886Y-18217761D01*
X4403886Y-18170142D01*
X4413410Y-18132046D01*
X4422933Y-18112999D01*
X4432457Y-18103475D01*
X4451505Y-18093951D01*
X4641981Y-18093951D02*
X4661029Y-18093951D01*
X4680076Y-18103475D01*
X4689600Y-18112999D01*
X4699124Y-18132046D01*
X4708648Y-18170142D01*
X4708648Y-18217761D01*
X4699124Y-18255856D01*
X4689600Y-18274904D01*
X4680076Y-18284427D01*
X4661029Y-18293951D01*
X4641981Y-18293951D01*
X4622933Y-18284427D01*
X4613410Y-18274904D01*
X4603886Y-18255856D01*
X4594362Y-18217761D01*
X4594362Y-18170142D01*
X4603886Y-18132046D01*
X4613410Y-18112999D01*
X4622933Y-18103475D01*
X4641981Y-18093951D01*
X4794362Y-18293951D02*
X4794362Y-18160618D01*
X4794362Y-18179665D02*
X4803886Y-18170142D01*
X4822933Y-18160618D01*
X4851505Y-18160618D01*
X4870552Y-18170142D01*
X4880076Y-18189189D01*
X4880076Y-18293951D01*
X4880076Y-18189189D02*
X4889600Y-18170142D01*
X4908648Y-18160618D01*
X4937219Y-18160618D01*
X4956267Y-18170142D01*
X4965790Y-18189189D01*
X4965790Y-18293951D01*
X5061029Y-18293951D02*
X5061029Y-18160618D01*
X5061029Y-18179665D02*
X5070552Y-18170142D01*
X5089600Y-18160618D01*
X5118171Y-18160618D01*
X5137219Y-18170142D01*
X5146743Y-18189189D01*
X5146743Y-18293951D01*
X5146743Y-18189189D02*
X5156267Y-18170142D01*
X5175314Y-18160618D01*
X5203886Y-18160618D01*
X5222933Y-18170142D01*
X5232457Y-18189189D01*
X5232457Y-18293951D01*
X5622933Y-18084427D02*
X5451505Y-18341570D01*
X5880076Y-18093951D02*
X5899124Y-18093951D01*
X5918171Y-18103475D01*
X5927695Y-18112999D01*
X5937219Y-18132046D01*
X5946743Y-18170142D01*
X5946743Y-18217761D01*
X5937219Y-18255856D01*
X5927695Y-18274904D01*
X5918171Y-18284427D01*
X5899124Y-18293951D01*
X5880076Y-18293951D01*
X5861028Y-18284427D01*
X5851505Y-18274904D01*
X5841981Y-18255856D01*
X5832457Y-18217761D01*
X5832457Y-18170142D01*
X5841981Y-18132046D01*
X5851505Y-18112999D01*
X5861028Y-18103475D01*
X5880076Y-18093951D01*
X6032457Y-18274904D02*
X6041981Y-18284427D01*
X6032457Y-18293951D01*
X6022933Y-18284427D01*
X6032457Y-18274904D01*
X6032457Y-18293951D01*
X6165790Y-18093951D02*
X6184838Y-18093951D01*
X6203886Y-18103475D01*
X6213409Y-18112999D01*
X6222933Y-18132046D01*
X6232457Y-18170142D01*
X6232457Y-18217761D01*
X6222933Y-18255856D01*
X6213409Y-18274904D01*
X6203886Y-18284427D01*
X6184838Y-18293951D01*
X6165790Y-18293951D01*
X6146743Y-18284427D01*
X6137219Y-18274904D01*
X6127695Y-18255856D01*
X6118171Y-18217761D01*
X6118171Y-18170142D01*
X6127695Y-18132046D01*
X6137219Y-18112999D01*
X6146743Y-18103475D01*
X6165790Y-18093951D01*
X6403886Y-18160618D02*
X6403886Y-18293951D01*
X6356267Y-18084427D02*
X6308648Y-18227285D01*
X6432457Y-18227285D01*
X6489600Y-18093951D02*
X6622933Y-18093951D01*
X6537219Y-18293951D01*
X6689600Y-18112999D02*
X6699124Y-18103475D01*
X6718171Y-18093951D01*
X6765790Y-18093951D01*
X6784838Y-18103475D01*
X6794362Y-18112999D01*
X6803886Y-18132046D01*
X6803886Y-18151094D01*
X6794362Y-18179665D01*
X6680076Y-18293951D01*
X6803886Y-18293951D01*
X6880076Y-18093951D02*
X6880076Y-18132046D01*
X6956267Y-18093951D02*
X6956267Y-18132046D01*
X7251505Y-18370142D02*
X7241981Y-18360618D01*
X7222933Y-18332046D01*
X7213409Y-18312999D01*
X7203886Y-18284427D01*
X7194362Y-18236808D01*
X7194362Y-18198713D01*
X7203886Y-18151094D01*
X7213409Y-18122523D01*
X7222933Y-18103475D01*
X7241981Y-18074904D01*
X7251505Y-18065380D01*
X7413409Y-18093951D02*
X7375314Y-18093951D01*
X7356267Y-18103475D01*
X7346743Y-18112999D01*
X7327695Y-18141570D01*
X7318171Y-18179665D01*
X7318171Y-18255856D01*
X7327695Y-18274904D01*
X7337219Y-18284427D01*
X7356267Y-18293951D01*
X7394362Y-18293951D01*
X7413409Y-18284427D01*
X7422933Y-18274904D01*
X7432457Y-18255856D01*
X7432457Y-18208237D01*
X7422933Y-18189189D01*
X7413409Y-18179665D01*
X7394362Y-18170142D01*
X7356267Y-18170142D01*
X7337219Y-18179665D01*
X7327695Y-18189189D01*
X7318171Y-18208237D01*
X7670552Y-18293951D02*
X7670552Y-18093951D01*
X7756267Y-18293951D02*
X7756267Y-18189189D01*
X7746743Y-18170142D01*
X7727695Y-18160618D01*
X7699124Y-18160618D01*
X7680076Y-18170142D01*
X7670552Y-18179665D01*
X7880076Y-18293951D02*
X7861028Y-18284427D01*
X7851505Y-18274904D01*
X7841981Y-18255856D01*
X7841981Y-18198713D01*
X7851505Y-18179665D01*
X7861028Y-18170142D01*
X7880076Y-18160618D01*
X7908648Y-18160618D01*
X7927695Y-18170142D01*
X7937219Y-18179665D01*
X7946743Y-18198713D01*
X7946743Y-18255856D01*
X7937219Y-18274904D01*
X7927695Y-18284427D01*
X7908648Y-18293951D01*
X7880076Y-18293951D01*
X8061028Y-18293951D02*
X8041981Y-18284427D01*
X8032457Y-18265380D01*
X8032457Y-18093951D01*
X8213409Y-18284427D02*
X8194362Y-18293951D01*
X8156267Y-18293951D01*
X8137219Y-18284427D01*
X8127695Y-18265380D01*
X8127695Y-18189189D01*
X8137219Y-18170142D01*
X8156267Y-18160618D01*
X8194362Y-18160618D01*
X8213409Y-18170142D01*
X8222933Y-18189189D01*
X8222933Y-18208237D01*
X8127695Y-18227285D01*
X8299124Y-18284427D02*
X8318171Y-18293951D01*
X8356267Y-18293951D01*
X8375314Y-18284427D01*
X8384838Y-18265380D01*
X8384838Y-18255856D01*
X8375314Y-18236808D01*
X8356267Y-18227285D01*
X8327695Y-18227285D01*
X8308648Y-18217761D01*
X8299124Y-18198713D01*
X8299124Y-18189189D01*
X8308648Y-18170142D01*
X8327695Y-18160618D01*
X8356267Y-18160618D01*
X8375314Y-18170142D01*
X8451505Y-18370142D02*
X8461029Y-18360618D01*
X8480076Y-18332046D01*
X8489600Y-18312999D01*
X8499124Y-18284427D01*
X8508648Y-18236808D01*
X8508648Y-18198713D01*
X8499124Y-18151094D01*
X8489600Y-18122523D01*
X8480076Y-18103475D01*
X8461029Y-18074904D01*
X8451505Y-18065380D01*
D17*
X3519600Y-18387475D02*
X3679600Y-18547475D01*
X3679600Y-18387475D02*
X3519600Y-18547475D01*
X3679600Y-18467475D02*
G75*
G03*
X3679600Y-18467475I-80000J0D01*
G01*
D11*
X4041981Y-18557951D02*
X3927695Y-18557951D01*
X3984838Y-18557951D02*
X3984838Y-18357951D01*
X3965790Y-18386523D01*
X3946743Y-18405570D01*
X3927695Y-18415094D01*
X4127695Y-18538904D02*
X4137219Y-18548427D01*
X4127695Y-18557951D01*
X4118171Y-18548427D01*
X4127695Y-18538904D01*
X4127695Y-18557951D01*
X4308648Y-18357951D02*
X4270552Y-18357951D01*
X4251505Y-18367475D01*
X4241981Y-18376999D01*
X4222933Y-18405570D01*
X4213410Y-18443665D01*
X4213410Y-18519856D01*
X4222933Y-18538904D01*
X4232457Y-18548427D01*
X4251505Y-18557951D01*
X4289600Y-18557951D01*
X4308648Y-18548427D01*
X4318171Y-18538904D01*
X4327695Y-18519856D01*
X4327695Y-18472237D01*
X4318171Y-18453189D01*
X4308648Y-18443665D01*
X4289600Y-18434142D01*
X4251505Y-18434142D01*
X4232457Y-18443665D01*
X4222933Y-18453189D01*
X4213410Y-18472237D01*
X4451505Y-18357951D02*
X4470552Y-18357951D01*
X4489600Y-18367475D01*
X4499124Y-18376999D01*
X4508648Y-18396046D01*
X4518171Y-18434142D01*
X4518171Y-18481761D01*
X4508648Y-18519856D01*
X4499124Y-18538904D01*
X4489600Y-18548427D01*
X4470552Y-18557951D01*
X4451505Y-18557951D01*
X4432457Y-18548427D01*
X4422933Y-18538904D01*
X4413410Y-18519856D01*
X4403886Y-18481761D01*
X4403886Y-18434142D01*
X4413410Y-18396046D01*
X4422933Y-18376999D01*
X4432457Y-18367475D01*
X4451505Y-18357951D01*
X4641981Y-18357951D02*
X4661029Y-18357951D01*
X4680076Y-18367475D01*
X4689600Y-18376999D01*
X4699124Y-18396046D01*
X4708648Y-18434142D01*
X4708648Y-18481761D01*
X4699124Y-18519856D01*
X4689600Y-18538904D01*
X4680076Y-18548427D01*
X4661029Y-18557951D01*
X4641981Y-18557951D01*
X4622933Y-18548427D01*
X4613410Y-18538904D01*
X4603886Y-18519856D01*
X4594362Y-18481761D01*
X4594362Y-18434142D01*
X4603886Y-18396046D01*
X4613410Y-18376999D01*
X4622933Y-18367475D01*
X4641981Y-18357951D01*
X4794362Y-18557951D02*
X4794362Y-18424618D01*
X4794362Y-18443665D02*
X4803886Y-18434142D01*
X4822933Y-18424618D01*
X4851505Y-18424618D01*
X4870552Y-18434142D01*
X4880076Y-18453189D01*
X4880076Y-18557951D01*
X4880076Y-18453189D02*
X4889600Y-18434142D01*
X4908648Y-18424618D01*
X4937219Y-18424618D01*
X4956267Y-18434142D01*
X4965790Y-18453189D01*
X4965790Y-18557951D01*
X5061029Y-18557951D02*
X5061029Y-18424618D01*
X5061029Y-18443665D02*
X5070552Y-18434142D01*
X5089600Y-18424618D01*
X5118171Y-18424618D01*
X5137219Y-18434142D01*
X5146743Y-18453189D01*
X5146743Y-18557951D01*
X5146743Y-18453189D02*
X5156267Y-18434142D01*
X5175314Y-18424618D01*
X5203886Y-18424618D01*
X5222933Y-18434142D01*
X5232457Y-18453189D01*
X5232457Y-18557951D01*
X5622933Y-18348427D02*
X5451505Y-18605570D01*
X5880076Y-18357951D02*
X5899124Y-18357951D01*
X5918171Y-18367475D01*
X5927695Y-18376999D01*
X5937219Y-18396046D01*
X5946743Y-18434142D01*
X5946743Y-18481761D01*
X5937219Y-18519856D01*
X5927695Y-18538904D01*
X5918171Y-18548427D01*
X5899124Y-18557951D01*
X5880076Y-18557951D01*
X5861028Y-18548427D01*
X5851505Y-18538904D01*
X5841981Y-18519856D01*
X5832457Y-18481761D01*
X5832457Y-18434142D01*
X5841981Y-18396046D01*
X5851505Y-18376999D01*
X5861028Y-18367475D01*
X5880076Y-18357951D01*
X6032457Y-18538904D02*
X6041981Y-18548427D01*
X6032457Y-18557951D01*
X6022933Y-18548427D01*
X6032457Y-18538904D01*
X6032457Y-18557951D01*
X6165790Y-18357951D02*
X6184838Y-18357951D01*
X6203886Y-18367475D01*
X6213409Y-18376999D01*
X6222933Y-18396046D01*
X6232457Y-18434142D01*
X6232457Y-18481761D01*
X6222933Y-18519856D01*
X6213409Y-18538904D01*
X6203886Y-18548427D01*
X6184838Y-18557951D01*
X6165790Y-18557951D01*
X6146743Y-18548427D01*
X6137219Y-18538904D01*
X6127695Y-18519856D01*
X6118171Y-18481761D01*
X6118171Y-18434142D01*
X6127695Y-18396046D01*
X6137219Y-18376999D01*
X6146743Y-18367475D01*
X6165790Y-18357951D01*
X6403886Y-18357951D02*
X6365790Y-18357951D01*
X6346743Y-18367475D01*
X6337219Y-18376999D01*
X6318171Y-18405570D01*
X6308648Y-18443665D01*
X6308648Y-18519856D01*
X6318171Y-18538904D01*
X6327695Y-18548427D01*
X6346743Y-18557951D01*
X6384838Y-18557951D01*
X6403886Y-18548427D01*
X6413409Y-18538904D01*
X6422933Y-18519856D01*
X6422933Y-18472237D01*
X6413409Y-18453189D01*
X6403886Y-18443665D01*
X6384838Y-18434142D01*
X6346743Y-18434142D01*
X6327695Y-18443665D01*
X6318171Y-18453189D01*
X6308648Y-18472237D01*
X6489600Y-18357951D02*
X6613409Y-18357951D01*
X6546743Y-18434142D01*
X6575314Y-18434142D01*
X6594362Y-18443665D01*
X6603886Y-18453189D01*
X6613409Y-18472237D01*
X6613409Y-18519856D01*
X6603886Y-18538904D01*
X6594362Y-18548427D01*
X6575314Y-18557951D01*
X6518171Y-18557951D01*
X6499124Y-18548427D01*
X6489600Y-18538904D01*
X6737219Y-18357951D02*
X6756267Y-18357951D01*
X6775314Y-18367475D01*
X6784838Y-18376999D01*
X6794362Y-18396046D01*
X6803886Y-18434142D01*
X6803886Y-18481761D01*
X6794362Y-18519856D01*
X6784838Y-18538904D01*
X6775314Y-18548427D01*
X6756267Y-18557951D01*
X6737219Y-18557951D01*
X6718171Y-18548427D01*
X6708648Y-18538904D01*
X6699124Y-18519856D01*
X6689600Y-18481761D01*
X6689600Y-18434142D01*
X6699124Y-18396046D01*
X6708648Y-18376999D01*
X6718171Y-18367475D01*
X6737219Y-18357951D01*
X6880076Y-18357951D02*
X6880076Y-18396046D01*
X6956267Y-18357951D02*
X6956267Y-18396046D01*
X7251505Y-18634142D02*
X7241981Y-18624618D01*
X7222933Y-18596046D01*
X7213409Y-18576999D01*
X7203886Y-18548427D01*
X7194362Y-18500808D01*
X7194362Y-18462713D01*
X7203886Y-18415094D01*
X7213409Y-18386523D01*
X7222933Y-18367475D01*
X7241981Y-18338904D01*
X7251505Y-18329380D01*
X7337219Y-18557951D02*
X7375314Y-18557951D01*
X7394362Y-18548427D01*
X7403886Y-18538904D01*
X7422933Y-18510332D01*
X7432457Y-18472237D01*
X7432457Y-18396046D01*
X7422933Y-18376999D01*
X7413409Y-18367475D01*
X7394362Y-18357951D01*
X7356267Y-18357951D01*
X7337219Y-18367475D01*
X7327695Y-18376999D01*
X7318171Y-18396046D01*
X7318171Y-18443665D01*
X7327695Y-18462713D01*
X7337219Y-18472237D01*
X7356267Y-18481761D01*
X7394362Y-18481761D01*
X7413409Y-18472237D01*
X7422933Y-18462713D01*
X7432457Y-18443665D01*
X7670552Y-18557951D02*
X7670552Y-18357951D01*
X7756267Y-18557951D02*
X7756267Y-18453189D01*
X7746743Y-18434142D01*
X7727695Y-18424618D01*
X7699124Y-18424618D01*
X7680076Y-18434142D01*
X7670552Y-18443665D01*
X7880076Y-18557951D02*
X7861028Y-18548427D01*
X7851505Y-18538904D01*
X7841981Y-18519856D01*
X7841981Y-18462713D01*
X7851505Y-18443665D01*
X7861028Y-18434142D01*
X7880076Y-18424618D01*
X7908648Y-18424618D01*
X7927695Y-18434142D01*
X7937219Y-18443665D01*
X7946743Y-18462713D01*
X7946743Y-18519856D01*
X7937219Y-18538904D01*
X7927695Y-18548427D01*
X7908648Y-18557951D01*
X7880076Y-18557951D01*
X8061028Y-18557951D02*
X8041981Y-18548427D01*
X8032457Y-18529380D01*
X8032457Y-18357951D01*
X8213409Y-18548427D02*
X8194362Y-18557951D01*
X8156267Y-18557951D01*
X8137219Y-18548427D01*
X8127695Y-18529380D01*
X8127695Y-18453189D01*
X8137219Y-18434142D01*
X8156267Y-18424618D01*
X8194362Y-18424618D01*
X8213409Y-18434142D01*
X8222933Y-18453189D01*
X8222933Y-18472237D01*
X8127695Y-18491285D01*
X8299124Y-18548427D02*
X8318171Y-18557951D01*
X8356267Y-18557951D01*
X8375314Y-18548427D01*
X8384838Y-18529380D01*
X8384838Y-18519856D01*
X8375314Y-18500808D01*
X8356267Y-18491285D01*
X8327695Y-18491285D01*
X8308648Y-18481761D01*
X8299124Y-18462713D01*
X8299124Y-18453189D01*
X8308648Y-18434142D01*
X8327695Y-18424618D01*
X8356267Y-18424618D01*
X8375314Y-18434142D01*
X8451505Y-18634142D02*
X8461029Y-18624618D01*
X8480076Y-18596046D01*
X8489600Y-18576999D01*
X8499124Y-18548427D01*
X8508648Y-18500808D01*
X8508648Y-18462713D01*
X8499124Y-18415094D01*
X8489600Y-18386523D01*
X8480076Y-18367475D01*
X8461029Y-18338904D01*
X8451505Y-18329380D01*
D18*
X3514600Y-18664975D02*
X3679600Y-18829975D01*
X3679600Y-18664975D02*
X3514600Y-18829975D01*
X3597100Y-18664975D02*
X3597100Y-18829975D01*
X3514600Y-18747475D02*
X3679600Y-18747475D01*
D11*
X4041981Y-18837951D02*
X3927695Y-18837951D01*
X3984838Y-18837951D02*
X3984838Y-18637951D01*
X3965790Y-18666523D01*
X3946743Y-18685570D01*
X3927695Y-18695094D01*
X4127695Y-18818904D02*
X4137219Y-18828427D01*
X4127695Y-18837951D01*
X4118171Y-18828427D01*
X4127695Y-18818904D01*
X4127695Y-18837951D01*
X4308648Y-18637951D02*
X4270552Y-18637951D01*
X4251505Y-18647475D01*
X4241981Y-18656999D01*
X4222933Y-18685570D01*
X4213410Y-18723665D01*
X4213410Y-18799856D01*
X4222933Y-18818904D01*
X4232457Y-18828427D01*
X4251505Y-18837951D01*
X4289600Y-18837951D01*
X4308648Y-18828427D01*
X4318171Y-18818904D01*
X4327695Y-18799856D01*
X4327695Y-18752237D01*
X4318171Y-18733189D01*
X4308648Y-18723665D01*
X4289600Y-18714142D01*
X4251505Y-18714142D01*
X4232457Y-18723665D01*
X4222933Y-18733189D01*
X4213410Y-18752237D01*
X4508648Y-18637951D02*
X4413410Y-18637951D01*
X4403886Y-18733189D01*
X4413410Y-18723665D01*
X4432457Y-18714142D01*
X4480076Y-18714142D01*
X4499124Y-18723665D01*
X4508648Y-18733189D01*
X4518171Y-18752237D01*
X4518171Y-18799856D01*
X4508648Y-18818904D01*
X4499124Y-18828427D01*
X4480076Y-18837951D01*
X4432457Y-18837951D01*
X4413410Y-18828427D01*
X4403886Y-18818904D01*
X4641981Y-18637951D02*
X4661029Y-18637951D01*
X4680076Y-18647475D01*
X4689600Y-18656999D01*
X4699124Y-18676046D01*
X4708648Y-18714142D01*
X4708648Y-18761761D01*
X4699124Y-18799856D01*
X4689600Y-18818904D01*
X4680076Y-18828427D01*
X4661029Y-18837951D01*
X4641981Y-18837951D01*
X4622933Y-18828427D01*
X4613410Y-18818904D01*
X4603886Y-18799856D01*
X4594362Y-18761761D01*
X4594362Y-18714142D01*
X4603886Y-18676046D01*
X4613410Y-18656999D01*
X4622933Y-18647475D01*
X4641981Y-18637951D01*
X4794362Y-18837951D02*
X4794362Y-18704618D01*
X4794362Y-18723665D02*
X4803886Y-18714142D01*
X4822933Y-18704618D01*
X4851505Y-18704618D01*
X4870552Y-18714142D01*
X4880076Y-18733189D01*
X4880076Y-18837951D01*
X4880076Y-18733189D02*
X4889600Y-18714142D01*
X4908648Y-18704618D01*
X4937219Y-18704618D01*
X4956267Y-18714142D01*
X4965790Y-18733189D01*
X4965790Y-18837951D01*
X5061029Y-18837951D02*
X5061029Y-18704618D01*
X5061029Y-18723665D02*
X5070552Y-18714142D01*
X5089600Y-18704618D01*
X5118171Y-18704618D01*
X5137219Y-18714142D01*
X5146743Y-18733189D01*
X5146743Y-18837951D01*
X5146743Y-18733189D02*
X5156267Y-18714142D01*
X5175314Y-18704618D01*
X5203886Y-18704618D01*
X5222933Y-18714142D01*
X5232457Y-18733189D01*
X5232457Y-18837951D01*
X5622933Y-18628427D02*
X5451505Y-18885570D01*
X5880076Y-18637951D02*
X5899124Y-18637951D01*
X5918171Y-18647475D01*
X5927695Y-18656999D01*
X5937219Y-18676046D01*
X5946743Y-18714142D01*
X5946743Y-18761761D01*
X5937219Y-18799856D01*
X5927695Y-18818904D01*
X5918171Y-18828427D01*
X5899124Y-18837951D01*
X5880076Y-18837951D01*
X5861028Y-18828427D01*
X5851505Y-18818904D01*
X5841981Y-18799856D01*
X5832457Y-18761761D01*
X5832457Y-18714142D01*
X5841981Y-18676046D01*
X5851505Y-18656999D01*
X5861028Y-18647475D01*
X5880076Y-18637951D01*
X6032457Y-18818904D02*
X6041981Y-18828427D01*
X6032457Y-18837951D01*
X6022933Y-18828427D01*
X6032457Y-18818904D01*
X6032457Y-18837951D01*
X6165790Y-18637951D02*
X6184838Y-18637951D01*
X6203886Y-18647475D01*
X6213409Y-18656999D01*
X6222933Y-18676046D01*
X6232457Y-18714142D01*
X6232457Y-18761761D01*
X6222933Y-18799856D01*
X6213409Y-18818904D01*
X6203886Y-18828427D01*
X6184838Y-18837951D01*
X6165790Y-18837951D01*
X6146743Y-18828427D01*
X6137219Y-18818904D01*
X6127695Y-18799856D01*
X6118171Y-18761761D01*
X6118171Y-18714142D01*
X6127695Y-18676046D01*
X6137219Y-18656999D01*
X6146743Y-18647475D01*
X6165790Y-18637951D01*
X6403886Y-18637951D02*
X6365790Y-18637951D01*
X6346743Y-18647475D01*
X6337219Y-18656999D01*
X6318171Y-18685570D01*
X6308648Y-18723665D01*
X6308648Y-18799856D01*
X6318171Y-18818904D01*
X6327695Y-18828427D01*
X6346743Y-18837951D01*
X6384838Y-18837951D01*
X6403886Y-18828427D01*
X6413409Y-18818904D01*
X6422933Y-18799856D01*
X6422933Y-18752237D01*
X6413409Y-18733189D01*
X6403886Y-18723665D01*
X6384838Y-18714142D01*
X6346743Y-18714142D01*
X6327695Y-18723665D01*
X6318171Y-18733189D01*
X6308648Y-18752237D01*
X6603886Y-18637951D02*
X6508648Y-18637951D01*
X6499124Y-18733189D01*
X6508648Y-18723665D01*
X6527695Y-18714142D01*
X6575314Y-18714142D01*
X6594362Y-18723665D01*
X6603886Y-18733189D01*
X6613409Y-18752237D01*
X6613409Y-18799856D01*
X6603886Y-18818904D01*
X6594362Y-18828427D01*
X6575314Y-18837951D01*
X6527695Y-18837951D01*
X6508648Y-18828427D01*
X6499124Y-18818904D01*
X6737219Y-18637951D02*
X6756267Y-18637951D01*
X6775314Y-18647475D01*
X6784838Y-18656999D01*
X6794362Y-18676046D01*
X6803886Y-18714142D01*
X6803886Y-18761761D01*
X6794362Y-18799856D01*
X6784838Y-18818904D01*
X6775314Y-18828427D01*
X6756267Y-18837951D01*
X6737219Y-18837951D01*
X6718171Y-18828427D01*
X6708648Y-18818904D01*
X6699124Y-18799856D01*
X6689600Y-18761761D01*
X6689600Y-18714142D01*
X6699124Y-18676046D01*
X6708648Y-18656999D01*
X6718171Y-18647475D01*
X6737219Y-18637951D01*
X6880076Y-18637951D02*
X6880076Y-18676046D01*
X6956267Y-18637951D02*
X6956267Y-18676046D01*
X7251505Y-18914142D02*
X7241981Y-18904618D01*
X7222933Y-18876046D01*
X7213409Y-18856999D01*
X7203886Y-18828427D01*
X7194362Y-18780808D01*
X7194362Y-18742713D01*
X7203886Y-18695094D01*
X7213409Y-18666523D01*
X7222933Y-18647475D01*
X7241981Y-18618904D01*
X7251505Y-18609380D01*
X7337219Y-18837951D02*
X7375314Y-18837951D01*
X7394362Y-18828427D01*
X7403886Y-18818904D01*
X7422933Y-18790332D01*
X7432457Y-18752237D01*
X7432457Y-18676046D01*
X7422933Y-18656999D01*
X7413409Y-18647475D01*
X7394362Y-18637951D01*
X7356267Y-18637951D01*
X7337219Y-18647475D01*
X7327695Y-18656999D01*
X7318171Y-18676046D01*
X7318171Y-18723665D01*
X7327695Y-18742713D01*
X7337219Y-18752237D01*
X7356267Y-18761761D01*
X7394362Y-18761761D01*
X7413409Y-18752237D01*
X7422933Y-18742713D01*
X7432457Y-18723665D01*
X7670552Y-18837951D02*
X7670552Y-18637951D01*
X7756267Y-18837951D02*
X7756267Y-18733189D01*
X7746743Y-18714142D01*
X7727695Y-18704618D01*
X7699124Y-18704618D01*
X7680076Y-18714142D01*
X7670552Y-18723665D01*
X7880076Y-18837951D02*
X7861028Y-18828427D01*
X7851505Y-18818904D01*
X7841981Y-18799856D01*
X7841981Y-18742713D01*
X7851505Y-18723665D01*
X7861028Y-18714142D01*
X7880076Y-18704618D01*
X7908648Y-18704618D01*
X7927695Y-18714142D01*
X7937219Y-18723665D01*
X7946743Y-18742713D01*
X7946743Y-18799856D01*
X7937219Y-18818904D01*
X7927695Y-18828427D01*
X7908648Y-18837951D01*
X7880076Y-18837951D01*
X8061028Y-18837951D02*
X8041981Y-18828427D01*
X8032457Y-18809380D01*
X8032457Y-18637951D01*
X8213409Y-18828427D02*
X8194362Y-18837951D01*
X8156267Y-18837951D01*
X8137219Y-18828427D01*
X8127695Y-18809380D01*
X8127695Y-18733189D01*
X8137219Y-18714142D01*
X8156267Y-18704618D01*
X8194362Y-18704618D01*
X8213409Y-18714142D01*
X8222933Y-18733189D01*
X8222933Y-18752237D01*
X8127695Y-18771285D01*
X8299124Y-18828427D02*
X8318171Y-18837951D01*
X8356267Y-18837951D01*
X8375314Y-18828427D01*
X8384838Y-18809380D01*
X8384838Y-18799856D01*
X8375314Y-18780808D01*
X8356267Y-18771285D01*
X8327695Y-18771285D01*
X8308648Y-18761761D01*
X8299124Y-18742713D01*
X8299124Y-18733189D01*
X8308648Y-18714142D01*
X8327695Y-18704618D01*
X8356267Y-18704618D01*
X8375314Y-18714142D01*
X8451505Y-18914142D02*
X8461029Y-18904618D01*
X8480076Y-18876046D01*
X8489600Y-18856999D01*
X8499124Y-18828427D01*
X8508648Y-18780808D01*
X8508648Y-18742713D01*
X8499124Y-18695094D01*
X8489600Y-18666523D01*
X8480076Y-18647475D01*
X8461029Y-18618904D01*
X8451505Y-18609380D01*
D19*
X3509600Y-18947475D02*
X3679600Y-19117475D01*
X3679600Y-18947475D02*
X3509600Y-19117475D01*
X3654705Y-19092580D02*
X3654705Y-18972370D01*
X3534495Y-18972370D01*
X3534495Y-19092580D01*
X3654705Y-19092580D01*
D11*
X4041981Y-19122951D02*
X3927695Y-19122951D01*
X3984838Y-19122951D02*
X3984838Y-18922951D01*
X3965790Y-18951523D01*
X3946743Y-18970570D01*
X3927695Y-18980094D01*
X4127695Y-19103904D02*
X4137219Y-19113427D01*
X4127695Y-19122951D01*
X4118171Y-19113427D01*
X4127695Y-19103904D01*
X4127695Y-19122951D01*
X4203886Y-18922951D02*
X4337219Y-18922951D01*
X4251505Y-19122951D01*
X4451505Y-18922951D02*
X4470552Y-18922951D01*
X4489600Y-18932475D01*
X4499124Y-18941999D01*
X4508648Y-18961046D01*
X4518171Y-18999142D01*
X4518171Y-19046761D01*
X4508648Y-19084856D01*
X4499124Y-19103904D01*
X4489600Y-19113427D01*
X4470552Y-19122951D01*
X4451505Y-19122951D01*
X4432457Y-19113427D01*
X4422933Y-19103904D01*
X4413410Y-19084856D01*
X4403886Y-19046761D01*
X4403886Y-18999142D01*
X4413410Y-18961046D01*
X4422933Y-18941999D01*
X4432457Y-18932475D01*
X4451505Y-18922951D01*
X4641981Y-18922951D02*
X4661029Y-18922951D01*
X4680076Y-18932475D01*
X4689600Y-18941999D01*
X4699124Y-18961046D01*
X4708648Y-18999142D01*
X4708648Y-19046761D01*
X4699124Y-19084856D01*
X4689600Y-19103904D01*
X4680076Y-19113427D01*
X4661029Y-19122951D01*
X4641981Y-19122951D01*
X4622933Y-19113427D01*
X4613410Y-19103904D01*
X4603886Y-19084856D01*
X4594362Y-19046761D01*
X4594362Y-18999142D01*
X4603886Y-18961046D01*
X4613410Y-18941999D01*
X4622933Y-18932475D01*
X4641981Y-18922951D01*
X4794362Y-19122951D02*
X4794362Y-18989618D01*
X4794362Y-19008665D02*
X4803886Y-18999142D01*
X4822933Y-18989618D01*
X4851505Y-18989618D01*
X4870552Y-18999142D01*
X4880076Y-19018189D01*
X4880076Y-19122951D01*
X4880076Y-19018189D02*
X4889600Y-18999142D01*
X4908648Y-18989618D01*
X4937219Y-18989618D01*
X4956267Y-18999142D01*
X4965790Y-19018189D01*
X4965790Y-19122951D01*
X5061029Y-19122951D02*
X5061029Y-18989618D01*
X5061029Y-19008665D02*
X5070552Y-18999142D01*
X5089600Y-18989618D01*
X5118171Y-18989618D01*
X5137219Y-18999142D01*
X5146743Y-19018189D01*
X5146743Y-19122951D01*
X5146743Y-19018189D02*
X5156267Y-18999142D01*
X5175314Y-18989618D01*
X5203886Y-18989618D01*
X5222933Y-18999142D01*
X5232457Y-19018189D01*
X5232457Y-19122951D01*
X5622933Y-18913427D02*
X5451505Y-19170570D01*
X5880076Y-18922951D02*
X5899124Y-18922951D01*
X5918171Y-18932475D01*
X5927695Y-18941999D01*
X5937219Y-18961046D01*
X5946743Y-18999142D01*
X5946743Y-19046761D01*
X5937219Y-19084856D01*
X5927695Y-19103904D01*
X5918171Y-19113427D01*
X5899124Y-19122951D01*
X5880076Y-19122951D01*
X5861028Y-19113427D01*
X5851505Y-19103904D01*
X5841981Y-19084856D01*
X5832457Y-19046761D01*
X5832457Y-18999142D01*
X5841981Y-18961046D01*
X5851505Y-18941999D01*
X5861028Y-18932475D01*
X5880076Y-18922951D01*
X6032457Y-19103904D02*
X6041981Y-19113427D01*
X6032457Y-19122951D01*
X6022933Y-19113427D01*
X6032457Y-19103904D01*
X6032457Y-19122951D01*
X6165790Y-18922951D02*
X6184838Y-18922951D01*
X6203886Y-18932475D01*
X6213409Y-18941999D01*
X6222933Y-18961046D01*
X6232457Y-18999142D01*
X6232457Y-19046761D01*
X6222933Y-19084856D01*
X6213409Y-19103904D01*
X6203886Y-19113427D01*
X6184838Y-19122951D01*
X6165790Y-19122951D01*
X6146743Y-19113427D01*
X6137219Y-19103904D01*
X6127695Y-19084856D01*
X6118171Y-19046761D01*
X6118171Y-18999142D01*
X6127695Y-18961046D01*
X6137219Y-18941999D01*
X6146743Y-18932475D01*
X6165790Y-18922951D01*
X6403886Y-18922951D02*
X6365790Y-18922951D01*
X6346743Y-18932475D01*
X6337219Y-18941999D01*
X6318171Y-18970570D01*
X6308648Y-19008665D01*
X6308648Y-19084856D01*
X6318171Y-19103904D01*
X6327695Y-19113427D01*
X6346743Y-19122951D01*
X6384838Y-19122951D01*
X6403886Y-19113427D01*
X6413409Y-19103904D01*
X6422933Y-19084856D01*
X6422933Y-19037237D01*
X6413409Y-19018189D01*
X6403886Y-19008665D01*
X6384838Y-18999142D01*
X6346743Y-18999142D01*
X6327695Y-19008665D01*
X6318171Y-19018189D01*
X6308648Y-19037237D01*
X6594362Y-18922951D02*
X6556267Y-18922951D01*
X6537219Y-18932475D01*
X6527695Y-18941999D01*
X6508648Y-18970570D01*
X6499124Y-19008665D01*
X6499124Y-19084856D01*
X6508648Y-19103904D01*
X6518171Y-19113427D01*
X6537219Y-19122951D01*
X6575314Y-19122951D01*
X6594362Y-19113427D01*
X6603886Y-19103904D01*
X6613409Y-19084856D01*
X6613409Y-19037237D01*
X6603886Y-19018189D01*
X6594362Y-19008665D01*
X6575314Y-18999142D01*
X6537219Y-18999142D01*
X6518171Y-19008665D01*
X6508648Y-19018189D01*
X6499124Y-19037237D01*
X6708648Y-19122951D02*
X6746743Y-19122951D01*
X6765790Y-19113427D01*
X6775314Y-19103904D01*
X6794362Y-19075332D01*
X6803886Y-19037237D01*
X6803886Y-18961046D01*
X6794362Y-18941999D01*
X6784838Y-18932475D01*
X6765790Y-18922951D01*
X6727695Y-18922951D01*
X6708648Y-18932475D01*
X6699124Y-18941999D01*
X6689600Y-18961046D01*
X6689600Y-19008665D01*
X6699124Y-19027713D01*
X6708648Y-19037237D01*
X6727695Y-19046761D01*
X6765790Y-19046761D01*
X6784838Y-19037237D01*
X6794362Y-19027713D01*
X6803886Y-19008665D01*
X6880076Y-18922951D02*
X6880076Y-18961046D01*
X6956267Y-18922951D02*
X6956267Y-18961046D01*
X7251505Y-19199142D02*
X7241981Y-19189618D01*
X7222933Y-19161046D01*
X7213409Y-19141999D01*
X7203886Y-19113427D01*
X7194362Y-19065808D01*
X7194362Y-19027713D01*
X7203886Y-18980094D01*
X7213409Y-18951523D01*
X7222933Y-18932475D01*
X7241981Y-18903904D01*
X7251505Y-18894380D01*
X7413409Y-18989618D02*
X7413409Y-19122951D01*
X7365790Y-18913427D02*
X7318171Y-19056285D01*
X7441981Y-19056285D01*
X7670552Y-19122951D02*
X7670552Y-18922951D01*
X7756267Y-19122951D02*
X7756267Y-19018189D01*
X7746743Y-18999142D01*
X7727695Y-18989618D01*
X7699124Y-18989618D01*
X7680076Y-18999142D01*
X7670552Y-19008665D01*
X7880076Y-19122951D02*
X7861028Y-19113427D01*
X7851505Y-19103904D01*
X7841981Y-19084856D01*
X7841981Y-19027713D01*
X7851505Y-19008665D01*
X7861028Y-18999142D01*
X7880076Y-18989618D01*
X7908648Y-18989618D01*
X7927695Y-18999142D01*
X7937219Y-19008665D01*
X7946743Y-19027713D01*
X7946743Y-19084856D01*
X7937219Y-19103904D01*
X7927695Y-19113427D01*
X7908648Y-19122951D01*
X7880076Y-19122951D01*
X8061028Y-19122951D02*
X8041981Y-19113427D01*
X8032457Y-19094380D01*
X8032457Y-18922951D01*
X8213409Y-19113427D02*
X8194362Y-19122951D01*
X8156267Y-19122951D01*
X8137219Y-19113427D01*
X8127695Y-19094380D01*
X8127695Y-19018189D01*
X8137219Y-18999142D01*
X8156267Y-18989618D01*
X8194362Y-18989618D01*
X8213409Y-18999142D01*
X8222933Y-19018189D01*
X8222933Y-19037237D01*
X8127695Y-19056285D01*
X8299124Y-19113427D02*
X8318171Y-19122951D01*
X8356267Y-19122951D01*
X8375314Y-19113427D01*
X8384838Y-19094380D01*
X8384838Y-19084856D01*
X8375314Y-19065808D01*
X8356267Y-19056285D01*
X8327695Y-19056285D01*
X8308648Y-19046761D01*
X8299124Y-19027713D01*
X8299124Y-19018189D01*
X8308648Y-18999142D01*
X8327695Y-18989618D01*
X8356267Y-18989618D01*
X8375314Y-18999142D01*
X8451505Y-19199142D02*
X8461029Y-19189618D01*
X8480076Y-19161046D01*
X8489600Y-19141999D01*
X8499124Y-19113427D01*
X8508648Y-19065808D01*
X8508648Y-19027713D01*
X8499124Y-18980094D01*
X8489600Y-18951523D01*
X8480076Y-18932475D01*
X8461029Y-18903904D01*
X8451505Y-18894380D01*
X3479600Y-19222475D02*
X3679600Y-19422475D01*
X3679600Y-19222475D02*
X3479600Y-19422475D01*
X3579600Y-19422475D02*
X3679600Y-19322475D01*
X3579600Y-19222475D01*
X3479600Y-19322475D01*
X3579600Y-19422475D01*
X4022933Y-19279618D02*
X4022933Y-19412951D01*
X3975314Y-19203427D02*
X3927695Y-19346285D01*
X4051505Y-19346285D01*
X4127695Y-19393904D02*
X4137219Y-19403427D01*
X4127695Y-19412951D01*
X4118171Y-19403427D01*
X4127695Y-19393904D01*
X4127695Y-19412951D01*
X4232457Y-19412951D02*
X4270552Y-19412951D01*
X4289600Y-19403427D01*
X4299124Y-19393904D01*
X4318171Y-19365332D01*
X4327695Y-19327237D01*
X4327695Y-19251046D01*
X4318171Y-19231999D01*
X4308648Y-19222475D01*
X4289600Y-19212951D01*
X4251505Y-19212951D01*
X4232457Y-19222475D01*
X4222933Y-19231999D01*
X4213410Y-19251046D01*
X4213410Y-19298665D01*
X4222933Y-19317713D01*
X4232457Y-19327237D01*
X4251505Y-19336761D01*
X4289600Y-19336761D01*
X4308648Y-19327237D01*
X4318171Y-19317713D01*
X4327695Y-19298665D01*
X4451505Y-19212951D02*
X4470552Y-19212951D01*
X4489600Y-19222475D01*
X4499124Y-19231999D01*
X4508648Y-19251046D01*
X4518171Y-19289142D01*
X4518171Y-19336761D01*
X4508648Y-19374856D01*
X4499124Y-19393904D01*
X4489600Y-19403427D01*
X4470552Y-19412951D01*
X4451505Y-19412951D01*
X4432457Y-19403427D01*
X4422933Y-19393904D01*
X4413410Y-19374856D01*
X4403886Y-19336761D01*
X4403886Y-19289142D01*
X4413410Y-19251046D01*
X4422933Y-19231999D01*
X4432457Y-19222475D01*
X4451505Y-19212951D01*
X4641981Y-19212951D02*
X4661029Y-19212951D01*
X4680076Y-19222475D01*
X4689600Y-19231999D01*
X4699124Y-19251046D01*
X4708648Y-19289142D01*
X4708648Y-19336761D01*
X4699124Y-19374856D01*
X4689600Y-19393904D01*
X4680076Y-19403427D01*
X4661029Y-19412951D01*
X4641981Y-19412951D01*
X4622933Y-19403427D01*
X4613410Y-19393904D01*
X4603886Y-19374856D01*
X4594362Y-19336761D01*
X4594362Y-19289142D01*
X4603886Y-19251046D01*
X4613410Y-19231999D01*
X4622933Y-19222475D01*
X4641981Y-19212951D01*
X4794362Y-19412951D02*
X4794362Y-19279618D01*
X4794362Y-19298665D02*
X4803886Y-19289142D01*
X4822933Y-19279618D01*
X4851505Y-19279618D01*
X4870552Y-19289142D01*
X4880076Y-19308189D01*
X4880076Y-19412951D01*
X4880076Y-19308189D02*
X4889600Y-19289142D01*
X4908648Y-19279618D01*
X4937219Y-19279618D01*
X4956267Y-19289142D01*
X4965790Y-19308189D01*
X4965790Y-19412951D01*
X5061029Y-19412951D02*
X5061029Y-19279618D01*
X5061029Y-19298665D02*
X5070552Y-19289142D01*
X5089600Y-19279618D01*
X5118171Y-19279618D01*
X5137219Y-19289142D01*
X5146743Y-19308189D01*
X5146743Y-19412951D01*
X5146743Y-19308189D02*
X5156267Y-19289142D01*
X5175314Y-19279618D01*
X5203886Y-19279618D01*
X5222933Y-19289142D01*
X5232457Y-19308189D01*
X5232457Y-19412951D01*
X5622933Y-19203427D02*
X5451505Y-19460570D01*
X5880076Y-19212951D02*
X5899124Y-19212951D01*
X5918171Y-19222475D01*
X5927695Y-19231999D01*
X5937219Y-19251046D01*
X5946743Y-19289142D01*
X5946743Y-19336761D01*
X5937219Y-19374856D01*
X5927695Y-19393904D01*
X5918171Y-19403427D01*
X5899124Y-19412951D01*
X5880076Y-19412951D01*
X5861028Y-19403427D01*
X5851505Y-19393904D01*
X5841981Y-19374856D01*
X5832457Y-19336761D01*
X5832457Y-19289142D01*
X5841981Y-19251046D01*
X5851505Y-19231999D01*
X5861028Y-19222475D01*
X5880076Y-19212951D01*
X6032457Y-19393904D02*
X6041981Y-19403427D01*
X6032457Y-19412951D01*
X6022933Y-19403427D01*
X6032457Y-19393904D01*
X6032457Y-19412951D01*
X6232457Y-19412951D02*
X6118171Y-19412951D01*
X6175314Y-19412951D02*
X6175314Y-19212951D01*
X6156267Y-19241523D01*
X6137219Y-19260570D01*
X6118171Y-19270094D01*
X6327695Y-19412951D02*
X6365790Y-19412951D01*
X6384838Y-19403427D01*
X6394362Y-19393904D01*
X6413409Y-19365332D01*
X6422933Y-19327237D01*
X6422933Y-19251046D01*
X6413409Y-19231999D01*
X6403886Y-19222475D01*
X6384838Y-19212951D01*
X6346743Y-19212951D01*
X6327695Y-19222475D01*
X6318171Y-19231999D01*
X6308648Y-19251046D01*
X6308648Y-19298665D01*
X6318171Y-19317713D01*
X6327695Y-19327237D01*
X6346743Y-19336761D01*
X6384838Y-19336761D01*
X6403886Y-19327237D01*
X6413409Y-19317713D01*
X6422933Y-19298665D01*
X6499124Y-19231999D02*
X6508648Y-19222475D01*
X6527695Y-19212951D01*
X6575314Y-19212951D01*
X6594362Y-19222475D01*
X6603886Y-19231999D01*
X6613409Y-19251046D01*
X6613409Y-19270094D01*
X6603886Y-19298665D01*
X6489600Y-19412951D01*
X6613409Y-19412951D01*
X6708648Y-19412951D02*
X6746743Y-19412951D01*
X6765790Y-19403427D01*
X6775314Y-19393904D01*
X6794362Y-19365332D01*
X6803886Y-19327237D01*
X6803886Y-19251046D01*
X6794362Y-19231999D01*
X6784838Y-19222475D01*
X6765790Y-19212951D01*
X6727695Y-19212951D01*
X6708648Y-19222475D01*
X6699124Y-19231999D01*
X6689600Y-19251046D01*
X6689600Y-19298665D01*
X6699124Y-19317713D01*
X6708648Y-19327237D01*
X6727695Y-19336761D01*
X6765790Y-19336761D01*
X6784838Y-19327237D01*
X6794362Y-19317713D01*
X6803886Y-19298665D01*
X6880076Y-19212951D02*
X6880076Y-19251046D01*
X6956267Y-19212951D02*
X6956267Y-19251046D01*
X7251505Y-19489142D02*
X7241981Y-19479618D01*
X7222933Y-19451046D01*
X7213409Y-19431999D01*
X7203886Y-19403427D01*
X7194362Y-19355808D01*
X7194362Y-19317713D01*
X7203886Y-19270094D01*
X7213409Y-19241523D01*
X7222933Y-19222475D01*
X7241981Y-19193904D01*
X7251505Y-19184380D01*
X7318171Y-19231999D02*
X7327695Y-19222475D01*
X7346743Y-19212951D01*
X7394362Y-19212951D01*
X7413409Y-19222475D01*
X7422933Y-19231999D01*
X7432457Y-19251046D01*
X7432457Y-19270094D01*
X7422933Y-19298665D01*
X7308648Y-19412951D01*
X7432457Y-19412951D01*
X7670552Y-19412951D02*
X7670552Y-19212951D01*
X7756267Y-19412951D02*
X7756267Y-19308189D01*
X7746743Y-19289142D01*
X7727695Y-19279618D01*
X7699124Y-19279618D01*
X7680076Y-19289142D01*
X7670552Y-19298665D01*
X7880076Y-19412951D02*
X7861028Y-19403427D01*
X7851505Y-19393904D01*
X7841981Y-19374856D01*
X7841981Y-19317713D01*
X7851505Y-19298665D01*
X7861028Y-19289142D01*
X7880076Y-19279618D01*
X7908648Y-19279618D01*
X7927695Y-19289142D01*
X7937219Y-19298665D01*
X7946743Y-19317713D01*
X7946743Y-19374856D01*
X7937219Y-19393904D01*
X7927695Y-19403427D01*
X7908648Y-19412951D01*
X7880076Y-19412951D01*
X8061028Y-19412951D02*
X8041981Y-19403427D01*
X8032457Y-19384380D01*
X8032457Y-19212951D01*
X8213409Y-19403427D02*
X8194362Y-19412951D01*
X8156267Y-19412951D01*
X8137219Y-19403427D01*
X8127695Y-19384380D01*
X8127695Y-19308189D01*
X8137219Y-19289142D01*
X8156267Y-19279618D01*
X8194362Y-19279618D01*
X8213409Y-19289142D01*
X8222933Y-19308189D01*
X8222933Y-19327237D01*
X8127695Y-19346285D01*
X8299124Y-19403427D02*
X8318171Y-19412951D01*
X8356267Y-19412951D01*
X8375314Y-19403427D01*
X8384838Y-19384380D01*
X8384838Y-19374856D01*
X8375314Y-19355808D01*
X8356267Y-19346285D01*
X8327695Y-19346285D01*
X8308648Y-19336761D01*
X8299124Y-19317713D01*
X8299124Y-19308189D01*
X8308648Y-19289142D01*
X8327695Y-19279618D01*
X8356267Y-19279618D01*
X8375314Y-19289142D01*
X8451505Y-19489142D02*
X8461029Y-19479618D01*
X8480076Y-19451046D01*
X8489600Y-19431999D01*
X8499124Y-19403427D01*
X8508648Y-19355808D01*
X8508648Y-19317713D01*
X8499124Y-19270094D01*
X8489600Y-19241523D01*
X8480076Y-19222475D01*
X8461029Y-19193904D01*
X8451505Y-19184380D01*
M02*
