G04 #@! TF.GenerationSoftware,KiCad,Pcbnew,(6.0.0)*
G04 #@! TF.CreationDate,2022-11-09T00:17:05-05:00*
G04 #@! TF.ProjectId,poly88 backplane rev 2.1,706f6c79-3838-4206-9261-636b706c616e,rev?*
G04 #@! TF.SameCoordinates,Original*
G04 #@! TF.FileFunction,Copper,L1,Top*
G04 #@! TF.FilePolarity,Positive*
%FSLAX46Y46*%
G04 Gerber Fmt 4.6, Leading zero omitted, Abs format (unit mm)*
G04 Created by KiCad (PCBNEW (6.0.0)) date 2022-11-09 00:17:05*
%MOMM*%
%LPD*%
G01*
G04 APERTURE LIST*
G04 Aperture macros list*
%AMRoundRect*
0 Rectangle with rounded corners*
0 $1 Rounding radius*
0 $2 $3 $4 $5 $6 $7 $8 $9 X,Y pos of 4 corners*
0 Add a 4 corners polygon primitive as box body*
4,1,4,$2,$3,$4,$5,$6,$7,$8,$9,$2,$3,0*
0 Add four circle primitives for the rounded corners*
1,1,$1+$1,$2,$3*
1,1,$1+$1,$4,$5*
1,1,$1+$1,$6,$7*
1,1,$1+$1,$8,$9*
0 Add four rect primitives between the rounded corners*
20,1,$1+$1,$2,$3,$4,$5,0*
20,1,$1+$1,$4,$5,$6,$7,0*
20,1,$1+$1,$6,$7,$8,$9,0*
20,1,$1+$1,$8,$9,$2,$3,0*%
G04 Aperture macros list end*
%ADD10C,0.300000*%
G04 #@! TA.AperFunction,NonConductor*
%ADD11C,0.300000*%
G04 #@! TD*
%ADD12C,0.400000*%
G04 #@! TA.AperFunction,NonConductor*
%ADD13C,0.400000*%
G04 #@! TD*
%ADD14C,0.500000*%
G04 #@! TA.AperFunction,NonConductor*
%ADD15C,0.500000*%
G04 #@! TD*
%ADD16C,0.600000*%
G04 #@! TA.AperFunction,NonConductor*
%ADD17C,0.600000*%
G04 #@! TD*
G04 #@! TA.AperFunction,ComponentPad*
%ADD18R,1.755000X1.755000*%
G04 #@! TD*
G04 #@! TA.AperFunction,ComponentPad*
%ADD19C,1.755000*%
G04 #@! TD*
G04 #@! TA.AperFunction,ComponentPad*
%ADD20R,2.200000X2.200000*%
G04 #@! TD*
G04 #@! TA.AperFunction,ComponentPad*
%ADD21O,2.200000X2.200000*%
G04 #@! TD*
G04 #@! TA.AperFunction,ComponentPad*
%ADD22R,3.200000X3.200000*%
G04 #@! TD*
G04 #@! TA.AperFunction,ComponentPad*
%ADD23O,3.200000X3.200000*%
G04 #@! TD*
G04 #@! TA.AperFunction,ComponentPad*
%ADD24C,1.600000*%
G04 #@! TD*
G04 #@! TA.AperFunction,ComponentPad*
%ADD25O,1.600000X1.600000*%
G04 #@! TD*
G04 #@! TA.AperFunction,ComponentPad*
%ADD26C,3.400000*%
G04 #@! TD*
G04 #@! TA.AperFunction,ComponentPad*
%ADD27C,7.450000*%
G04 #@! TD*
G04 #@! TA.AperFunction,ComponentPad*
%ADD28RoundRect,0.250000X-1.800000X1.330000X-1.800000X-1.330000X1.800000X-1.330000X1.800000X1.330000X0*%
G04 #@! TD*
G04 #@! TA.AperFunction,ComponentPad*
%ADD29O,4.100000X3.160000*%
G04 #@! TD*
G04 #@! TA.AperFunction,ComponentPad*
%ADD30R,1.600000X1.600000*%
G04 #@! TD*
G04 #@! TA.AperFunction,ComponentPad*
%ADD31R,2.400000X2.400000*%
G04 #@! TD*
G04 #@! TA.AperFunction,ComponentPad*
%ADD32C,2.400000*%
G04 #@! TD*
G04 #@! TA.AperFunction,ComponentPad*
%ADD33R,1.500000X1.500000*%
G04 #@! TD*
G04 #@! TA.AperFunction,ComponentPad*
%ADD34C,1.500000*%
G04 #@! TD*
G04 #@! TA.AperFunction,ComponentPad*
%ADD35O,2.400000X2.400000*%
G04 #@! TD*
G04 #@! TA.AperFunction,ConnectorPad*
%ADD36R,2.794000X8.382000*%
G04 #@! TD*
G04 #@! TA.AperFunction,ConnectorPad*
%ADD37R,1.778000X8.382000*%
G04 #@! TD*
G04 #@! TA.AperFunction,ViaPad*
%ADD38C,0.800000*%
G04 #@! TD*
G04 #@! TA.AperFunction,Conductor*
%ADD39C,3.000000*%
G04 #@! TD*
G04 #@! TA.AperFunction,Conductor*
%ADD40C,1.778000*%
G04 #@! TD*
G04 #@! TA.AperFunction,Conductor*
%ADD41C,0.900000*%
G04 #@! TD*
G04 #@! TA.AperFunction,Conductor*
%ADD42C,0.600000*%
G04 #@! TD*
G04 APERTURE END LIST*
D10*
D11*
X387592142Y-92985607D02*
X387663571Y-93128464D01*
X387663571Y-93414178D01*
X387592142Y-93557035D01*
X387520714Y-93628464D01*
X387377857Y-93699892D01*
X386949285Y-93699892D01*
X386806428Y-93628464D01*
X386735000Y-93557035D01*
X386663571Y-93414178D01*
X386663571Y-93128464D01*
X386735000Y-92985607D01*
D12*
D13*
X390909952Y-119821892D02*
X390909952Y-121250464D01*
X390909952Y-120536178D02*
X388409952Y-120536178D01*
X388767095Y-120774273D01*
X389005190Y-121012369D01*
X389124238Y-121250464D01*
X390909952Y-118631416D02*
X390909952Y-118155226D01*
X390790904Y-117917130D01*
X390671857Y-117798083D01*
X390314714Y-117559988D01*
X389838523Y-117440940D01*
X388886142Y-117440940D01*
X388648047Y-117559988D01*
X388529000Y-117679035D01*
X388409952Y-117917130D01*
X388409952Y-118393321D01*
X388529000Y-118631416D01*
X388648047Y-118750464D01*
X388886142Y-118869511D01*
X389481380Y-118869511D01*
X389719476Y-118750464D01*
X389838523Y-118631416D01*
X389957571Y-118393321D01*
X389957571Y-117917130D01*
X389838523Y-117679035D01*
X389719476Y-117559988D01*
X389481380Y-117440940D01*
X388409952Y-116607607D02*
X388409952Y-114940940D01*
X390909952Y-116012369D01*
X388409952Y-112917130D02*
X388409952Y-113393321D01*
X388529000Y-113631416D01*
X388648047Y-113750464D01*
X389005190Y-113988559D01*
X389481380Y-114107607D01*
X390433761Y-114107607D01*
X390671857Y-113988559D01*
X390790904Y-113869511D01*
X390909952Y-113631416D01*
X390909952Y-113155226D01*
X390790904Y-112917130D01*
X390671857Y-112798083D01*
X390433761Y-112679035D01*
X389838523Y-112679035D01*
X389600428Y-112798083D01*
X389481380Y-112917130D01*
X389362333Y-113155226D01*
X389362333Y-113631416D01*
X389481380Y-113869511D01*
X389600428Y-113988559D01*
X389838523Y-114107607D01*
D10*
D11*
X391644142Y-140947511D02*
X390215571Y-141780845D01*
X391644142Y-142376083D02*
X388644142Y-142376083D01*
X388644142Y-141423702D01*
X388787000Y-141185607D01*
X388929857Y-141066559D01*
X389215571Y-140947511D01*
X389644142Y-140947511D01*
X389929857Y-141066559D01*
X390072714Y-141185607D01*
X390215571Y-141423702D01*
X390215571Y-142376083D01*
X388929857Y-138090369D02*
X388787000Y-137971321D01*
X388644142Y-137733226D01*
X388644142Y-137137988D01*
X388787000Y-136899892D01*
X388929857Y-136780845D01*
X389215571Y-136661797D01*
X389501285Y-136661797D01*
X389929857Y-136780845D01*
X391644142Y-138209416D01*
X391644142Y-136661797D01*
X391358428Y-135590369D02*
X391501285Y-135471321D01*
X391644142Y-135590369D01*
X391501285Y-135709416D01*
X391358428Y-135590369D01*
X391644142Y-135590369D01*
X391644142Y-133090369D02*
X391644142Y-134518940D01*
X391644142Y-133804654D02*
X388644142Y-133804654D01*
X389072714Y-134042750D01*
X389358428Y-134280845D01*
X389501285Y-134518940D01*
D12*
D13*
X154542373Y-161387844D02*
X154294754Y-161816732D01*
X154278166Y-162093082D01*
X154323484Y-162262209D01*
X154521341Y-162662367D01*
X154888325Y-163017208D01*
X155746103Y-163512447D01*
X156022452Y-163529034D01*
X156191579Y-163483716D01*
X156422610Y-163331177D01*
X156670229Y-162902288D01*
X156686817Y-162625939D01*
X156641499Y-162456812D01*
X156488960Y-162225780D01*
X155952849Y-161916256D01*
X155676500Y-161899669D01*
X155507373Y-161944987D01*
X155276341Y-162097526D01*
X155028722Y-162526415D01*
X155012134Y-162802764D01*
X155057452Y-162971891D01*
X155209992Y-163202923D01*
X155470944Y-159779511D02*
X155594754Y-159565066D01*
X155825786Y-159412527D01*
X155994912Y-159367209D01*
X156271262Y-159383797D01*
X156762055Y-159524194D01*
X157298166Y-159833717D01*
X157665150Y-160188559D01*
X157817690Y-160419590D01*
X157863007Y-160588717D01*
X157846420Y-160865066D01*
X157722610Y-161079511D01*
X157491579Y-161232050D01*
X157322452Y-161277368D01*
X157046103Y-161260781D01*
X156555309Y-161120384D01*
X156019198Y-160810860D01*
X155652214Y-160456019D01*
X155499674Y-160224987D01*
X155454357Y-160055860D01*
X155470944Y-159779511D01*
X156709040Y-157635067D02*
X156832849Y-157420623D01*
X157063881Y-157268083D01*
X157233008Y-157222765D01*
X157509357Y-157239353D01*
X158000150Y-157379750D01*
X158536261Y-157689273D01*
X158903245Y-158044115D01*
X159055785Y-158275146D01*
X159101102Y-158444273D01*
X159084515Y-158720623D01*
X158960706Y-158935067D01*
X158729674Y-159087607D01*
X158560547Y-159132924D01*
X158284198Y-159116337D01*
X157793404Y-158975940D01*
X157257293Y-158666416D01*
X156890309Y-158311575D01*
X156737770Y-158080543D01*
X156692452Y-157911416D01*
X156709040Y-157635067D01*
X157947135Y-155490623D02*
X158070944Y-155276179D01*
X158301976Y-155123639D01*
X158471103Y-155078322D01*
X158747452Y-155094909D01*
X159238246Y-155235306D01*
X159774357Y-155544830D01*
X160141341Y-155899671D01*
X160293880Y-156130703D01*
X160339198Y-156299830D01*
X160322610Y-156576179D01*
X160198801Y-156790623D01*
X159967769Y-156943163D01*
X159798642Y-156988480D01*
X159522293Y-156971893D01*
X159031499Y-156831496D01*
X158495388Y-156521972D01*
X158128404Y-156167131D01*
X157975865Y-155936099D01*
X157930547Y-155766972D01*
X157947135Y-155490623D01*
X159494754Y-152810068D02*
X159247135Y-153238957D01*
X159230547Y-153515306D01*
X159275865Y-153684433D01*
X159473722Y-154084592D01*
X159840706Y-154439433D01*
X160698483Y-154934671D01*
X160974833Y-154951258D01*
X161143960Y-154905941D01*
X161374991Y-154753401D01*
X161622610Y-154324513D01*
X161639198Y-154048163D01*
X161593880Y-153879037D01*
X161441341Y-153648005D01*
X160905230Y-153338481D01*
X160628880Y-153321894D01*
X160459754Y-153367211D01*
X160228722Y-153519751D01*
X159981103Y-153948640D01*
X159964515Y-154224989D01*
X160009833Y-154394116D01*
X160162373Y-154625147D01*
D10*
D11*
X388286904Y-124330845D02*
X388096428Y-124711797D01*
X388096428Y-125473702D01*
X388286904Y-125854654D01*
X388667857Y-126235607D01*
X389048809Y-126426083D01*
X389810714Y-126426083D01*
X390191666Y-126235607D01*
X390572619Y-125854654D01*
X390763095Y-125473702D01*
X390763095Y-124711797D01*
X390572619Y-124330845D01*
X386763095Y-125092750D02*
X386953571Y-126045130D01*
X387525000Y-126997511D01*
X388477380Y-127568940D01*
X389429761Y-127759416D01*
X390382142Y-127568940D01*
X391334523Y-126997511D01*
X391905952Y-126045130D01*
X392096428Y-125092750D01*
X391905952Y-124140369D01*
X391334523Y-123187988D01*
X390382142Y-122616559D01*
X389429761Y-122426083D01*
X388477380Y-122616559D01*
X387525000Y-123187988D01*
X386953571Y-124140369D01*
X386763095Y-125092750D01*
D10*
D11*
X398387142Y-91914035D02*
X398458571Y-92056892D01*
X398458571Y-92342607D01*
X398387142Y-92485464D01*
X398244285Y-92556892D01*
X397672857Y-92556892D01*
X397530000Y-92485464D01*
X397458571Y-92342607D01*
X397458571Y-92056892D01*
X397530000Y-91914035D01*
X397672857Y-91842607D01*
X397815714Y-91842607D01*
X397958571Y-92556892D01*
D14*
D15*
X67337333Y-98815416D02*
X65337333Y-98815416D01*
X66337333Y-95315416D02*
X66337333Y-98815416D01*
X63504000Y-98815416D02*
X62837333Y-98815416D01*
X62504000Y-98648750D01*
X62170666Y-98315416D01*
X62004000Y-97648750D01*
X62004000Y-96482083D01*
X62170666Y-95815416D01*
X62504000Y-95482083D01*
X62837333Y-95315416D01*
X63504000Y-95315416D01*
X63837333Y-95482083D01*
X64170666Y-95815416D01*
X64337333Y-96482083D01*
X64337333Y-97648750D01*
X64170666Y-98315416D01*
X63837333Y-98648750D01*
X63504000Y-98815416D01*
X60504000Y-95315416D02*
X60504000Y-98815416D01*
X59170666Y-98815416D01*
X58837333Y-98648750D01*
X58670666Y-98482083D01*
X58504000Y-98148750D01*
X58504000Y-97648750D01*
X58670666Y-97315416D01*
X58837333Y-97148750D01*
X59170666Y-96982083D01*
X60504000Y-96982083D01*
D14*
D15*
X390394500Y-161375750D02*
X390561166Y-160875750D01*
X390727833Y-160709083D01*
X391061166Y-160542416D01*
X391561166Y-160542416D01*
X391894500Y-160709083D01*
X392061166Y-160875750D01*
X392227833Y-161209083D01*
X392227833Y-162542416D01*
X388727833Y-162542416D01*
X388727833Y-161375750D01*
X388894500Y-161042416D01*
X389061166Y-160875750D01*
X389394500Y-160709083D01*
X389727833Y-160709083D01*
X390061166Y-160875750D01*
X390227833Y-161042416D01*
X390394500Y-161375750D01*
X390394500Y-162542416D01*
X392227833Y-159042416D02*
X388727833Y-159042416D01*
X388727833Y-157709083D01*
X388894500Y-157375750D01*
X389061166Y-157209083D01*
X389394500Y-157042416D01*
X389894500Y-157042416D01*
X390227833Y-157209083D01*
X390394500Y-157375750D01*
X390561166Y-157709083D01*
X390561166Y-159042416D01*
X388561166Y-153042416D02*
X393061166Y-156042416D01*
X388727833Y-150209083D02*
X388727833Y-151875750D01*
X390394500Y-152042416D01*
X390227833Y-151875750D01*
X390061166Y-151542416D01*
X390061166Y-150709083D01*
X390227833Y-150375750D01*
X390394500Y-150209083D01*
X390727833Y-150042416D01*
X391561166Y-150042416D01*
X391894500Y-150209083D01*
X392061166Y-150375750D01*
X392227833Y-150709083D01*
X392227833Y-151542416D01*
X392061166Y-151875750D01*
X391894500Y-152042416D01*
X397862833Y-162542416D02*
X394362833Y-162542416D01*
X394362833Y-161209083D01*
X394529500Y-160875750D01*
X394696166Y-160709083D01*
X395029500Y-160542416D01*
X395529500Y-160542416D01*
X395862833Y-160709083D01*
X396029500Y-160875750D01*
X396196166Y-161209083D01*
X396196166Y-162542416D01*
X394362833Y-158375750D02*
X394362833Y-157709083D01*
X394529500Y-157375750D01*
X394862833Y-157042416D01*
X395529500Y-156875750D01*
X396696166Y-156875750D01*
X397362833Y-157042416D01*
X397696166Y-157375750D01*
X397862833Y-157709083D01*
X397862833Y-158375750D01*
X397696166Y-158709083D01*
X397362833Y-159042416D01*
X396696166Y-159209083D01*
X395529500Y-159209083D01*
X394862833Y-159042416D01*
X394529500Y-158709083D01*
X394362833Y-158375750D01*
X397862833Y-153709083D02*
X397862833Y-155375750D01*
X394362833Y-155375750D01*
X396196166Y-151875750D02*
X397862833Y-151875750D01*
X394362833Y-153042416D02*
X396196166Y-151875750D01*
X394362833Y-150709083D01*
X397862833Y-149542416D02*
X394362833Y-149542416D01*
X396862833Y-148375750D01*
X394362833Y-147209083D01*
X397862833Y-147209083D01*
X394362833Y-144875750D02*
X394362833Y-144209083D01*
X394529500Y-143875750D01*
X394862833Y-143542416D01*
X395529500Y-143375750D01*
X396696166Y-143375750D01*
X397362833Y-143542416D01*
X397696166Y-143875750D01*
X397862833Y-144209083D01*
X397862833Y-144875750D01*
X397696166Y-145209083D01*
X397362833Y-145542416D01*
X396696166Y-145709083D01*
X395529500Y-145709083D01*
X394862833Y-145542416D01*
X394529500Y-145209083D01*
X394362833Y-144875750D01*
X397862833Y-139875750D02*
X396196166Y-141042416D01*
X397862833Y-141875750D02*
X394362833Y-141875750D01*
X394362833Y-140542416D01*
X394529500Y-140209083D01*
X394696166Y-140042416D01*
X395029500Y-139875750D01*
X395529500Y-139875750D01*
X395862833Y-140042416D01*
X396029500Y-140209083D01*
X396196166Y-140542416D01*
X396196166Y-141875750D01*
X397862833Y-138375750D02*
X394362833Y-138375750D01*
X394362833Y-137042416D01*
X394529500Y-136709083D01*
X394696166Y-136542416D01*
X395029500Y-136375750D01*
X395529500Y-136375750D01*
X395862833Y-136542416D01*
X396029500Y-136709083D01*
X396196166Y-137042416D01*
X396196166Y-138375750D01*
X397862833Y-134875750D02*
X394362833Y-134875750D01*
X396029500Y-134875750D02*
X396029500Y-132875750D01*
X397862833Y-132875750D02*
X394362833Y-132875750D01*
X397862833Y-131209083D02*
X394362833Y-131209083D01*
X397529500Y-127542416D02*
X397696166Y-127709083D01*
X397862833Y-128209083D01*
X397862833Y-128542416D01*
X397696166Y-129042416D01*
X397362833Y-129375750D01*
X397029500Y-129542416D01*
X396362833Y-129709083D01*
X395862833Y-129709083D01*
X395196166Y-129542416D01*
X394862833Y-129375750D01*
X394529500Y-129042416D01*
X394362833Y-128542416D01*
X394362833Y-128209083D01*
X394529500Y-127709083D01*
X394696166Y-127542416D01*
X397696166Y-123542416D02*
X397862833Y-123042416D01*
X397862833Y-122209083D01*
X397696166Y-121875750D01*
X397529500Y-121709083D01*
X397196166Y-121542416D01*
X396862833Y-121542416D01*
X396529500Y-121709083D01*
X396362833Y-121875750D01*
X396196166Y-122209083D01*
X396029500Y-122875750D01*
X395862833Y-123209083D01*
X395696166Y-123375750D01*
X395362833Y-123542416D01*
X395029500Y-123542416D01*
X394696166Y-123375750D01*
X394529500Y-123209083D01*
X394362833Y-122875750D01*
X394362833Y-122042416D01*
X394529500Y-121542416D01*
X396196166Y-119375750D02*
X397862833Y-119375750D01*
X394362833Y-120542416D02*
X396196166Y-119375750D01*
X394362833Y-118209083D01*
X397696166Y-117209083D02*
X397862833Y-116709083D01*
X397862833Y-115875750D01*
X397696166Y-115542416D01*
X397529500Y-115375750D01*
X397196166Y-115209083D01*
X396862833Y-115209083D01*
X396529500Y-115375750D01*
X396362833Y-115542416D01*
X396196166Y-115875750D01*
X396029500Y-116542416D01*
X395862833Y-116875750D01*
X395696166Y-117042416D01*
X395362833Y-117209083D01*
X395029500Y-117209083D01*
X394696166Y-117042416D01*
X394529500Y-116875750D01*
X394362833Y-116542416D01*
X394362833Y-115709083D01*
X394529500Y-115209083D01*
X394362833Y-114209083D02*
X394362833Y-112209083D01*
X397862833Y-113209083D02*
X394362833Y-113209083D01*
X396029500Y-111042416D02*
X396029500Y-109875750D01*
X397862833Y-109375750D02*
X397862833Y-111042416D01*
X394362833Y-111042416D01*
X394362833Y-109375750D01*
X397862833Y-107875750D02*
X394362833Y-107875750D01*
X396862833Y-106709083D01*
X394362833Y-105542416D01*
X397862833Y-105542416D01*
X397696166Y-104042416D02*
X397862833Y-103542416D01*
X397862833Y-102709083D01*
X397696166Y-102375750D01*
X397529500Y-102209083D01*
X397196166Y-102042416D01*
X396862833Y-102042416D01*
X396529500Y-102209083D01*
X396362833Y-102375750D01*
X396196166Y-102709083D01*
X396029500Y-103375750D01*
X395862833Y-103709083D01*
X395696166Y-103875750D01*
X395362833Y-104042416D01*
X395029500Y-104042416D01*
X394696166Y-103875750D01*
X394529500Y-103709083D01*
X394362833Y-103375750D01*
X394362833Y-102542416D01*
X394529500Y-102042416D01*
D10*
D11*
X394775571Y-89346178D02*
X393275571Y-89346178D01*
X393847000Y-89346178D02*
X393775571Y-89203321D01*
X393775571Y-88917607D01*
X393847000Y-88774750D01*
X393918428Y-88703321D01*
X394061285Y-88631892D01*
X394489857Y-88631892D01*
X394632714Y-88703321D01*
X394704142Y-88774750D01*
X394775571Y-88917607D01*
X394775571Y-89203321D01*
X394704142Y-89346178D01*
D16*
D17*
X391009142Y-110804607D02*
X388009142Y-110804607D01*
X390723428Y-109376035D02*
X390866285Y-109233178D01*
X391009142Y-109376035D01*
X390866285Y-109518892D01*
X390723428Y-109376035D01*
X391009142Y-109376035D01*
X391009142Y-107947464D02*
X388009142Y-107947464D01*
X388009142Y-106804607D01*
X388152000Y-106518892D01*
X388294857Y-106376035D01*
X388580571Y-106233178D01*
X389009142Y-106233178D01*
X389294857Y-106376035D01*
X389437714Y-106518892D01*
X389580571Y-106804607D01*
X389580571Y-107947464D01*
X390723428Y-104947464D02*
X390866285Y-104804607D01*
X391009142Y-104947464D01*
X390866285Y-105090321D01*
X390723428Y-104947464D01*
X391009142Y-104947464D01*
X390723428Y-101804607D02*
X390866285Y-101947464D01*
X391009142Y-102376035D01*
X391009142Y-102661750D01*
X390866285Y-103090321D01*
X390580571Y-103376035D01*
X390294857Y-103518892D01*
X389723428Y-103661750D01*
X389294857Y-103661750D01*
X388723428Y-103518892D01*
X388437714Y-103376035D01*
X388152000Y-103090321D01*
X388009142Y-102661750D01*
X388009142Y-102376035D01*
X388152000Y-101947464D01*
X388294857Y-101804607D01*
X390723428Y-100518892D02*
X390866285Y-100376035D01*
X391009142Y-100518892D01*
X390866285Y-100661750D01*
X390723428Y-100518892D01*
X391009142Y-100518892D01*
D16*
D17*
X87773142Y-84940035D02*
X90058857Y-84940035D01*
X88916000Y-86082892D02*
X88916000Y-83797178D01*
D18*
X163406000Y-77554750D03*
D19*
X166586000Y-77554750D03*
X169766000Y-77554750D03*
X172946000Y-77554750D03*
X176126000Y-77554750D03*
X179306000Y-77554750D03*
X182486000Y-77554750D03*
X185666000Y-77554750D03*
X188846000Y-77554750D03*
X192026000Y-77554750D03*
X195206000Y-77554750D03*
X198386000Y-77554750D03*
X201566000Y-77554750D03*
X204746000Y-77554750D03*
X207926000Y-77554750D03*
X211106000Y-77554750D03*
X214286000Y-77554750D03*
X217466000Y-77554750D03*
X220646000Y-77554750D03*
X223826000Y-77554750D03*
X227006000Y-77554750D03*
X230186000Y-77554750D03*
X233366000Y-77554750D03*
X236546000Y-77554750D03*
X239726000Y-77554750D03*
X242906000Y-77554750D03*
X246086000Y-77554750D03*
X249266000Y-77554750D03*
X252446000Y-77554750D03*
X255626000Y-77554750D03*
X258806000Y-77554750D03*
X261986000Y-77554750D03*
X265166000Y-77554750D03*
X268346000Y-77554750D03*
X271526000Y-77554750D03*
X274706000Y-77554750D03*
X277886000Y-77554750D03*
X281066000Y-77554750D03*
X284246000Y-77554750D03*
X287426000Y-77554750D03*
X290606000Y-77554750D03*
X293786000Y-77554750D03*
X296966000Y-77554750D03*
X300146000Y-77554750D03*
X303326000Y-77554750D03*
X306506000Y-77554750D03*
X309686000Y-77554750D03*
X312866000Y-77554750D03*
X316046000Y-77554750D03*
X319226000Y-77554750D03*
X163406000Y-71204750D03*
X166586000Y-71204750D03*
X169766000Y-71204750D03*
X172946000Y-71204750D03*
X176126000Y-71204750D03*
X179306000Y-71204750D03*
X182486000Y-71204750D03*
X185666000Y-71204750D03*
X188846000Y-71204750D03*
X192026000Y-71204750D03*
X195206000Y-71204750D03*
X198386000Y-71204750D03*
X201566000Y-71204750D03*
X204746000Y-71204750D03*
X207926000Y-71204750D03*
X211106000Y-71204750D03*
X214286000Y-71204750D03*
X217466000Y-71204750D03*
X220646000Y-71204750D03*
X223826000Y-71204750D03*
X227006000Y-71204750D03*
X230186000Y-71204750D03*
X233366000Y-71204750D03*
X236546000Y-71204750D03*
X239726000Y-71204750D03*
X242906000Y-71204750D03*
X246086000Y-71204750D03*
X249266000Y-71204750D03*
X252446000Y-71204750D03*
X255626000Y-71204750D03*
X258806000Y-71204750D03*
X261986000Y-71204750D03*
X265166000Y-71204750D03*
X268346000Y-71204750D03*
X271526000Y-71204750D03*
X274706000Y-71204750D03*
X277886000Y-71204750D03*
X281066000Y-71204750D03*
X284246000Y-71204750D03*
X287426000Y-71204750D03*
X290606000Y-71204750D03*
X293786000Y-71204750D03*
X296966000Y-71204750D03*
X300146000Y-71204750D03*
X303326000Y-71204750D03*
X306506000Y-71204750D03*
X309686000Y-71204750D03*
X312866000Y-71204750D03*
X316046000Y-71204750D03*
X319226000Y-71204750D03*
D20*
X69966000Y-92534750D03*
D21*
X58876000Y-92534750D03*
D22*
X75826000Y-102784750D03*
D23*
X56996000Y-102784750D03*
D24*
X72906000Y-120004750D03*
D25*
X60296000Y-120004750D03*
D24*
X72906000Y-116284750D03*
D25*
X60296000Y-116284750D03*
D26*
X54531000Y-105354750D03*
D27*
X92351000Y-88789750D03*
X105131000Y-88789750D03*
D28*
X397131000Y-73574750D03*
D29*
X397131000Y-77534750D03*
X397131000Y-81494750D03*
X397131000Y-85454750D03*
D30*
X77106000Y-120004750D03*
D25*
X92346000Y-120004750D03*
D20*
X69966000Y-87784750D03*
D21*
X58876000Y-87784750D03*
D24*
X84696000Y-114474750D03*
D25*
X99936000Y-114474750D03*
D18*
X163406000Y-115779750D03*
D19*
X166586000Y-115779750D03*
X169766000Y-115779750D03*
X172946000Y-115779750D03*
X176126000Y-115779750D03*
X179306000Y-115779750D03*
X182486000Y-115779750D03*
X185666000Y-115779750D03*
X188846000Y-115779750D03*
X192026000Y-115779750D03*
X195206000Y-115779750D03*
X198386000Y-115779750D03*
X201566000Y-115779750D03*
X204746000Y-115779750D03*
X207926000Y-115779750D03*
X211106000Y-115779750D03*
X214286000Y-115779750D03*
X217466000Y-115779750D03*
X220646000Y-115779750D03*
X223826000Y-115779750D03*
X227006000Y-115779750D03*
X230186000Y-115779750D03*
X233366000Y-115779750D03*
X236546000Y-115779750D03*
X239726000Y-115779750D03*
X242906000Y-115779750D03*
X246086000Y-115779750D03*
X249266000Y-115779750D03*
X252446000Y-115779750D03*
X255626000Y-115779750D03*
X258806000Y-115779750D03*
X261986000Y-115779750D03*
X265166000Y-115779750D03*
X268346000Y-115779750D03*
X271526000Y-115779750D03*
X274706000Y-115779750D03*
X277886000Y-115779750D03*
X281066000Y-115779750D03*
X284246000Y-115779750D03*
X287426000Y-115779750D03*
X290606000Y-115779750D03*
X293786000Y-115779750D03*
X296966000Y-115779750D03*
X300146000Y-115779750D03*
X303326000Y-115779750D03*
X306506000Y-115779750D03*
X309686000Y-115779750D03*
X312866000Y-115779750D03*
X316046000Y-115779750D03*
X319226000Y-115779750D03*
X163406000Y-109429750D03*
X166586000Y-109429750D03*
X169766000Y-109429750D03*
X172946000Y-109429750D03*
X176126000Y-109429750D03*
X179306000Y-109429750D03*
X182486000Y-109429750D03*
X185666000Y-109429750D03*
X188846000Y-109429750D03*
X192026000Y-109429750D03*
X195206000Y-109429750D03*
X198386000Y-109429750D03*
X201566000Y-109429750D03*
X204746000Y-109429750D03*
X207926000Y-109429750D03*
X211106000Y-109429750D03*
X214286000Y-109429750D03*
X217466000Y-109429750D03*
X220646000Y-109429750D03*
X223826000Y-109429750D03*
X227006000Y-109429750D03*
X230186000Y-109429750D03*
X233366000Y-109429750D03*
X236546000Y-109429750D03*
X239726000Y-109429750D03*
X242906000Y-109429750D03*
X246086000Y-109429750D03*
X249266000Y-109429750D03*
X252446000Y-109429750D03*
X255626000Y-109429750D03*
X258806000Y-109429750D03*
X261986000Y-109429750D03*
X265166000Y-109429750D03*
X268346000Y-109429750D03*
X271526000Y-109429750D03*
X274706000Y-109429750D03*
X277886000Y-109429750D03*
X281066000Y-109429750D03*
X284246000Y-109429750D03*
X287426000Y-109429750D03*
X290606000Y-109429750D03*
X293786000Y-109429750D03*
X296966000Y-109429750D03*
X300146000Y-109429750D03*
X303326000Y-109429750D03*
X306506000Y-109429750D03*
X309686000Y-109429750D03*
X312866000Y-109429750D03*
X316046000Y-109429750D03*
X319226000Y-109429750D03*
D31*
X51366000Y-76954750D03*
D32*
X51366000Y-81984750D03*
X51366000Y-87014750D03*
X51366000Y-92044750D03*
X51366000Y-97074750D03*
D22*
X75826000Y-109164750D03*
D23*
X56996000Y-109164750D03*
D20*
X69866000Y-76204750D03*
D21*
X57166000Y-76204750D03*
D24*
X390126000Y-73124750D03*
D25*
X390126000Y-85824750D03*
D33*
X390156000Y-93254750D03*
D34*
X392696000Y-90714750D03*
X395236000Y-93254750D03*
D32*
X113856000Y-106644750D03*
D35*
X113856000Y-121884750D03*
D26*
X40406000Y-105874750D03*
D24*
X84696000Y-109974750D03*
D25*
X99936000Y-109974750D03*
D18*
X163406000Y-96667250D03*
D19*
X166586000Y-96667250D03*
X169766000Y-96667250D03*
X172946000Y-96667250D03*
X176126000Y-96667250D03*
X179306000Y-96667250D03*
X182486000Y-96667250D03*
X185666000Y-96667250D03*
X188846000Y-96667250D03*
X192026000Y-96667250D03*
X195206000Y-96667250D03*
X198386000Y-96667250D03*
X201566000Y-96667250D03*
X204746000Y-96667250D03*
X207926000Y-96667250D03*
X211106000Y-96667250D03*
X214286000Y-96667250D03*
X217466000Y-96667250D03*
X220646000Y-96667250D03*
X223826000Y-96667250D03*
X227006000Y-96667250D03*
X230186000Y-96667250D03*
X233366000Y-96667250D03*
X236546000Y-96667250D03*
X239726000Y-96667250D03*
X242906000Y-96667250D03*
X246086000Y-96667250D03*
X249266000Y-96667250D03*
X252446000Y-96667250D03*
X255626000Y-96667250D03*
X258806000Y-96667250D03*
X261986000Y-96667250D03*
X265166000Y-96667250D03*
X268346000Y-96667250D03*
X271526000Y-96667250D03*
X274706000Y-96667250D03*
X277886000Y-96667250D03*
X281066000Y-96667250D03*
X284246000Y-96667250D03*
X287426000Y-96667250D03*
X290606000Y-96667250D03*
X293786000Y-96667250D03*
X296966000Y-96667250D03*
X300146000Y-96667250D03*
X303326000Y-96667250D03*
X306506000Y-96667250D03*
X309686000Y-96667250D03*
X312866000Y-96667250D03*
X316046000Y-96667250D03*
X319226000Y-96667250D03*
X163406000Y-90317250D03*
X166586000Y-90317250D03*
X169766000Y-90317250D03*
X172946000Y-90317250D03*
X176126000Y-90317250D03*
X179306000Y-90317250D03*
X182486000Y-90317250D03*
X185666000Y-90317250D03*
X188846000Y-90317250D03*
X192026000Y-90317250D03*
X195206000Y-90317250D03*
X198386000Y-90317250D03*
X201566000Y-90317250D03*
X204746000Y-90317250D03*
X207926000Y-90317250D03*
X211106000Y-90317250D03*
X214286000Y-90317250D03*
X217466000Y-90317250D03*
X220646000Y-90317250D03*
X223826000Y-90317250D03*
X227006000Y-90317250D03*
X230186000Y-90317250D03*
X233366000Y-90317250D03*
X236546000Y-90317250D03*
X239726000Y-90317250D03*
X242906000Y-90317250D03*
X246086000Y-90317250D03*
X249266000Y-90317250D03*
X252446000Y-90317250D03*
X255626000Y-90317250D03*
X258806000Y-90317250D03*
X261986000Y-90317250D03*
X265166000Y-90317250D03*
X268346000Y-90317250D03*
X271526000Y-90317250D03*
X274706000Y-90317250D03*
X277886000Y-90317250D03*
X281066000Y-90317250D03*
X284246000Y-90317250D03*
X287426000Y-90317250D03*
X290606000Y-90317250D03*
X293786000Y-90317250D03*
X296966000Y-90317250D03*
X300146000Y-90317250D03*
X303326000Y-90317250D03*
X306506000Y-90317250D03*
X309686000Y-90317250D03*
X312866000Y-90317250D03*
X316046000Y-90317250D03*
X319226000Y-90317250D03*
D26*
X44086000Y-92084750D03*
D24*
X105086000Y-117454750D03*
X105086000Y-107454750D03*
D26*
X54531000Y-113744750D03*
D31*
X117326000Y-152984750D03*
D35*
X42326000Y-152984750D03*
D26*
X44086000Y-87059750D03*
X390160000Y-146174750D03*
X390160000Y-130299750D03*
X44086000Y-82034750D03*
X40406000Y-114114750D03*
D20*
X69966000Y-72014750D03*
D21*
X57266000Y-72014750D03*
D24*
X384136000Y-73124750D03*
D25*
X384136000Y-85824750D03*
D31*
X42326000Y-132184750D03*
D35*
X117326000Y-132184750D03*
D18*
X163406000Y-154004750D03*
D19*
X166586000Y-154004750D03*
X169766000Y-154004750D03*
X172946000Y-154004750D03*
X176126000Y-154004750D03*
X179306000Y-154004750D03*
X182486000Y-154004750D03*
X185666000Y-154004750D03*
X188846000Y-154004750D03*
X192026000Y-154004750D03*
X195206000Y-154004750D03*
X198386000Y-154004750D03*
X201566000Y-154004750D03*
X204746000Y-154004750D03*
X207926000Y-154004750D03*
X211106000Y-154004750D03*
X214286000Y-154004750D03*
X217466000Y-154004750D03*
X220646000Y-154004750D03*
X223826000Y-154004750D03*
X227006000Y-154004750D03*
X230186000Y-154004750D03*
X233366000Y-154004750D03*
X236546000Y-154004750D03*
X239726000Y-154004750D03*
X242906000Y-154004750D03*
X246086000Y-154004750D03*
X249266000Y-154004750D03*
X252446000Y-154004750D03*
X255626000Y-154004750D03*
X258806000Y-154004750D03*
X261986000Y-154004750D03*
X265166000Y-154004750D03*
X268346000Y-154004750D03*
X271526000Y-154004750D03*
X274706000Y-154004750D03*
X277886000Y-154004750D03*
X281066000Y-154004750D03*
X284246000Y-154004750D03*
X287426000Y-154004750D03*
X290606000Y-154004750D03*
X293786000Y-154004750D03*
X296966000Y-154004750D03*
X300146000Y-154004750D03*
X303326000Y-154004750D03*
X306506000Y-154004750D03*
X309686000Y-154004750D03*
X312866000Y-154004750D03*
X316046000Y-154004750D03*
X319226000Y-154004750D03*
X163406000Y-147654750D03*
X166586000Y-147654750D03*
X169766000Y-147654750D03*
X172946000Y-147654750D03*
X176126000Y-147654750D03*
X179306000Y-147654750D03*
X182486000Y-147654750D03*
X185666000Y-147654750D03*
X188846000Y-147654750D03*
X192026000Y-147654750D03*
X195206000Y-147654750D03*
X198386000Y-147654750D03*
X201566000Y-147654750D03*
X204746000Y-147654750D03*
X207926000Y-147654750D03*
X211106000Y-147654750D03*
X214286000Y-147654750D03*
X217466000Y-147654750D03*
X220646000Y-147654750D03*
X223826000Y-147654750D03*
X227006000Y-147654750D03*
X230186000Y-147654750D03*
X233366000Y-147654750D03*
X236546000Y-147654750D03*
X239726000Y-147654750D03*
X242906000Y-147654750D03*
X246086000Y-147654750D03*
X249266000Y-147654750D03*
X252446000Y-147654750D03*
X255626000Y-147654750D03*
X258806000Y-147654750D03*
X261986000Y-147654750D03*
X265166000Y-147654750D03*
X268346000Y-147654750D03*
X271526000Y-147654750D03*
X274706000Y-147654750D03*
X277886000Y-147654750D03*
X281066000Y-147654750D03*
X284246000Y-147654750D03*
X287426000Y-147654750D03*
X290606000Y-147654750D03*
X293786000Y-147654750D03*
X296966000Y-147654750D03*
X300146000Y-147654750D03*
X303326000Y-147654750D03*
X306506000Y-147654750D03*
X309686000Y-147654750D03*
X312866000Y-147654750D03*
X316046000Y-147654750D03*
X319226000Y-147654750D03*
D20*
X69866000Y-83054750D03*
D21*
X57166000Y-83054750D03*
D18*
X163406000Y-134892250D03*
D19*
X166586000Y-134892250D03*
X169766000Y-134892250D03*
X172946000Y-134892250D03*
X176126000Y-134892250D03*
X179306000Y-134892250D03*
X182486000Y-134892250D03*
X185666000Y-134892250D03*
X188846000Y-134892250D03*
X192026000Y-134892250D03*
X195206000Y-134892250D03*
X198386000Y-134892250D03*
X201566000Y-134892250D03*
X204746000Y-134892250D03*
X207926000Y-134892250D03*
X211106000Y-134892250D03*
X214286000Y-134892250D03*
X217466000Y-134892250D03*
X220646000Y-134892250D03*
X223826000Y-134892250D03*
X227006000Y-134892250D03*
X230186000Y-134892250D03*
X233366000Y-134892250D03*
X236546000Y-134892250D03*
X239726000Y-134892250D03*
X242906000Y-134892250D03*
X246086000Y-134892250D03*
X249266000Y-134892250D03*
X252446000Y-134892250D03*
X255626000Y-134892250D03*
X258806000Y-134892250D03*
X261986000Y-134892250D03*
X265166000Y-134892250D03*
X268346000Y-134892250D03*
X271526000Y-134892250D03*
X274706000Y-134892250D03*
X277886000Y-134892250D03*
X281066000Y-134892250D03*
X284246000Y-134892250D03*
X287426000Y-134892250D03*
X290606000Y-134892250D03*
X293786000Y-134892250D03*
X296966000Y-134892250D03*
X300146000Y-134892250D03*
X303326000Y-134892250D03*
X306506000Y-134892250D03*
X309686000Y-134892250D03*
X312866000Y-134892250D03*
X316046000Y-134892250D03*
X319226000Y-134892250D03*
X163406000Y-128542250D03*
X166586000Y-128542250D03*
X169766000Y-128542250D03*
X172946000Y-128542250D03*
X176126000Y-128542250D03*
X179306000Y-128542250D03*
X182486000Y-128542250D03*
X185666000Y-128542250D03*
X188846000Y-128542250D03*
X192026000Y-128542250D03*
X195206000Y-128542250D03*
X198386000Y-128542250D03*
X201566000Y-128542250D03*
X204746000Y-128542250D03*
X207926000Y-128542250D03*
X211106000Y-128542250D03*
X214286000Y-128542250D03*
X217466000Y-128542250D03*
X220646000Y-128542250D03*
X223826000Y-128542250D03*
X227006000Y-128542250D03*
X230186000Y-128542250D03*
X233366000Y-128542250D03*
X236546000Y-128542250D03*
X239726000Y-128542250D03*
X242906000Y-128542250D03*
X246086000Y-128542250D03*
X249266000Y-128542250D03*
X252446000Y-128542250D03*
X255626000Y-128542250D03*
X258806000Y-128542250D03*
X261986000Y-128542250D03*
X265166000Y-128542250D03*
X268346000Y-128542250D03*
X271526000Y-128542250D03*
X274706000Y-128542250D03*
X277886000Y-128542250D03*
X281066000Y-128542250D03*
X284246000Y-128542250D03*
X287426000Y-128542250D03*
X290606000Y-128542250D03*
X293786000Y-128542250D03*
X296966000Y-128542250D03*
X300146000Y-128542250D03*
X303326000Y-128542250D03*
X306506000Y-128542250D03*
X309686000Y-128542250D03*
X312866000Y-128542250D03*
X316046000Y-128542250D03*
X319226000Y-128542250D03*
D36*
X162903000Y-65473750D03*
D37*
X166586000Y-65473750D03*
X169761000Y-65473750D03*
X172936000Y-65473750D03*
X176111000Y-65473750D03*
X179286000Y-65473750D03*
X182461000Y-65473750D03*
X185636000Y-65473750D03*
X188811000Y-65473750D03*
X191986000Y-65473750D03*
X195161000Y-65473750D03*
X198336000Y-65473750D03*
X201511000Y-65473750D03*
X204686000Y-65473750D03*
X207861000Y-65473750D03*
X211036000Y-65473750D03*
X214211000Y-65473750D03*
X217386000Y-65473750D03*
X220561000Y-65473750D03*
X223736000Y-65473750D03*
X226911000Y-65473750D03*
X230086000Y-65473750D03*
X233261000Y-65473750D03*
X236436000Y-65473750D03*
X239611000Y-65473750D03*
X242786000Y-65473750D03*
X245961000Y-65473750D03*
X249136000Y-65473750D03*
X252311000Y-65473750D03*
X255486000Y-65473750D03*
X258661000Y-65473750D03*
X261836000Y-65473750D03*
X265011000Y-65473750D03*
X268186000Y-65473750D03*
X271361000Y-65473750D03*
X274536000Y-65473750D03*
X277711000Y-65473750D03*
X280886000Y-65473750D03*
X284061000Y-65473750D03*
X287236000Y-65473750D03*
X290411000Y-65473750D03*
X293586000Y-65473750D03*
X296761000Y-65473750D03*
X299936000Y-65473750D03*
X303111000Y-65473750D03*
X306286000Y-65473750D03*
X309461000Y-65473750D03*
X312636000Y-65473750D03*
X315811000Y-65473750D03*
D36*
X319494000Y-65473750D03*
X162903000Y-160742750D03*
D37*
X166586000Y-160742750D03*
X169761000Y-160742750D03*
X172936000Y-160742750D03*
X176111000Y-160742750D03*
X179286000Y-160742750D03*
X182461000Y-160742750D03*
X185636000Y-160742750D03*
X188811000Y-160742750D03*
X191986000Y-160742750D03*
X195161000Y-160742750D03*
X198336000Y-160742750D03*
X201511000Y-160742750D03*
X204686000Y-160742750D03*
X207861000Y-160742750D03*
X211036000Y-160742750D03*
X214211000Y-160742750D03*
X217386000Y-160742750D03*
X220561000Y-160742750D03*
X223736000Y-160742750D03*
X226911000Y-160742750D03*
X230086000Y-160742750D03*
X233261000Y-160742750D03*
X236436000Y-160742750D03*
X239611000Y-160742750D03*
X242786000Y-160742750D03*
X245961000Y-160742750D03*
X249136000Y-160742750D03*
X252311000Y-160742750D03*
X255486000Y-160742750D03*
X258661000Y-160742750D03*
X261836000Y-160742750D03*
X265011000Y-160742750D03*
X268186000Y-160742750D03*
X271361000Y-160742750D03*
X274536000Y-160742750D03*
X277711000Y-160742750D03*
X280886000Y-160742750D03*
X284061000Y-160742750D03*
X287236000Y-160742750D03*
X290411000Y-160742750D03*
X293586000Y-160742750D03*
X296761000Y-160742750D03*
X299936000Y-160742750D03*
X303111000Y-160742750D03*
X306286000Y-160742750D03*
X309461000Y-160742750D03*
X312636000Y-160742750D03*
X315811000Y-160742750D03*
D36*
X319494000Y-160742750D03*
D38*
X331359000Y-86611750D03*
X329073000Y-86611750D03*
X155083000Y-137030750D03*
X155083000Y-126743750D03*
X154956000Y-108328750D03*
X330470000Y-104518750D03*
X327168000Y-104645750D03*
X397399000Y-95882750D03*
D39*
X329073000Y-86611750D02*
X163719000Y-86611750D01*
D40*
X162903000Y-154507750D02*
X163406000Y-154004750D01*
X163406000Y-154004750D02*
X163406000Y-147654750D01*
D39*
X163719000Y-86611750D02*
X163406000Y-86924750D01*
D40*
X162903000Y-160742750D02*
X162903000Y-154507750D01*
D39*
X329073000Y-86611750D02*
X331359000Y-86611750D01*
X163406000Y-86924750D02*
X163406000Y-90317250D01*
D40*
X69966000Y-108681772D02*
X75758978Y-114474750D01*
D41*
X165058989Y-133365239D02*
X166586000Y-134892250D01*
D40*
X69966000Y-92534750D02*
X69966000Y-108681772D01*
X75758978Y-114474750D02*
X84696000Y-114474750D01*
D41*
X158748511Y-133365239D02*
X165058989Y-133365239D01*
X155083000Y-137030750D02*
X158748511Y-133365239D01*
D42*
X165208989Y-149031761D02*
X165208989Y-154575128D01*
D40*
X57166000Y-76204750D02*
X57166000Y-83054750D01*
D41*
X155083000Y-126743750D02*
X164787500Y-126743750D01*
X164787500Y-126743750D02*
X166586000Y-128542250D01*
D42*
X166586000Y-147654750D02*
X165208989Y-149031761D01*
X165208989Y-154575128D02*
X166586000Y-155952139D01*
X166586000Y-155952139D02*
X166586000Y-160742750D01*
X174748989Y-149031761D02*
X174748989Y-154575128D01*
D40*
X72906000Y-116284750D02*
X72906000Y-120004750D01*
X79656000Y-117454750D02*
X105086000Y-117454750D01*
D41*
X159362011Y-110956761D02*
X156734000Y-108328750D01*
D42*
X176126000Y-147654750D02*
X174748989Y-149031761D01*
D40*
X176111000Y-65473750D02*
X176111000Y-71189750D01*
D41*
X156734000Y-108328750D02*
X154956000Y-108328750D01*
D40*
X176111000Y-71189750D02*
X176126000Y-71204750D01*
X77106000Y-120004750D02*
X79656000Y-117454750D01*
X72906000Y-120004750D02*
X77106000Y-120004750D01*
D42*
X176111000Y-155937139D02*
X176111000Y-160742750D01*
X174748989Y-154575128D02*
X176111000Y-155937139D01*
D41*
X174598989Y-110956761D02*
X159362011Y-110956761D01*
X176126000Y-109429750D02*
X174598989Y-110956761D01*
D42*
X226911000Y-155899750D02*
X226911000Y-160742750D01*
D41*
X378984000Y-94993750D02*
X382159000Y-98168750D01*
D39*
X395236000Y-93254750D02*
X390322000Y-98168750D01*
D41*
X397131000Y-71357750D02*
X397018000Y-71244750D01*
X378984000Y-72895750D02*
X378984000Y-94993750D01*
D42*
X227006000Y-147654750D02*
X225628989Y-149031761D01*
D40*
X226911000Y-65473750D02*
X226911000Y-71109750D01*
D41*
X397018000Y-71244750D02*
X380635000Y-71244750D01*
D42*
X225628989Y-149031761D02*
X225628989Y-154617739D01*
D41*
X227006000Y-128542250D02*
X227006000Y-125813750D01*
D39*
X390322000Y-98168750D02*
X382159000Y-98168750D01*
D42*
X225628989Y-154617739D02*
X226911000Y-155899750D01*
D39*
X51366000Y-87014750D02*
X48298000Y-87014750D01*
D41*
X397131000Y-73574750D02*
X397131000Y-71357750D01*
X380635000Y-71244750D02*
X378984000Y-72895750D01*
D40*
X226911000Y-71109750D02*
X227006000Y-71204750D01*
D42*
X312866000Y-115779750D02*
X315618000Y-113027750D01*
X315618000Y-113027750D02*
X321961000Y-113027750D01*
X321961000Y-113027750D02*
X330470000Y-104518750D01*
D40*
X169761000Y-71199750D02*
X169766000Y-71204750D01*
D42*
X168388989Y-149031761D02*
X168388989Y-154575128D01*
X169761000Y-155947139D02*
X169761000Y-160742750D01*
X169766000Y-147654750D02*
X168388989Y-149031761D01*
X168388989Y-154575128D02*
X169761000Y-155947139D01*
D40*
X169761000Y-65473750D02*
X169761000Y-71199750D01*
X172936000Y-65473750D02*
X172936000Y-71194750D01*
D42*
X172936000Y-155942139D02*
X172936000Y-160742750D01*
D40*
X172936000Y-71194750D02*
X172946000Y-71204750D01*
D42*
X172946000Y-147654750D02*
X171568989Y-149031761D01*
X171568989Y-154575128D02*
X172936000Y-155942139D01*
X171568989Y-149031761D02*
X171568989Y-154575128D01*
X179286000Y-155932139D02*
X179286000Y-160742750D01*
D40*
X179286000Y-71184750D02*
X179306000Y-71204750D01*
X179286000Y-65473750D02*
X179286000Y-71184750D01*
D42*
X179306000Y-147654750D02*
X177928989Y-149031761D01*
X177928989Y-154575128D02*
X179286000Y-155932139D01*
X177928989Y-149031761D02*
X177928989Y-154575128D01*
D40*
X182461000Y-65473750D02*
X182461000Y-71179750D01*
D42*
X181108989Y-154575128D02*
X182461000Y-155927139D01*
X181108989Y-149031761D02*
X181108989Y-154575128D01*
X182486000Y-147654750D02*
X181108989Y-149031761D01*
X182461000Y-155927139D02*
X182461000Y-160742750D01*
D40*
X182461000Y-71179750D02*
X182486000Y-71204750D01*
D42*
X184288989Y-154575128D02*
X185636000Y-155922139D01*
D40*
X185636000Y-65473750D02*
X185636000Y-71174750D01*
X185636000Y-71174750D02*
X185666000Y-71204750D01*
D42*
X185636000Y-155922139D02*
X185636000Y-160742750D01*
X184288989Y-149031761D02*
X184288989Y-154575128D01*
X185666000Y-147654750D02*
X184288989Y-149031761D01*
D40*
X188811000Y-71169750D02*
X188846000Y-71204750D01*
X188811000Y-65473750D02*
X188811000Y-71169750D01*
D42*
X187468989Y-154575128D02*
X188811000Y-155917139D01*
X187468989Y-149031761D02*
X187468989Y-154575128D01*
X188846000Y-147654750D02*
X187468989Y-149031761D01*
X188811000Y-155917139D02*
X188811000Y-160742750D01*
X191986000Y-155912139D02*
X191986000Y-160742750D01*
D40*
X191986000Y-65473750D02*
X191986000Y-71164750D01*
X191986000Y-71164750D02*
X192026000Y-71204750D01*
D42*
X190648989Y-154575128D02*
X191986000Y-155912139D01*
X192026000Y-147654750D02*
X190648989Y-149031761D01*
X190648989Y-149031761D02*
X190648989Y-154575128D01*
D40*
X195161000Y-71159750D02*
X195206000Y-71204750D01*
D42*
X195206000Y-147654750D02*
X193828989Y-149031761D01*
X193828989Y-149031761D02*
X193828989Y-154575128D01*
X195161000Y-155907139D02*
X195161000Y-160742750D01*
X193828989Y-154575128D02*
X195161000Y-155907139D01*
D40*
X195161000Y-65473750D02*
X195161000Y-71159750D01*
X198336000Y-65473750D02*
X198336000Y-71154750D01*
D42*
X198386000Y-147654750D02*
X197008989Y-149031761D01*
X198336000Y-155902139D02*
X198336000Y-160742750D01*
D40*
X198336000Y-71154750D02*
X198386000Y-71204750D01*
D42*
X197008989Y-149031761D02*
X197008989Y-154575128D01*
X197008989Y-154575128D02*
X198336000Y-155902139D01*
X201511000Y-155899750D02*
X201511000Y-160742750D01*
X201566000Y-147654750D02*
X200188989Y-149031761D01*
X200188989Y-149031761D02*
X200188989Y-154577739D01*
D40*
X201511000Y-65473750D02*
X201511000Y-71149750D01*
X201511000Y-71149750D02*
X201566000Y-71204750D01*
D42*
X200188989Y-154577739D02*
X201511000Y-155899750D01*
D40*
X204686000Y-71144750D02*
X204746000Y-71204750D01*
X204686000Y-65473750D02*
X204686000Y-71144750D01*
D42*
X203368989Y-154582739D02*
X204686000Y-155899750D01*
X204746000Y-147654750D02*
X203368989Y-149031761D01*
X203368989Y-149031761D02*
X203368989Y-154582739D01*
X204686000Y-155899750D02*
X204686000Y-160742750D01*
D40*
X207861000Y-65473750D02*
X207861000Y-71139750D01*
D42*
X207926000Y-147654750D02*
X206548989Y-149031761D01*
X207861000Y-155887139D02*
X207861000Y-160742750D01*
X206548989Y-149031761D02*
X206548989Y-154575128D01*
X206548989Y-154575128D02*
X207861000Y-155887139D01*
D40*
X207861000Y-71139750D02*
X207926000Y-71204750D01*
X211036000Y-71134750D02*
X211106000Y-71204750D01*
X211036000Y-65473750D02*
X211036000Y-71134750D01*
D42*
X209728989Y-149031761D02*
X209728989Y-154592739D01*
X211106000Y-147654750D02*
X209728989Y-149031761D01*
X211036000Y-155899750D02*
X211036000Y-160742750D01*
X209728989Y-154592739D02*
X211036000Y-155899750D01*
X212908989Y-149031761D02*
X212908989Y-154597739D01*
D40*
X214211000Y-71129750D02*
X214286000Y-71204750D01*
D42*
X214286000Y-147654750D02*
X212908989Y-149031761D01*
X212908989Y-154597739D02*
X214211000Y-155899750D01*
D40*
X214211000Y-65473750D02*
X214211000Y-71129750D01*
D42*
X214211000Y-155899750D02*
X214211000Y-160742750D01*
D40*
X217386000Y-65473750D02*
X217386000Y-71124750D01*
D42*
X217466000Y-147654750D02*
X216088989Y-149031761D01*
D40*
X217386000Y-71124750D02*
X217466000Y-71204750D01*
D42*
X216088989Y-154575128D02*
X217386000Y-155872139D01*
X216088989Y-149031761D02*
X216088989Y-154575128D01*
X217386000Y-155872139D02*
X217386000Y-160742750D01*
X220561000Y-155867139D02*
X220561000Y-160742750D01*
X219268989Y-149031761D02*
X219268989Y-154575128D01*
X220646000Y-147654750D02*
X219268989Y-149031761D01*
D40*
X220561000Y-65473750D02*
X220561000Y-71119750D01*
X220561000Y-71119750D02*
X220646000Y-71204750D01*
D42*
X219268989Y-154575128D02*
X220561000Y-155867139D01*
D40*
X223736000Y-65473750D02*
X223736000Y-71114750D01*
D42*
X223826000Y-147654750D02*
X222448989Y-149031761D01*
X222448989Y-154575128D02*
X223736000Y-155862139D01*
X222448989Y-149031761D02*
X222448989Y-154575128D01*
D40*
X223736000Y-71114750D02*
X223826000Y-71204750D01*
D42*
X223736000Y-155862139D02*
X223736000Y-160742750D01*
X228808989Y-149031761D02*
X228808989Y-154622739D01*
X230086000Y-155899750D02*
X230086000Y-160742750D01*
D40*
X230086000Y-65473750D02*
X230086000Y-71104750D01*
D42*
X228808989Y-154622739D02*
X230086000Y-155899750D01*
X230186000Y-147654750D02*
X228808989Y-149031761D01*
D40*
X230086000Y-71104750D02*
X230186000Y-71204750D01*
D42*
X233261000Y-155899750D02*
X233261000Y-160742750D01*
X231988989Y-154627739D02*
X233261000Y-155899750D01*
X233366000Y-147654750D02*
X231988989Y-149031761D01*
D40*
X233261000Y-65473750D02*
X233261000Y-71099750D01*
X233261000Y-71099750D02*
X233366000Y-71204750D01*
D42*
X231988989Y-149031761D02*
X231988989Y-154627739D01*
X235168989Y-149031761D02*
X235168989Y-154632739D01*
D40*
X236436000Y-71094750D02*
X236546000Y-71204750D01*
D42*
X236546000Y-147654750D02*
X235168989Y-149031761D01*
X235168989Y-154632739D02*
X236436000Y-155899750D01*
X236436000Y-155899750D02*
X236436000Y-160742750D01*
D40*
X236436000Y-65473750D02*
X236436000Y-71094750D01*
D41*
X242478000Y-106677750D02*
X239726000Y-109429750D01*
D42*
X238348989Y-154637739D02*
X239611000Y-155899750D01*
D41*
X327168000Y-104645750D02*
X325136000Y-106677750D01*
X400574000Y-92707750D02*
X397399000Y-95882750D01*
X398251000Y-81494750D02*
X400574000Y-83817750D01*
D40*
X239611000Y-71089750D02*
X239726000Y-71204750D01*
X239611000Y-65473750D02*
X239611000Y-71089750D01*
D42*
X239611000Y-155899750D02*
X239611000Y-160742750D01*
D41*
X400574000Y-83817750D02*
X400574000Y-92707750D01*
D42*
X239726000Y-147654750D02*
X238348989Y-149031761D01*
D41*
X397131000Y-81494750D02*
X398251000Y-81494750D01*
D42*
X238348989Y-149031761D02*
X238348989Y-154637739D01*
D41*
X325136000Y-106677750D02*
X242478000Y-106677750D01*
D42*
X242906000Y-147654750D02*
X241528989Y-149031761D01*
D40*
X242786000Y-65473750D02*
X242786000Y-71084750D01*
D42*
X242786000Y-155899750D02*
X242786000Y-160742750D01*
X241528989Y-154642739D02*
X242786000Y-155899750D01*
X241528989Y-149031761D02*
X241528989Y-154642739D01*
D40*
X242786000Y-71084750D02*
X242906000Y-71204750D01*
X245961000Y-71079750D02*
X246086000Y-71204750D01*
D42*
X246086000Y-147654750D02*
X244708989Y-149031761D01*
X245961000Y-155827139D02*
X245961000Y-160742750D01*
X244708989Y-154575128D02*
X245961000Y-155827139D01*
X244708989Y-149031761D02*
X244708989Y-154575128D01*
D40*
X245961000Y-65473750D02*
X245961000Y-71079750D01*
X249136000Y-71074750D02*
X249266000Y-71204750D01*
X249136000Y-65473750D02*
X249136000Y-71074750D01*
D42*
X247888989Y-154575128D02*
X249136000Y-155822139D01*
X247888989Y-149031761D02*
X247888989Y-154575128D01*
X249266000Y-147654750D02*
X247888989Y-149031761D01*
X249136000Y-155822139D02*
X249136000Y-160742750D01*
X251068989Y-149031761D02*
X251068989Y-154657739D01*
X252446000Y-147654750D02*
X251068989Y-149031761D01*
D40*
X252311000Y-71069750D02*
X252446000Y-71204750D01*
D42*
X252311000Y-155899750D02*
X252311000Y-160742750D01*
X251068989Y-154657739D02*
X252311000Y-155899750D01*
D40*
X252311000Y-65473750D02*
X252311000Y-71069750D01*
X255486000Y-65473750D02*
X255486000Y-71064750D01*
D42*
X255486000Y-155812139D02*
X255486000Y-160742750D01*
X255626000Y-147654750D02*
X254248989Y-149031761D01*
X254248989Y-154575128D02*
X255486000Y-155812139D01*
X254248989Y-149031761D02*
X254248989Y-154575128D01*
D40*
X255486000Y-71064750D02*
X255626000Y-71204750D01*
D42*
X258806000Y-147654750D02*
X257428989Y-149031761D01*
X258661000Y-155807139D02*
X258661000Y-160742750D01*
D40*
X258661000Y-71059750D02*
X258806000Y-71204750D01*
D42*
X257428989Y-149031761D02*
X257428989Y-154575128D01*
D40*
X258661000Y-65473750D02*
X258661000Y-71059750D01*
D42*
X257428989Y-154575128D02*
X258661000Y-155807139D01*
X260608989Y-154575128D02*
X261836000Y-155802139D01*
X261986000Y-147654750D02*
X260608989Y-149031761D01*
X260608989Y-149031761D02*
X260608989Y-154575128D01*
D40*
X261836000Y-71054750D02*
X261986000Y-71204750D01*
X261836000Y-65473750D02*
X261836000Y-71054750D01*
D42*
X261836000Y-155802139D02*
X261836000Y-160742750D01*
X265166000Y-147654750D02*
X263788989Y-149031761D01*
D40*
X265011000Y-65473750D02*
X265011000Y-71049750D01*
D42*
X263788989Y-149031761D02*
X263788989Y-154575128D01*
X265011000Y-155797139D02*
X265011000Y-160742750D01*
X263788989Y-154575128D02*
X265011000Y-155797139D01*
D40*
X265011000Y-71049750D02*
X265166000Y-71204750D01*
D42*
X268346000Y-147654750D02*
X266968989Y-149031761D01*
D40*
X268186000Y-71044750D02*
X268346000Y-71204750D01*
D42*
X266968989Y-154682739D02*
X268186000Y-155899750D01*
X268186000Y-155899750D02*
X268186000Y-160742750D01*
D40*
X268186000Y-65473750D02*
X268186000Y-71044750D01*
D42*
X266968989Y-149031761D02*
X266968989Y-154682739D01*
X271526000Y-147654750D02*
X270148989Y-149031761D01*
D40*
X271361000Y-65473750D02*
X271361000Y-71039750D01*
X271361000Y-71039750D02*
X271526000Y-71204750D01*
D42*
X270148989Y-154687739D02*
X271361000Y-155899750D01*
X271361000Y-155899750D02*
X271361000Y-160742750D01*
X270148989Y-149031761D02*
X270148989Y-154687739D01*
D40*
X274536000Y-65473750D02*
X274536000Y-71034750D01*
D42*
X274536000Y-155782139D02*
X274536000Y-160742750D01*
X274706000Y-147654750D02*
X273328989Y-149031761D01*
X273328989Y-149031761D02*
X273328989Y-154575128D01*
X273328989Y-154575128D02*
X274536000Y-155782139D01*
D40*
X274536000Y-71034750D02*
X274706000Y-71204750D01*
X277711000Y-71029750D02*
X277886000Y-71204750D01*
X277711000Y-65473750D02*
X277711000Y-71029750D01*
D42*
X276508989Y-149031761D02*
X276508989Y-154575128D01*
X277886000Y-147654750D02*
X276508989Y-149031761D01*
X277711000Y-155777139D02*
X277711000Y-160742750D01*
X276508989Y-154575128D02*
X277711000Y-155777139D01*
X280886000Y-155772139D02*
X280886000Y-160742750D01*
D40*
X280886000Y-65473750D02*
X280886000Y-71024750D01*
D42*
X279688989Y-149031761D02*
X279688989Y-154575128D01*
X279688989Y-154575128D02*
X280886000Y-155772139D01*
D40*
X280886000Y-71024750D02*
X281066000Y-71204750D01*
D42*
X281066000Y-147654750D02*
X279688989Y-149031761D01*
D40*
X284061000Y-65473750D02*
X284061000Y-71019750D01*
D42*
X282868989Y-149031761D02*
X282868989Y-154575128D01*
X284061000Y-155767139D02*
X284061000Y-160742750D01*
X282868989Y-154575128D02*
X284061000Y-155767139D01*
D40*
X284061000Y-71019750D02*
X284246000Y-71204750D01*
D42*
X284246000Y-147654750D02*
X282868989Y-149031761D01*
X286048989Y-149031761D02*
X286048989Y-154712739D01*
X287236000Y-155899750D02*
X287236000Y-160742750D01*
D40*
X287236000Y-71014750D02*
X287426000Y-71204750D01*
X287236000Y-65473750D02*
X287236000Y-71014750D01*
D42*
X287426000Y-147654750D02*
X286048989Y-149031761D01*
X286048989Y-154712739D02*
X287236000Y-155899750D01*
X289228989Y-149031761D02*
X289228989Y-154717739D01*
X290411000Y-155899750D02*
X290411000Y-160742750D01*
D40*
X290411000Y-65473750D02*
X290411000Y-71009750D01*
X290411000Y-71009750D02*
X290606000Y-71204750D01*
D42*
X289228989Y-154717739D02*
X290411000Y-155899750D01*
X290606000Y-147654750D02*
X289228989Y-149031761D01*
X293786000Y-147654750D02*
X292408989Y-149031761D01*
D40*
X293586000Y-71004750D02*
X293786000Y-71204750D01*
D42*
X292408989Y-149031761D02*
X292408989Y-154575128D01*
X292408989Y-154575128D02*
X293586000Y-155752139D01*
D40*
X293586000Y-65473750D02*
X293586000Y-71004750D01*
D42*
X293586000Y-155752139D02*
X293586000Y-160742750D01*
D40*
X296761000Y-65473750D02*
X296761000Y-70999750D01*
D42*
X295588989Y-149031761D02*
X295588989Y-154727739D01*
D40*
X296761000Y-70999750D02*
X296966000Y-71204750D01*
D42*
X296761000Y-155899750D02*
X296761000Y-160742750D01*
X295588989Y-154727739D02*
X296761000Y-155899750D01*
X296966000Y-147654750D02*
X295588989Y-149031761D01*
X299936000Y-155742139D02*
X299936000Y-160742750D01*
X298768989Y-154575128D02*
X299936000Y-155742139D01*
D40*
X299936000Y-70994750D02*
X300146000Y-71204750D01*
D42*
X300146000Y-147654750D02*
X298768989Y-149031761D01*
D40*
X299936000Y-65473750D02*
X299936000Y-70994750D01*
D42*
X298768989Y-149031761D02*
X298768989Y-154575128D01*
D40*
X303111000Y-65473750D02*
X303111000Y-70989750D01*
D42*
X303326000Y-147654750D02*
X301948989Y-149031761D01*
X303111000Y-155737139D02*
X303111000Y-160742750D01*
X301948989Y-149031761D02*
X301948989Y-154575128D01*
X301948989Y-154575128D02*
X303111000Y-155737139D01*
D40*
X303111000Y-70989750D02*
X303326000Y-71204750D01*
D42*
X305128989Y-149031761D02*
X306506000Y-147654750D01*
X306286000Y-155732139D02*
X305128989Y-154575128D01*
X306286000Y-160742750D02*
X306286000Y-155732139D01*
D40*
X306286000Y-65473750D02*
X306286000Y-70984750D01*
D42*
X305128989Y-154575128D02*
X305128989Y-149031761D01*
D40*
X306286000Y-70984750D02*
X306506000Y-71204750D01*
X309461000Y-65473750D02*
X309461000Y-70979750D01*
D42*
X308308989Y-149031761D02*
X308308989Y-154575128D01*
X309686000Y-147654750D02*
X308308989Y-149031761D01*
D40*
X309461000Y-70979750D02*
X309686000Y-71204750D01*
D42*
X308308989Y-154575128D02*
X309461000Y-155727139D01*
X309461000Y-155727139D02*
X309461000Y-160742750D01*
X311488989Y-154752739D02*
X312636000Y-155899750D01*
X311488989Y-149031761D02*
X311488989Y-154752739D01*
X312866000Y-147654750D02*
X311488989Y-149031761D01*
X312636000Y-155899750D02*
X312636000Y-160742750D01*
D40*
X312636000Y-70974750D02*
X312866000Y-71204750D01*
X312636000Y-65473750D02*
X312636000Y-70974750D01*
X315811000Y-70969750D02*
X316046000Y-71204750D01*
D42*
X315811000Y-155899750D02*
X315811000Y-160742750D01*
X314668989Y-149031761D02*
X314668989Y-154757739D01*
X314668989Y-154757739D02*
X315811000Y-155899750D01*
X316046000Y-147654750D02*
X314668989Y-149031761D01*
D40*
X315811000Y-65473750D02*
X315811000Y-70969750D01*
D41*
X393903000Y-77534750D02*
X397131000Y-77534750D01*
X390156000Y-90925750D02*
X387874000Y-88643750D01*
X390156000Y-93254750D02*
X390156000Y-90925750D01*
X387874000Y-88643750D02*
X387874000Y-83563750D01*
X387874000Y-83563750D02*
X393903000Y-77534750D01*
G04 #@! TA.AperFunction,Conductor*
G36*
X321080121Y-62872752D02*
G01*
X321126614Y-62926408D01*
X321138000Y-62978750D01*
X321138000Y-69966048D01*
X321137998Y-69966818D01*
X321137524Y-70044402D01*
X321139990Y-70053031D01*
X321139991Y-70053036D01*
X321145639Y-70072798D01*
X321149217Y-70089559D01*
X321152130Y-70109902D01*
X321152133Y-70109912D01*
X321153405Y-70118795D01*
X321164021Y-70142145D01*
X321170464Y-70159657D01*
X321177512Y-70184315D01*
X321182298Y-70191900D01*
X321182298Y-70191901D01*
X321184179Y-70194883D01*
X321193274Y-70209298D01*
X321201404Y-70224364D01*
X321213633Y-70251260D01*
X321230374Y-70270689D01*
X321241479Y-70285697D01*
X321255160Y-70307381D01*
X321269349Y-70319912D01*
X321277296Y-70326931D01*
X321289340Y-70339123D01*
X321308619Y-70361497D01*
X321316147Y-70366376D01*
X321316150Y-70366379D01*
X321330139Y-70375446D01*
X321345013Y-70386736D01*
X321364228Y-70403706D01*
X321372354Y-70407521D01*
X321372355Y-70407522D01*
X321378021Y-70410182D01*
X321390966Y-70416260D01*
X321405935Y-70424574D01*
X321430727Y-70440643D01*
X321447650Y-70445704D01*
X321455290Y-70447989D01*
X321472736Y-70454651D01*
X321495948Y-70465549D01*
X321525130Y-70470093D01*
X321541849Y-70473876D01*
X321561536Y-70479764D01*
X321561539Y-70479765D01*
X321570141Y-70482337D01*
X321579116Y-70482392D01*
X321579117Y-70482392D01*
X321585810Y-70482433D01*
X321604556Y-70482547D01*
X321605328Y-70482580D01*
X321606423Y-70482750D01*
X321637298Y-70482750D01*
X321638068Y-70482752D01*
X321711716Y-70483202D01*
X321711717Y-70483202D01*
X321715652Y-70483226D01*
X321716996Y-70482842D01*
X321718341Y-70482750D01*
X399051000Y-70482750D01*
X399119121Y-70502752D01*
X399165614Y-70556408D01*
X399177000Y-70608750D01*
X399177000Y-71753738D01*
X399156998Y-71821859D01*
X399103342Y-71868352D01*
X399051001Y-71879738D01*
X391540485Y-71879708D01*
X390551668Y-71879704D01*
X390519058Y-71875411D01*
X390359402Y-71832631D01*
X390359400Y-71832631D01*
X390354087Y-71831207D01*
X390126000Y-71811252D01*
X389897913Y-71831207D01*
X389892603Y-71832630D01*
X389892602Y-71832630D01*
X389825751Y-71850543D01*
X389733045Y-71875384D01*
X389732955Y-71875408D01*
X389700343Y-71879701D01*
X387130806Y-71879690D01*
X384561580Y-71879680D01*
X384528970Y-71875387D01*
X384369402Y-71832631D01*
X384369400Y-71832631D01*
X384364087Y-71831207D01*
X384136000Y-71811252D01*
X383907913Y-71831207D01*
X383902600Y-71832631D01*
X383902598Y-71832631D01*
X383803496Y-71859185D01*
X383769287Y-71868352D01*
X383743043Y-71875384D01*
X383710432Y-71879677D01*
X382849986Y-71879674D01*
X381910337Y-71879670D01*
X381892221Y-71879670D01*
X381892230Y-71893236D01*
X381892230Y-71893237D01*
X381896758Y-78552488D01*
X381905000Y-90675750D01*
X384192000Y-90675750D01*
X384260121Y-90695752D01*
X384306614Y-90749408D01*
X384318000Y-90801750D01*
X384318000Y-164390750D01*
X384297998Y-164458871D01*
X384244342Y-164505364D01*
X384192000Y-164516750D01*
X318531000Y-164516750D01*
X318462879Y-164496748D01*
X318416386Y-164443092D01*
X318405000Y-164390750D01*
X318405000Y-155349356D01*
X318425002Y-155281235D01*
X318478658Y-155234742D01*
X318548932Y-155224638D01*
X318594570Y-155240568D01*
X318620830Y-155255913D01*
X318630119Y-155260363D01*
X318833302Y-155337951D01*
X318843200Y-155340827D01*
X319056328Y-155384188D01*
X319066556Y-155385407D01*
X319283902Y-155393378D01*
X319294188Y-155392911D01*
X319509921Y-155365275D01*
X319519999Y-155363133D01*
X319728316Y-155300634D01*
X319737914Y-155296872D01*
X319933229Y-155201189D01*
X319942074Y-155195916D01*
X319994964Y-155158190D01*
X320003365Y-155147490D01*
X319996377Y-155134337D01*
X318955885Y-154093845D01*
X318921859Y-154031533D01*
X318923694Y-154005882D01*
X319590408Y-154005882D01*
X319590539Y-154007715D01*
X319594790Y-154014330D01*
X320356179Y-154775719D01*
X320368190Y-154782278D01*
X320379929Y-154773310D01*
X320414655Y-154724984D01*
X320419969Y-154716139D01*
X320516326Y-154521176D01*
X320520124Y-154511583D01*
X320583348Y-154303488D01*
X320585525Y-154293418D01*
X320614151Y-154075985D01*
X320614670Y-154069310D01*
X320616166Y-154008114D01*
X320615972Y-154001396D01*
X320598004Y-153782847D01*
X320596319Y-153772667D01*
X320543336Y-153561733D01*
X320540016Y-153551982D01*
X320453290Y-153352524D01*
X320448424Y-153343449D01*
X320378951Y-153236062D01*
X320368264Y-153226858D01*
X320358699Y-153231261D01*
X319598022Y-153991938D01*
X319590408Y-154005882D01*
X318923694Y-154005882D01*
X318926924Y-153960718D01*
X318955885Y-153915655D01*
X319998969Y-152872571D01*
X320005990Y-152859714D01*
X319998429Y-152849337D01*
X319990820Y-152844282D01*
X319800429Y-152739180D01*
X319791017Y-152734950D01*
X319586008Y-152662352D01*
X319576037Y-152659718D01*
X319361923Y-152621578D01*
X319351671Y-152620609D01*
X319134191Y-152617952D01*
X319123907Y-152618672D01*
X318908922Y-152651568D01*
X318898903Y-152653955D01*
X318692170Y-152721526D01*
X318682673Y-152725519D01*
X318589181Y-152774188D01*
X318519521Y-152787901D01*
X318453506Y-152761776D01*
X318412094Y-152704108D01*
X318405000Y-152662425D01*
X318405000Y-150876630D01*
X325252992Y-150876630D01*
X325253355Y-150880778D01*
X325253355Y-150880782D01*
X325278487Y-151168043D01*
X325278488Y-151168051D01*
X325278852Y-151172209D01*
X325279766Y-151176298D01*
X325325102Y-151379117D01*
X325343577Y-151461771D01*
X325345019Y-151465691D01*
X325345021Y-151465697D01*
X325421821Y-151674434D01*
X325446029Y-151740230D01*
X325447980Y-151743930D01*
X325447982Y-151743935D01*
X325539784Y-151918052D01*
X325584410Y-152002692D01*
X325756288Y-152244547D01*
X325958642Y-152461546D01*
X326187918Y-152649875D01*
X326440088Y-152806227D01*
X326710722Y-152927855D01*
X326883390Y-152979330D01*
X326991065Y-153011429D01*
X326991067Y-153011429D01*
X326995064Y-153012621D01*
X326999184Y-153013274D01*
X326999186Y-153013274D01*
X327118106Y-153032109D01*
X327288119Y-153059036D01*
X327333146Y-153061081D01*
X327379497Y-153063186D01*
X327379516Y-153063186D01*
X327380916Y-153063250D01*
X327566264Y-153063250D01*
X327787056Y-153048585D01*
X328077910Y-152989938D01*
X328358453Y-152893340D01*
X328362196Y-152891466D01*
X328362200Y-152891464D01*
X328620012Y-152762361D01*
X328620014Y-152762360D01*
X328623756Y-152760486D01*
X328738070Y-152682798D01*
X328865699Y-152596062D01*
X328865702Y-152596060D01*
X328869158Y-152593711D01*
X329090346Y-152395946D01*
X329283436Y-152170664D01*
X329292420Y-152156830D01*
X329442763Y-151925322D01*
X329442765Y-151925319D01*
X329445035Y-151921823D01*
X329470522Y-151868149D01*
X329506759Y-151791832D01*
X329572304Y-151653796D01*
X329580259Y-151629020D01*
X329661726Y-151375280D01*
X329661727Y-151375274D01*
X329663006Y-151371292D01*
X329698091Y-151176298D01*
X329714809Y-151083382D01*
X329714810Y-151083377D01*
X329715548Y-151079273D01*
X329720976Y-150959750D01*
X335433110Y-150959750D01*
X335452649Y-151270312D01*
X335510957Y-151575976D01*
X335607116Y-151871922D01*
X335608803Y-151875508D01*
X335608805Y-151875512D01*
X335737920Y-152149897D01*
X335737924Y-152149904D01*
X335739608Y-152153483D01*
X335741731Y-152156829D01*
X335741732Y-152156830D01*
X335776271Y-152211255D01*
X335906345Y-152416217D01*
X335908864Y-152419262D01*
X335908867Y-152419266D01*
X335943844Y-152461546D01*
X336104696Y-152655982D01*
X336331533Y-152868997D01*
X336583280Y-153051902D01*
X336586749Y-153053809D01*
X336586752Y-153053811D01*
X336603922Y-153063250D01*
X336855966Y-153201812D01*
X337145290Y-153316363D01*
X337149129Y-153317349D01*
X337149133Y-153317350D01*
X337250782Y-153343449D01*
X337446690Y-153393750D01*
X337450618Y-153394246D01*
X337450622Y-153394247D01*
X337601051Y-153413250D01*
X337755412Y-153432750D01*
X338066588Y-153432750D01*
X338220949Y-153413250D01*
X338371378Y-153394247D01*
X338371382Y-153394246D01*
X338375310Y-153393750D01*
X338571218Y-153343449D01*
X338672867Y-153317350D01*
X338672871Y-153317349D01*
X338676710Y-153316363D01*
X338966034Y-153201812D01*
X339218078Y-153063250D01*
X339235248Y-153053811D01*
X339235251Y-153053809D01*
X339238720Y-153051902D01*
X339490467Y-152868997D01*
X339717304Y-152655982D01*
X339878156Y-152461546D01*
X339913133Y-152419266D01*
X339913136Y-152419262D01*
X339915655Y-152416217D01*
X340045729Y-152211255D01*
X340080268Y-152156830D01*
X340080269Y-152156829D01*
X340082392Y-152153483D01*
X340084076Y-152149904D01*
X340084080Y-152149897D01*
X340213195Y-151875512D01*
X340213197Y-151875508D01*
X340214884Y-151871922D01*
X340311043Y-151575976D01*
X340369351Y-151270312D01*
X340388890Y-150959750D01*
X340369351Y-150649188D01*
X340311043Y-150343524D01*
X340214884Y-150047578D01*
X340212650Y-150042830D01*
X340084080Y-149769603D01*
X340084076Y-149769596D01*
X340082392Y-149766017D01*
X339915655Y-149503283D01*
X339906602Y-149492339D01*
X339855622Y-149430716D01*
X339717304Y-149263518D01*
X339490467Y-149050503D01*
X339468012Y-149034188D01*
X339281960Y-148899014D01*
X339238720Y-148867598D01*
X339216678Y-148855480D01*
X338969496Y-148719591D01*
X338969493Y-148719590D01*
X338966034Y-148717688D01*
X338698444Y-148611742D01*
X338680393Y-148604595D01*
X338680390Y-148604594D01*
X338676710Y-148603137D01*
X338672871Y-148602151D01*
X338672867Y-148602150D01*
X338532835Y-148566196D01*
X338375310Y-148525750D01*
X338371382Y-148525254D01*
X338371378Y-148525253D01*
X338220949Y-148506250D01*
X338066588Y-148486750D01*
X337755412Y-148486750D01*
X337601051Y-148506250D01*
X337450622Y-148525253D01*
X337450618Y-148525254D01*
X337446690Y-148525750D01*
X337289165Y-148566196D01*
X337149133Y-148602150D01*
X337149129Y-148602151D01*
X337145290Y-148603137D01*
X337141610Y-148604594D01*
X337141607Y-148604595D01*
X337123556Y-148611742D01*
X336855966Y-148717688D01*
X336852507Y-148719590D01*
X336852504Y-148719591D01*
X336605323Y-148855480D01*
X336583280Y-148867598D01*
X336540040Y-148899014D01*
X336353989Y-149034188D01*
X336331533Y-149050503D01*
X336104696Y-149263518D01*
X335966378Y-149430716D01*
X335915399Y-149492339D01*
X335906345Y-149503283D01*
X335739608Y-149766017D01*
X335737924Y-149769596D01*
X335737920Y-149769603D01*
X335609350Y-150042830D01*
X335607116Y-150047578D01*
X335510957Y-150343524D01*
X335452649Y-150649188D01*
X335435350Y-150924152D01*
X335433110Y-150959750D01*
X329720976Y-150959750D01*
X329721156Y-150955793D01*
X329728819Y-150787040D01*
X329728819Y-150787035D01*
X329729008Y-150782870D01*
X329723664Y-150721784D01*
X329703513Y-150491457D01*
X329703512Y-150491449D01*
X329703148Y-150487291D01*
X329638423Y-150197729D01*
X329567773Y-150005704D01*
X329537418Y-149923202D01*
X329537416Y-149923198D01*
X329535971Y-149919270D01*
X329522737Y-149894168D01*
X329399543Y-149660512D01*
X329399542Y-149660511D01*
X329397590Y-149656808D01*
X329225712Y-149414953D01*
X329023358Y-149197954D01*
X328794082Y-149009625D01*
X328541912Y-148853273D01*
X328271278Y-148731645D01*
X328098610Y-148680170D01*
X327990935Y-148648071D01*
X327990933Y-148648071D01*
X327986936Y-148646879D01*
X327982816Y-148646226D01*
X327982814Y-148646226D01*
X327863894Y-148627391D01*
X327693881Y-148600464D01*
X327648854Y-148598419D01*
X327602503Y-148596314D01*
X327602484Y-148596314D01*
X327601084Y-148596250D01*
X327415736Y-148596250D01*
X327194944Y-148610915D01*
X326904090Y-148669562D01*
X326623547Y-148766160D01*
X326619804Y-148768034D01*
X326619800Y-148768036D01*
X326386744Y-148884742D01*
X326358244Y-148899014D01*
X326255865Y-148968591D01*
X326131346Y-149053214D01*
X326112842Y-149065789D01*
X325891654Y-149263554D01*
X325698564Y-149488836D01*
X325696290Y-149492338D01*
X325696289Y-149492339D01*
X325591698Y-149653396D01*
X325536965Y-149737677D01*
X325535177Y-149741443D01*
X325535174Y-149741448D01*
X325525097Y-149762670D01*
X325409696Y-150005704D01*
X325408417Y-150009687D01*
X325408416Y-150009690D01*
X325324441Y-150271244D01*
X325318994Y-150288208D01*
X325318253Y-150292327D01*
X325282649Y-150490209D01*
X325266452Y-150580227D01*
X325266263Y-150584394D01*
X325266262Y-150584401D01*
X325257060Y-150787040D01*
X325252992Y-150876630D01*
X318405000Y-150876630D01*
X318405000Y-148999356D01*
X318425002Y-148931235D01*
X318478658Y-148884742D01*
X318548932Y-148874638D01*
X318594570Y-148890568D01*
X318620830Y-148905913D01*
X318630119Y-148910363D01*
X318833302Y-148987951D01*
X318843200Y-148990827D01*
X319056328Y-149034188D01*
X319066556Y-149035407D01*
X319283902Y-149043378D01*
X319294188Y-149042911D01*
X319509921Y-149015275D01*
X319519999Y-149013133D01*
X319728316Y-148950634D01*
X319737914Y-148946872D01*
X319933229Y-148851189D01*
X319942074Y-148845916D01*
X319994964Y-148808190D01*
X320003365Y-148797490D01*
X319996377Y-148784337D01*
X318955885Y-147743845D01*
X318921859Y-147681533D01*
X318923694Y-147655882D01*
X319590408Y-147655882D01*
X319590539Y-147657715D01*
X319594790Y-147664330D01*
X320356179Y-148425719D01*
X320368190Y-148432278D01*
X320379929Y-148423310D01*
X320414655Y-148374984D01*
X320419969Y-148366139D01*
X320516326Y-148171176D01*
X320520124Y-148161583D01*
X320583348Y-147953488D01*
X320585525Y-147943418D01*
X320614151Y-147725985D01*
X320614670Y-147719310D01*
X320616166Y-147658114D01*
X320615972Y-147651396D01*
X320598004Y-147432847D01*
X320596319Y-147422667D01*
X320543336Y-147211733D01*
X320540016Y-147201982D01*
X320453290Y-147002524D01*
X320448424Y-146993449D01*
X320378951Y-146886062D01*
X320368264Y-146876858D01*
X320358699Y-146881261D01*
X319598022Y-147641938D01*
X319590408Y-147655882D01*
X318923694Y-147655882D01*
X318926924Y-147610718D01*
X318955885Y-147565655D01*
X319998969Y-146522571D01*
X320005990Y-146509714D01*
X319998429Y-146499337D01*
X319990820Y-146494282D01*
X319800429Y-146389180D01*
X319791017Y-146384950D01*
X319586008Y-146312352D01*
X319576037Y-146309718D01*
X319361923Y-146271578D01*
X319351671Y-146270609D01*
X319134191Y-146267952D01*
X319123907Y-146268672D01*
X318908922Y-146301568D01*
X318898903Y-146303955D01*
X318692170Y-146371526D01*
X318682673Y-146375519D01*
X318589181Y-146424188D01*
X318519521Y-146437901D01*
X318453506Y-146411776D01*
X318412094Y-146354108D01*
X318405000Y-146312425D01*
X318405000Y-146174750D01*
X161179000Y-146174750D01*
X161171461Y-146187877D01*
X161171460Y-146187878D01*
X160336358Y-147641938D01*
X158784772Y-150343524D01*
X158751057Y-150402227D01*
X158699786Y-150451337D01*
X158633442Y-150464280D01*
X158626187Y-150460091D01*
X158619414Y-150471821D01*
X158619413Y-150471823D01*
X155783258Y-155384188D01*
X151577711Y-162668409D01*
X151588929Y-162674886D01*
X151625648Y-162735125D01*
X151623960Y-162806102D01*
X151613206Y-162830486D01*
X150717108Y-164390750D01*
X150681068Y-164453502D01*
X150629797Y-164502612D01*
X150571806Y-164516750D01*
X37480000Y-164516750D01*
X37411879Y-164496748D01*
X37365386Y-164443092D01*
X37354000Y-164390750D01*
X37354000Y-153258210D01*
X40638852Y-153258210D01*
X40674593Y-153437893D01*
X40677082Y-153446868D01*
X40759708Y-153677000D01*
X40763505Y-153685528D01*
X40879234Y-153900910D01*
X40884245Y-153908777D01*
X41030550Y-154104703D01*
X41036656Y-154111727D01*
X41210316Y-154283877D01*
X41217398Y-154289926D01*
X41414586Y-154434510D01*
X41422505Y-154439458D01*
X41638877Y-154553297D01*
X41647451Y-154557025D01*
X41878282Y-154637635D01*
X41887291Y-154640049D01*
X42054201Y-154671738D01*
X42067261Y-154670454D01*
X42071506Y-154657110D01*
X42580000Y-154657110D01*
X42584171Y-154671315D01*
X42596933Y-154673370D01*
X42633487Y-154669367D01*
X42642649Y-154667669D01*
X42879107Y-154605415D01*
X42887926Y-154602378D01*
X43112584Y-154505857D01*
X43120856Y-154501550D01*
X43328777Y-154372885D01*
X43336317Y-154367407D01*
X43495224Y-154232884D01*
X115617500Y-154232884D01*
X115624255Y-154295066D01*
X115675385Y-154431455D01*
X115762739Y-154548011D01*
X115879295Y-154635365D01*
X116015684Y-154686495D01*
X116077866Y-154693250D01*
X118574134Y-154693250D01*
X118636316Y-154686495D01*
X118772705Y-154635365D01*
X118889261Y-154548011D01*
X118976615Y-154431455D01*
X119027745Y-154295066D01*
X119034500Y-154232884D01*
X119034500Y-151736616D01*
X119027745Y-151674434D01*
X118976615Y-151538045D01*
X118889261Y-151421489D01*
X118772705Y-151334135D01*
X118636316Y-151283005D01*
X118574134Y-151276250D01*
X116077866Y-151276250D01*
X116015684Y-151283005D01*
X115879295Y-151334135D01*
X115762739Y-151421489D01*
X115675385Y-151538045D01*
X115624255Y-151674434D01*
X115617500Y-151736616D01*
X115617500Y-154232884D01*
X43495224Y-154232884D01*
X43522943Y-154209418D01*
X43529593Y-154202882D01*
X43690813Y-154019045D01*
X43696420Y-154011604D01*
X43828700Y-153805952D01*
X43833147Y-153797761D01*
X43933572Y-153574826D01*
X43936767Y-153566048D01*
X44003135Y-153330723D01*
X44004993Y-153321594D01*
X44013246Y-153256719D01*
X44010958Y-153242458D01*
X43997938Y-153238750D01*
X42598115Y-153238750D01*
X42582876Y-153243225D01*
X42581671Y-153244615D01*
X42580000Y-153252298D01*
X42580000Y-154657110D01*
X42071506Y-154657110D01*
X42072000Y-154655558D01*
X42072000Y-153256865D01*
X42067525Y-153241626D01*
X42066135Y-153240421D01*
X42058452Y-153238750D01*
X40653096Y-153238750D01*
X40640695Y-153242391D01*
X40638852Y-153258210D01*
X37354000Y-153258210D01*
X37354000Y-152712726D01*
X40636675Y-152712726D01*
X40639435Y-152727453D01*
X40651614Y-152730750D01*
X42053885Y-152730750D01*
X42069124Y-152726275D01*
X42070329Y-152724885D01*
X42072000Y-152717202D01*
X42072000Y-152712635D01*
X42580000Y-152712635D01*
X42584475Y-152727874D01*
X42585865Y-152729079D01*
X42593548Y-152730750D01*
X44001671Y-152730750D01*
X44015202Y-152726777D01*
X44016634Y-152716818D01*
X43964979Y-152488536D01*
X43962255Y-152479625D01*
X43873633Y-152251733D01*
X43869619Y-152243317D01*
X43748286Y-152031031D01*
X43743070Y-152023298D01*
X43591692Y-151831275D01*
X43585399Y-151824407D01*
X43407294Y-151656862D01*
X43400060Y-151651004D01*
X43199141Y-151511622D01*
X43191115Y-151506894D01*
X42971810Y-151398745D01*
X42963177Y-151395257D01*
X42730288Y-151320708D01*
X42721238Y-151318535D01*
X42597880Y-151298446D01*
X42584286Y-151300143D01*
X42580000Y-151314250D01*
X42580000Y-152712635D01*
X42072000Y-152712635D01*
X42072000Y-151313609D01*
X42067982Y-151299925D01*
X42054290Y-151297904D01*
X41974521Y-151308760D01*
X41965403Y-151310698D01*
X41730668Y-151379117D01*
X41721915Y-151382389D01*
X41499869Y-151484754D01*
X41491714Y-151489274D01*
X41287233Y-151623337D01*
X41279828Y-151629020D01*
X41097413Y-151791832D01*
X41090935Y-151798540D01*
X40934584Y-151986531D01*
X40929163Y-151994131D01*
X40802322Y-152203159D01*
X40798084Y-152211476D01*
X40703529Y-152436964D01*
X40700572Y-152445802D01*
X40640382Y-152682798D01*
X40638764Y-152691978D01*
X40636675Y-152712726D01*
X37354000Y-152712726D01*
X37354000Y-150959750D01*
X141783110Y-150959750D01*
X141802649Y-151270312D01*
X141860957Y-151575976D01*
X141957116Y-151871922D01*
X141958803Y-151875508D01*
X141958805Y-151875512D01*
X142087920Y-152149897D01*
X142087924Y-152149904D01*
X142089608Y-152153483D01*
X142091731Y-152156829D01*
X142091732Y-152156830D01*
X142126271Y-152211255D01*
X142256345Y-152416217D01*
X142258864Y-152419262D01*
X142258867Y-152419266D01*
X142293844Y-152461546D01*
X142454696Y-152655982D01*
X142681533Y-152868997D01*
X142933280Y-153051902D01*
X142936749Y-153053809D01*
X142936752Y-153053811D01*
X142953922Y-153063250D01*
X143205966Y-153201812D01*
X143495290Y-153316363D01*
X143499129Y-153317349D01*
X143499133Y-153317350D01*
X143600782Y-153343449D01*
X143796690Y-153393750D01*
X143800618Y-153394246D01*
X143800622Y-153394247D01*
X143951051Y-153413250D01*
X144105412Y-153432750D01*
X144416588Y-153432750D01*
X144570949Y-153413250D01*
X144721378Y-153394247D01*
X144721382Y-153394246D01*
X144725310Y-153393750D01*
X144921218Y-153343449D01*
X145022867Y-153317350D01*
X145022871Y-153317349D01*
X145026710Y-153316363D01*
X145316034Y-153201812D01*
X145568078Y-153063250D01*
X145585248Y-153053811D01*
X145585251Y-153053809D01*
X145588720Y-153051902D01*
X145840467Y-152868997D01*
X146067304Y-152655982D01*
X146228156Y-152461546D01*
X146263133Y-152419266D01*
X146263136Y-152419262D01*
X146265655Y-152416217D01*
X146395729Y-152211255D01*
X146430268Y-152156830D01*
X146430269Y-152156829D01*
X146432392Y-152153483D01*
X146434076Y-152149904D01*
X146434080Y-152149897D01*
X146563195Y-151875512D01*
X146563197Y-151875508D01*
X146564884Y-151871922D01*
X146661043Y-151575976D01*
X146719351Y-151270312D01*
X146738890Y-150959750D01*
X146733661Y-150876630D01*
X152662992Y-150876630D01*
X152663355Y-150880778D01*
X152663355Y-150880782D01*
X152688487Y-151168043D01*
X152688488Y-151168051D01*
X152688852Y-151172209D01*
X152689766Y-151176298D01*
X152735102Y-151379117D01*
X152753577Y-151461771D01*
X152755019Y-151465691D01*
X152755021Y-151465697D01*
X152831821Y-151674434D01*
X152856029Y-151740230D01*
X152857980Y-151743930D01*
X152857982Y-151743935D01*
X152949784Y-151918052D01*
X152994410Y-152002692D01*
X153166288Y-152244547D01*
X153368642Y-152461546D01*
X153597918Y-152649875D01*
X153850088Y-152806227D01*
X154120722Y-152927855D01*
X154293390Y-152979330D01*
X154401065Y-153011429D01*
X154401067Y-153011429D01*
X154405064Y-153012621D01*
X154409184Y-153013274D01*
X154409186Y-153013274D01*
X154528106Y-153032109D01*
X154698119Y-153059036D01*
X154743146Y-153061081D01*
X154789497Y-153063186D01*
X154789516Y-153063186D01*
X154790916Y-153063250D01*
X154976264Y-153063250D01*
X155197056Y-153048585D01*
X155487910Y-152989938D01*
X155768453Y-152893340D01*
X155772196Y-152891466D01*
X155772200Y-152891464D01*
X156030012Y-152762361D01*
X156030014Y-152762360D01*
X156033756Y-152760486D01*
X156148070Y-152682798D01*
X156275699Y-152596062D01*
X156275702Y-152596060D01*
X156279158Y-152593711D01*
X156500346Y-152395946D01*
X156693436Y-152170664D01*
X156702420Y-152156830D01*
X156852763Y-151925322D01*
X156852765Y-151925319D01*
X156855035Y-151921823D01*
X156880522Y-151868149D01*
X156916759Y-151791832D01*
X156982304Y-151653796D01*
X156990259Y-151629020D01*
X157071726Y-151375280D01*
X157071727Y-151375274D01*
X157073006Y-151371292D01*
X157108091Y-151176298D01*
X157124809Y-151083382D01*
X157124810Y-151083377D01*
X157125548Y-151079273D01*
X157131156Y-150955793D01*
X157138819Y-150787040D01*
X157138819Y-150787035D01*
X157139008Y-150782870D01*
X157133664Y-150721784D01*
X157113513Y-150491457D01*
X157113512Y-150491449D01*
X157113148Y-150487291D01*
X157048423Y-150197729D01*
X156977773Y-150005704D01*
X156947418Y-149923202D01*
X156947416Y-149923198D01*
X156945971Y-149919270D01*
X156932737Y-149894168D01*
X156809543Y-149660512D01*
X156809542Y-149660511D01*
X156807590Y-149656808D01*
X156635712Y-149414953D01*
X156433358Y-149197954D01*
X156204082Y-149009625D01*
X155951912Y-148853273D01*
X155681278Y-148731645D01*
X155508610Y-148680170D01*
X155400935Y-148648071D01*
X155400933Y-148648071D01*
X155396936Y-148646879D01*
X155392816Y-148646226D01*
X155392814Y-148646226D01*
X155273894Y-148627391D01*
X155103881Y-148600464D01*
X155058854Y-148598419D01*
X155012503Y-148596314D01*
X155012484Y-148596314D01*
X155011084Y-148596250D01*
X154825736Y-148596250D01*
X154604944Y-148610915D01*
X154314090Y-148669562D01*
X154033547Y-148766160D01*
X154029804Y-148768034D01*
X154029800Y-148768036D01*
X153796744Y-148884742D01*
X153768244Y-148899014D01*
X153665865Y-148968591D01*
X153541346Y-149053214D01*
X153522842Y-149065789D01*
X153301654Y-149263554D01*
X153108564Y-149488836D01*
X153106290Y-149492338D01*
X153106289Y-149492339D01*
X153001698Y-149653396D01*
X152946965Y-149737677D01*
X152945177Y-149741443D01*
X152945174Y-149741448D01*
X152935097Y-149762670D01*
X152819696Y-150005704D01*
X152818417Y-150009687D01*
X152818416Y-150009690D01*
X152734441Y-150271244D01*
X152728994Y-150288208D01*
X152728253Y-150292327D01*
X152692649Y-150490209D01*
X152676452Y-150580227D01*
X152676263Y-150584394D01*
X152676262Y-150584401D01*
X152667060Y-150787040D01*
X152662992Y-150876630D01*
X146733661Y-150876630D01*
X146719351Y-150649188D01*
X146661043Y-150343524D01*
X146564884Y-150047578D01*
X146562650Y-150042830D01*
X146434080Y-149769603D01*
X146434076Y-149769596D01*
X146432392Y-149766017D01*
X146265655Y-149503283D01*
X146256602Y-149492339D01*
X146205622Y-149430716D01*
X146067304Y-149263518D01*
X145840467Y-149050503D01*
X145818012Y-149034188D01*
X145631960Y-148899014D01*
X145588720Y-148867598D01*
X145566678Y-148855480D01*
X145319496Y-148719591D01*
X145319493Y-148719590D01*
X145316034Y-148717688D01*
X145048444Y-148611742D01*
X145030393Y-148604595D01*
X145030390Y-148604594D01*
X145026710Y-148603137D01*
X145022871Y-148602151D01*
X145022867Y-148602150D01*
X144882835Y-148566196D01*
X144725310Y-148525750D01*
X144721382Y-148525254D01*
X144721378Y-148525253D01*
X144570949Y-148506250D01*
X144416588Y-148486750D01*
X144105412Y-148486750D01*
X143951051Y-148506250D01*
X143800622Y-148525253D01*
X143800618Y-148525254D01*
X143796690Y-148525750D01*
X143639165Y-148566196D01*
X143499133Y-148602150D01*
X143499129Y-148602151D01*
X143495290Y-148603137D01*
X143491610Y-148604594D01*
X143491607Y-148604595D01*
X143473556Y-148611742D01*
X143205966Y-148717688D01*
X143202507Y-148719590D01*
X143202504Y-148719591D01*
X142955323Y-148855480D01*
X142933280Y-148867598D01*
X142890040Y-148899014D01*
X142703989Y-149034188D01*
X142681533Y-149050503D01*
X142454696Y-149263518D01*
X142316378Y-149430716D01*
X142265399Y-149492339D01*
X142256345Y-149503283D01*
X142089608Y-149766017D01*
X142087924Y-149769596D01*
X142087920Y-149769603D01*
X141959350Y-150042830D01*
X141957116Y-150047578D01*
X141860957Y-150343524D01*
X141802649Y-150649188D01*
X141785350Y-150924152D01*
X141783110Y-150959750D01*
X37354000Y-150959750D01*
X37354000Y-137054289D01*
X154119845Y-137054289D01*
X154144250Y-137247478D01*
X154146305Y-137253514D01*
X154204948Y-137425778D01*
X154204950Y-137425782D01*
X154207003Y-137431813D01*
X154305540Y-137599765D01*
X154435835Y-137744473D01*
X154592568Y-137860026D01*
X154769334Y-137941704D01*
X154958913Y-137986169D01*
X155068652Y-137989234D01*
X155147179Y-137991428D01*
X155147182Y-137991428D01*
X155153561Y-137991606D01*
X155345327Y-137957792D01*
X155392717Y-137939029D01*
X155520437Y-137888461D01*
X155520442Y-137888459D01*
X155526376Y-137886109D01*
X155689314Y-137779486D01*
X155694071Y-137775203D01*
X159108630Y-134360644D01*
X159170942Y-134326618D01*
X159197725Y-134323739D01*
X161053000Y-134323739D01*
X161121121Y-134343741D01*
X161167614Y-134397397D01*
X161179000Y-134449739D01*
X161179000Y-136522750D01*
X318405000Y-136522750D01*
X318405000Y-136236856D01*
X318425002Y-136168735D01*
X318478658Y-136122242D01*
X318548932Y-136112138D01*
X318594570Y-136128068D01*
X318620830Y-136143413D01*
X318630119Y-136147863D01*
X318833302Y-136225451D01*
X318843200Y-136228327D01*
X319056328Y-136271688D01*
X319066556Y-136272907D01*
X319283902Y-136280878D01*
X319294188Y-136280411D01*
X319509921Y-136252775D01*
X319519999Y-136250633D01*
X319728316Y-136188134D01*
X319737914Y-136184372D01*
X319933229Y-136088689D01*
X319942074Y-136083416D01*
X319994964Y-136045690D01*
X320003365Y-136034990D01*
X319996377Y-136021837D01*
X318955885Y-134981345D01*
X318921859Y-134919033D01*
X318923694Y-134893382D01*
X319590408Y-134893382D01*
X319590539Y-134895215D01*
X319594790Y-134901830D01*
X320356179Y-135663219D01*
X320368190Y-135669778D01*
X320379929Y-135660810D01*
X320414655Y-135612484D01*
X320419969Y-135603639D01*
X320516326Y-135408676D01*
X320520124Y-135399083D01*
X320583348Y-135190988D01*
X320585525Y-135180918D01*
X320614151Y-134963485D01*
X320614670Y-134956810D01*
X320616166Y-134895614D01*
X320615972Y-134888896D01*
X320598004Y-134670347D01*
X320596319Y-134660167D01*
X320543336Y-134449233D01*
X320540016Y-134439482D01*
X320453290Y-134240024D01*
X320448424Y-134230949D01*
X320378951Y-134123562D01*
X320368264Y-134114358D01*
X320358699Y-134118761D01*
X319598022Y-134879438D01*
X319590408Y-134893382D01*
X318923694Y-134893382D01*
X318926924Y-134848218D01*
X318955885Y-134803155D01*
X319998969Y-133760071D01*
X320005990Y-133747214D01*
X319998429Y-133736837D01*
X319990820Y-133731782D01*
X319800429Y-133626680D01*
X319791017Y-133622450D01*
X319586008Y-133549852D01*
X319576037Y-133547218D01*
X319361923Y-133509078D01*
X319351671Y-133508109D01*
X319134191Y-133505452D01*
X319123907Y-133506172D01*
X318908922Y-133539068D01*
X318898903Y-133541455D01*
X318692170Y-133609026D01*
X318682673Y-133613019D01*
X318589181Y-133661688D01*
X318519521Y-133675401D01*
X318453506Y-133649276D01*
X318412094Y-133591608D01*
X318405000Y-133549925D01*
X318405000Y-131764130D01*
X325252992Y-131764130D01*
X325253355Y-131768278D01*
X325253355Y-131768282D01*
X325278487Y-132055543D01*
X325278488Y-132055551D01*
X325278852Y-132059709D01*
X325343577Y-132349271D01*
X325345019Y-132353191D01*
X325345021Y-132353197D01*
X325443085Y-132619728D01*
X325446029Y-132627730D01*
X325447980Y-132631430D01*
X325447982Y-132631435D01*
X325582457Y-132886488D01*
X325584410Y-132890192D01*
X325756288Y-133132047D01*
X325958642Y-133349046D01*
X325961867Y-133351695D01*
X326126715Y-133487102D01*
X326187918Y-133537375D01*
X326440088Y-133693727D01*
X326710722Y-133815355D01*
X326883390Y-133866830D01*
X326991065Y-133898929D01*
X326991067Y-133898929D01*
X326995064Y-133900121D01*
X326999184Y-133900774D01*
X326999186Y-133900774D01*
X327118106Y-133919609D01*
X327288119Y-133946536D01*
X327333146Y-133948581D01*
X327379497Y-133950686D01*
X327379516Y-133950686D01*
X327380916Y-133950750D01*
X327566264Y-133950750D01*
X327787056Y-133936085D01*
X328077910Y-133877438D01*
X328358453Y-133780840D01*
X328362196Y-133778966D01*
X328362200Y-133778964D01*
X328620012Y-133649861D01*
X328620014Y-133649860D01*
X328623756Y-133647986D01*
X328741740Y-133567804D01*
X328865699Y-133483562D01*
X328865702Y-133483560D01*
X328869158Y-133481211D01*
X329090346Y-133283446D01*
X329145286Y-133219347D01*
X329280718Y-133061335D01*
X329283436Y-133058164D01*
X329322506Y-132998001D01*
X329442763Y-132812822D01*
X329442765Y-132812819D01*
X329445035Y-132809323D01*
X329463361Y-132770730D01*
X329526376Y-132638019D01*
X329572304Y-132541296D01*
X329583146Y-132507528D01*
X329661726Y-132262780D01*
X329661727Y-132262774D01*
X329663006Y-132258792D01*
X329698091Y-132063798D01*
X329714809Y-131970882D01*
X329714810Y-131970877D01*
X329715548Y-131966773D01*
X329716939Y-131936161D01*
X329728819Y-131674540D01*
X329728819Y-131674535D01*
X329729008Y-131670370D01*
X329728645Y-131666218D01*
X329703513Y-131378957D01*
X329703512Y-131378949D01*
X329703148Y-131374791D01*
X329670043Y-131226690D01*
X329639336Y-131089313D01*
X329639336Y-131089311D01*
X329638423Y-131085229D01*
X329617098Y-131027267D01*
X329537418Y-130810702D01*
X329537416Y-130810698D01*
X329535971Y-130806770D01*
X329504298Y-130746696D01*
X329399543Y-130548012D01*
X329399542Y-130548011D01*
X329397590Y-130544308D01*
X329225712Y-130302453D01*
X329023358Y-130085454D01*
X328794082Y-129897125D01*
X328541912Y-129740773D01*
X328271278Y-129619145D01*
X328098610Y-129567670D01*
X327990935Y-129535571D01*
X327990933Y-129535571D01*
X327986936Y-129534379D01*
X327982816Y-129533726D01*
X327982814Y-129533726D01*
X327863894Y-129514891D01*
X327693881Y-129487964D01*
X327648854Y-129485919D01*
X327602503Y-129483814D01*
X327602484Y-129483814D01*
X327601084Y-129483750D01*
X327415736Y-129483750D01*
X327194944Y-129498415D01*
X326904090Y-129557062D01*
X326623547Y-129653660D01*
X326619804Y-129655534D01*
X326619800Y-129655536D01*
X326386744Y-129772242D01*
X326358244Y-129786514D01*
X326255865Y-129856091D01*
X326145819Y-129930878D01*
X326112842Y-129953289D01*
X325891654Y-130151054D01*
X325698564Y-130376336D01*
X325696290Y-130379838D01*
X325696289Y-130379839D01*
X325542623Y-130616465D01*
X325536965Y-130625177D01*
X325409696Y-130893204D01*
X325408417Y-130897187D01*
X325408416Y-130897190D01*
X325348044Y-131085229D01*
X325318994Y-131175708D01*
X325318253Y-131179827D01*
X325269370Y-131451512D01*
X325266452Y-131467727D01*
X325266263Y-131471894D01*
X325266262Y-131471901D01*
X325257060Y-131674540D01*
X325252992Y-131764130D01*
X318405000Y-131764130D01*
X318405000Y-129886856D01*
X318425002Y-129818735D01*
X318478658Y-129772242D01*
X318548932Y-129762138D01*
X318594570Y-129778068D01*
X318620830Y-129793413D01*
X318630119Y-129797863D01*
X318833302Y-129875451D01*
X318843200Y-129878327D01*
X319056328Y-129921688D01*
X319066556Y-129922907D01*
X319283902Y-129930878D01*
X319294188Y-129930411D01*
X319509921Y-129902775D01*
X319519999Y-129900633D01*
X319728316Y-129838134D01*
X319737914Y-129834372D01*
X319933229Y-129738689D01*
X319942074Y-129733416D01*
X319994964Y-129695690D01*
X320003365Y-129684990D01*
X319996377Y-129671837D01*
X318955885Y-128631345D01*
X318921859Y-128569033D01*
X318923694Y-128543382D01*
X319590408Y-128543382D01*
X319590539Y-128545215D01*
X319594790Y-128551830D01*
X320356179Y-129313219D01*
X320368190Y-129319778D01*
X320379929Y-129310810D01*
X320414655Y-129262484D01*
X320419969Y-129253639D01*
X320516326Y-129058676D01*
X320520124Y-129049083D01*
X320583348Y-128840988D01*
X320585525Y-128830918D01*
X320614151Y-128613485D01*
X320614670Y-128606810D01*
X320616166Y-128545614D01*
X320615972Y-128538896D01*
X320598004Y-128320347D01*
X320596319Y-128310167D01*
X320543336Y-128099233D01*
X320540016Y-128089482D01*
X320453290Y-127890024D01*
X320448424Y-127880949D01*
X320378951Y-127773562D01*
X320368264Y-127764358D01*
X320358699Y-127768761D01*
X319598022Y-128529438D01*
X319590408Y-128543382D01*
X318923694Y-128543382D01*
X318926924Y-128498218D01*
X318955885Y-128453155D01*
X319998969Y-127410071D01*
X320005990Y-127397214D01*
X319998429Y-127386837D01*
X319990820Y-127381782D01*
X319800429Y-127276680D01*
X319791017Y-127272450D01*
X319586008Y-127199852D01*
X319576037Y-127197218D01*
X319361923Y-127159078D01*
X319351671Y-127158109D01*
X319134191Y-127155452D01*
X319123907Y-127156172D01*
X318908922Y-127189068D01*
X318898903Y-127191455D01*
X318692170Y-127259026D01*
X318682673Y-127263019D01*
X318589181Y-127311688D01*
X318519521Y-127325401D01*
X318453506Y-127299276D01*
X318412094Y-127241608D01*
X318405000Y-127199925D01*
X318405000Y-127124750D01*
X166576214Y-127124750D01*
X166508093Y-127104748D01*
X166487119Y-127087845D01*
X165476276Y-126077002D01*
X165473822Y-126074480D01*
X165421416Y-126019062D01*
X165417034Y-126014428D01*
X165369828Y-125981374D01*
X165362502Y-125975834D01*
X165317857Y-125939422D01*
X165293730Y-125926809D01*
X165279832Y-125918359D01*
X165262753Y-125906400D01*
X165257525Y-125902739D01*
X165235254Y-125893101D01*
X165204672Y-125879867D01*
X165196338Y-125875892D01*
X165168441Y-125861308D01*
X165145292Y-125849206D01*
X165119106Y-125841698D01*
X165103812Y-125836222D01*
X165078816Y-125825405D01*
X165072571Y-125824100D01*
X165072570Y-125824100D01*
X165022435Y-125813626D01*
X165013485Y-125811411D01*
X164958111Y-125795534D01*
X164930956Y-125793445D01*
X164914867Y-125791155D01*
X164888207Y-125785585D01*
X164881815Y-125785250D01*
X164829303Y-125785250D01*
X164819636Y-125784879D01*
X164770321Y-125781084D01*
X164770317Y-125781084D01*
X164763961Y-125780595D01*
X164734981Y-125784256D01*
X164719189Y-125785250D01*
X155034337Y-125785250D01*
X154976223Y-125791153D01*
X154895622Y-125799340D01*
X154895621Y-125799340D01*
X154889273Y-125799985D01*
X154845744Y-125813626D01*
X154709549Y-125856306D01*
X154709544Y-125856308D01*
X154703459Y-125858215D01*
X154627708Y-125900205D01*
X154538729Y-125949527D01*
X154538726Y-125949529D01*
X154533150Y-125952620D01*
X154528309Y-125956769D01*
X154528305Y-125956772D01*
X154390973Y-126074480D01*
X154385302Y-126079341D01*
X154265954Y-126233203D01*
X154179982Y-126407921D01*
X154130898Y-126596357D01*
X154120707Y-126790814D01*
X154149825Y-126983349D01*
X154152028Y-126989335D01*
X154152029Y-126989341D01*
X154214860Y-127160110D01*
X154214862Y-127160115D01*
X154217063Y-127166096D01*
X154220425Y-127171518D01*
X154315837Y-127325401D01*
X154319674Y-127331590D01*
X154453466Y-127473072D01*
X154612975Y-127584761D01*
X154618838Y-127587298D01*
X154785825Y-127659560D01*
X154785829Y-127659561D01*
X154791684Y-127662095D01*
X154797931Y-127663400D01*
X154797934Y-127663401D01*
X154977557Y-127700926D01*
X154977562Y-127700927D01*
X154982293Y-127701915D01*
X154988685Y-127702250D01*
X161053000Y-127702250D01*
X161121121Y-127722252D01*
X161167614Y-127775908D01*
X161179000Y-127828250D01*
X161179000Y-132280739D01*
X161158998Y-132348860D01*
X161105342Y-132395353D01*
X161053000Y-132406739D01*
X158764046Y-132406739D01*
X158760527Y-132406690D01*
X158684332Y-132404561D01*
X158684329Y-132404561D01*
X158677950Y-132404383D01*
X158671660Y-132405492D01*
X158671661Y-132405492D01*
X158621224Y-132414385D01*
X158612079Y-132415654D01*
X158600291Y-132416852D01*
X158554784Y-132421474D01*
X158528794Y-132429619D01*
X158512999Y-132433469D01*
X158492471Y-132437088D01*
X158492467Y-132437089D01*
X158486184Y-132438197D01*
X158439034Y-132456865D01*
X158432634Y-132459399D01*
X158423929Y-132462481D01*
X158375060Y-132477795D01*
X158375056Y-132477797D01*
X158368970Y-132479704D01*
X158363394Y-132482795D01*
X158363389Y-132482797D01*
X158345145Y-132492910D01*
X158330446Y-132499858D01*
X158318334Y-132504654D01*
X158305134Y-132509880D01*
X158299791Y-132513377D01*
X158299786Y-132513379D01*
X158256944Y-132541415D01*
X158249040Y-132546183D01*
X158198661Y-132574109D01*
X158193822Y-132578256D01*
X158193817Y-132578260D01*
X158177987Y-132591829D01*
X158164980Y-132601595D01*
X158146245Y-132613854D01*
X158146241Y-132613857D01*
X158142196Y-132616504D01*
X158137440Y-132620787D01*
X158100312Y-132657915D01*
X158093214Y-132664488D01*
X158050813Y-132700830D01*
X158032898Y-132723925D01*
X158022440Y-132735787D01*
X154370828Y-136387398D01*
X154368810Y-136389873D01*
X154368804Y-136389879D01*
X154282709Y-136495443D01*
X154278672Y-136500393D01*
X154188456Y-136672958D01*
X154134784Y-136860139D01*
X154119845Y-137054289D01*
X37354000Y-137054289D01*
X37354000Y-133429419D01*
X40618001Y-133429419D01*
X40618371Y-133436240D01*
X40623895Y-133487102D01*
X40627521Y-133502354D01*
X40672676Y-133622804D01*
X40681214Y-133638399D01*
X40757715Y-133740474D01*
X40770276Y-133753035D01*
X40872351Y-133829536D01*
X40887946Y-133838074D01*
X41008394Y-133883228D01*
X41023649Y-133886855D01*
X41074514Y-133892381D01*
X41081328Y-133892750D01*
X42053885Y-133892750D01*
X42069124Y-133888275D01*
X42070329Y-133886885D01*
X42072000Y-133879202D01*
X42072000Y-133874634D01*
X42580000Y-133874634D01*
X42584475Y-133889873D01*
X42585865Y-133891078D01*
X42593548Y-133892749D01*
X43570669Y-133892749D01*
X43577490Y-133892379D01*
X43628352Y-133886855D01*
X43643604Y-133883229D01*
X43764054Y-133838074D01*
X43779649Y-133829536D01*
X43881724Y-133753035D01*
X43894285Y-133740474D01*
X43970786Y-133638399D01*
X43979324Y-133622804D01*
X44024478Y-133502356D01*
X44028105Y-133487101D01*
X44033631Y-133436236D01*
X44034000Y-133429422D01*
X44034000Y-132456865D01*
X44029525Y-132441626D01*
X44028135Y-132440421D01*
X44020452Y-132438750D01*
X42598115Y-132438750D01*
X42582876Y-132443225D01*
X42581671Y-132444615D01*
X42580000Y-132452298D01*
X42580000Y-133874634D01*
X42072000Y-133874634D01*
X42072000Y-132456865D01*
X42067525Y-132441626D01*
X42066135Y-132440421D01*
X42058452Y-132438750D01*
X40636116Y-132438750D01*
X40620877Y-132443225D01*
X40619672Y-132444615D01*
X40618001Y-132452298D01*
X40618001Y-133429419D01*
X37354000Y-133429419D01*
X37354000Y-132139901D01*
X115613296Y-132139901D01*
X115625480Y-132393548D01*
X115639192Y-132462481D01*
X115672799Y-132631435D01*
X115675021Y-132642607D01*
X115676600Y-132647005D01*
X115676602Y-132647012D01*
X115721022Y-132770730D01*
X115760831Y-132881608D01*
X115881025Y-133105301D01*
X115883820Y-133109044D01*
X115883822Y-133109047D01*
X116030171Y-133305032D01*
X116030176Y-133305038D01*
X116032963Y-133308770D01*
X116036272Y-133312050D01*
X116036277Y-133312056D01*
X116161546Y-133436236D01*
X116213307Y-133487547D01*
X116217069Y-133490305D01*
X116217072Y-133490308D01*
X116414323Y-133634938D01*
X116418094Y-133637703D01*
X116422229Y-133639879D01*
X116422233Y-133639881D01*
X116540289Y-133701993D01*
X116642827Y-133755941D01*
X116654654Y-133760071D01*
X116878021Y-133838074D01*
X116882568Y-133839662D01*
X117132050Y-133887028D01*
X117252532Y-133891761D01*
X117381125Y-133896814D01*
X117381130Y-133896814D01*
X117385793Y-133896997D01*
X117484774Y-133886157D01*
X117633569Y-133869862D01*
X117633575Y-133869861D01*
X117638222Y-133869352D01*
X117747680Y-133840534D01*
X117879273Y-133805888D01*
X117883793Y-133804698D01*
X118053511Y-133731782D01*
X118112807Y-133706307D01*
X118112810Y-133706305D01*
X118117110Y-133704458D01*
X118121090Y-133701995D01*
X118121094Y-133701993D01*
X118329064Y-133573297D01*
X118329066Y-133573295D01*
X118333047Y-133570832D01*
X118336624Y-133567804D01*
X118523289Y-133409781D01*
X118523291Y-133409779D01*
X118526862Y-133406756D01*
X118694295Y-133215834D01*
X118831669Y-133002262D01*
X118935967Y-132770730D01*
X119004896Y-132526325D01*
X119020268Y-132405492D01*
X119036545Y-132277548D01*
X119036545Y-132277542D01*
X119036943Y-132274417D01*
X119039291Y-132184750D01*
X119023093Y-131966773D01*
X119020818Y-131936161D01*
X119020817Y-131936157D01*
X119020472Y-131931509D01*
X119018974Y-131924885D01*
X118982598Y-131764130D01*
X152662992Y-131764130D01*
X152663355Y-131768278D01*
X152663355Y-131768282D01*
X152688487Y-132055543D01*
X152688488Y-132055551D01*
X152688852Y-132059709D01*
X152753577Y-132349271D01*
X152755019Y-132353191D01*
X152755021Y-132353197D01*
X152853085Y-132619728D01*
X152856029Y-132627730D01*
X152857980Y-132631430D01*
X152857982Y-132631435D01*
X152992457Y-132886488D01*
X152994410Y-132890192D01*
X153166288Y-133132047D01*
X153368642Y-133349046D01*
X153371867Y-133351695D01*
X153536715Y-133487102D01*
X153597918Y-133537375D01*
X153850088Y-133693727D01*
X154120722Y-133815355D01*
X154293390Y-133866830D01*
X154401065Y-133898929D01*
X154401067Y-133898929D01*
X154405064Y-133900121D01*
X154409184Y-133900774D01*
X154409186Y-133900774D01*
X154528106Y-133919609D01*
X154698119Y-133946536D01*
X154743146Y-133948581D01*
X154789497Y-133950686D01*
X154789516Y-133950686D01*
X154790916Y-133950750D01*
X154976264Y-133950750D01*
X155197056Y-133936085D01*
X155487910Y-133877438D01*
X155768453Y-133780840D01*
X155772196Y-133778966D01*
X155772200Y-133778964D01*
X156030012Y-133649861D01*
X156030014Y-133649860D01*
X156033756Y-133647986D01*
X156151740Y-133567804D01*
X156275699Y-133483562D01*
X156275702Y-133483560D01*
X156279158Y-133481211D01*
X156500346Y-133283446D01*
X156555286Y-133219347D01*
X156690718Y-133061335D01*
X156693436Y-133058164D01*
X156732506Y-132998001D01*
X156852763Y-132812822D01*
X156852765Y-132812819D01*
X156855035Y-132809323D01*
X156873361Y-132770730D01*
X156936376Y-132638019D01*
X156982304Y-132541296D01*
X156993146Y-132507528D01*
X157071726Y-132262780D01*
X157071727Y-132262774D01*
X157073006Y-132258792D01*
X157108091Y-132063798D01*
X157124809Y-131970882D01*
X157124810Y-131970877D01*
X157125548Y-131966773D01*
X157126939Y-131936161D01*
X157138819Y-131674540D01*
X157138819Y-131674535D01*
X157139008Y-131670370D01*
X157138645Y-131666218D01*
X157113513Y-131378957D01*
X157113512Y-131378949D01*
X157113148Y-131374791D01*
X157080043Y-131226690D01*
X157049336Y-131089313D01*
X157049336Y-131089311D01*
X157048423Y-131085229D01*
X157027098Y-131027267D01*
X156947418Y-130810702D01*
X156947416Y-130810698D01*
X156945971Y-130806770D01*
X156914298Y-130746696D01*
X156809543Y-130548012D01*
X156809542Y-130548011D01*
X156807590Y-130544308D01*
X156635712Y-130302453D01*
X156433358Y-130085454D01*
X156204082Y-129897125D01*
X155951912Y-129740773D01*
X155681278Y-129619145D01*
X155508610Y-129567670D01*
X155400935Y-129535571D01*
X155400933Y-129535571D01*
X155396936Y-129534379D01*
X155392816Y-129533726D01*
X155392814Y-129533726D01*
X155273894Y-129514891D01*
X155103881Y-129487964D01*
X155058854Y-129485919D01*
X155012503Y-129483814D01*
X155012484Y-129483814D01*
X155011084Y-129483750D01*
X154825736Y-129483750D01*
X154604944Y-129498415D01*
X154314090Y-129557062D01*
X154033547Y-129653660D01*
X154029804Y-129655534D01*
X154029800Y-129655536D01*
X153796744Y-129772242D01*
X153768244Y-129786514D01*
X153665865Y-129856091D01*
X153555819Y-129930878D01*
X153522842Y-129953289D01*
X153301654Y-130151054D01*
X153108564Y-130376336D01*
X153106290Y-130379838D01*
X153106289Y-130379839D01*
X152952623Y-130616465D01*
X152946965Y-130625177D01*
X152819696Y-130893204D01*
X152818417Y-130897187D01*
X152818416Y-130897190D01*
X152758044Y-131085229D01*
X152728994Y-131175708D01*
X152728253Y-131179827D01*
X152679370Y-131451512D01*
X152676452Y-131467727D01*
X152676263Y-131471894D01*
X152676262Y-131471901D01*
X152667060Y-131674540D01*
X152662992Y-131764130D01*
X118982598Y-131764130D01*
X118965459Y-131688389D01*
X118964428Y-131683832D01*
X118882013Y-131471901D01*
X118874084Y-131451512D01*
X118874083Y-131451510D01*
X118872391Y-131447159D01*
X118851866Y-131411248D01*
X118748702Y-131230747D01*
X118748700Y-131230745D01*
X118746383Y-131226690D01*
X118589171Y-131027267D01*
X118489238Y-130933260D01*
X118407610Y-130856472D01*
X118407608Y-130856470D01*
X118404209Y-130853273D01*
X118250579Y-130746696D01*
X118199393Y-130711187D01*
X118199390Y-130711185D01*
X118195561Y-130708529D01*
X118191384Y-130706469D01*
X118191377Y-130706465D01*
X117971996Y-130598278D01*
X117971992Y-130598277D01*
X117967810Y-130596214D01*
X117725960Y-130518797D01*
X117721355Y-130518047D01*
X117479935Y-130478730D01*
X117479934Y-130478730D01*
X117475323Y-130477979D01*
X117348365Y-130476317D01*
X117226083Y-130474716D01*
X117226080Y-130474716D01*
X117221406Y-130474655D01*
X116969787Y-130508899D01*
X116725993Y-130579958D01*
X116495380Y-130686272D01*
X116491471Y-130688835D01*
X116286928Y-130822939D01*
X116286923Y-130822943D01*
X116283015Y-130825505D01*
X116236360Y-130867146D01*
X116154647Y-130940078D01*
X116093562Y-130994598D01*
X115931183Y-131189837D01*
X115799447Y-131406932D01*
X115797638Y-131411246D01*
X115797637Y-131411248D01*
X115773954Y-131467727D01*
X115701246Y-131641115D01*
X115700095Y-131645647D01*
X115700094Y-131645650D01*
X115693816Y-131670370D01*
X115638738Y-131887240D01*
X115613296Y-132139901D01*
X37354000Y-132139901D01*
X37354000Y-131912635D01*
X40618000Y-131912635D01*
X40622475Y-131927874D01*
X40623865Y-131929079D01*
X40631548Y-131930750D01*
X42053885Y-131930750D01*
X42069124Y-131926275D01*
X42070329Y-131924885D01*
X42072000Y-131917202D01*
X42072000Y-131912635D01*
X42580000Y-131912635D01*
X42584475Y-131927874D01*
X42585865Y-131929079D01*
X42593548Y-131930750D01*
X44015884Y-131930750D01*
X44031123Y-131926275D01*
X44032328Y-131924885D01*
X44033999Y-131917202D01*
X44033999Y-130940081D01*
X44033629Y-130933260D01*
X44028105Y-130882398D01*
X44024479Y-130867146D01*
X43979324Y-130746696D01*
X43970786Y-130731101D01*
X43894285Y-130629026D01*
X43881724Y-130616465D01*
X43779649Y-130539964D01*
X43764054Y-130531426D01*
X43643606Y-130486272D01*
X43628351Y-130482645D01*
X43577486Y-130477119D01*
X43570672Y-130476750D01*
X42598115Y-130476750D01*
X42582876Y-130481225D01*
X42581671Y-130482615D01*
X42580000Y-130490298D01*
X42580000Y-131912635D01*
X42072000Y-131912635D01*
X42072000Y-130494866D01*
X42067525Y-130479627D01*
X42066135Y-130478422D01*
X42058452Y-130476751D01*
X41081331Y-130476751D01*
X41074510Y-130477121D01*
X41023648Y-130482645D01*
X41008396Y-130486271D01*
X40887946Y-130531426D01*
X40872351Y-130539964D01*
X40770276Y-130616465D01*
X40757715Y-130629026D01*
X40681214Y-130731101D01*
X40672676Y-130746696D01*
X40627522Y-130867144D01*
X40623895Y-130882399D01*
X40618369Y-130933264D01*
X40618000Y-130940078D01*
X40618000Y-131912635D01*
X37354000Y-131912635D01*
X37354000Y-94358750D01*
X41672000Y-94358750D01*
X46498000Y-94485750D01*
X46498000Y-84706750D01*
X41799000Y-84706750D01*
X41798827Y-84719876D01*
X41798827Y-84719877D01*
X41672509Y-94320077D01*
X41672000Y-94358750D01*
X37354000Y-94358750D01*
X37354000Y-70608750D01*
X37374002Y-70540629D01*
X37427658Y-70494136D01*
X37480000Y-70482750D01*
X53865000Y-70482750D01*
X53933121Y-70502752D01*
X53979614Y-70556408D01*
X53991000Y-70608750D01*
X53991000Y-73658750D01*
X53970998Y-73726871D01*
X53917342Y-73773364D01*
X53865000Y-73784750D01*
X48911000Y-73784750D01*
X48911000Y-114424750D01*
X52721000Y-116329750D01*
X57040000Y-116329750D01*
X57108121Y-116349752D01*
X57154614Y-116403408D01*
X57166000Y-116455750D01*
X57166000Y-118234750D01*
X62120000Y-118234750D01*
X62188121Y-118254752D01*
X62234614Y-118308408D01*
X62246000Y-118360750D01*
X62246000Y-121409750D01*
X85741000Y-121409750D01*
X90315959Y-118868106D01*
X90377150Y-118852250D01*
X105145550Y-118852250D01*
X105227837Y-118845268D01*
X105317004Y-118837702D01*
X105317008Y-118837701D01*
X105322315Y-118837251D01*
X105327470Y-118835913D01*
X105327476Y-118835912D01*
X105386285Y-118820648D01*
X105423184Y-118816716D01*
X106677901Y-118868996D01*
X106696000Y-118869750D01*
X106696000Y-116329750D01*
X105963129Y-116329750D01*
X105895008Y-116309748D01*
X105887533Y-116304308D01*
X105884540Y-116302251D01*
X105880415Y-116298869D01*
X105674304Y-116181544D01*
X105451371Y-116100623D01*
X105217992Y-116058422D01*
X105213851Y-116058227D01*
X105213845Y-116058226D01*
X105194629Y-116057320D01*
X105194622Y-116057320D01*
X105193141Y-116057250D01*
X98995976Y-116057250D01*
X98971265Y-116054803D01*
X98546000Y-115969750D01*
X125813110Y-115969750D01*
X125832649Y-116280312D01*
X125890957Y-116585976D01*
X125987116Y-116881922D01*
X125988803Y-116885508D01*
X125988805Y-116885512D01*
X126117920Y-117159897D01*
X126117924Y-117159904D01*
X126119608Y-117163483D01*
X126286345Y-117426217D01*
X126484696Y-117665982D01*
X126711533Y-117878997D01*
X126963280Y-118061902D01*
X127235966Y-118211812D01*
X127248148Y-118216635D01*
X127479941Y-118308408D01*
X127525290Y-118326363D01*
X127529129Y-118327349D01*
X127529133Y-118327350D01*
X127659217Y-118360750D01*
X127826690Y-118403750D01*
X127830618Y-118404246D01*
X127830622Y-118404247D01*
X127981051Y-118423250D01*
X128135412Y-118442750D01*
X128446588Y-118442750D01*
X128600949Y-118423250D01*
X128751378Y-118404247D01*
X128751382Y-118404246D01*
X128755310Y-118403750D01*
X128922783Y-118360750D01*
X129052867Y-118327350D01*
X129052871Y-118327349D01*
X129056710Y-118326363D01*
X129102060Y-118308408D01*
X129333852Y-118216635D01*
X129346034Y-118211812D01*
X129618720Y-118061902D01*
X129870467Y-117878997D01*
X130097304Y-117665982D01*
X130295655Y-117426217D01*
X130462392Y-117163483D01*
X130464076Y-117159904D01*
X130464080Y-117159897D01*
X130593195Y-116885512D01*
X130593197Y-116885508D01*
X130594884Y-116881922D01*
X130691043Y-116585976D01*
X130749351Y-116280312D01*
X130768890Y-115969750D01*
X130749351Y-115659188D01*
X130691043Y-115353524D01*
X130594884Y-115057578D01*
X130592650Y-115052830D01*
X130464080Y-114779603D01*
X130464076Y-114779596D01*
X130462392Y-114776017D01*
X130295655Y-114513283D01*
X130285098Y-114500521D01*
X130222414Y-114424750D01*
X130097304Y-114273518D01*
X129870467Y-114060503D01*
X129618720Y-113877598D01*
X129564220Y-113847636D01*
X129349496Y-113729591D01*
X129349493Y-113729590D01*
X129346034Y-113727688D01*
X129176121Y-113660415D01*
X129060393Y-113614595D01*
X129060390Y-113614594D01*
X129056710Y-113613137D01*
X129052871Y-113612151D01*
X129052867Y-113612150D01*
X128912835Y-113576196D01*
X128755310Y-113535750D01*
X128751382Y-113535254D01*
X128751378Y-113535253D01*
X128561749Y-113511298D01*
X128446588Y-113496750D01*
X128135412Y-113496750D01*
X128020251Y-113511298D01*
X127830622Y-113535253D01*
X127830618Y-113535254D01*
X127826690Y-113535750D01*
X127669165Y-113576196D01*
X127529133Y-113612150D01*
X127529129Y-113612151D01*
X127525290Y-113613137D01*
X127521610Y-113614594D01*
X127521607Y-113614595D01*
X127405879Y-113660415D01*
X127235966Y-113727688D01*
X127232507Y-113729590D01*
X127232504Y-113729591D01*
X127017781Y-113847636D01*
X126963280Y-113877598D01*
X126711533Y-114060503D01*
X126484696Y-114273518D01*
X126359586Y-114424750D01*
X126296903Y-114500521D01*
X126286345Y-114513283D01*
X126119608Y-114776017D01*
X126117924Y-114779596D01*
X126117920Y-114779603D01*
X125989350Y-115052830D01*
X125987116Y-115057578D01*
X125890957Y-115353524D01*
X125832649Y-115659188D01*
X125815350Y-115934152D01*
X125813110Y-115969750D01*
X98546000Y-115969750D01*
X97171000Y-115694750D01*
X89634084Y-115694750D01*
X89565963Y-115674748D01*
X89518272Y-115618384D01*
X88246806Y-112651630D01*
X152662992Y-112651630D01*
X152663355Y-112655778D01*
X152663355Y-112655782D01*
X152688487Y-112943043D01*
X152688488Y-112943051D01*
X152688852Y-112947209D01*
X152753577Y-113236771D01*
X152755019Y-113240691D01*
X152755021Y-113240697D01*
X152854582Y-113511298D01*
X152856029Y-113515230D01*
X152857980Y-113518930D01*
X152857982Y-113518935D01*
X152966729Y-113725191D01*
X152994410Y-113777692D01*
X153166288Y-114019547D01*
X153368642Y-114236546D01*
X153597918Y-114424875D01*
X153850088Y-114581227D01*
X154120722Y-114702855D01*
X154234746Y-114736847D01*
X154401065Y-114786429D01*
X154401067Y-114786429D01*
X154405064Y-114787621D01*
X154409184Y-114788274D01*
X154409186Y-114788274D01*
X154528106Y-114807109D01*
X154698119Y-114834036D01*
X154743146Y-114836081D01*
X154789497Y-114838186D01*
X154789516Y-114838186D01*
X154790916Y-114838250D01*
X154976264Y-114838250D01*
X155197056Y-114823585D01*
X155487910Y-114764938D01*
X155768453Y-114668340D01*
X155772196Y-114666466D01*
X155772200Y-114666464D01*
X156030012Y-114537361D01*
X156030014Y-114537360D01*
X156033756Y-114535486D01*
X156242429Y-114393672D01*
X156275699Y-114371062D01*
X156275702Y-114371060D01*
X156279158Y-114368711D01*
X156500346Y-114170946D01*
X156693436Y-113945664D01*
X156771160Y-113825980D01*
X156852763Y-113700322D01*
X156852765Y-113700319D01*
X156855035Y-113696823D01*
X156857453Y-113691732D01*
X156929477Y-113540049D01*
X156982304Y-113428796D01*
X157042696Y-113240697D01*
X157071726Y-113150280D01*
X157071727Y-113150274D01*
X157073006Y-113146292D01*
X157108091Y-112951298D01*
X157124809Y-112858382D01*
X157124810Y-112858377D01*
X157125548Y-112854273D01*
X157134751Y-112651630D01*
X157138819Y-112562040D01*
X157138819Y-112562035D01*
X157139008Y-112557870D01*
X157138645Y-112553718D01*
X157113513Y-112266457D01*
X157113512Y-112266449D01*
X157113148Y-112262291D01*
X157048423Y-111972729D01*
X157034639Y-111935263D01*
X156947418Y-111698202D01*
X156947416Y-111698198D01*
X156945971Y-111694270D01*
X156941655Y-111686083D01*
X156809543Y-111435512D01*
X156809542Y-111435511D01*
X156807590Y-111431808D01*
X156635712Y-111189953D01*
X156433358Y-110972954D01*
X156204082Y-110784625D01*
X155951912Y-110628273D01*
X155681278Y-110506645D01*
X155508610Y-110455170D01*
X155400935Y-110423071D01*
X155400933Y-110423071D01*
X155396936Y-110421879D01*
X155392816Y-110421226D01*
X155392814Y-110421226D01*
X155273894Y-110402391D01*
X155103881Y-110375464D01*
X155058854Y-110373419D01*
X155012503Y-110371314D01*
X155012484Y-110371314D01*
X155011084Y-110371250D01*
X154825736Y-110371250D01*
X154604944Y-110385915D01*
X154314090Y-110444562D01*
X154033547Y-110541160D01*
X154029804Y-110543034D01*
X154029800Y-110543036D01*
X153855179Y-110630480D01*
X153768244Y-110674014D01*
X153665865Y-110743591D01*
X153555819Y-110818378D01*
X153522842Y-110840789D01*
X153301654Y-111038554D01*
X153108564Y-111263836D01*
X153106290Y-111267338D01*
X153106289Y-111267339D01*
X153001698Y-111428396D01*
X152946965Y-111512677D01*
X152819696Y-111780704D01*
X152818417Y-111784687D01*
X152818416Y-111784690D01*
X152752846Y-111988919D01*
X152728994Y-112063208D01*
X152728253Y-112067327D01*
X152693174Y-112262291D01*
X152676452Y-112355227D01*
X152676263Y-112359394D01*
X152676262Y-112359401D01*
X152667060Y-112562040D01*
X152662992Y-112651630D01*
X88246806Y-112651630D01*
X87931219Y-111915261D01*
X86414313Y-108375814D01*
X153993707Y-108375814D01*
X154022825Y-108568349D01*
X154025028Y-108574335D01*
X154025029Y-108574341D01*
X154087860Y-108745110D01*
X154087862Y-108745115D01*
X154090063Y-108751096D01*
X154192674Y-108916590D01*
X154197055Y-108921223D01*
X154197056Y-108921224D01*
X154322081Y-109053435D01*
X154326466Y-109058072D01*
X154485975Y-109169761D01*
X154491838Y-109172298D01*
X154658825Y-109244560D01*
X154658829Y-109244561D01*
X154664684Y-109247095D01*
X154670931Y-109248400D01*
X154670934Y-109248401D01*
X154850557Y-109285926D01*
X154850562Y-109285927D01*
X154855293Y-109286915D01*
X154861685Y-109287250D01*
X156284786Y-109287250D01*
X156352907Y-109307252D01*
X156373881Y-109324155D01*
X158673235Y-111623509D01*
X158675689Y-111626031D01*
X158732477Y-111686083D01*
X158779683Y-111719137D01*
X158787009Y-111724677D01*
X158831654Y-111761089D01*
X158837311Y-111764046D01*
X158837312Y-111764047D01*
X158855781Y-111773702D01*
X158869679Y-111782152D01*
X158891986Y-111797772D01*
X158897842Y-111800306D01*
X158944839Y-111820644D01*
X158953173Y-111824619D01*
X159004219Y-111851305D01*
X159030405Y-111858813D01*
X159045699Y-111864289D01*
X159070695Y-111875106D01*
X159076940Y-111876411D01*
X159076941Y-111876411D01*
X159127076Y-111886885D01*
X159136026Y-111889100D01*
X159191400Y-111904977D01*
X159218555Y-111907066D01*
X159234644Y-111909356D01*
X159261304Y-111914926D01*
X159267696Y-111915261D01*
X159320208Y-111915261D01*
X159329875Y-111915632D01*
X159379190Y-111919427D01*
X159379194Y-111919427D01*
X159385550Y-111919916D01*
X159414531Y-111916255D01*
X159430322Y-111915261D01*
X160926000Y-111915261D01*
X160994121Y-111935263D01*
X161040614Y-111988919D01*
X161052000Y-112041261D01*
X161052000Y-117345750D01*
X318278000Y-117345750D01*
X318278000Y-117050143D01*
X318298002Y-116982022D01*
X318351658Y-116935529D01*
X318421932Y-116925425D01*
X318467571Y-116941355D01*
X318620836Y-117030916D01*
X318630119Y-117035363D01*
X318833302Y-117112951D01*
X318843200Y-117115827D01*
X319056328Y-117159188D01*
X319066556Y-117160407D01*
X319283902Y-117168378D01*
X319294188Y-117167911D01*
X319509921Y-117140275D01*
X319519999Y-117138133D01*
X319728316Y-117075634D01*
X319737914Y-117071872D01*
X319933229Y-116976189D01*
X319942074Y-116970916D01*
X319994964Y-116933190D01*
X320003365Y-116922490D01*
X319996377Y-116909337D01*
X318955885Y-115868845D01*
X318921859Y-115806533D01*
X318923694Y-115780882D01*
X319590408Y-115780882D01*
X319590539Y-115782715D01*
X319594790Y-115789330D01*
X320356179Y-116550719D01*
X320368190Y-116557278D01*
X320379929Y-116548310D01*
X320414655Y-116499984D01*
X320419969Y-116491139D01*
X320516326Y-116296176D01*
X320520124Y-116286583D01*
X320583348Y-116078488D01*
X320585525Y-116068418D01*
X320598515Y-115969750D01*
X361413110Y-115969750D01*
X361432649Y-116280312D01*
X361490957Y-116585976D01*
X361587116Y-116881922D01*
X361588803Y-116885508D01*
X361588805Y-116885512D01*
X361717920Y-117159897D01*
X361717924Y-117159904D01*
X361719608Y-117163483D01*
X361886345Y-117426217D01*
X362084696Y-117665982D01*
X362311533Y-117878997D01*
X362563280Y-118061902D01*
X362835966Y-118211812D01*
X362848148Y-118216635D01*
X363079941Y-118308408D01*
X363125290Y-118326363D01*
X363129129Y-118327349D01*
X363129133Y-118327350D01*
X363259217Y-118360750D01*
X363426690Y-118403750D01*
X363430618Y-118404246D01*
X363430622Y-118404247D01*
X363581051Y-118423250D01*
X363735412Y-118442750D01*
X364046588Y-118442750D01*
X364200949Y-118423250D01*
X364351378Y-118404247D01*
X364351382Y-118404246D01*
X364355310Y-118403750D01*
X364522783Y-118360750D01*
X364652867Y-118327350D01*
X364652871Y-118327349D01*
X364656710Y-118326363D01*
X364702060Y-118308408D01*
X364933852Y-118216635D01*
X364946034Y-118211812D01*
X365218720Y-118061902D01*
X365470467Y-117878997D01*
X365697304Y-117665982D01*
X365895655Y-117426217D01*
X366062392Y-117163483D01*
X366064076Y-117159904D01*
X366064080Y-117159897D01*
X366193195Y-116885512D01*
X366193197Y-116885508D01*
X366194884Y-116881922D01*
X366291043Y-116585976D01*
X366349351Y-116280312D01*
X366368890Y-115969750D01*
X366349351Y-115659188D01*
X366291043Y-115353524D01*
X366194884Y-115057578D01*
X366192650Y-115052830D01*
X366064080Y-114779603D01*
X366064076Y-114779596D01*
X366062392Y-114776017D01*
X365895655Y-114513283D01*
X365885098Y-114500521D01*
X365822414Y-114424750D01*
X365697304Y-114273518D01*
X365470467Y-114060503D01*
X365218720Y-113877598D01*
X365164220Y-113847636D01*
X364949496Y-113729591D01*
X364949493Y-113729590D01*
X364946034Y-113727688D01*
X364776121Y-113660415D01*
X364660393Y-113614595D01*
X364660390Y-113614594D01*
X364656710Y-113613137D01*
X364652871Y-113612151D01*
X364652867Y-113612150D01*
X364512835Y-113576196D01*
X364355310Y-113535750D01*
X364351382Y-113535254D01*
X364351378Y-113535253D01*
X364161749Y-113511298D01*
X364046588Y-113496750D01*
X363735412Y-113496750D01*
X363620251Y-113511298D01*
X363430622Y-113535253D01*
X363430618Y-113535254D01*
X363426690Y-113535750D01*
X363269165Y-113576196D01*
X363129133Y-113612150D01*
X363129129Y-113612151D01*
X363125290Y-113613137D01*
X363121610Y-113614594D01*
X363121607Y-113614595D01*
X363005879Y-113660415D01*
X362835966Y-113727688D01*
X362832507Y-113729590D01*
X362832504Y-113729591D01*
X362617781Y-113847636D01*
X362563280Y-113877598D01*
X362311533Y-114060503D01*
X362084696Y-114273518D01*
X361959586Y-114424750D01*
X361896903Y-114500521D01*
X361886345Y-114513283D01*
X361719608Y-114776017D01*
X361717924Y-114779596D01*
X361717920Y-114779603D01*
X361589350Y-115052830D01*
X361587116Y-115057578D01*
X361490957Y-115353524D01*
X361432649Y-115659188D01*
X361415350Y-115934152D01*
X361413110Y-115969750D01*
X320598515Y-115969750D01*
X320614151Y-115850985D01*
X320614670Y-115844310D01*
X320616166Y-115783114D01*
X320615972Y-115776396D01*
X320598004Y-115557847D01*
X320596319Y-115547667D01*
X320543336Y-115336733D01*
X320540016Y-115326982D01*
X320453290Y-115127524D01*
X320448424Y-115118449D01*
X320378951Y-115011062D01*
X320368264Y-115001858D01*
X320358699Y-115006261D01*
X319598022Y-115766938D01*
X319590408Y-115780882D01*
X318923694Y-115780882D01*
X318926924Y-115735718D01*
X318955885Y-115690655D01*
X319998969Y-114647571D01*
X320005990Y-114634714D01*
X319998429Y-114624337D01*
X319990820Y-114619282D01*
X319800429Y-114514180D01*
X319791017Y-114509950D01*
X319586008Y-114437352D01*
X319576037Y-114434718D01*
X319361923Y-114396578D01*
X319351671Y-114395609D01*
X319134191Y-114392952D01*
X319123907Y-114393672D01*
X318908922Y-114426568D01*
X318898903Y-114428955D01*
X318692170Y-114496526D01*
X318682668Y-114500521D01*
X318489759Y-114600943D01*
X318481039Y-114606434D01*
X318479650Y-114607477D01*
X318478991Y-114607724D01*
X318476658Y-114609193D01*
X318476355Y-114608711D01*
X318413164Y-114632380D01*
X318343769Y-114617386D01*
X318293497Y-114567254D01*
X318278000Y-114506714D01*
X318278000Y-113962250D01*
X318298002Y-113894129D01*
X318351658Y-113847636D01*
X318404000Y-113836250D01*
X321951786Y-113836250D01*
X321953106Y-113836257D01*
X322043221Y-113837201D01*
X322085597Y-113828039D01*
X322098163Y-113825981D01*
X322141255Y-113821147D01*
X322147906Y-113818831D01*
X322147910Y-113818830D01*
X322172930Y-113810117D01*
X322187742Y-113805954D01*
X322213619Y-113800359D01*
X322220510Y-113798869D01*
X322259813Y-113780542D01*
X322271589Y-113775760D01*
X322312552Y-113761495D01*
X322318527Y-113757761D01*
X322318530Y-113757760D01*
X322340995Y-113743723D01*
X322354512Y-113736384D01*
X322378514Y-113725191D01*
X322378515Y-113725190D01*
X322384902Y-113722212D01*
X322419153Y-113695644D01*
X322429612Y-113688348D01*
X322460404Y-113669108D01*
X322460407Y-113669106D01*
X322466376Y-113665376D01*
X322495179Y-113636774D01*
X322495804Y-113636189D01*
X322496470Y-113635672D01*
X322522460Y-113609682D01*
X322595082Y-113537565D01*
X322595740Y-113536528D01*
X322596843Y-113535299D01*
X323480512Y-112651630D01*
X325252992Y-112651630D01*
X325253355Y-112655778D01*
X325253355Y-112655782D01*
X325278487Y-112943043D01*
X325278488Y-112943051D01*
X325278852Y-112947209D01*
X325343577Y-113236771D01*
X325345019Y-113240691D01*
X325345021Y-113240697D01*
X325444582Y-113511298D01*
X325446029Y-113515230D01*
X325447980Y-113518930D01*
X325447982Y-113518935D01*
X325556729Y-113725191D01*
X325584410Y-113777692D01*
X325756288Y-114019547D01*
X325958642Y-114236546D01*
X326187918Y-114424875D01*
X326440088Y-114581227D01*
X326710722Y-114702855D01*
X326824746Y-114736847D01*
X326991065Y-114786429D01*
X326991067Y-114786429D01*
X326995064Y-114787621D01*
X326999184Y-114788274D01*
X326999186Y-114788274D01*
X327118106Y-114807109D01*
X327288119Y-114834036D01*
X327333146Y-114836081D01*
X327379497Y-114838186D01*
X327379516Y-114838186D01*
X327380916Y-114838250D01*
X327566264Y-114838250D01*
X327787056Y-114823585D01*
X328077910Y-114764938D01*
X328358453Y-114668340D01*
X328362196Y-114666466D01*
X328362200Y-114666464D01*
X328620012Y-114537361D01*
X328620014Y-114537360D01*
X328623756Y-114535486D01*
X328832429Y-114393672D01*
X328865699Y-114371062D01*
X328865702Y-114371060D01*
X328869158Y-114368711D01*
X329090346Y-114170946D01*
X329283436Y-113945664D01*
X329361160Y-113825980D01*
X329442763Y-113700322D01*
X329442765Y-113700319D01*
X329445035Y-113696823D01*
X329447453Y-113691732D01*
X329519477Y-113540049D01*
X329572304Y-113428796D01*
X329632696Y-113240697D01*
X329661726Y-113150280D01*
X329661727Y-113150274D01*
X329663006Y-113146292D01*
X329698091Y-112951298D01*
X329714809Y-112858382D01*
X329714810Y-112858377D01*
X329715548Y-112854273D01*
X329724751Y-112651630D01*
X329728819Y-112562040D01*
X329728819Y-112562035D01*
X329729008Y-112557870D01*
X329728645Y-112553718D01*
X329703513Y-112266457D01*
X329703512Y-112266449D01*
X329703148Y-112262291D01*
X329638423Y-111972729D01*
X329624639Y-111935263D01*
X329537418Y-111698202D01*
X329537416Y-111698198D01*
X329535971Y-111694270D01*
X329531655Y-111686083D01*
X329399543Y-111435512D01*
X329399542Y-111435511D01*
X329397590Y-111431808D01*
X329225712Y-111189953D01*
X329023358Y-110972954D01*
X328794082Y-110784625D01*
X328541912Y-110628273D01*
X328271278Y-110506645D01*
X328098610Y-110455170D01*
X327990935Y-110423071D01*
X327990933Y-110423071D01*
X327986936Y-110421879D01*
X327982816Y-110421226D01*
X327982814Y-110421226D01*
X327863894Y-110402391D01*
X327693881Y-110375464D01*
X327648854Y-110373419D01*
X327602503Y-110371314D01*
X327602484Y-110371314D01*
X327601084Y-110371250D01*
X327415736Y-110371250D01*
X327194944Y-110385915D01*
X326904090Y-110444562D01*
X326623547Y-110541160D01*
X326619804Y-110543034D01*
X326619800Y-110543036D01*
X326445179Y-110630480D01*
X326358244Y-110674014D01*
X326255865Y-110743591D01*
X326145819Y-110818378D01*
X326112842Y-110840789D01*
X325891654Y-111038554D01*
X325698564Y-111263836D01*
X325696290Y-111267338D01*
X325696289Y-111267339D01*
X325591698Y-111428396D01*
X325536965Y-111512677D01*
X325409696Y-111780704D01*
X325408417Y-111784687D01*
X325408416Y-111784690D01*
X325342846Y-111988919D01*
X325318994Y-112063208D01*
X325318253Y-112067327D01*
X325283174Y-112262291D01*
X325266452Y-112355227D01*
X325266263Y-112359394D01*
X325266262Y-112359401D01*
X325257060Y-112562040D01*
X325252992Y-112651630D01*
X323480512Y-112651630D01*
X330721912Y-105410230D01*
X330759758Y-105384218D01*
X330920722Y-105312553D01*
X330920724Y-105312552D01*
X330926752Y-105309868D01*
X330952217Y-105291367D01*
X330982157Y-105269614D01*
X331081253Y-105197616D01*
X331107443Y-105168529D01*
X331204621Y-105060602D01*
X331204622Y-105060601D01*
X331209040Y-105055694D01*
X331304527Y-104890306D01*
X331363542Y-104708678D01*
X331371962Y-104628571D01*
X331382814Y-104525315D01*
X331383504Y-104518750D01*
X331363542Y-104328822D01*
X331304527Y-104147194D01*
X331209040Y-103981806D01*
X331168490Y-103936770D01*
X331085675Y-103844795D01*
X331085674Y-103844794D01*
X331081253Y-103839884D01*
X330940294Y-103737471D01*
X330932094Y-103731513D01*
X330932093Y-103731512D01*
X330926752Y-103727632D01*
X330920724Y-103724948D01*
X330920722Y-103724947D01*
X330758319Y-103652641D01*
X330758318Y-103652641D01*
X330752288Y-103649956D01*
X330658888Y-103630103D01*
X330571944Y-103611622D01*
X330571939Y-103611622D01*
X330565487Y-103610250D01*
X330374513Y-103610250D01*
X330368061Y-103611622D01*
X330368056Y-103611622D01*
X330281112Y-103630103D01*
X330187712Y-103649956D01*
X330181682Y-103652641D01*
X330181681Y-103652641D01*
X330019278Y-103724947D01*
X330019276Y-103724948D01*
X330013248Y-103727632D01*
X330007907Y-103731512D01*
X330007906Y-103731513D01*
X329999706Y-103737471D01*
X329858747Y-103839884D01*
X329854326Y-103844794D01*
X329854325Y-103844795D01*
X329771511Y-103936770D01*
X329730960Y-103981806D01*
X329635473Y-104147194D01*
X329633432Y-104153476D01*
X329614646Y-104211293D01*
X329583908Y-104261451D01*
X321663013Y-112182345D01*
X321600701Y-112216371D01*
X321573918Y-112219250D01*
X318404000Y-112219250D01*
X318335879Y-112199248D01*
X318289386Y-112145592D01*
X318278000Y-112093250D01*
X318278000Y-110700143D01*
X318298002Y-110632022D01*
X318351658Y-110585529D01*
X318421932Y-110575425D01*
X318467571Y-110591355D01*
X318620836Y-110680916D01*
X318630119Y-110685363D01*
X318833302Y-110762951D01*
X318843200Y-110765827D01*
X319056328Y-110809188D01*
X319066556Y-110810407D01*
X319283902Y-110818378D01*
X319294188Y-110817911D01*
X319509921Y-110790275D01*
X319519999Y-110788133D01*
X319728316Y-110725634D01*
X319737914Y-110721872D01*
X319933229Y-110626189D01*
X319942074Y-110620916D01*
X319994964Y-110583190D01*
X320003365Y-110572490D01*
X319996377Y-110559337D01*
X318955885Y-109518845D01*
X318921859Y-109456533D01*
X318923694Y-109430882D01*
X319590408Y-109430882D01*
X319590539Y-109432715D01*
X319594790Y-109439330D01*
X320356179Y-110200719D01*
X320368190Y-110207278D01*
X320379929Y-110198310D01*
X320414655Y-110149984D01*
X320419969Y-110141139D01*
X320516326Y-109946176D01*
X320520124Y-109936583D01*
X320583348Y-109728488D01*
X320585525Y-109718418D01*
X320614151Y-109500985D01*
X320614670Y-109494310D01*
X320616166Y-109433114D01*
X320615972Y-109426396D01*
X320598004Y-109207847D01*
X320596319Y-109197667D01*
X320543336Y-108986733D01*
X320540016Y-108976982D01*
X320453290Y-108777524D01*
X320448424Y-108768449D01*
X320378951Y-108661062D01*
X320368264Y-108651858D01*
X320358699Y-108656261D01*
X319598022Y-109416938D01*
X319590408Y-109430882D01*
X318923694Y-109430882D01*
X318926924Y-109385718D01*
X318955885Y-109340655D01*
X319998969Y-108297571D01*
X320005990Y-108284714D01*
X319998429Y-108274337D01*
X319990820Y-108269282D01*
X319800429Y-108164180D01*
X319791017Y-108159950D01*
X319586008Y-108087352D01*
X319576037Y-108084718D01*
X319361923Y-108046578D01*
X319351671Y-108045609D01*
X319134191Y-108042952D01*
X319123907Y-108043672D01*
X318908922Y-108076568D01*
X318898903Y-108078955D01*
X318692170Y-108146526D01*
X318682668Y-108150521D01*
X318489759Y-108250943D01*
X318481039Y-108256434D01*
X318479650Y-108257477D01*
X318478991Y-108257724D01*
X318476658Y-108259193D01*
X318476355Y-108258711D01*
X318413164Y-108282380D01*
X318343769Y-108267386D01*
X318293497Y-108217254D01*
X318278000Y-108156714D01*
X318278000Y-107947750D01*
X242867714Y-107947750D01*
X242799593Y-107927748D01*
X242753100Y-107874092D01*
X242742996Y-107803818D01*
X242772490Y-107739238D01*
X242778619Y-107732655D01*
X242838119Y-107673155D01*
X242900431Y-107639129D01*
X242927214Y-107636250D01*
X325120451Y-107636250D01*
X325123969Y-107636299D01*
X325200179Y-107638428D01*
X325200182Y-107638428D01*
X325206561Y-107638606D01*
X325220200Y-107636201D01*
X325263287Y-107628604D01*
X325272432Y-107627335D01*
X325284220Y-107626137D01*
X325329727Y-107621515D01*
X325355717Y-107613370D01*
X325371512Y-107609520D01*
X325392040Y-107605901D01*
X325392044Y-107605900D01*
X325398327Y-107604792D01*
X325404262Y-107602442D01*
X325404266Y-107602441D01*
X325451875Y-107583591D01*
X325460562Y-107580514D01*
X325515541Y-107563285D01*
X325539364Y-107550080D01*
X325554066Y-107543130D01*
X325573437Y-107535461D01*
X325573442Y-107535459D01*
X325579376Y-107533109D01*
X325627566Y-107501574D01*
X325635470Y-107496806D01*
X325651828Y-107487739D01*
X325685850Y-107468880D01*
X325698543Y-107458001D01*
X325706526Y-107451159D01*
X325719527Y-107441398D01*
X325738261Y-107429138D01*
X325742314Y-107426486D01*
X325747071Y-107422203D01*
X325784206Y-107385068D01*
X325791304Y-107378495D01*
X325800824Y-107370335D01*
X325833698Y-107342159D01*
X325851607Y-107319071D01*
X325862071Y-107307203D01*
X327880172Y-105289102D01*
X327882190Y-105286627D01*
X327882196Y-105286621D01*
X327968291Y-105181057D01*
X327968291Y-105181056D01*
X327972328Y-105176107D01*
X328062544Y-105003542D01*
X328072478Y-104968899D01*
X328082279Y-104934716D01*
X328116216Y-104816361D01*
X328131155Y-104622211D01*
X328125402Y-104576673D01*
X328107550Y-104435352D01*
X328107549Y-104435349D01*
X328106750Y-104429022D01*
X328049704Y-104261451D01*
X328046052Y-104250722D01*
X328046050Y-104250718D01*
X328043997Y-104244687D01*
X327945460Y-104076735D01*
X327815165Y-103932027D01*
X327658432Y-103816474D01*
X327601982Y-103790390D01*
X327487455Y-103737471D01*
X327487456Y-103737471D01*
X327481666Y-103734796D01*
X327292087Y-103690331D01*
X327182348Y-103687266D01*
X327103821Y-103685072D01*
X327103818Y-103685072D01*
X327097439Y-103684894D01*
X326905673Y-103718708D01*
X326800751Y-103760249D01*
X326730566Y-103788037D01*
X326730563Y-103788039D01*
X326724624Y-103790390D01*
X326561686Y-103897014D01*
X326556929Y-103901297D01*
X324775881Y-105682345D01*
X324713569Y-105716371D01*
X324686786Y-105719250D01*
X242493550Y-105719250D01*
X242490032Y-105719201D01*
X242413821Y-105717072D01*
X242413818Y-105717072D01*
X242407439Y-105716894D01*
X242375811Y-105722471D01*
X242350709Y-105726897D01*
X242341562Y-105728166D01*
X242317900Y-105730570D01*
X242284273Y-105733985D01*
X242258293Y-105742127D01*
X242242495Y-105745978D01*
X242215673Y-105750707D01*
X242209737Y-105753057D01*
X242209738Y-105753057D01*
X242162127Y-105771908D01*
X242153422Y-105774990D01*
X242104554Y-105790304D01*
X242104545Y-105790308D01*
X242098459Y-105792215D01*
X242092878Y-105795309D01*
X242092875Y-105795310D01*
X242074642Y-105805417D01*
X242059941Y-105812366D01*
X242034624Y-105822390D01*
X242029281Y-105825886D01*
X242029276Y-105825889D01*
X241986424Y-105853931D01*
X241978515Y-105858702D01*
X241933733Y-105883525D01*
X241933731Y-105883526D01*
X241928150Y-105886620D01*
X241923307Y-105890771D01*
X241907476Y-105904340D01*
X241894472Y-105914103D01*
X241871686Y-105929014D01*
X241866929Y-105933297D01*
X241829794Y-105970432D01*
X241822696Y-105977005D01*
X241780302Y-106013341D01*
X241776395Y-106018378D01*
X241776393Y-106018380D01*
X241762393Y-106036429D01*
X241751929Y-106048297D01*
X239889381Y-107910845D01*
X239827069Y-107944871D01*
X239800286Y-107947750D01*
X161052000Y-107947750D01*
X161052000Y-109872261D01*
X161031998Y-109940382D01*
X160978342Y-109986875D01*
X160926000Y-109998261D01*
X159811225Y-109998261D01*
X159743104Y-109978259D01*
X159722130Y-109961356D01*
X157422776Y-107662002D01*
X157420322Y-107659480D01*
X157389924Y-107627335D01*
X157363534Y-107599428D01*
X157316328Y-107566374D01*
X157309002Y-107560834D01*
X157264357Y-107524422D01*
X157240230Y-107511809D01*
X157226332Y-107503359D01*
X157220171Y-107499045D01*
X157204025Y-107487739D01*
X157181754Y-107478101D01*
X157151172Y-107464867D01*
X157142838Y-107460892D01*
X157114080Y-107445858D01*
X157091792Y-107434206D01*
X157065606Y-107426698D01*
X157050312Y-107421222D01*
X157025316Y-107410405D01*
X157019071Y-107409100D01*
X157019070Y-107409100D01*
X156968935Y-107398626D01*
X156959985Y-107396411D01*
X156904611Y-107380534D01*
X156877456Y-107378445D01*
X156861367Y-107376155D01*
X156834707Y-107370585D01*
X156828315Y-107370250D01*
X156775803Y-107370250D01*
X156766136Y-107369879D01*
X156716821Y-107366084D01*
X156716817Y-107366084D01*
X156710461Y-107365595D01*
X156681481Y-107369256D01*
X156665689Y-107370250D01*
X154907337Y-107370250D01*
X154849223Y-107376153D01*
X154768622Y-107384340D01*
X154768621Y-107384340D01*
X154762273Y-107384985D01*
X154718744Y-107398626D01*
X154582549Y-107441306D01*
X154582544Y-107441308D01*
X154576459Y-107443215D01*
X154535008Y-107466192D01*
X154411729Y-107534527D01*
X154411726Y-107534529D01*
X154406150Y-107537620D01*
X154401309Y-107541769D01*
X154401305Y-107541772D01*
X154287717Y-107639129D01*
X154258302Y-107664341D01*
X154138954Y-107818203D01*
X154136138Y-107823926D01*
X154136136Y-107823929D01*
X154075309Y-107947547D01*
X154052982Y-107992921D01*
X154051373Y-107999099D01*
X154051372Y-107999101D01*
X154026409Y-108094938D01*
X154003898Y-108181357D01*
X154003564Y-108187736D01*
X153994703Y-108356814D01*
X153993707Y-108375814D01*
X86414313Y-108375814D01*
X85741000Y-106804750D01*
X78882000Y-106804750D01*
X78813879Y-106784748D01*
X78767386Y-106731092D01*
X78756000Y-106678750D01*
X78756000Y-106599901D01*
X112143296Y-106599901D01*
X112143520Y-106604567D01*
X112143520Y-106604572D01*
X112149033Y-106719329D01*
X112155480Y-106853548D01*
X112205021Y-107102607D01*
X112206600Y-107107005D01*
X112206602Y-107107012D01*
X112251022Y-107230730D01*
X112290831Y-107341608D01*
X112293048Y-107345734D01*
X112408615Y-107560815D01*
X112411025Y-107565301D01*
X112413820Y-107569044D01*
X112413822Y-107569047D01*
X112560171Y-107765032D01*
X112560176Y-107765038D01*
X112562963Y-107768770D01*
X112566272Y-107772050D01*
X112566277Y-107772056D01*
X112664859Y-107869781D01*
X112743307Y-107947547D01*
X112747069Y-107950305D01*
X112747072Y-107950308D01*
X112852764Y-108027804D01*
X112948094Y-108097703D01*
X112952229Y-108099879D01*
X112952233Y-108099881D01*
X113040891Y-108146526D01*
X113172827Y-108215941D01*
X113412568Y-108299662D01*
X113662050Y-108347028D01*
X113782532Y-108351761D01*
X113911125Y-108356814D01*
X113911130Y-108356814D01*
X113915793Y-108356997D01*
X114014774Y-108346157D01*
X114163569Y-108329862D01*
X114163575Y-108329861D01*
X114168222Y-108329352D01*
X114277680Y-108300534D01*
X114409273Y-108265888D01*
X114413793Y-108264698D01*
X114592929Y-108187736D01*
X114642807Y-108166307D01*
X114642810Y-108166305D01*
X114647110Y-108164458D01*
X114651090Y-108161995D01*
X114651094Y-108161993D01*
X114859064Y-108033297D01*
X114859066Y-108033295D01*
X114863047Y-108030832D01*
X114900529Y-107999101D01*
X115053289Y-107869781D01*
X115053291Y-107869779D01*
X115056862Y-107866756D01*
X115224295Y-107675834D01*
X115234815Y-107659480D01*
X115345282Y-107487739D01*
X115361669Y-107462262D01*
X115465967Y-107230730D01*
X115534896Y-106986325D01*
X115557356Y-106809777D01*
X115566545Y-106737548D01*
X115566545Y-106737542D01*
X115566943Y-106734417D01*
X115569291Y-106644750D01*
X115550472Y-106391509D01*
X115494428Y-106143832D01*
X115452661Y-106036429D01*
X115404084Y-105911512D01*
X115404083Y-105911510D01*
X115402391Y-105907159D01*
X115381866Y-105871248D01*
X115278702Y-105690747D01*
X115278700Y-105690745D01*
X115276383Y-105686690D01*
X115119171Y-105487267D01*
X114934209Y-105313273D01*
X114890483Y-105282939D01*
X114729393Y-105171187D01*
X114729390Y-105171185D01*
X114725561Y-105168529D01*
X114721384Y-105166469D01*
X114721377Y-105166465D01*
X114501996Y-105058278D01*
X114501992Y-105058277D01*
X114497810Y-105056214D01*
X114255960Y-104978797D01*
X114251355Y-104978047D01*
X114009935Y-104938730D01*
X114009934Y-104938730D01*
X114005323Y-104937979D01*
X113878364Y-104936317D01*
X113756083Y-104934716D01*
X113756080Y-104934716D01*
X113751406Y-104934655D01*
X113499787Y-104968899D01*
X113255993Y-105039958D01*
X113025380Y-105146272D01*
X113021471Y-105148835D01*
X112816928Y-105282939D01*
X112816923Y-105282943D01*
X112813015Y-105285505D01*
X112623562Y-105454598D01*
X112461183Y-105649837D01*
X112329447Y-105866932D01*
X112327638Y-105871246D01*
X112327637Y-105871248D01*
X112265940Y-106018380D01*
X112231246Y-106101115D01*
X112168738Y-106347240D01*
X112143296Y-106599901D01*
X78756000Y-106599901D01*
X78756000Y-100454750D01*
X73745650Y-97949575D01*
X73693667Y-97901221D01*
X73676000Y-97836878D01*
X73676000Y-88698750D01*
X86100857Y-88698750D01*
X86129000Y-88698750D01*
X86197121Y-88718752D01*
X86243614Y-88772408D01*
X86255000Y-88824750D01*
X86255000Y-93869750D01*
X98701000Y-93869750D01*
X98701000Y-93539130D01*
X152662992Y-93539130D01*
X152663355Y-93543278D01*
X152663355Y-93543282D01*
X152688487Y-93830543D01*
X152688488Y-93830551D01*
X152688852Y-93834709D01*
X152753577Y-94124271D01*
X152755019Y-94128191D01*
X152755021Y-94128197D01*
X152854582Y-94398798D01*
X152856029Y-94402730D01*
X152857980Y-94406430D01*
X152857982Y-94406435D01*
X152949784Y-94580552D01*
X152994410Y-94665192D01*
X153166288Y-94907047D01*
X153368642Y-95124046D01*
X153597918Y-95312375D01*
X153850088Y-95468727D01*
X154120722Y-95590355D01*
X154293390Y-95641830D01*
X154401065Y-95673929D01*
X154401067Y-95673929D01*
X154405064Y-95675121D01*
X154409184Y-95675774D01*
X154409186Y-95675774D01*
X154528106Y-95694609D01*
X154698119Y-95721536D01*
X154743146Y-95723581D01*
X154789497Y-95725686D01*
X154789516Y-95725686D01*
X154790916Y-95725750D01*
X154976264Y-95725750D01*
X155197056Y-95711085D01*
X155487910Y-95652438D01*
X155768453Y-95555840D01*
X155772196Y-95553966D01*
X155772200Y-95553964D01*
X156030012Y-95424861D01*
X156030014Y-95424860D01*
X156033756Y-95422986D01*
X156242429Y-95281172D01*
X156275699Y-95258562D01*
X156275702Y-95258560D01*
X156279158Y-95256211D01*
X156500346Y-95058446D01*
X156693436Y-94833164D01*
X156695711Y-94829661D01*
X156852763Y-94587822D01*
X156852765Y-94587819D01*
X156855035Y-94584323D01*
X156982304Y-94316296D01*
X157042696Y-94128197D01*
X157071726Y-94037780D01*
X157071727Y-94037774D01*
X157073006Y-94033792D01*
X157108091Y-93838798D01*
X157124809Y-93745882D01*
X157124810Y-93745877D01*
X157125548Y-93741773D01*
X157134751Y-93539130D01*
X157138819Y-93449540D01*
X157138819Y-93449535D01*
X157139008Y-93445370D01*
X157138645Y-93441218D01*
X157113513Y-93153957D01*
X157113512Y-93153949D01*
X157113148Y-93149791D01*
X157048423Y-92860229D01*
X156977773Y-92668204D01*
X156947418Y-92585702D01*
X156947416Y-92585698D01*
X156945971Y-92581770D01*
X156807590Y-92319308D01*
X156635712Y-92077453D01*
X156433358Y-91860454D01*
X156204082Y-91672125D01*
X155951912Y-91515773D01*
X155681278Y-91394145D01*
X155508610Y-91342670D01*
X155400935Y-91310571D01*
X155400933Y-91310571D01*
X155396936Y-91309379D01*
X155392816Y-91308726D01*
X155392814Y-91308726D01*
X155273894Y-91289891D01*
X155103881Y-91262964D01*
X155058854Y-91260919D01*
X155012503Y-91258814D01*
X155012484Y-91258814D01*
X155011084Y-91258750D01*
X154825736Y-91258750D01*
X154604944Y-91273415D01*
X154314090Y-91332062D01*
X154033547Y-91428660D01*
X154029804Y-91430534D01*
X154029800Y-91430536D01*
X153855179Y-91517980D01*
X153768244Y-91561514D01*
X153665865Y-91631091D01*
X153555819Y-91705878D01*
X153522842Y-91728289D01*
X153301654Y-91926054D01*
X153108564Y-92151336D01*
X153106290Y-92154838D01*
X153106289Y-92154839D01*
X153001698Y-92315896D01*
X152946965Y-92400177D01*
X152819696Y-92668204D01*
X152818417Y-92672187D01*
X152818416Y-92672190D01*
X152758044Y-92860229D01*
X152728994Y-92950708D01*
X152728253Y-92954827D01*
X152693174Y-93149791D01*
X152676452Y-93242727D01*
X152676263Y-93246894D01*
X152676262Y-93246901D01*
X152667060Y-93449540D01*
X152662992Y-93539130D01*
X98701000Y-93539130D01*
X98701000Y-87030124D01*
X161395354Y-87030124D01*
X161395889Y-87034480D01*
X161395889Y-87034483D01*
X161396561Y-87039954D01*
X161397500Y-87055310D01*
X161397500Y-90387396D01*
X161412189Y-90597462D01*
X161430114Y-90681789D01*
X161430247Y-90682417D01*
X161433000Y-90708614D01*
X161433000Y-98295750D01*
X318024000Y-98295750D01*
X318024000Y-97812207D01*
X318445873Y-97812207D01*
X318451154Y-97819261D01*
X318620836Y-97918416D01*
X318630119Y-97922863D01*
X318833302Y-98000451D01*
X318843200Y-98003327D01*
X319056328Y-98046688D01*
X319066556Y-98047907D01*
X319283902Y-98055878D01*
X319294188Y-98055411D01*
X319509921Y-98027775D01*
X319519999Y-98025633D01*
X319728316Y-97963134D01*
X319737914Y-97959372D01*
X319933229Y-97863689D01*
X319942074Y-97858416D01*
X319994964Y-97820690D01*
X320003365Y-97809990D01*
X319996377Y-97796837D01*
X319238812Y-97039272D01*
X319224868Y-97031658D01*
X319223035Y-97031789D01*
X319216420Y-97036040D01*
X318452633Y-97799827D01*
X318445873Y-97812207D01*
X318024000Y-97812207D01*
X318024000Y-97554420D01*
X318044002Y-97486299D01*
X318078502Y-97457046D01*
X318077508Y-97455956D01*
X318084006Y-97450034D01*
X318853978Y-96680062D01*
X318860356Y-96668382D01*
X319590408Y-96668382D01*
X319590539Y-96670215D01*
X319594790Y-96676830D01*
X320356179Y-97438219D01*
X320368190Y-97444778D01*
X320379929Y-97435810D01*
X320414655Y-97387484D01*
X320419969Y-97378639D01*
X320516326Y-97183676D01*
X320520124Y-97174083D01*
X320583348Y-96965988D01*
X320585525Y-96955918D01*
X320614151Y-96738485D01*
X320614670Y-96731810D01*
X320616166Y-96670614D01*
X320615972Y-96663896D01*
X320598004Y-96445347D01*
X320596319Y-96435167D01*
X320543336Y-96224233D01*
X320540016Y-96214482D01*
X320453290Y-96015024D01*
X320448424Y-96005949D01*
X320378951Y-95898562D01*
X320368264Y-95889358D01*
X320358699Y-95893761D01*
X319598022Y-96654438D01*
X319590408Y-96668382D01*
X318860356Y-96668382D01*
X318861592Y-96666118D01*
X318861461Y-96664285D01*
X318857210Y-96657670D01*
X318096059Y-95896519D01*
X318089613Y-95892999D01*
X318039412Y-95842796D01*
X318024000Y-95782412D01*
X318024000Y-95524034D01*
X318447580Y-95524034D01*
X318454325Y-95536365D01*
X319213188Y-96295228D01*
X319227132Y-96302842D01*
X319228965Y-96302711D01*
X319235580Y-96298460D01*
X319998969Y-95535071D01*
X320005990Y-95522214D01*
X319998429Y-95511837D01*
X319990820Y-95506782D01*
X319800429Y-95401680D01*
X319791017Y-95397450D01*
X319586008Y-95324852D01*
X319576037Y-95322218D01*
X319361923Y-95284078D01*
X319351671Y-95283109D01*
X319134191Y-95280452D01*
X319123907Y-95281172D01*
X318908922Y-95314068D01*
X318898903Y-95316455D01*
X318692170Y-95384026D01*
X318682668Y-95388021D01*
X318489759Y-95488443D01*
X318481034Y-95493937D01*
X318456033Y-95512709D01*
X318447580Y-95524034D01*
X318024000Y-95524034D01*
X318024000Y-93539130D01*
X325252992Y-93539130D01*
X325253355Y-93543278D01*
X325253355Y-93543282D01*
X325278487Y-93830543D01*
X325278488Y-93830551D01*
X325278852Y-93834709D01*
X325343577Y-94124271D01*
X325345019Y-94128191D01*
X325345021Y-94128197D01*
X325444582Y-94398798D01*
X325446029Y-94402730D01*
X325447980Y-94406430D01*
X325447982Y-94406435D01*
X325539784Y-94580552D01*
X325584410Y-94665192D01*
X325756288Y-94907047D01*
X325958642Y-95124046D01*
X326187918Y-95312375D01*
X326440088Y-95468727D01*
X326710722Y-95590355D01*
X326883390Y-95641830D01*
X326991065Y-95673929D01*
X326991067Y-95673929D01*
X326995064Y-95675121D01*
X326999184Y-95675774D01*
X326999186Y-95675774D01*
X327118106Y-95694609D01*
X327288119Y-95721536D01*
X327333146Y-95723581D01*
X327379497Y-95725686D01*
X327379516Y-95725686D01*
X327380916Y-95725750D01*
X327566264Y-95725750D01*
X327787056Y-95711085D01*
X328077910Y-95652438D01*
X328358453Y-95555840D01*
X328362196Y-95553966D01*
X328362200Y-95553964D01*
X328620012Y-95424861D01*
X328620014Y-95424860D01*
X328623756Y-95422986D01*
X328832429Y-95281172D01*
X328865699Y-95258562D01*
X328865702Y-95258560D01*
X328869158Y-95256211D01*
X329090346Y-95058446D01*
X329283436Y-94833164D01*
X329285711Y-94829661D01*
X329442763Y-94587822D01*
X329442765Y-94587819D01*
X329445035Y-94584323D01*
X329572304Y-94316296D01*
X329632696Y-94128197D01*
X329661726Y-94037780D01*
X329661727Y-94037774D01*
X329663006Y-94033792D01*
X329698091Y-93838798D01*
X329714809Y-93745882D01*
X329714810Y-93745877D01*
X329715548Y-93741773D01*
X329724751Y-93539130D01*
X329728819Y-93449540D01*
X329728819Y-93449535D01*
X329729008Y-93445370D01*
X329728645Y-93441218D01*
X329703513Y-93153957D01*
X329703512Y-93153949D01*
X329703148Y-93149791D01*
X329638423Y-92860229D01*
X329567773Y-92668204D01*
X329537418Y-92585702D01*
X329537416Y-92585698D01*
X329535971Y-92581770D01*
X329397590Y-92319308D01*
X329225712Y-92077453D01*
X329023358Y-91860454D01*
X328794082Y-91672125D01*
X328541912Y-91515773D01*
X328271278Y-91394145D01*
X328098610Y-91342670D01*
X327990935Y-91310571D01*
X327990933Y-91310571D01*
X327986936Y-91309379D01*
X327982816Y-91308726D01*
X327982814Y-91308726D01*
X327863894Y-91289891D01*
X327693881Y-91262964D01*
X327648854Y-91260919D01*
X327602503Y-91258814D01*
X327602484Y-91258814D01*
X327601084Y-91258750D01*
X327415736Y-91258750D01*
X327194944Y-91273415D01*
X326904090Y-91332062D01*
X326623547Y-91428660D01*
X326619804Y-91430534D01*
X326619800Y-91430536D01*
X326445179Y-91517980D01*
X326358244Y-91561514D01*
X326255865Y-91631091D01*
X326145819Y-91705878D01*
X326112842Y-91728289D01*
X325891654Y-91926054D01*
X325698564Y-92151336D01*
X325696290Y-92154838D01*
X325696289Y-92154839D01*
X325591698Y-92315896D01*
X325536965Y-92400177D01*
X325409696Y-92668204D01*
X325408417Y-92672187D01*
X325408416Y-92672190D01*
X325348044Y-92860229D01*
X325318994Y-92950708D01*
X325318253Y-92954827D01*
X325283174Y-93149791D01*
X325266452Y-93242727D01*
X325266263Y-93246894D01*
X325266262Y-93246901D01*
X325257060Y-93449540D01*
X325252992Y-93539130D01*
X318024000Y-93539130D01*
X318024000Y-91462207D01*
X318445873Y-91462207D01*
X318451154Y-91469261D01*
X318620836Y-91568416D01*
X318630119Y-91572863D01*
X318833302Y-91650451D01*
X318843200Y-91653327D01*
X319056328Y-91696688D01*
X319066556Y-91697907D01*
X319283902Y-91705878D01*
X319294188Y-91705411D01*
X319509921Y-91677775D01*
X319519999Y-91675633D01*
X319728316Y-91613134D01*
X319737914Y-91609372D01*
X319933229Y-91513689D01*
X319942074Y-91508416D01*
X319994964Y-91470690D01*
X320003365Y-91459990D01*
X319996377Y-91446837D01*
X319238812Y-90689272D01*
X319224868Y-90681658D01*
X319223035Y-90681789D01*
X319216420Y-90686040D01*
X318452633Y-91449827D01*
X318445873Y-91462207D01*
X318024000Y-91462207D01*
X318024000Y-91204420D01*
X318044002Y-91136299D01*
X318078502Y-91107046D01*
X318077508Y-91105956D01*
X318084006Y-91100034D01*
X318853978Y-90330062D01*
X318860356Y-90318382D01*
X319590408Y-90318382D01*
X319590539Y-90320215D01*
X319594790Y-90326830D01*
X320356179Y-91088219D01*
X320368190Y-91094778D01*
X320379929Y-91085810D01*
X320414655Y-91037484D01*
X320419969Y-91028639D01*
X320516326Y-90833676D01*
X320520124Y-90824083D01*
X320583348Y-90615988D01*
X320585525Y-90605918D01*
X320614151Y-90388485D01*
X320614670Y-90381810D01*
X320616166Y-90320614D01*
X320615972Y-90313896D01*
X320598004Y-90095347D01*
X320596319Y-90085167D01*
X320543336Y-89874233D01*
X320540016Y-89864482D01*
X320453290Y-89665024D01*
X320448424Y-89655949D01*
X320378951Y-89548562D01*
X320368264Y-89539358D01*
X320358699Y-89543761D01*
X319598022Y-90304438D01*
X319590408Y-90318382D01*
X318860356Y-90318382D01*
X318861592Y-90316118D01*
X318861461Y-90314285D01*
X318857210Y-90307670D01*
X318096059Y-89546519D01*
X318089613Y-89542999D01*
X318039412Y-89492796D01*
X318024000Y-89432412D01*
X318024000Y-89174034D01*
X318447580Y-89174034D01*
X318454325Y-89186365D01*
X319213188Y-89945228D01*
X319227132Y-89952842D01*
X319228965Y-89952711D01*
X319235580Y-89948460D01*
X319998969Y-89185071D01*
X320005990Y-89172214D01*
X319998429Y-89161837D01*
X319990820Y-89156782D01*
X319800429Y-89051680D01*
X319791017Y-89047450D01*
X319586008Y-88974852D01*
X319576037Y-88972218D01*
X319361923Y-88934078D01*
X319351671Y-88933109D01*
X319134191Y-88930452D01*
X319123907Y-88931172D01*
X318908922Y-88964068D01*
X318898903Y-88966455D01*
X318692170Y-89034026D01*
X318682668Y-89038021D01*
X318489759Y-89138443D01*
X318481034Y-89143937D01*
X318456033Y-89162709D01*
X318447580Y-89174034D01*
X318024000Y-89174034D01*
X318024000Y-88897750D01*
X165540500Y-88897750D01*
X165472379Y-88877748D01*
X165425886Y-88824092D01*
X165414500Y-88771750D01*
X165414500Y-88746250D01*
X165434502Y-88678129D01*
X165488158Y-88631636D01*
X165540500Y-88620250D01*
X331429146Y-88620250D01*
X331431332Y-88620097D01*
X331431336Y-88620097D01*
X331634827Y-88605868D01*
X331634832Y-88605867D01*
X331639212Y-88605561D01*
X331913970Y-88547159D01*
X331918099Y-88545656D01*
X331918103Y-88545655D01*
X332173781Y-88452596D01*
X332173785Y-88452594D01*
X332177926Y-88451087D01*
X332425942Y-88319214D01*
X332653192Y-88154108D01*
X332855252Y-87958981D01*
X333028188Y-87737632D01*
X333030384Y-87733828D01*
X333030389Y-87733821D01*
X333166435Y-87498181D01*
X333168636Y-87494369D01*
X333273862Y-87233926D01*
X333341817Y-86961374D01*
X333347400Y-86908261D01*
X333370719Y-86686386D01*
X333370719Y-86686383D01*
X333371178Y-86682017D01*
X333371025Y-86677623D01*
X333361529Y-86405689D01*
X333361528Y-86405683D01*
X333361375Y-86401292D01*
X333312598Y-86124663D01*
X333225797Y-85857515D01*
X333220398Y-85846444D01*
X333109678Y-85619437D01*
X333102660Y-85605048D01*
X333100205Y-85601409D01*
X333100202Y-85601403D01*
X333027110Y-85493040D01*
X332945585Y-85372174D01*
X332757629Y-85163428D01*
X332542450Y-84982871D01*
X332304236Y-84834019D01*
X332071453Y-84730377D01*
X332051639Y-84721555D01*
X332051637Y-84721554D01*
X332047625Y-84719768D01*
X331777610Y-84642343D01*
X331773260Y-84641732D01*
X331773257Y-84641731D01*
X331640923Y-84623133D01*
X331499448Y-84603250D01*
X163774896Y-84603250D01*
X163768302Y-84603077D01*
X163688259Y-84598882D01*
X163688253Y-84598882D01*
X163683862Y-84598652D01*
X163679485Y-84599035D01*
X163679481Y-84599035D01*
X163562486Y-84609271D01*
X163560293Y-84609443D01*
X163443173Y-84617632D01*
X163443167Y-84617633D01*
X163438788Y-84617939D01*
X163429107Y-84619997D01*
X163413900Y-84622269D01*
X163408425Y-84622748D01*
X163408412Y-84622750D01*
X163404034Y-84623133D01*
X163331341Y-84639916D01*
X163285326Y-84650539D01*
X163283179Y-84651015D01*
X163225952Y-84663179D01*
X163164030Y-84676341D01*
X163159898Y-84677845D01*
X163154728Y-84679726D01*
X163139982Y-84684094D01*
X163134624Y-84685331D01*
X163134619Y-84685332D01*
X163130337Y-84686321D01*
X163016571Y-84729991D01*
X163014571Y-84730739D01*
X162900074Y-84772413D01*
X162891336Y-84777059D01*
X162877333Y-84783440D01*
X162872210Y-84785406D01*
X162872203Y-84785409D01*
X162868098Y-84786985D01*
X162761479Y-84846086D01*
X162759612Y-84847098D01*
X162655942Y-84902220D01*
X162655933Y-84902226D01*
X162652058Y-84904286D01*
X162648501Y-84906871D01*
X162648495Y-84906874D01*
X162644047Y-84910105D01*
X162631074Y-84918370D01*
X162622421Y-84923167D01*
X162525169Y-84996451D01*
X162523415Y-84997749D01*
X162424808Y-85069392D01*
X162418847Y-85075148D01*
X162417680Y-85076275D01*
X162405988Y-85086260D01*
X162401607Y-85089562D01*
X162398088Y-85092214D01*
X162312012Y-85178290D01*
X162310444Y-85179832D01*
X162222748Y-85264519D01*
X162216685Y-85272280D01*
X162216647Y-85272328D01*
X162206452Y-85283850D01*
X162025317Y-85464985D01*
X162020533Y-85469526D01*
X161957678Y-85526121D01*
X161891450Y-85605048D01*
X161879376Y-85619437D01*
X161877965Y-85621089D01*
X161798023Y-85713053D01*
X161795629Y-85716739D01*
X161795624Y-85716746D01*
X161792632Y-85721353D01*
X161783488Y-85733711D01*
X161779953Y-85737924D01*
X161779948Y-85737931D01*
X161777121Y-85741300D01*
X161774787Y-85745036D01*
X161712580Y-85844588D01*
X161711399Y-85846443D01*
X161645036Y-85948632D01*
X161643173Y-85952626D01*
X161643173Y-85952627D01*
X161640850Y-85957607D01*
X161633518Y-85971113D01*
X161628269Y-85979514D01*
X161626483Y-85983526D01*
X161626479Y-85983533D01*
X161578729Y-86090782D01*
X161577817Y-86092783D01*
X161564900Y-86120485D01*
X161526324Y-86203210D01*
X161525039Y-86207412D01*
X161525039Y-86207413D01*
X161523430Y-86212677D01*
X161518042Y-86227087D01*
X161514018Y-86236125D01*
X161512803Y-86240363D01*
X161480435Y-86353245D01*
X161479817Y-86355333D01*
X161444199Y-86471833D01*
X161442650Y-86481615D01*
X161439320Y-86496629D01*
X161436593Y-86506140D01*
X161435981Y-86510493D01*
X161435980Y-86510499D01*
X161419646Y-86626728D01*
X161419321Y-86628904D01*
X161400256Y-86749270D01*
X161400179Y-86753666D01*
X161400179Y-86753670D01*
X161400083Y-86759180D01*
X161398876Y-86774510D01*
X161397500Y-86784302D01*
X161397500Y-86906062D01*
X161397481Y-86908260D01*
X161395354Y-87030124D01*
X98701000Y-87030124D01*
X98701000Y-82439750D01*
X91857143Y-82439750D01*
X91789022Y-82419748D01*
X91742529Y-82366092D01*
X91731143Y-82313750D01*
X91731143Y-80999750D01*
X141783110Y-80999750D01*
X141802649Y-81310312D01*
X141860957Y-81615976D01*
X141957116Y-81911922D01*
X141958803Y-81915508D01*
X141958805Y-81915512D01*
X142087920Y-82189897D01*
X142087924Y-82189904D01*
X142089608Y-82193483D01*
X142256345Y-82456217D01*
X142454696Y-82695982D01*
X142681533Y-82908997D01*
X142933280Y-83091902D01*
X143205966Y-83241812D01*
X143495290Y-83356363D01*
X143499129Y-83357349D01*
X143499133Y-83357350D01*
X143639165Y-83393304D01*
X143796690Y-83433750D01*
X143800618Y-83434246D01*
X143800622Y-83434247D01*
X143951051Y-83453250D01*
X144105412Y-83472750D01*
X144416588Y-83472750D01*
X144570949Y-83453250D01*
X144721378Y-83434247D01*
X144721382Y-83434246D01*
X144725310Y-83433750D01*
X144882835Y-83393304D01*
X145022867Y-83357350D01*
X145022871Y-83357349D01*
X145026710Y-83356363D01*
X145316034Y-83241812D01*
X145588720Y-83091902D01*
X145840467Y-82908997D01*
X146067304Y-82695982D01*
X146265655Y-82456217D01*
X146432392Y-82193483D01*
X146434076Y-82189904D01*
X146434080Y-82189897D01*
X146563195Y-81915512D01*
X146563197Y-81915508D01*
X146564884Y-81911922D01*
X146661043Y-81615976D01*
X146719351Y-81310312D01*
X146738890Y-80999750D01*
X335433110Y-80999750D01*
X335452649Y-81310312D01*
X335510957Y-81615976D01*
X335607116Y-81911922D01*
X335608803Y-81915508D01*
X335608805Y-81915512D01*
X335737920Y-82189897D01*
X335737924Y-82189904D01*
X335739608Y-82193483D01*
X335906345Y-82456217D01*
X336104696Y-82695982D01*
X336331533Y-82908997D01*
X336583280Y-83091902D01*
X336855966Y-83241812D01*
X337145290Y-83356363D01*
X337149129Y-83357349D01*
X337149133Y-83357350D01*
X337289165Y-83393304D01*
X337446690Y-83433750D01*
X337450618Y-83434246D01*
X337450622Y-83434247D01*
X337601051Y-83453250D01*
X337755412Y-83472750D01*
X338066588Y-83472750D01*
X338220949Y-83453250D01*
X338371378Y-83434247D01*
X338371382Y-83434246D01*
X338375310Y-83433750D01*
X338532835Y-83393304D01*
X338672867Y-83357350D01*
X338672871Y-83357349D01*
X338676710Y-83356363D01*
X338966034Y-83241812D01*
X339238720Y-83091902D01*
X339490467Y-82908997D01*
X339717304Y-82695982D01*
X339915655Y-82456217D01*
X340082392Y-82193483D01*
X340084076Y-82189904D01*
X340084080Y-82189897D01*
X340213195Y-81915512D01*
X340213197Y-81915508D01*
X340214884Y-81911922D01*
X340311043Y-81615976D01*
X340369351Y-81310312D01*
X340388890Y-80999750D01*
X340369351Y-80689188D01*
X340311043Y-80383524D01*
X340214884Y-80087578D01*
X340212650Y-80082830D01*
X340084080Y-79809603D01*
X340084076Y-79809596D01*
X340082392Y-79806017D01*
X339915655Y-79543283D01*
X339717304Y-79303518D01*
X339490467Y-79090503D01*
X339238720Y-78907598D01*
X339202983Y-78887951D01*
X338969496Y-78759591D01*
X338969493Y-78759590D01*
X338966034Y-78757688D01*
X338780770Y-78684337D01*
X338680393Y-78644595D01*
X338680390Y-78644594D01*
X338676710Y-78643137D01*
X338672871Y-78642151D01*
X338672867Y-78642150D01*
X338532835Y-78606196D01*
X338375310Y-78565750D01*
X338371382Y-78565254D01*
X338371378Y-78565253D01*
X338220949Y-78546250D01*
X338066588Y-78526750D01*
X337755412Y-78526750D01*
X337601051Y-78546250D01*
X337450622Y-78565253D01*
X337450618Y-78565254D01*
X337446690Y-78565750D01*
X337289165Y-78606196D01*
X337149133Y-78642150D01*
X337149129Y-78642151D01*
X337145290Y-78643137D01*
X337141610Y-78644594D01*
X337141607Y-78644595D01*
X337041230Y-78684337D01*
X336855966Y-78757688D01*
X336852507Y-78759590D01*
X336852504Y-78759591D01*
X336619018Y-78887951D01*
X336583280Y-78907598D01*
X336331533Y-79090503D01*
X336104696Y-79303518D01*
X335906345Y-79543283D01*
X335739608Y-79806017D01*
X335737924Y-79809596D01*
X335737920Y-79809603D01*
X335609350Y-80082830D01*
X335607116Y-80087578D01*
X335510957Y-80383524D01*
X335452649Y-80689188D01*
X335435350Y-80964152D01*
X335433110Y-80999750D01*
X146738890Y-80999750D01*
X146719351Y-80689188D01*
X146661043Y-80383524D01*
X146564884Y-80087578D01*
X146562650Y-80082830D01*
X146434080Y-79809603D01*
X146434076Y-79809596D01*
X146432392Y-79806017D01*
X146265655Y-79543283D01*
X146067304Y-79303518D01*
X145840467Y-79090503D01*
X145588720Y-78907598D01*
X145552983Y-78887951D01*
X145319496Y-78759591D01*
X145319493Y-78759590D01*
X145316034Y-78757688D01*
X145130770Y-78684337D01*
X145030393Y-78644595D01*
X145030390Y-78644594D01*
X145026710Y-78643137D01*
X145022871Y-78642151D01*
X145022867Y-78642150D01*
X144882835Y-78606196D01*
X144725310Y-78565750D01*
X144721382Y-78565254D01*
X144721378Y-78565253D01*
X144570949Y-78546250D01*
X144416588Y-78526750D01*
X144105412Y-78526750D01*
X143951051Y-78546250D01*
X143800622Y-78565253D01*
X143800618Y-78565254D01*
X143796690Y-78565750D01*
X143639165Y-78606196D01*
X143499133Y-78642150D01*
X143499129Y-78642151D01*
X143495290Y-78643137D01*
X143491610Y-78644594D01*
X143491607Y-78644595D01*
X143391230Y-78684337D01*
X143205966Y-78757688D01*
X143202507Y-78759590D01*
X143202504Y-78759591D01*
X142969018Y-78887951D01*
X142933280Y-78907598D01*
X142681533Y-79090503D01*
X142454696Y-79303518D01*
X142256345Y-79543283D01*
X142089608Y-79806017D01*
X142087924Y-79809596D01*
X142087920Y-79809603D01*
X141959350Y-80082830D01*
X141957116Y-80087578D01*
X141860957Y-80383524D01*
X141802649Y-80689188D01*
X141785350Y-80964152D01*
X141783110Y-80999750D01*
X91731143Y-80999750D01*
X91731143Y-80752750D01*
X86100857Y-80752750D01*
X86100857Y-88698750D01*
X73676000Y-88698750D01*
X73676000Y-77705893D01*
X95734419Y-77705893D01*
X95735259Y-77737965D01*
X95743425Y-78049784D01*
X95746470Y-78071176D01*
X95785376Y-78344546D01*
X95791896Y-78390361D01*
X95879191Y-78723110D01*
X96004152Y-79043620D01*
X96165125Y-79347643D01*
X96167177Y-79350628D01*
X96167182Y-79350637D01*
X96357916Y-79628158D01*
X96357922Y-79628166D01*
X96359973Y-79631150D01*
X96362361Y-79633887D01*
X96546713Y-79845214D01*
X96586116Y-79890383D01*
X96634235Y-79934168D01*
X96828317Y-80110768D01*
X96840556Y-80121905D01*
X97119920Y-80322648D01*
X97420506Y-80489952D01*
X97738328Y-80621599D01*
X97741822Y-80622594D01*
X97741824Y-80622595D01*
X98065675Y-80714846D01*
X98065680Y-80714847D01*
X98069176Y-80715843D01*
X98294554Y-80752750D01*
X98405083Y-80770850D01*
X98405087Y-80770850D01*
X98408663Y-80771436D01*
X98412289Y-80771607D01*
X98748663Y-80787470D01*
X98748664Y-80787470D01*
X98752290Y-80787641D01*
X98762040Y-80786976D01*
X99091886Y-80764490D01*
X99091893Y-80764489D01*
X99095503Y-80764243D01*
X99433751Y-80701553D01*
X99762552Y-80600400D01*
X99998899Y-80496651D01*
X100074217Y-80463589D01*
X100074222Y-80463586D01*
X100077549Y-80462126D01*
X100374564Y-80288564D01*
X100512696Y-80184852D01*
X100646756Y-80084198D01*
X100646760Y-80084195D01*
X100649663Y-80082015D01*
X100899198Y-79845214D01*
X100934771Y-79802670D01*
X101117541Y-79584080D01*
X101119863Y-79581303D01*
X101138875Y-79552360D01*
X101306745Y-79296803D01*
X101306750Y-79296794D01*
X101308732Y-79293777D01*
X101463301Y-78986450D01*
X101498294Y-78890827D01*
X101580275Y-78666804D01*
X101580276Y-78666800D01*
X101581523Y-78663393D01*
X101582368Y-78659871D01*
X101582371Y-78659863D01*
X101660984Y-78332418D01*
X101660985Y-78332414D01*
X101661831Y-78328889D01*
X101662506Y-78323310D01*
X101702823Y-77990151D01*
X101702824Y-77990144D01*
X101703159Y-77987372D01*
X101705064Y-77926772D01*
X101708967Y-77802547D01*
X101709055Y-77799750D01*
X101708894Y-77796954D01*
X101689461Y-77459931D01*
X101689460Y-77459926D01*
X101689252Y-77456311D01*
X101667704Y-77332847D01*
X101630731Y-77120998D01*
X101630729Y-77120991D01*
X101630107Y-77117425D01*
X101603140Y-77026384D01*
X101589950Y-76981857D01*
X101532403Y-76787582D01*
X101514573Y-76745779D01*
X101398860Y-76474494D01*
X101398858Y-76474491D01*
X101397436Y-76471156D01*
X101226994Y-76172339D01*
X101224301Y-76168672D01*
X101025479Y-75898009D01*
X101025477Y-75898006D01*
X101023336Y-75895092D01*
X100789162Y-75643091D01*
X100653183Y-75526955D01*
X100530347Y-75422042D01*
X100530342Y-75422038D01*
X100527575Y-75419675D01*
X100441996Y-75362168D01*
X100245052Y-75229826D01*
X100245048Y-75229824D01*
X100242044Y-75227805D01*
X100106285Y-75157735D01*
X99939572Y-75071688D01*
X99939565Y-75071685D01*
X99936351Y-75070026D01*
X99932970Y-75068748D01*
X99932960Y-75068744D01*
X99704009Y-74982231D01*
X99614550Y-74948427D01*
X99611029Y-74947543D01*
X99611024Y-74947541D01*
X99284422Y-74865505D01*
X99284419Y-74865505D01*
X99280906Y-74864622D01*
X99133256Y-74845183D01*
X98943442Y-74820193D01*
X98943438Y-74820193D01*
X98939840Y-74819719D01*
X98817116Y-74817791D01*
X98599515Y-74814373D01*
X98599511Y-74814373D01*
X98595873Y-74814316D01*
X98592259Y-74814677D01*
X98592253Y-74814677D01*
X98351544Y-74838703D01*
X98253565Y-74848483D01*
X97917453Y-74921767D01*
X97914026Y-74922940D01*
X97914020Y-74922942D01*
X97595422Y-75032023D01*
X97595417Y-75032025D01*
X97591991Y-75033198D01*
X97588723Y-75034757D01*
X97588715Y-75034760D01*
X97430309Y-75110316D01*
X97281494Y-75181297D01*
X97278415Y-75183228D01*
X97278414Y-75183229D01*
X97207354Y-75227805D01*
X96990076Y-75364103D01*
X96987242Y-75366373D01*
X96987237Y-75366377D01*
X96917756Y-75422042D01*
X96721601Y-75579192D01*
X96719048Y-75581772D01*
X96511862Y-75791140D01*
X96479627Y-75823714D01*
X96267361Y-76094426D01*
X96087617Y-76387742D01*
X96086092Y-76391027D01*
X96086090Y-76391031D01*
X95982970Y-76613186D01*
X95942777Y-76699774D01*
X95834761Y-77026384D01*
X95834025Y-77029939D01*
X95834024Y-77029942D01*
X95773404Y-77322667D01*
X95765000Y-77363246D01*
X95734419Y-77705893D01*
X73676000Y-77705893D01*
X73676000Y-74426630D01*
X152662992Y-74426630D01*
X152663355Y-74430778D01*
X152663355Y-74430782D01*
X152688487Y-74718043D01*
X152688488Y-74718051D01*
X152688852Y-74722209D01*
X152753577Y-75011771D01*
X152755019Y-75015691D01*
X152755021Y-75015697D01*
X152825619Y-75207577D01*
X152856029Y-75290230D01*
X152857980Y-75293930D01*
X152857982Y-75293935D01*
X152894978Y-75364103D01*
X152994410Y-75552692D01*
X153166288Y-75794547D01*
X153368642Y-76011546D01*
X153597918Y-76199875D01*
X153850088Y-76356227D01*
X154120722Y-76477855D01*
X154269763Y-76522286D01*
X154401065Y-76561429D01*
X154401067Y-76561429D01*
X154405064Y-76562621D01*
X154409184Y-76563274D01*
X154409186Y-76563274D01*
X154528106Y-76582109D01*
X154698119Y-76609036D01*
X154743146Y-76611081D01*
X154789497Y-76613186D01*
X154789516Y-76613186D01*
X154790916Y-76613250D01*
X154976264Y-76613250D01*
X155197056Y-76598585D01*
X155487910Y-76539938D01*
X155768453Y-76443340D01*
X155772196Y-76441466D01*
X155772200Y-76441464D01*
X156030012Y-76312361D01*
X156030014Y-76312360D01*
X156033756Y-76310486D01*
X156239579Y-76170609D01*
X156275699Y-76146062D01*
X156275702Y-76146060D01*
X156279158Y-76143711D01*
X156500346Y-75945946D01*
X156693436Y-75720664D01*
X156742088Y-75645746D01*
X156852763Y-75475322D01*
X156852765Y-75475319D01*
X156855035Y-75471823D01*
X156982304Y-75203796D01*
X156983584Y-75199810D01*
X157071726Y-74925280D01*
X157071727Y-74925274D01*
X157073006Y-74921292D01*
X157108091Y-74726298D01*
X157124809Y-74633382D01*
X157124810Y-74633377D01*
X157125548Y-74629273D01*
X157134751Y-74426630D01*
X157138819Y-74337040D01*
X157138819Y-74337035D01*
X157139008Y-74332870D01*
X157138645Y-74328718D01*
X157113513Y-74041457D01*
X157113512Y-74041449D01*
X157113148Y-74037291D01*
X157058009Y-73790615D01*
X157049336Y-73751813D01*
X157049336Y-73751811D01*
X157048423Y-73747729D01*
X157015686Y-73658750D01*
X156947418Y-73473202D01*
X156947416Y-73473198D01*
X156945971Y-73469270D01*
X156807590Y-73206808D01*
X156635712Y-72964953D01*
X156433358Y-72747954D01*
X156204082Y-72559625D01*
X155951912Y-72403273D01*
X155681278Y-72281645D01*
X155508610Y-72230170D01*
X155400935Y-72198071D01*
X155400933Y-72198071D01*
X155396936Y-72196879D01*
X155392816Y-72196226D01*
X155392814Y-72196226D01*
X155273894Y-72177391D01*
X155103881Y-72150464D01*
X155058854Y-72148419D01*
X155012503Y-72146314D01*
X155012484Y-72146314D01*
X155011084Y-72146250D01*
X154825736Y-72146250D01*
X154604944Y-72160915D01*
X154314090Y-72219562D01*
X154033547Y-72316160D01*
X154029804Y-72318034D01*
X154029800Y-72318036D01*
X153855179Y-72405480D01*
X153768244Y-72449014D01*
X153665865Y-72518591D01*
X153555819Y-72593378D01*
X153522842Y-72615789D01*
X153301654Y-72813554D01*
X153108564Y-73038836D01*
X153106290Y-73042338D01*
X153106289Y-73042339D01*
X153001698Y-73203396D01*
X152946965Y-73287677D01*
X152819696Y-73555704D01*
X152818417Y-73559687D01*
X152818416Y-73559690D01*
X152741808Y-73798298D01*
X152728994Y-73838208D01*
X152728253Y-73842327D01*
X152693174Y-74037291D01*
X152676452Y-74130227D01*
X152676263Y-74134394D01*
X152676262Y-74134401D01*
X152667060Y-74337040D01*
X152662992Y-74426630D01*
X73676000Y-74426630D01*
X73676000Y-70608750D01*
X73696002Y-70540629D01*
X73749658Y-70494136D01*
X73802000Y-70482750D01*
X160537298Y-70482750D01*
X160538069Y-70482752D01*
X160615652Y-70483226D01*
X160624281Y-70480760D01*
X160624286Y-70480759D01*
X160644048Y-70475111D01*
X160660809Y-70471533D01*
X160681152Y-70468620D01*
X160681162Y-70468617D01*
X160690045Y-70467345D01*
X160713395Y-70456729D01*
X160730907Y-70450286D01*
X160746937Y-70445704D01*
X160755565Y-70443238D01*
X160780548Y-70427476D01*
X160795614Y-70419346D01*
X160822510Y-70407117D01*
X160841939Y-70390376D01*
X160856947Y-70379271D01*
X160871039Y-70370380D01*
X160878631Y-70365590D01*
X160898182Y-70343453D01*
X160910374Y-70331409D01*
X160925949Y-70317989D01*
X160925950Y-70317987D01*
X160932747Y-70312131D01*
X160937626Y-70304603D01*
X160937629Y-70304600D01*
X160946696Y-70290611D01*
X160957986Y-70275737D01*
X160969012Y-70263252D01*
X160974956Y-70256522D01*
X160987510Y-70229784D01*
X160995824Y-70214815D01*
X161011893Y-70190023D01*
X161019239Y-70165459D01*
X161025900Y-70148017D01*
X161032213Y-70134570D01*
X161079268Y-70081407D01*
X161147596Y-70062123D01*
X161215502Y-70082841D01*
X161221833Y-70087289D01*
X161259295Y-70115365D01*
X161395684Y-70166495D01*
X161457866Y-70173250D01*
X161815000Y-70173250D01*
X161883121Y-70193252D01*
X161929614Y-70246908D01*
X161941000Y-70299250D01*
X161941000Y-79118750D01*
X318024000Y-79118750D01*
X318024000Y-78699707D01*
X318445873Y-78699707D01*
X318451154Y-78706761D01*
X318620836Y-78805916D01*
X318630119Y-78810363D01*
X318833302Y-78887951D01*
X318843200Y-78890827D01*
X319056328Y-78934188D01*
X319066556Y-78935407D01*
X319283902Y-78943378D01*
X319294188Y-78942911D01*
X319509921Y-78915275D01*
X319519999Y-78913133D01*
X319728316Y-78850634D01*
X319737914Y-78846872D01*
X319933229Y-78751189D01*
X319942074Y-78745916D01*
X319994964Y-78708190D01*
X320003365Y-78697490D01*
X319996377Y-78684337D01*
X319238812Y-77926772D01*
X319224868Y-77919158D01*
X319223035Y-77919289D01*
X319216420Y-77923540D01*
X318452633Y-78687327D01*
X318445873Y-78699707D01*
X318024000Y-78699707D01*
X318024000Y-78441920D01*
X318044002Y-78373799D01*
X318078502Y-78344546D01*
X318077508Y-78343456D01*
X318084006Y-78337534D01*
X318853978Y-77567562D01*
X318860356Y-77555882D01*
X319590408Y-77555882D01*
X319590539Y-77557715D01*
X319594790Y-77564330D01*
X320356179Y-78325719D01*
X320368190Y-78332278D01*
X320379929Y-78323310D01*
X320414655Y-78274984D01*
X320419969Y-78266139D01*
X320516326Y-78071176D01*
X320520124Y-78061583D01*
X320583348Y-77853488D01*
X320585525Y-77843418D01*
X320614151Y-77625985D01*
X320614670Y-77619310D01*
X320616166Y-77558114D01*
X320615972Y-77551396D01*
X320598004Y-77332847D01*
X320596319Y-77322667D01*
X320543336Y-77111733D01*
X320540016Y-77101982D01*
X320453290Y-76902524D01*
X320448424Y-76893449D01*
X320378951Y-76786062D01*
X320368264Y-76776858D01*
X320358699Y-76781261D01*
X319598022Y-77541938D01*
X319590408Y-77555882D01*
X318860356Y-77555882D01*
X318861592Y-77553618D01*
X318861461Y-77551785D01*
X318857210Y-77545170D01*
X318096059Y-76784019D01*
X318089613Y-76780499D01*
X318039412Y-76730296D01*
X318024000Y-76669912D01*
X318024000Y-76411534D01*
X318447580Y-76411534D01*
X318454325Y-76423865D01*
X319213188Y-77182728D01*
X319227132Y-77190342D01*
X319228965Y-77190211D01*
X319235580Y-77185960D01*
X319998969Y-76422571D01*
X320005990Y-76409714D01*
X319998429Y-76399337D01*
X319990820Y-76394282D01*
X319800429Y-76289180D01*
X319791017Y-76284950D01*
X319586008Y-76212352D01*
X319576037Y-76209718D01*
X319361923Y-76171578D01*
X319351671Y-76170609D01*
X319134191Y-76167952D01*
X319123907Y-76168672D01*
X318908922Y-76201568D01*
X318898903Y-76203955D01*
X318692170Y-76271526D01*
X318682668Y-76275521D01*
X318489759Y-76375943D01*
X318481034Y-76381437D01*
X318456033Y-76400209D01*
X318447580Y-76411534D01*
X318024000Y-76411534D01*
X318024000Y-74426630D01*
X325252992Y-74426630D01*
X325253355Y-74430778D01*
X325253355Y-74430782D01*
X325278487Y-74718043D01*
X325278488Y-74718051D01*
X325278852Y-74722209D01*
X325343577Y-75011771D01*
X325345019Y-75015691D01*
X325345021Y-75015697D01*
X325415619Y-75207577D01*
X325446029Y-75290230D01*
X325447980Y-75293930D01*
X325447982Y-75293935D01*
X325484978Y-75364103D01*
X325584410Y-75552692D01*
X325756288Y-75794547D01*
X325958642Y-76011546D01*
X326187918Y-76199875D01*
X326440088Y-76356227D01*
X326710722Y-76477855D01*
X326859763Y-76522286D01*
X326991065Y-76561429D01*
X326991067Y-76561429D01*
X326995064Y-76562621D01*
X326999184Y-76563274D01*
X326999186Y-76563274D01*
X327118106Y-76582109D01*
X327288119Y-76609036D01*
X327333146Y-76611081D01*
X327379497Y-76613186D01*
X327379516Y-76613186D01*
X327380916Y-76613250D01*
X327566264Y-76613250D01*
X327787056Y-76598585D01*
X328077910Y-76539938D01*
X328358453Y-76443340D01*
X328362196Y-76441466D01*
X328362200Y-76441464D01*
X328620012Y-76312361D01*
X328620014Y-76312360D01*
X328623756Y-76310486D01*
X328829579Y-76170609D01*
X328865699Y-76146062D01*
X328865702Y-76146060D01*
X328869158Y-76143711D01*
X329090346Y-75945946D01*
X329283436Y-75720664D01*
X329332088Y-75645746D01*
X329442763Y-75475322D01*
X329442765Y-75475319D01*
X329445035Y-75471823D01*
X329572304Y-75203796D01*
X329573584Y-75199810D01*
X329661726Y-74925280D01*
X329661727Y-74925274D01*
X329663006Y-74921292D01*
X329698091Y-74726298D01*
X329714809Y-74633382D01*
X329714810Y-74633377D01*
X329715548Y-74629273D01*
X329724751Y-74426630D01*
X329728819Y-74337040D01*
X329728819Y-74337035D01*
X329729008Y-74332870D01*
X329728645Y-74328718D01*
X329703513Y-74041457D01*
X329703512Y-74041449D01*
X329703148Y-74037291D01*
X329648009Y-73790615D01*
X329639336Y-73751813D01*
X329639336Y-73751811D01*
X329638423Y-73747729D01*
X329605686Y-73658750D01*
X329537418Y-73473202D01*
X329537416Y-73473198D01*
X329535971Y-73469270D01*
X329397590Y-73206808D01*
X329225712Y-72964953D01*
X329023358Y-72747954D01*
X328794082Y-72559625D01*
X328541912Y-72403273D01*
X328271278Y-72281645D01*
X328098610Y-72230170D01*
X327990935Y-72198071D01*
X327990933Y-72198071D01*
X327986936Y-72196879D01*
X327982816Y-72196226D01*
X327982814Y-72196226D01*
X327863894Y-72177391D01*
X327693881Y-72150464D01*
X327648854Y-72148419D01*
X327602503Y-72146314D01*
X327602484Y-72146314D01*
X327601084Y-72146250D01*
X327415736Y-72146250D01*
X327194944Y-72160915D01*
X326904090Y-72219562D01*
X326623547Y-72316160D01*
X326619804Y-72318034D01*
X326619800Y-72318036D01*
X326445179Y-72405480D01*
X326358244Y-72449014D01*
X326255865Y-72518591D01*
X326145819Y-72593378D01*
X326112842Y-72615789D01*
X325891654Y-72813554D01*
X325698564Y-73038836D01*
X325696290Y-73042338D01*
X325696289Y-73042339D01*
X325591698Y-73203396D01*
X325536965Y-73287677D01*
X325409696Y-73555704D01*
X325408417Y-73559687D01*
X325408416Y-73559690D01*
X325331808Y-73798298D01*
X325318994Y-73838208D01*
X325318253Y-73842327D01*
X325283174Y-74037291D01*
X325266452Y-74130227D01*
X325266263Y-74134394D01*
X325266262Y-74134401D01*
X325257060Y-74337040D01*
X325252992Y-74426630D01*
X318024000Y-74426630D01*
X318024000Y-72349707D01*
X318445873Y-72349707D01*
X318451154Y-72356761D01*
X318620836Y-72455916D01*
X318630119Y-72460363D01*
X318833302Y-72537951D01*
X318843200Y-72540827D01*
X319056328Y-72584188D01*
X319066556Y-72585407D01*
X319283902Y-72593378D01*
X319294188Y-72592911D01*
X319509921Y-72565275D01*
X319519999Y-72563133D01*
X319728316Y-72500634D01*
X319737914Y-72496872D01*
X319933229Y-72401189D01*
X319942074Y-72395916D01*
X319994964Y-72358190D01*
X320003365Y-72347490D01*
X319996377Y-72334337D01*
X319238812Y-71576772D01*
X319224868Y-71569158D01*
X319223035Y-71569289D01*
X319216420Y-71573540D01*
X318452633Y-72337327D01*
X318445873Y-72349707D01*
X318024000Y-72349707D01*
X318024000Y-72091920D01*
X318044002Y-72023799D01*
X318078502Y-71994546D01*
X318077508Y-71993456D01*
X318084006Y-71987534D01*
X318853978Y-71217562D01*
X318860356Y-71205882D01*
X319590408Y-71205882D01*
X319590539Y-71207715D01*
X319594790Y-71214330D01*
X320356179Y-71975719D01*
X320368190Y-71982278D01*
X320379929Y-71973310D01*
X320414655Y-71924984D01*
X320419969Y-71916139D01*
X320516326Y-71721176D01*
X320520124Y-71711583D01*
X320583348Y-71503488D01*
X320585525Y-71493418D01*
X320614151Y-71275985D01*
X320614670Y-71269310D01*
X320616166Y-71208114D01*
X320615972Y-71201396D01*
X320598004Y-70982847D01*
X320596319Y-70972667D01*
X320543336Y-70761733D01*
X320540016Y-70751982D01*
X320453290Y-70552524D01*
X320448424Y-70543449D01*
X320378951Y-70436062D01*
X320368264Y-70426858D01*
X320358699Y-70431261D01*
X319598022Y-71191938D01*
X319590408Y-71205882D01*
X318860356Y-71205882D01*
X318861592Y-71203618D01*
X318861461Y-71201785D01*
X318857210Y-71195170D01*
X318096059Y-70434019D01*
X318089613Y-70430499D01*
X318039412Y-70380296D01*
X318024000Y-70319912D01*
X318024000Y-70100750D01*
X318039669Y-70047387D01*
X318439842Y-70047387D01*
X318454326Y-70073866D01*
X319213188Y-70832728D01*
X319227132Y-70840342D01*
X319228965Y-70840211D01*
X319235580Y-70835960D01*
X319998969Y-70072571D01*
X320005990Y-70059714D01*
X319998429Y-70049337D01*
X319990820Y-70044282D01*
X319800429Y-69939180D01*
X319791017Y-69934950D01*
X319586008Y-69862352D01*
X319576037Y-69859718D01*
X319361923Y-69821578D01*
X319351671Y-69820609D01*
X319134191Y-69817952D01*
X319123907Y-69818672D01*
X318908922Y-69851568D01*
X318898903Y-69853955D01*
X318692170Y-69921526D01*
X318682668Y-69925521D01*
X318489759Y-70025943D01*
X318481039Y-70031434D01*
X318479650Y-70032477D01*
X318478991Y-70032724D01*
X318476658Y-70034193D01*
X318476355Y-70033711D01*
X318439842Y-70047387D01*
X318039669Y-70047387D01*
X318044002Y-70032629D01*
X318097658Y-69986136D01*
X318150000Y-69974750D01*
X318278000Y-69974750D01*
X318278000Y-69969431D01*
X318283354Y-69967859D01*
X318287252Y-69967859D01*
X318278000Y-69931714D01*
X318278000Y-62978750D01*
X318298002Y-62910629D01*
X318351658Y-62864136D01*
X318404000Y-62852750D01*
X321012000Y-62852750D01*
X321080121Y-62872752D01*
G37*
G04 #@! TD.AperFunction*
M02*
